<svg xmlns="http://www.w3.org/2000/svg" xmlns:xlink="http://www.w3.org/1999/xlink" width="674" height="491.377" viewBox="0 0 674 491.377"><defs><style>.a,.d{fill:none;}.b{fill:#ffde14;}.b,.c,.f{opacity:0;}.c{clip-path:url(#c);}.d{stroke:#fff;stroke-width:2px;}.e,.f{fill:#fff;font-size:20px;}.e{font-family:BrandonGrotesque-Black, Brandon Grotesque;font-weight:800;}.f{font-family:BrandonGrotesque-Medium, Brandon Grotesque;font-weight:500;}.g{filter:url(#a);}</style><filter id="a" x="0" y="0" width="674" height="491.377" filterUnits="userSpaceOnUse"><feOffset dy="6" input="SourceAlpha"/><feGaussianBlur stdDeviation="4" result="b"/><feFlood flood-opacity="0.161"/><feComposite operator="in" in2="b"/><feComposite in="SourceGraphic"/></filter><clipPath id="c"><rect class="a" width="584" height="228"/></clipPath></defs><g transform="translate(12 6)"><g class="g" transform="matrix(1, 0, 0, 1, -12, -6)"><path class="b" d="M21053,21393.379a46,46,0,0,1-46-46V20926h204v155h446v266.379a46,46,0,0,1-46,46Z" transform="translate(-20995 -20920)"/></g><g class="c" transform="translate(33.998 222.998)"><g transform="translate(-721 -171)"><line class="d" x2="584" transform="translate(721 172)"/></g><g transform="translate(-721 -114)"><line class="d" x2="584" transform="translate(721 172)"/></g><g transform="translate(-721 -57)"><line class="d" x2="584" transform="translate(721 172)"/></g><g transform="translate(-721)"><line class="d" x2="584" transform="translate(721 172)"/></g></g><text class="e" transform="translate(0 102.062)"><tspan x="-59.4" y="21">ÉVÈNEMENT</tspan></text><text class="f" transform="translate(33.998 179.998)"><tspan x="0" y="21">LA CONFLUENCE LA RENCONTRE DE LA TRUYÈRE ET DU LOT</tspan></text><text class="f" transform="translate(33.998 238.998)"><tspan x="0" y="21">BARRAGES DE MONTÉZIC, GOLINHAC ET CAMBEYRAC</tspan></text><text class="f" transform="translate(33.998 296.998)"><tspan x="0" y="21">BARRAGE DE CASTELNAU-LASSOUTS</tspan></text><text class="f" transform="translate(33.998 355.998)"><tspan x="0" y="21">BARRAGES DE LANAU ET GRANDVAL</tspan></text><text class="f" transform="translate(33.998 413.998)"><tspan x="0" y="21">BARRAGE DE SARRANS</tspan></text></g></svg>