<svg xmlns="http://www.w3.org/2000/svg" xmlns:xlink="http://www.w3.org/1999/xlink" width="187" height="92.883" viewBox="0 0 187 92.883"><defs><style>.a{fill:none;}.b{clip-path:url(#a);}.c{fill:#5c2e2f;}.c,.d,.e{fill-rule:evenodd;}.d{fill:#00a4d3;}.e{fill:#b1b716;}.f{fill:#2b2e34;}</style><clipPath id="a"><path class="a" d="M0,67.657H187V-25.226H0Z" transform="translate(0 25.226)"/></clipPath></defs><g transform="translate(0 25.226)"><g class="b" transform="translate(0 -25.226)"><g transform="translate(69.186 4.775)"><path class="c" d="M3.626,14.751c.037.074-.011.033.081.059.011-.015.022-.037.033-.055a.329.329,0,0,0,.07-.221c.048,0,.1.007.14.007.018-.295,0-.4.107-.523,0,.007.037-.033.033-.022a.393.393,0,0,1,.085.166c.11.287.515.972.88,1.016.353.243,1.193-.342,1.252.346.184.331-.4.733-.567.817a2.221,2.221,0,0,1-.423.1c-.909.236-2.147-.534-2.154-1.152.155-.191.129-.523.464-.538m1.9-13.34c.052.107-.011.048.114.085.011-.022.029-.048.044-.074a.463.463,0,0,0,.1-.309l.2.011c.018-.412-.007-.563.14-.733,0,.015.052-.044.052-.029A.622.622,0,0,1,6.3.594c.155.405.722,1.351,1.23,1.414.493.339,1.664-.475,1.745.486.258.457-.552,1.016-.788,1.134a3.358,3.358,0,0,1-.6.136c-1.267.328-2.99-.736-3-1.6.21-.265.177-.725.641-.751M9.112-1.575a1.726,1.726,0,0,1,1.013-.736c.125.037.247.07.368.1a11.624,11.624,0,0,0,1.13-.287c.1-.026.365-.092.42.044.085.221-.468.14-.545.493-.258.221-.21.7-.25,1.024a.7.7,0,0,1,.291.376c-.25.328-.166,1.9-.946,1.823a1.027,1.027,0,0,1-.733-.041c-.041-.059-.081-.118-.122-.184C9.539.91,9.51.811,9.326.678L8.785-.106c.015-.077.026-.158.037-.239-.236-.368.066-.976.291-1.23m4.507,2.717c1.418-.214,2.905.122,3.027,1.558-.2.228.026.427-.4.493a.427.427,0,0,1-.225.041.541.541,0,0,0,.011.114.224.224,0,0,1-.118.085,2.165,2.165,0,0,1-.53.085c-.449-.074-.225-.1-.534-.026,0-.026-.026-.092-.044-.2-.309-.773-1.915-.714-2.839-.644a.5.5,0,0,1-.191-.357.443.443,0,0,1,.048-.32.971.971,0,0,1,.3-.287,3.505,3.505,0,0,1,1.5-.545M17.08,9.861c.07.015.14.037.206.055a5,5,0,0,0,.63-.162c.063-.011.206-.052.239.026.044.129-.261.081-.306.276-.144.125-.118.394-.14.578a.356.356,0,0,1,.158.206c-.136.188-.088,1.064-.527,1.02a.577.577,0,0,1-.405-.018l-.074-.107c-.11-.074-.125-.125-.228-.2l-.3-.442c.007-.041.015-.088.022-.136-.136-.2.033-.545.158-.685a.965.965,0,0,1,.567-.412m1.955,1.933c.792-.122,1.627.066,1.7.873-.118.125.007.239-.228.276a.229.229,0,0,1-.125.022.2.2,0,0,0,.007.063.157.157,0,0,1-.066.052,1.534,1.534,0,0,1-.3.044c-.25-.041-.129-.059-.295-.015A.629.629,0,0,1,19.7,13c-.177-.434-1.071-.4-1.591-.361a.283.283,0,0,1-.107-.2.3.3,0,0,1,.026-.184A.642.642,0,0,1,18.2,12.1a1.894,1.894,0,0,1,.836-.306M20,15.37c-.044.041-.088.018-.151.044-.239.1-.214.2-.552.173a1.99,1.99,0,0,0-.626-.438.318.318,0,0,1-.133-.063c0-.018-.022-.055-.022-.07.041-.041.07-.055.063-.265-.033-.044.007-.162-.033-.214-.033,0-.07-.177-.122-.239-.048-.015-.151-.188-.188-.221-.122-.1-.287-.158-.357-.3.007,0,0-.022,0-.022.07-.14.122-.118.243-.21.84.033,1.974.814,1.97,1.646-.041.044-.041.133-.088.177m-2.935-.434a1.572,1.572,0,0,1-.306.376c-.07.063-.158.052-.239.107a.565.565,0,0,1-.46.122l-.221.011c-.029-.007-.144-.063-.18-.07-.066,0-.133.007-.2.011-.007-.026-.018-.059-.026-.085-.052,0-.1.007-.155.011-.044-.029-.063-.133-.1-.169-.055-.059-.088-.022-.118-.125.048-.1-.081-.464-.107-.622-.026-.081-.041-.092-.018-.092a1.163,1.163,0,0,0,1.351-.169,2.186,2.186,0,0,0,.284-.376c.037-.059.166-.074.214-.125.125-.015.191-.015.247.048a1.459,1.459,0,0,1,.041,1.149m-2.909-2.574c.118-.144.1-.4.361-.416.026.055-.007.026.063.048a.152.152,0,0,1,.026-.041.284.284,0,0,0,.055-.173c.033,0,.074,0,.11.007.011-.236,0-.32.081-.412,0,0,.029-.026.029-.018a.351.351,0,0,1,.063.129c.088.228.405.759.685.792.276.191.932-.261.979.276.144.254-.313.571-.442.633a2.419,2.419,0,0,1-.331.081c-.707.18-1.675-.42-1.679-.906m-1.2-5.232c-.063.015-.217-.1-.236-.114,0-.026-.033-.1-.033-.118.066-.074.118-.1.11-.475-.063-.085.007-.295-.059-.383-.063,0-.129-.317-.221-.431-.085-.022-.269-.335-.335-.39-.217-.18-.512-.28-.637-.534.015,0-.018-.041-.007-.041.125-.25.217-.21.431-.372,1.506.048,3.538,1.454,3.527,2.938-.074.077-.081.236-.158.313s-.162.029-.276.077c-.42.177-.376.361-.983.317a3.48,3.48,0,0,0-1.123-.788m-1.653,8.9a.308.308,0,0,1-.162.029.605.605,0,0,0,.011.081.157.157,0,0,1-.088.059,1.47,1.47,0,0,1-.376.063c-.324-.052-.162-.07-.383-.018,0-.018-.018-.063-.033-.14-.221-.552-1.37-.512-2.032-.46a.382.382,0,0,1-.144-.258.335.335,0,0,1,.041-.232.678.678,0,0,1,.214-.206,2.58,2.58,0,0,1,1.075-.394c1.016-.147,2.08.092,2.169,1.123-.147.162.015.306-.291.353m-.648,3.108c-.055.055-.118.022-.2.055-.306.129-.272.258-.707.228a2.61,2.61,0,0,0-.8-.567c-.048.011-.158-.066-.173-.081s-.022-.066-.022-.085c.048-.052.081-.07.081-.342-.048-.055,0-.21-.044-.272-.044,0-.088-.228-.162-.309-.063-.018-.188-.239-.236-.284-.158-.125-.368-.2-.46-.383.011,0-.011-.026,0-.026.092-.18.158-.151.309-.269,1.079.037,2.533,1.046,2.53,2.11-.055.055-.059.169-.114.225M6.307,5.977c-.048-.151-.074-.169-.033-.169a2.071,2.071,0,0,0,2.415-.3,4.232,4.232,0,0,0,.5-.677c.066-.1.3-.133.383-.221.221-.026.342-.026.442.085a2.63,2.63,0,0,1,.07,2.055,2.737,2.737,0,0,1-.545.67c-.129.107-.284.092-.423.188a1,1,0,0,1-.821.217c-.136.011-.265.018-.4.026-.059-.015-.261-.118-.328-.136-.118.015-.239.022-.357.029-.015-.052-.033-.1-.052-.155-.092.007-.184.011-.276.018-.081-.052-.11-.232-.18-.3-.1-.1-.162-.037-.217-.221.085-.169-.144-.828-.184-1.108m.946,8.668a.765.765,0,0,1-.523-.026c-.029-.044-.059-.088-.092-.133-.14-.1-.158-.166-.295-.261l-.387-.56c.011-.059.018-.118.029-.177-.169-.261.044-.7.2-.88a1.257,1.257,0,0,1,.729-.53c.088.029.177.052.265.074a7.274,7.274,0,0,0,.806-.206c.077-.022.261-.066.3.033.063.158-.331.1-.39.35-.184.162-.147.508-.177.736a.5.5,0,0,1,.206.272c-.18.236-.118,1.362-.677,1.307M6.9,18.584a2.259,2.259,0,0,1-.394.482c-.092.074-.206.066-.306.133a.71.71,0,0,1-.589.155c-.1.007-.188.011-.284.022-.041-.015-.184-.085-.236-.1q-.127.017-.254.022c-.011-.037-.026-.074-.037-.11-.066.007-.129.007-.2.015-.055-.037-.081-.166-.129-.221-.074-.074-.114-.026-.158-.158.066-.118-.1-.589-.133-.792-.033-.107-.048-.122-.018-.125a1.476,1.476,0,0,0,1.727-.21,3.274,3.274,0,0,0,.365-.486c.044-.074.214-.1.272-.162.162-.015.247-.015.32.063A1.906,1.906,0,0,1,6.9,18.584m-.4,6.064c2.139,2.08,4.643,5.707,11.26,6.58-.1-.2-.295-.519-.56-.932a5.237,5.237,0,0,1-.825-2.824A6.9,6.9,0,0,1,16.546,26c.486-2.136,2.183-3.649,4.076-4.927.14-.1.287-.188.434-.28a2.238,2.238,0,0,1-.1-.376,4.382,4.382,0,0,1,.166-2.091c.074-.228.994-.593,1.186-.7.173-.1,1.134-.479,1.2-.677A4.3,4.3,0,0,0,23.336,19l.228.3c.99-.563,1.948-1.1,2.765-1.635a6.762,6.762,0,0,0,2.268-2.1,1.969,1.969,0,0,0,.236-.946,2.817,2.817,0,0,0-.416-1.4,7.865,7.865,0,0,1-2.681.619,2.411,2.411,0,0,1-1.425-.394,1.722,1.722,0,0,1-.677-1.432c0-.088.007-.177.015-.261a2.276,2.276,0,0,1,.633-1.454A1.894,1.894,0,0,1,25.619,9.8a4.659,4.659,0,0,1,3.016,1.484c.074.074.144.147.214.225a6.653,6.653,0,0,0,1.635-1.138,3.049,3.049,0,0,0,.806-2.228,7.133,7.133,0,0,0-1.171-3.653,12.888,12.888,0,0,1-2.264-6.933,9.57,9.57,0,0,1,.265-2.239c.081-.335.169-.626.225-.814H1.826A3.168,3.168,0,0,0-1.352-2.348V22.16a20.533,20.533,0,0,1,2.831.309A9.842,9.842,0,0,1,6.5,24.649m27.07-.055a.233.233,0,0,1-.125.022.587.587,0,0,0,.007.063.115.115,0,0,1-.066.048,1.3,1.3,0,0,1-.295.048c-.254-.041-.133-.055-.3-.015,0-.015-.015-.052-.026-.11-.177-.431-1.071-.4-1.591-.357a.306.306,0,0,1-.107-.2.263.263,0,0,1,.029-.18.65.65,0,0,1,.166-.162,2.012,2.012,0,0,1,.84-.306c.792-.114,1.624.07,1.69.876-.11.125.015.239-.225.276m-.5,2.426c-.044.041-.1.015-.158.044-.232.1-.21.2-.549.177a1.926,1.926,0,0,0-.626-.446c-.037.007-.122-.052-.133-.059s-.018-.055-.018-.07c.033-.041.063-.055.059-.265-.033-.044.007-.166-.029-.214-.037,0-.074-.177-.129-.239-.044-.015-.147-.191-.184-.225-.122-.1-.287-.155-.357-.295.007,0-.011-.022,0-.022.066-.14.118-.118.236-.21.847.029,1.981.814,1.977,1.646-.041.044-.044.129-.088.177m-2.655-3.509A.587.587,0,0,1,30,23.492c-.026-.037-.044-.07-.07-.107-.114-.074-.125-.129-.232-.2l-.3-.438c.011-.044.015-.088.022-.136-.133-.2.037-.545.158-.685a.933.933,0,0,1,.571-.412l.2.055a6.087,6.087,0,0,0,.633-.162c.059-.011.2-.052.236.026.048.125-.258.081-.3.272-.147.129-.118.394-.14.574a.4.4,0,0,1,.158.214c-.14.184-.092,1.06-.527,1.02m-.284,3.075a1.572,1.572,0,0,1-.306.376c-.07.059-.158.052-.236.107a.586.586,0,0,1-.46.122c-.077,0-.147.007-.221.015-.033-.011-.147-.066-.184-.077-.063,0-.133.011-.2.015a.569.569,0,0,0-.026-.085c-.055,0-.1.007-.151.007-.048-.026-.066-.129-.1-.169-.059-.055-.088-.018-.125-.122.048-.1-.074-.464-.1-.619-.026-.085-.037-.1-.018-.1a1.155,1.155,0,0,0,1.351-.166,2.377,2.377,0,0,0,.287-.376c.033-.059.166-.077.21-.125.125-.018.191-.015.247.048a1.458,1.458,0,0,1,.041,1.149m-2.909-2.574c.122-.144.1-.405.361-.416.029.055-.007.026.063.048.007-.015.015-.026.026-.044a.268.268,0,0,0,.055-.173c.037,0,.074,0,.11.007.015-.232,0-.317.081-.412,0,.007.029-.022.029-.015a.525.525,0,0,1,.063.129c.088.228.405.759.685.8.28.188.935-.265.979.269.144.258-.309.574-.438.637a2.465,2.465,0,0,1-.335.077c-.707.184-1.675-.416-1.679-.9M36.05-5.5H29.761a3.356,3.356,0,0,1-.1.39c-.055.184-.118.394-.18.648a8.061,8.061,0,0,0-.254,2.014,11.534,11.534,0,0,0,2.055,6.2A8.5,8.5,0,0,1,32.67,8.138a4.436,4.436,0,0,1-1.211,3.2,8.549,8.549,0,0,1-1.793,1.3,4.243,4.243,0,0,1,.549,2,3.359,3.359,0,0,1-.405,1.6,7.963,7.963,0,0,1-2.721,2.592c-.832.541-1.76,1.064-2.7,1.594l.136.18a4.07,4.07,0,0,0,1.948.32c-.309.015-.921.549-1.186.7s-.862.663-1.2.677a3.9,3.9,0,0,1-2.161-.431c-2.04,1.3-3.689,2.739-4.036,4.433a5.46,5.46,0,0,0-.14,1.178,3.837,3.837,0,0,0,.622,2.113,3.984,3.984,0,0,1,.814,1.786c.5.029,1.009.048,1.543.052a30.722,30.722,0,0,0,3.487-.21,84.465,84.465,0,0,1,9.5-.674,43.228,43.228,0,0,1,5.5.431V-2.348A3.162,3.162,0,0,0,36.05-5.5M25.24,11.294a.956.956,0,0,0-.221.611c0,.041-.007.077-.007.114.015.25.052.258.114.317a1.059,1.059,0,0,0,.611.129A5.134,5.134,0,0,0,27.5,12.1a3.284,3.284,0,0,0-1.878-.924.517.517,0,0,0-.379.122m-.862,21.29a32.539,32.539,0,0,1-3.645.221h-.107c-.7,0-1.37-.033-2.007-.085-.037.037-.074.074-.114.11a9.146,9.146,0,0,1-1.911,1.281,13.711,13.711,0,0,1-2.5.961H36.05a3.158,3.158,0,0,0,3.141-2.728,47.656,47.656,0,0,0-5.472-.427,82.34,82.34,0,0,0-9.341.666m-7.7-.114c-6.447-1.149-9.275-4.985-11.149-6.838C4.1,24.181.773,23.665-.763,23.573c-.25-.018-.449-.029-.589-.037v8.388a3.163,3.163,0,0,0,3.178,3.148H10.92a1.09,1.09,0,0,1,.236-.295,2.087,2.087,0,0,1,.534-.342,10.177,10.177,0,0,1,1.318-.475A16.625,16.625,0,0,0,15.935,32.9c.287-.155.534-.3.747-.434" transform="translate(1.352 5.5)"/></g><g transform="translate(32.899 13.052)"><path class="d" d="M2.886,11.742c.029.059-.007.026.063.048.011-.015.018-.029.029-.044.041-.044.044-.088.055-.177.037,0,.074.007.11.007.015-.236,0-.32.085-.416,0,0,.029-.029.026-.018a.305.305,0,0,1,.07.133c.088.228.409.773.7.81.284.191.95-.276,1,.276.144.261-.317.578-.453.648a1.979,1.979,0,0,1-.339.081c-.722.184-1.7-.427-1.712-.921.122-.151.1-.416.368-.427M4.4,1.123c.041.085-.011.037.088.07.011-.018.026-.041.037-.063A.378.378,0,0,0,4.609.884l.158.011C4.782.563,4.76.445,4.882.309c0,.011.041-.033.041-.022A.571.571,0,0,1,5.01.471C5.132.8,5.585,1.546,5.99,1.6c.394.269,1.326-.379,1.388.387.206.365-.438.81-.626.9A2.792,2.792,0,0,1,6.277,3C5.268,3.259,3.9,2.408,3.891,1.723c.166-.214.14-.582.512-.6m2.85-2.379a1.378,1.378,0,0,1,.806-.585c.1.029.2.055.295.081a7.383,7.383,0,0,0,.9-.228c.085-.018.291-.074.335.037.066.173-.372.11-.434.39-.206.177-.169.556-.2.817a.528.528,0,0,1,.228.3c-.2.261-.129,1.51-.751,1.451A.827.827,0,0,1,7.849.976c-.033-.048-.066-.1-.1-.147C7.592.722,7.569.644,7.422.541L6.991-.085c.011-.063.022-.129.029-.188-.184-.295.052-.781.232-.983M10.839.906c1.13-.166,2.316.1,2.412,1.245-.162.18.018.339-.32.39a.346.346,0,0,1-.177.033.447.447,0,0,0,.007.092.188.188,0,0,1-.1.066,1.68,1.68,0,0,1-.42.066c-.357-.059-.18-.077-.427-.018,0-.022-.018-.074-.033-.155-.247-.615-1.524-.571-2.261-.515a.407.407,0,0,1-.155-.284.371.371,0,0,1,.041-.254A.808.808,0,0,1,9.65,1.34,2.847,2.847,0,0,1,10.839.906M13.6,7.85c.055.011.11.029.166.044.129-.015.468-.122.5-.129s.162-.041.188.018c.037.1-.206.066-.239.221-.118.1-.1.313-.114.46a.271.271,0,0,1,.125.166c-.107.147-.07.843-.42.81a.454.454,0,0,1-.324-.015c-.018-.029-.037-.055-.055-.085-.092-.059-.1-.1-.18-.158L13,8.833a.9.9,0,0,0,.015-.11c-.1-.158.029-.434.129-.545A.757.757,0,0,1,13.6,7.85m1.558,1.539c.63-.1,1.292.052,1.348.692-.092.1.007.191-.18.221a.2.2,0,0,1-.1.018.167.167,0,0,0,0,.052.107.107,0,0,1-.052.041,1.083,1.083,0,0,1-.236.033c-.2-.033-.1-.044-.236-.011,0-.011-.011-.041-.022-.085-.14-.346-.851-.32-1.263-.291A.216.216,0,0,1,14.33,9.9a.244.244,0,0,1,.022-.147.542.542,0,0,1,.133-.125,1.51,1.51,0,0,1,.67-.243m.762,2.846c-.033.033-.07.015-.122.033-.188.077-.169.158-.438.14a1.632,1.632,0,0,0-.5-.35c-.029,0-.1-.044-.107-.052s-.015-.044-.015-.055c.029-.029.052-.044.048-.21-.029-.037,0-.129-.026-.169-.026,0-.055-.14-.1-.191-.037-.011-.118-.151-.147-.177-.1-.077-.228-.125-.284-.236,0,0,0-.018,0-.018.055-.11.1-.092.2-.166.663.026,1.569.648,1.569,1.307-.033.037-.037.107-.074.144m-2.338-.346a1.236,1.236,0,0,1-.239.3c-.059.052-.129.041-.191.085a.439.439,0,0,1-.365.1l-.177.011c-.022-.007-.114-.052-.144-.059l-.162.011c-.007-.018-.015-.044-.022-.066-.041,0-.081,0-.122.007-.037-.022-.052-.107-.081-.136-.048-.048-.074-.015-.1-.1.037-.077-.066-.368-.085-.493-.022-.063-.033-.074-.015-.074a.921.921,0,0,0,1.075-.136,1.543,1.543,0,0,0,.225-.3c.029-.048.133-.059.169-.1.1-.011.155-.011.2.037a1.165,1.165,0,0,1,.029.917M11.266,9.842c.092-.118.077-.324.287-.335.022.048-.007.022.052.041a.149.149,0,0,1,.018-.033.208.208,0,0,0,.044-.136.739.739,0,0,1,.088,0c.007-.188,0-.254.063-.328,0,0,.022-.022.022-.015a.21.21,0,0,1,.052.1c.07.18.324.6.545.63.221.155.744-.21.781.221.114.2-.247.453-.35.5a2.135,2.135,0,0,1-.265.063c-.563.144-1.333-.335-1.337-.718m-.954-4.168c-.052.011-.173-.077-.188-.088s-.026-.077-.026-.1c.052-.059.092-.077.088-.379-.052-.066.007-.232-.048-.3-.048,0-.1-.254-.177-.346C9.9,4.444,9.749,4.2,9.7,4.153c-.173-.144-.405-.225-.508-.427.011,0-.015-.029,0-.029.1-.2.169-.166.342-.295,1.2.037,2.817,1.156,2.809,2.334-.059.063-.066.188-.129.254s-.129.022-.221.059c-.331.144-.3.287-.781.25a2.889,2.889,0,0,0-.895-.626M9,12.758a.241.241,0,0,1-.129.022.571.571,0,0,0,.007.066.115.115,0,0,1-.07.048,1.124,1.124,0,0,1-.3.048c-.258-.041-.133-.055-.306-.011,0-.018-.015-.052-.026-.114-.177-.438-1.09-.405-1.616-.365a.294.294,0,0,1-.114-.206.25.25,0,0,1,.029-.184.529.529,0,0,1,.169-.162,2.022,2.022,0,0,1,.854-.317c.81-.118,1.661.074,1.727.895-.114.129.015.243-.228.28m-.515,2.474c-.044.044-.1.018-.158.044-.239.1-.214.206-.56.18a2.086,2.086,0,0,0-.641-.449c-.037.007-.129-.055-.136-.066s-.018-.052-.018-.066c.037-.041.066-.055.063-.272-.037-.044,0-.166-.037-.217-.033,0-.066-.18-.125-.247-.052-.015-.151-.191-.188-.225-.125-.1-.295-.158-.368-.306.007,0-.007-.018,0-.018.074-.144.122-.122.247-.217.858.029,2.014.836,2.01,1.683-.044.041-.044.133-.088.177M5.018,4.757c-.037-.118-.055-.136-.022-.136a1.639,1.639,0,0,0,1.918-.236,3.483,3.483,0,0,0,.405-.538c.052-.085.236-.107.3-.177.177-.022.272-.022.353.066A2.11,2.11,0,0,1,8.03,5.376a2.228,2.228,0,0,1-.434.53c-.1.085-.225.074-.339.151a.775.775,0,0,1-.652.169c-.107.011-.21.018-.317.022-.048-.011-.206-.1-.261-.107-.092.011-.188.015-.284.022-.011-.041-.026-.081-.041-.122-.074,0-.147.007-.221.015-.066-.041-.088-.188-.144-.243-.081-.081-.125-.026-.169-.177.063-.133-.114-.659-.151-.88m.755,6.9a.631.631,0,0,1-.416-.018,1.1,1.1,0,0,0-.074-.107c-.11-.077-.125-.136-.232-.21l-.309-.446c.007-.048.015-.092.022-.14-.133-.21.037-.56.162-.7a.973.973,0,0,1,.582-.423c.066.022.14.041.21.059a6.534,6.534,0,0,0,.644-.166c.059-.015.206-.052.239.029.048.125-.265.077-.313.276-.147.129-.118.405-.14.589a.366.366,0,0,1,.162.214c-.14.191-.092,1.086-.538,1.042m-.284,3.133a1.87,1.87,0,0,1-.313.387c-.074.059-.166.052-.247.107a.559.559,0,0,1-.468.122c-.077.007-.147.011-.225.015-.033-.007-.147-.066-.188-.077-.066.007-.136.011-.2.015-.011-.026-.018-.059-.029-.085-.052,0-.1,0-.158.007-.044-.026-.063-.129-.1-.173-.059-.059-.088-.018-.125-.125.052-.1-.077-.471-.107-.63-.026-.088-.037-.1-.015-.1a1.185,1.185,0,0,0,1.377-.169,2.526,2.526,0,0,0,.291-.387c.033-.059.169-.077.217-.129.129-.011.2-.011.25.052a1.5,1.5,0,0,1,.044,1.171m-.317,4.831c1.7,1.653,3.693,4.544,8.962,5.24-.077-.158-.236-.416-.446-.744a4.174,4.174,0,0,1-.655-2.25,5.376,5.376,0,0,1,.14-1.175,6.878,6.878,0,0,1,3.24-3.921l.346-.221a1.907,1.907,0,0,1-.077-.3,3.5,3.5,0,0,1,.133-1.664c.059-.18.792-.471.943-.56s.906-.383.957-.538a3.348,3.348,0,0,0-.136,1.639l.177.239c.792-.449,1.55-.873,2.206-1.3a5.378,5.378,0,0,0,1.8-1.664,1.534,1.534,0,0,0,.191-.755,2.284,2.284,0,0,0-.331-1.116,6.231,6.231,0,0,1-2.136.493,1.926,1.926,0,0,1-1.134-.313,1.363,1.363,0,0,1-.538-1.141,1.935,1.935,0,0,1,.011-.206,1.812,1.812,0,0,1,.5-1.16,1.5,1.5,0,0,1,1.064-.4,3.691,3.691,0,0,1,2.4,1.182c.055.055.114.114.169.177a5.3,5.3,0,0,0,1.3-.906,2.433,2.433,0,0,0,.644-1.771,5.672,5.672,0,0,0-.932-2.909,10.258,10.258,0,0,1-1.8-5.519,7.692,7.692,0,0,1,.21-1.782c.066-.269.136-.5.177-.648H1.45A2.519,2.519,0,0,0-1.076-1.871V17.641a16.177,16.177,0,0,1,2.253.243,7.85,7.85,0,0,1,4,1.738m21.551-.044a.2.2,0,0,1-.1.018.153.153,0,0,0,0,.048.089.089,0,0,1-.055.037.9.9,0,0,1-.232.041c-.2-.033-.107-.044-.239-.011,0-.011-.011-.041-.018-.088-.14-.342-.854-.317-1.267-.287a.227.227,0,0,1-.085-.158.2.2,0,0,1,.022-.144.466.466,0,0,1,.133-.129,1.607,1.607,0,0,1,.67-.243c.626-.092,1.292.055,1.344.7-.088.1.011.191-.177.221m-.405,1.929c-.033.033-.074.011-.125.037-.184.077-.166.158-.434.14a1.573,1.573,0,0,0-.5-.353c-.029.007-.1-.041-.1-.048s-.018-.044-.018-.055c.029-.033.052-.044.052-.214-.029-.033,0-.129-.026-.166-.029,0-.059-.144-.1-.2-.033-.011-.114-.147-.147-.173-.1-.077-.225-.125-.284-.239.007,0-.007-.018,0-.018.052-.11.1-.092.188-.166.674.026,1.576.652,1.572,1.311-.033.033-.033.1-.07.14M24.2,18.716a.474.474,0,0,1-.324-.015c-.018-.029-.037-.055-.055-.085-.088-.059-.1-.1-.184-.162L23.4,18.1A.921.921,0,0,0,23.417,18c-.1-.162.029-.434.129-.549A.75.75,0,0,1,24,17.121a1.166,1.166,0,0,0,.162.044,3.9,3.9,0,0,0,.5-.129c.048-.007.162-.037.188.022.037.1-.21.063-.243.217-.114.1-.092.313-.11.46a.271.271,0,0,1,.125.166c-.11.147-.074.847-.42.814m-.225,2.445a1.288,1.288,0,0,1-.243.3c-.059.048-.129.041-.188.085a.459.459,0,0,1-.365.1l-.18.011c-.022-.007-.114-.052-.144-.063-.052,0-.107.011-.158.015-.007-.022-.015-.048-.022-.07-.044,0-.081.007-.122.007-.041-.018-.052-.1-.085-.133-.044-.048-.066-.018-.1-.1.037-.077-.063-.368-.081-.493-.022-.066-.033-.077-.015-.077a.921.921,0,0,0,1.075-.133,1.876,1.876,0,0,0,.225-.3c.026-.044.133-.059.169-.1.1-.015.155-.011.2.037a1.173,1.173,0,0,1,.029.913m-2.316-2.047c.1-.114.081-.324.287-.331.022.044,0,.022.052.041a.2.2,0,0,1,.022-.037.226.226,0,0,0,.041-.14c.029,0,.059,0,.088.007.011-.184,0-.25.066-.328,0,.007.022-.018.022-.011a.3.3,0,0,1,.052.1c.07.18.32.6.545.63.221.151.744-.21.777.217.114.2-.247.457-.346.5a1.588,1.588,0,0,1-.269.063c-.563.147-1.333-.331-1.337-.718M28.7-4.378H23.689a2.712,2.712,0,0,1-.077.309c-.041.147-.092.313-.144.515a6.606,6.606,0,0,0-.2,1.605A9.15,9.15,0,0,0,24.9,2.986a6.767,6.767,0,0,1,1.1,3.494,3.519,3.519,0,0,1-.965,2.541,6.836,6.836,0,0,1-1.425,1.035,3.358,3.358,0,0,1,.434,1.587,2.691,2.691,0,0,1-.32,1.274,6.3,6.3,0,0,1-2.169,2.062c-.663.434-1.4.851-2.143,1.27l.107.144a3.245,3.245,0,0,0,1.55.258c-.247.011-.733.434-.943.556s-.689.527-.954.538a3.1,3.1,0,0,1-1.723-.342c-1.624,1.031-2.938,2.183-3.214,3.531a4.437,4.437,0,0,0-.11.935,3.081,3.081,0,0,0,.5,1.683,3.209,3.209,0,0,1,.648,1.421c.394.026.8.041,1.23.044a24.484,24.484,0,0,0,2.773-.169,67.057,67.057,0,0,1,7.563-.538,34.929,34.929,0,0,1,4.382.342V-1.871A2.517,2.517,0,0,0,28.7-4.378M20.088,8.992a.777.777,0,0,0-.173.486.74.74,0,0,0,0,.088c.011.2.041.206.088.254a.9.9,0,0,0,.486.1,4.2,4.2,0,0,0,1.4-.295,2.608,2.608,0,0,0-1.495-.736.41.41,0,0,0-.306.1m-.681,16.945a25.85,25.85,0,0,1-2.9.177h-.085c-.563,0-1.094-.026-1.6-.07-.029.029-.059.063-.088.092a7.286,7.286,0,0,1-1.521,1.02,11.22,11.22,0,0,1-1.992.766H28.7a2.517,2.517,0,0,0,2.5-2.176,38.93,38.93,0,0,0-4.356-.339,66.019,66.019,0,0,0-7.434.53m-6.127-.088C8.148,24.935,5.9,21.879,4.4,20.4,3.265,19.25.614,18.837-.608,18.764c-.2-.015-.357-.022-.468-.026v6.676A2.519,2.519,0,0,0,1.45,27.921H8.692a.84.84,0,0,1,.188-.236,1.61,1.61,0,0,1,.423-.276,8.547,8.547,0,0,1,1.049-.376,13.287,13.287,0,0,0,2.331-.843q.342-.182.6-.342" transform="translate(1.076 4.378)"/></g><g transform="translate(4.994 21.433)"><path class="e" d="M2.138,8.7c.022.044-.007.018.048.037A.173.173,0,0,1,2.208,8.7a.207.207,0,0,0,.037-.129.652.652,0,0,1,.085,0c.011-.177,0-.239.063-.309,0,0,.022-.022.018-.015a.254.254,0,0,1,.052.1c.066.169.3.571.515.6.214.14.707-.2.74.2.11.2-.232.431-.331.482a1.827,1.827,0,0,1-.254.059c-.534.136-1.263-.317-1.267-.681.088-.11.077-.309.272-.317M3.261.834c.029.059-.007.026.066.048A.47.47,0,0,0,3.353.838a.27.27,0,0,0,.059-.18c.037,0,.077,0,.118.007.011-.247,0-.335.085-.434,0,.007.029-.026.029-.018a.475.475,0,0,1,.07.136c.088.239.423.8.722.836.291.2.983-.28,1.027.287.155.269-.324.6-.464.67a2.025,2.025,0,0,1-.35.077c-.747.2-1.76-.434-1.767-.943.125-.158.1-.427.379-.442M5.37-.926a1.006,1.006,0,0,1,.6-.434c.074.018.147.041.217.059a6.535,6.535,0,0,0,.666-.169c.063-.015.217-.055.25.026.048.129-.276.085-.324.291-.151.129-.122.412-.147.6A.39.39,0,0,1,6.8-.33C6.655-.134,6.7.79,6.243.746A.61.61,0,0,1,5.812.724C5.79.687,5.764.654,5.739.613,5.621.536,5.606.481,5.5.4l-.317-.46c.007-.048.015-.1.022-.14-.14-.221.037-.578.169-.725M8.029.672c.836-.125,1.712.074,1.782.921-.118.133.015.25-.236.291a.257.257,0,0,1-.133.022.3.3,0,0,0,0,.07.116.116,0,0,1-.066.048,1.1,1.1,0,0,1-.313.048c-.265-.041-.133-.055-.313-.011a.769.769,0,0,1-.026-.118c-.184-.453-1.13-.42-1.675-.379a.294.294,0,0,1-.114-.21.261.261,0,0,1,.029-.188A.58.58,0,0,1,7.145,1,2.108,2.108,0,0,1,8.029.672m2.04,5.14.122.033a3.482,3.482,0,0,0,.372-.1c.037-.007.122-.029.14.015.026.077-.155.048-.18.162-.085.077-.07.232-.081.342a.206.206,0,0,1,.092.122c-.081.11-.052.626-.309.6a.342.342,0,0,1-.239-.015c-.015-.018-.029-.041-.044-.059-.066-.044-.074-.077-.133-.122l-.18-.258a.538.538,0,0,0,.011-.081c-.077-.118.022-.32.1-.405a.586.586,0,0,1,.335-.243m1.152,1.141c.468-.07.957.041,1,.512-.066.077.007.144-.133.166a.157.157,0,0,1-.074.011.083.083,0,0,0,0,.037.083.083,0,0,1-.037.029.792.792,0,0,1-.177.029c-.151-.026-.077-.037-.177-.011,0-.007-.007-.029-.015-.063-.1-.254-.63-.236-.935-.214a.168.168,0,0,1-.066-.118.18.18,0,0,1,.018-.107.348.348,0,0,1,.1-.092,1.113,1.113,0,0,1,.493-.18m.567,2.106c-.026.026-.055.011-.092.026-.14.059-.125.118-.324.1A1.232,1.232,0,0,0,11,8.927c-.022,0-.074-.029-.081-.033s-.011-.033-.011-.041c.022-.026.041-.033.037-.158-.022-.026,0-.1-.018-.125-.018,0-.041-.1-.074-.144-.026-.007-.088-.11-.11-.129-.07-.059-.169-.092-.21-.177,0,0,0-.011,0-.011.044-.081.074-.07.147-.125.49.018,1.16.482,1.16.972-.026.026-.026.077-.052.1m-1.731-.254a1.13,1.13,0,0,1-.18.221c-.044.037-.1.029-.14.063a.337.337,0,0,1-.272.07c-.044,0-.085,0-.129.007-.018,0-.088-.037-.107-.041-.041,0-.081,0-.122.007,0-.018-.011-.037-.015-.052A.717.717,0,0,0,9,9.089c-.026-.018-.037-.081-.059-.1-.033-.037-.052-.015-.07-.077.026-.055-.048-.272-.063-.365-.015-.048-.026-.055-.011-.055a.679.679,0,0,0,.8-.1,1.222,1.222,0,0,0,.169-.221c.018-.037.1-.044.125-.074.074-.011.114-.007.144.026a.877.877,0,0,1,.026.681M8.342,7.289c.07-.088.059-.239.214-.247.015.033,0,.015.037.029a.059.059,0,0,1,.015-.026.179.179,0,0,0,.033-.1.337.337,0,0,0,.063,0c.007-.136,0-.188.048-.239,0,0,.018-.018.018-.011a.155.155,0,0,1,.037.074c.052.136.239.449.405.468.162.114.549-.155.578.162.085.151-.184.339-.261.372a1.162,1.162,0,0,1-.2.048c-.42.107-.987-.247-.99-.53M7.635,4.2C7.6,4.21,7.51,4.148,7.5,4.137s-.022-.055-.022-.07c.041-.044.07-.059.066-.28-.037-.052.007-.173-.033-.225-.037,0-.077-.188-.133-.258-.048-.011-.158-.2-.2-.228-.129-.107-.3-.166-.376-.317.007,0-.011-.022,0-.022.074-.147.125-.122.25-.217.891.029,2.088.858,2.084,1.731-.044.044-.052.136-.1.184s-.1.018-.162.044c-.247.107-.225.214-.582.188A2.039,2.039,0,0,0,7.635,4.2M6.663,9.446a.187.187,0,0,1-.1.018.258.258,0,0,0,.007.048.109.109,0,0,1-.052.037.974.974,0,0,1-.225.037c-.188-.033-.1-.044-.225-.011a.534.534,0,0,1-.018-.085c-.133-.324-.81-.3-1.2-.269a.219.219,0,0,1-.085-.155A.191.191,0,0,1,4.8,8.931a.376.376,0,0,1,.125-.118,1.5,1.5,0,0,1,.633-.236c.6-.085,1.226.055,1.278.663-.085.1.011.18-.169.206M6.28,11.28c-.029.033-.066.015-.114.033-.18.077-.158.151-.416.133a1.545,1.545,0,0,0-.475-.331c-.026,0-.092-.041-.1-.048s-.015-.041-.015-.052c.026-.029.048-.041.048-.2-.029-.033,0-.122-.026-.162-.026,0-.052-.133-.1-.18-.037-.011-.11-.14-.14-.166-.092-.074-.214-.118-.272-.225.007,0,0-.018,0-.018.055-.1.092-.088.184-.158.633.022,1.491.619,1.491,1.245-.033.033-.037.1-.07.133M3.717,3.522c-.029-.085-.041-.1-.018-.1A1.213,1.213,0,0,0,5.12,3.246a2.237,2.237,0,0,0,.3-.4c.041-.059.177-.077.228-.129.129-.015.2-.015.258.052a1.553,1.553,0,0,1,.044,1.208,1.6,1.6,0,0,1-.324.394c-.074.066-.166.055-.25.114a.583.583,0,0,1-.482.125c-.081.007-.158.011-.236.018-.033-.011-.151-.074-.191-.081-.07.007-.14.011-.21.015l-.033-.088c-.052,0-.107,0-.162.011-.048-.029-.066-.14-.107-.18-.059-.063-.092-.022-.125-.129.048-.1-.085-.49-.11-.655m.56,5.111a.454.454,0,0,1-.309-.015c-.018-.026-.037-.052-.055-.081-.081-.055-.1-.1-.173-.151l-.228-.331c.007-.037.011-.07.018-.1-.1-.155.026-.412.118-.519a.754.754,0,0,1,.431-.313c.052.018.1.029.155.044.125-.015.442-.114.479-.122s.155-.041.177.018c.037.1-.2.059-.228.206-.11.1-.092.3-.107.434a.286.286,0,0,1,.122.162c-.107.14-.07.8-.4.77m-.214,2.32a1.169,1.169,0,0,1-.232.287c-.052.041-.122.037-.18.077a.413.413,0,0,1-.346.092l-.166.011c-.026-.007-.11-.048-.14-.059a1.041,1.041,0,0,1-.151.011c-.007-.018-.015-.041-.022-.063-.037,0-.077,0-.114.007-.033-.022-.048-.1-.077-.129s-.066-.015-.092-.1c.037-.07-.059-.346-.081-.464-.018-.066-.026-.074-.011-.074a.875.875,0,0,0,1.02-.125,1.922,1.922,0,0,0,.214-.287c.026-.044.125-.059.162-.092.1-.011.144-.011.188.033a1.113,1.113,0,0,1,.029.869m-.232,3.575c1.259,1.226,2.736,3.365,6.635,3.881a5.621,5.621,0,0,0-.331-.549A3.123,3.123,0,0,1,9.653,16.2a4.04,4.04,0,0,1,.1-.873,5.1,5.1,0,0,1,2.4-2.9c.081-.059.169-.11.254-.166a1.811,1.811,0,0,1-.059-.225,2.633,2.633,0,0,1,.1-1.23c.044-.133.585-.35.7-.416s.666-.284.707-.4a2.509,2.509,0,0,0-.1,1.211l.133.177c.585-.328,1.149-.644,1.631-.961a3.976,3.976,0,0,0,1.337-1.233,1.157,1.157,0,0,0,.14-.56,1.681,1.681,0,0,0-.243-.825,4.653,4.653,0,0,1-1.58.365,1.441,1.441,0,0,1-.843-.232,1.019,1.019,0,0,1-.4-.843c0-.052,0-.107.007-.155a1.33,1.33,0,0,1,.376-.858,1.1,1.1,0,0,1,.788-.3,2.74,2.74,0,0,1,1.775.873c.044.044.085.088.129.133a3.915,3.915,0,0,0,.961-.67A1.79,1.79,0,0,0,18.442,4.8a4.2,4.2,0,0,0-.689-2.154,7.634,7.634,0,0,1-1.337-4.087,5.573,5.573,0,0,1,.158-1.318c.048-.2.1-.372.133-.482H1.073A1.866,1.866,0,0,0-.8-1.383V13.062a11.915,11.915,0,0,1,1.672.18,5.807,5.807,0,0,1,2.957,1.285M19.786,14.5a.157.157,0,0,1-.074.011c0,.011,0,.037,0,.037a.08.08,0,0,1-.041.029.942.942,0,0,1-.173.029c-.147-.026-.077-.037-.173-.011a.215.215,0,0,1-.015-.063c-.1-.258-.633-.236-.939-.214a.178.178,0,0,1-.063-.118.183.183,0,0,1,.015-.107.4.4,0,0,1,.1-.1,1.181,1.181,0,0,1,.5-.18c.464-.07.957.041.994.515-.066.077.007.14-.133.166m-.3,1.429c-.026.022-.055.007-.092.026-.136.059-.122.118-.324.1a1.145,1.145,0,0,0-.368-.261c-.022,0-.07-.029-.077-.037s-.011-.029-.011-.037c.018-.026.037-.033.033-.158-.018-.026.007-.1-.015-.125-.022,0-.044-.107-.077-.144-.026-.007-.085-.11-.11-.129-.07-.059-.166-.092-.21-.177.007,0,0-.015,0-.015.041-.081.07-.066.14-.122.5.018,1.167.482,1.164.972-.022.026-.026.074-.052.1m-1.565-2.069a.321.321,0,0,1-.239-.011l-.041-.063c-.066-.041-.074-.074-.136-.118l-.18-.258a.762.762,0,0,0,.015-.081c-.077-.122.022-.324.092-.405a.567.567,0,0,1,.339-.243l.118.033a3.26,3.26,0,0,0,.372-.1c.037-.007.122-.029.14.015.029.074-.151.048-.177.162-.088.074-.07.232-.085.339a.21.21,0,0,1,.092.125c-.081.11-.052.626-.309.6m-.166,1.812a1.051,1.051,0,0,1-.18.225c-.041.033-.092.029-.14.063a.329.329,0,0,1-.269.07c-.044,0-.088,0-.133.007-.018,0-.085-.037-.107-.044L16.811,16c-.007-.018-.011-.037-.018-.052-.029,0-.059,0-.088,0s-.041-.077-.063-.1-.048-.011-.07-.074c.029-.055-.044-.272-.063-.365-.015-.048-.022-.055-.011-.059a.678.678,0,0,0,.8-.1,1.567,1.567,0,0,0,.166-.221c.022-.037.1-.048.125-.074.074-.011.114-.007.147.026a.87.87,0,0,1,.022.677m-1.716-1.513c.074-.088.063-.243.214-.247.018.033,0,.015.037.029a.129.129,0,0,1,.018-.029.168.168,0,0,0,.029-.1.4.4,0,0,1,.066,0c.007-.136,0-.188.048-.243,0,0,.018-.015.018-.011a.771.771,0,0,1,.037.077c.052.136.236.449.4.468.166.114.552-.155.578.162.085.151-.184.339-.258.372a1.2,1.2,0,0,1-.2.048c-.416.107-.987-.247-.99-.53m5.206-17.4h-3.7a2.376,2.376,0,0,1-.059.232c-.029.107-.07.232-.107.383a4.851,4.851,0,0,0-.147,1.186,6.782,6.782,0,0,0,1.211,3.653A5.028,5.028,0,0,1,19.255,4.8a2.6,2.6,0,0,1-.711,1.882,5.039,5.039,0,0,1-1.06.766,2.432,2.432,0,0,1,.324,1.175,1.95,1.95,0,0,1-.239.943,4.625,4.625,0,0,1-1.605,1.528c-.49.32-1.035.63-1.583.939l.077.107a2.4,2.4,0,0,0,1.149.191c-.184.007-.541.32-.7.412s-.508.39-.707.4a2.3,2.3,0,0,1-1.274-.254A4.762,4.762,0,0,0,10.547,15.5a3.209,3.209,0,0,0-.085.7,2.278,2.278,0,0,0,.368,1.245,2.347,2.347,0,0,1,.482,1.049c.291.022.593.033.909.033a18.133,18.133,0,0,0,2.055-.125,49.743,49.743,0,0,1,5.6-.4,26.285,26.285,0,0,1,3.244.254V-1.383a1.864,1.864,0,0,0-1.87-1.859m-6.37,9.9a.538.538,0,0,0-.129.361.4.4,0,0,0,0,.066c.007.147.029.151.066.188a.622.622,0,0,0,.361.074,3.079,3.079,0,0,0,1.035-.217,1.943,1.943,0,0,0-1.1-.545.293.293,0,0,0-.225.074m-.508,12.548a19.714,19.714,0,0,1-2.147.129H12.16c-.416,0-.81-.018-1.186-.052l-.066.066a5.35,5.35,0,0,1-1.127.755,7.827,7.827,0,0,1-1.476.567H21.247A1.862,1.862,0,0,0,23.1,19.064a28.936,28.936,0,0,0-3.225-.25,48.5,48.5,0,0,0-5.5.394m-4.536-.066c-3.8-.677-5.464-2.942-6.572-4.032-.84-.854-2.806-1.16-3.712-1.215-.147-.011-.261-.015-.346-.018v4.941a1.863,1.863,0,0,0,1.87,1.856H6.438a.557.557,0,0,1,.136-.173,1.216,1.216,0,0,1,.317-.2,6.65,6.65,0,0,1,.777-.28A9.785,9.785,0,0,0,9.395,19.4c.166-.092.313-.177.438-.254" transform="translate(0.797 3.242)"/></g><g transform="translate(113.766 31.534)"><path class="f" d="M5.5,3.049A3.47,3.47,0,0,0,4.627.586a3.117,3.117,0,0,0-2.39-.935H-.417A.787.787,0,0,0-1.2.487V6.448H1.88a3.741,3.741,0,0,0,2.6-.873A3.2,3.2,0,0,0,5.5,3.049m.9-.022A4.019,4.019,0,0,1,5,6.161a3.736,3.736,0,0,1-.862.574l2.264,6.057-.858,0L3.372,7.011a6.6,6.6,0,0,1-1.786.225H-1.2v5.556h-.854V.5A1.494,1.494,0,0,1-1.426-.8,1.857,1.857,0,0,1-.332-1.137l2.574.011A4.121,4.121,0,0,1,5.261.008,4.081,4.081,0,0,1,6.406,3.027" transform="translate(2.052 1.137)"/></g><g transform="translate(123.45 36.021)"><path class="f" d="M6.2,3.495A4.188,4.188,0,0,0,5.185.586,3.58,3.58,0,0,0,2.379-.578,3.651,3.651,0,0,0-.445.586,4.162,4.162,0,0,0-1.461,3.495,4.153,4.153,0,0,0-.445,6.4,3.618,3.618,0,0,0,2.379,7.563,3.569,3.569,0,0,0,5.174,6.392,4.164,4.164,0,0,0,6.2,3.495m.854.018A4.787,4.787,0,0,1,5.763,6.967,4.441,4.441,0,0,1,2.379,8.322,4.477,4.477,0,0,1-1.009,6.963a4.764,4.764,0,0,1-1.3-3.45A4.773,4.773,0,0,1-1.009.059,4.466,4.466,0,0,1,2.379-1.3a4.475,4.475,0,0,1,3.4,1.37A4.819,4.819,0,0,1,7.055,3.513" transform="translate(2.312 1.303)"/></g><g transform="translate(134.602 36.192)"><path class="f" d="M5.5,3.825A4.493,4.493,0,0,1,4.56,6.807,3.48,3.48,0,0,1,1.725,8.029,3.473,3.473,0,0,1-1.117,6.818a4.535,4.535,0,0,1-.932-2.994V-1.426h.788V4.082a3.359,3.359,0,0,0,.777,2.3,2.8,2.8,0,0,0,2.209.932,2.747,2.747,0,0,0,2.187-.943,3.358,3.358,0,0,0,.781-2.287V-1.426h.8Z" transform="translate(2.049 1.426)"/></g><g transform="translate(143.933 33.562)"><path class="f" d="M2.419,2.467H-.1V9.1c0,.755.269,1.134.81,1.134h.552v.759H.854A1.573,1.573,0,0,1-.9,9.187V-.92H-.1V1.709H2.419Z" transform="translate(0.902 0.92)"/></g><g transform="translate(147.945 36.02)"><path class="f" d="M6.187,3.143A4.024,4.024,0,0,0,5.006.548,3.637,3.637,0,0,0,2.38-.447,3.666,3.666,0,0,0-.26.548a4.02,4.02,0,0,0-1.2,2.6Zm.854.339a1.513,1.513,0,0,1-.048.42h-8.45A3.993,3.993,0,0,0-.293,6.656,3.82,3.82,0,0,0,2.483,7.694,5.765,5.765,0,0,0,4.3,7.4a3.679,3.679,0,0,0,1.576-.887l.593.563A5.321,5.321,0,0,1,2.483,8.453,4.67,4.67,0,0,1-.978,7.116,4.713,4.713,0,0,1-2.307,3.648,4.782,4.782,0,0,1-1,.19,4.469,4.469,0,0,1,2.388-1.172,4.5,4.5,0,0,1,7.042,3.482" transform="translate(2.307 1.172)"/></g><g transform="translate(162.388 31.764)"><path class="f" d="M6.212,7.866V6.611a5.172,5.172,0,0,0-.921-3.178A3.418,3.418,0,0,0,2.382,2.049,3.613,3.613,0,0,0-.442,3.2a4.159,4.159,0,0,0-1.016,2.92A4.187,4.187,0,0,0-.464,9.048,3.663,3.663,0,0,0,2.382,10.19,3.814,3.814,0,0,0,4.1,9.8,4.87,4.87,0,0,0,6.212,7.866m.806-10.8V10.775H6.212V9.048A4.54,4.54,0,0,1,4.1,10.632a4.672,4.672,0,0,1-1.72.317A4.5,4.5,0,0,1-1.027,9.612,4.793,4.793,0,0,1-2.316,6.14,4.849,4.849,0,0,1-1.079,2.664a4.454,4.454,0,0,1,3.413-1.34A4.45,4.45,0,0,1,6.212,3.374V-2.933Z" transform="translate(2.316 2.933)"/></g><g transform="translate(173.332 36.02)"><path class="f" d="M6.19,3.143A4.024,4.024,0,0,0,5.008.548,3.639,3.639,0,0,0,2.379-.447,3.681,3.681,0,0,0-.264.548a4,4,0,0,0-1.189,2.6Zm.854.339A1.668,1.668,0,0,1,7,3.9h-8.45A3.99,3.99,0,0,0-.294,6.656,3.82,3.82,0,0,0,2.482,7.694,5.765,5.765,0,0,0,4.3,7.4a3.679,3.679,0,0,0,1.576-.887l.593.563A5.316,5.316,0,0,1,2.482,8.453,4.67,4.67,0,0,1-.979,7.116,4.713,4.713,0,0,1-2.308,3.648,4.8,4.8,0,0,1-1,.19,4.469,4.469,0,0,1,2.387-1.172,4.5,4.5,0,0,1,7.044,3.482" transform="translate(2.308 1.172)"/></g><g transform="translate(60.996 55.748)"><path class="f" d="M13.33,16.68H11.422V3.362A8.056,8.056,0,0,0,9.515-2.172,6.725,6.725,0,0,0,4.195-4.452,7.027,7.027,0,0,0-1.063-2.46a7.259,7.259,0,0,0-1.951,5.3V16.68H-4.97V-5.847h1.955v3.093A8.365,8.365,0,0,1,4.195-6.219a8.4,8.4,0,0,1,6.856,2.953A10.907,10.907,0,0,1,13.33,3.966Z" transform="translate(4.97 6.219)"/></g><g transform="translate(83.911 55.23)"><path class="f" d="M14.985,7.622a9.724,9.724,0,0,0-2.857-6.289,8.8,8.8,0,0,0-6.37-2.408,8.884,8.884,0,0,0-6.4,2.408A9.656,9.656,0,0,0-3.518,7.622Zm2.069.814A4.028,4.028,0,0,1,16.94,9.46H-3.518A9.69,9.69,0,0,0-.708,16.124a9.214,9.214,0,0,0,6.72,2.519,14.34,14.34,0,0,0,4.4-.722,8.811,8.811,0,0,0,3.811-2.161l1.44,1.373q-3.253,3.341-9.647,3.343a11.283,11.283,0,0,1-8.38-3.244,11.406,11.406,0,0,1-3.218-8.4A11.622,11.622,0,0,1-2.428.461a10.87,10.87,0,0,1,8.207-3.3A10.909,10.909,0,0,1,17.054,8.436" transform="translate(5.587 2.842)"/></g><g transform="translate(111.166 55.817)"><path class="f" d="M8.926,1.625,8.79,1.6q.232,0-2.625-.324A6.656,6.656,0,0,0,.7,4.118q-2.115,2.723-2.117,7.795V21.965H-3.328V-.514h1.907V3.879A8.671,8.671,0,0,1,6.437-.606C6.7-.577,7.53-.459,8.926-.26Z" transform="translate(3.328 0.606)"/></g><g transform="translate(124.914 55.233)"><path class="f" d="M15.038,11.82V8.4A12.477,12.477,0,0,0,12.807.711,8.235,8.235,0,0,0,5.774-2.64,8.792,8.792,0,0,0-1.074.148a10.083,10.083,0,0,0-2.463,7.07,10.13,10.13,0,0,0,2.415,7.092,8.834,8.834,0,0,0,6.9,2.765,9.832,9.832,0,0,0,4.385-.954,12.222,12.222,0,0,0,4.879-4.3m1.951,5.766a11.785,11.785,0,0,1-2.861,8.325A10.512,10.512,0,0,1,6,29.118a17.828,17.828,0,0,1-4.72-.56A44.284,44.284,0,0,1-3.14,26.883l.67-1.951a16.785,16.785,0,0,0,8.557,2.231,8.459,8.459,0,0,0,6.672-2.673,10.009,10.009,0,0,0,2.279-6.9V14.445a14.051,14.051,0,0,1-2.559,2.327,11.4,11.4,0,0,1-2.323,1.373,12.625,12.625,0,0,1-4.393.766,10.92,10.92,0,0,1-8.255-3.244A11.613,11.613,0,0,1-5.607,7.261a11.718,11.718,0,0,1,3-8.41A10.785,10.785,0,0,1,5.667-4.407,10.742,10.742,0,0,1,15.038.567V-3.987H16.99Z" transform="translate(5.607 4.407)"/></g><path class="f" d="M43.878,16.99H41.927V-5.489h1.951Zm.442-27.258a1.263,1.263,0,0,1-1.44,1.418,1.234,1.234,0,0,1-1.373-1.418,1.213,1.213,0,0,1,1.373-1.373q1.441,0,1.44,1.373" transform="translate(111.324 61.659)"/><g transform="translate(160.351 55.643)"><path class="f" d="M14.987,7.62A9.723,9.723,0,0,0,12.13,1.331,8.807,8.807,0,0,0,5.756-1.077,8.869,8.869,0,0,0-.636,1.331,9.676,9.676,0,0,0-3.519,7.62Zm2.069.817a4.018,4.018,0,0,1-.114,1.02H-3.519A9.685,9.685,0,0,0-.706,16.122a9.21,9.21,0,0,0,6.72,2.522,14.2,14.2,0,0,0,4.393-.725,8.767,8.767,0,0,0,3.811-2.161l1.443,1.373q-3.253,3.341-9.647,3.347a11.3,11.3,0,0,1-8.38-3.244A11.408,11.408,0,0,1-5.588,8.827,11.615,11.615,0,0,1-2.425.458a10.862,10.862,0,0,1,8.207-3.3A10.909,10.909,0,0,1,17.057,8.437" transform="translate(5.588 2.841)"/></g><g transform="translate(33.763 49.1)"><path class="f" d="M1.507,12.1A9.688,9.688,0,0,1,4.39,5.8a8.844,8.844,0,0,1,6.392-2.415A8.773,8.773,0,0,1,17.152,5.8a9.753,9.753,0,0,1,2.857,6.3Zm20.575.814a10.915,10.915,0,0,0-11.274-11.3A10.859,10.859,0,0,0,2.6,4.92,11.6,11.6,0,0,0-.562,13.29a11.42,11.42,0,0,0,3.218,8.4,11.283,11.283,0,0,0,8.38,3.244q6.4,0,9.647-3.347l-1.44-1.37a8.789,8.789,0,0,1-3.811,2.161,14.3,14.3,0,0,1-4.4.722A9.23,9.23,0,0,1,4.32,20.591a9.663,9.663,0,0,1-2.813-6.65H21.965a3.893,3.893,0,0,0,.118-1.024m-8.3-17.431H10.944L7.133-.61l2.78-.007Z" transform="translate(0.562 4.513)"/></g><g transform="translate(26.105 49.871)"><path class="f" d="M0,0,.173,5.755h2L2.342,0Z"/></g><g transform="translate(4.899 49.871)"><path class="f" d="M1.507,18.286v-25.1H-.562V18.26A3.6,3.6,0,0,0,.951,21.4a4.444,4.444,0,0,0,2.647.814H15.967V20.308H3.393a1.9,1.9,0,0,1-1.885-2.021" transform="translate(0.562 6.818)"/></g></g></g></svg>