<svg xmlns="http://www.w3.org/2000/svg" xmlns:xlink="http://www.w3.org/1999/xlink" width="92.19" height="78.431" viewBox="0 0 92.19 78.431"><defs><style>.a{fill:none;}.b{clip-path:url(#a);}.c{fill:#bdd542;}.d{fill:#008e9c;}.e{fill:#6cc247;}.f{fill:#fff;}</style><clipPath id="a"><path class="a" d="M0,52.518H92.19V-25.913H0Z" transform="translate(0 25.913)"/></clipPath></defs><g class="b" transform="translate(0 0)"><g transform="translate(23.945 12.747)"><g transform="translate(0 0)"><path class="c" d="M24.312,11.927C62.135,27.23,11.872,46.553-11.61,59.988H56.637V-5.7S5.3,4.236,24.312,11.927" transform="translate(11.61 5.695)"/></g></g><g transform="translate(0 12.747)"><g transform="translate(0 0)"><path class="d" d="M40.518,11.927C21.506,4.236,72.843-5.7,72.843-5.7L49.234-1.572S36.08.6,28.412,3.7l-.267.111c7.329,8.069,10.231,15.779,7.569,17.971-4.846,3.989-31.169,12.2-55.062,16.972v21.24H4.6C28.078,46.553,78.341,27.23,40.518,11.927" transform="translate(19.348 5.695)"/></g></g><g transform="translate(0 0.323)"><g transform="translate(0 0)"><path class="e" d="M32.144,14.84A67.979,67.979,0,0,0-15.349-7.086V49.782C8.544,45.007,34.867,36.8,39.713,32.81c2.662-2.191-.239-9.9-7.569-17.971" transform="translate(15.349 7.086)"/></g></g><g transform="translate(47.518 71.108)"><g transform="translate(0 0)"><path class="f" d="M1.407.935H-.672V-.446H4.987V.935H2.909V6.361h-1.5Z" transform="translate(0.672 0.446)"/></g></g><g transform="translate(52.894 72.606)"><g transform="translate(0 0)"><path class="f" d="M2.84,1.85V1.83A1.387,1.387,0,0,0,1.464.391,1.337,1.337,0,0,0,.108,1.811V1.83A1.387,1.387,0,0,0,1.483,3.269,1.337,1.337,0,0,0,2.84,1.85m-4.2,0V1.83A2.741,2.741,0,0,1,1.483-.883,2.714,2.714,0,0,1,4.3,1.811V1.83A2.741,2.741,0,0,1,1.464,4.544,2.715,2.715,0,0,1-1.356,1.85" transform="translate(1.356 0.883)"/></g></g><g transform="translate(59.587 72.703)"><g transform="translate(0 0)"><path class="f" d="M0,2.284V-1.09H1.483V1.817c0,.7.332,1.06.9,1.06s.927-.36.927-1.06V-1.09H4.791V4.122H3.308V3.383a1.852,1.852,0,0,1-1.532.836A1.712,1.712,0,0,1,0,2.284" transform="translate(0 1.09)"/></g></g><g transform="translate(65.705 72.604)"><g transform="translate(0 0)"><path class="f" d="M0,.068H1.483v1.05A1.615,1.615,0,0,1,3.151-.03V1.516H3.073c-.986,0-1.59.593-1.59,1.838V5.28H0Z" transform="translate(0 0.032)"/></g></g><g transform="translate(69.812 70.817)"><path class="f" d="M111.9,81.237h1.483v5.212H111.9Zm-.039-1.887h1.561v1.313h-1.561Z" transform="translate(-111.857 -79.35)"/></g><g transform="translate(72.319 72.626)"><g transform="translate(0 0)"><path class="f" d="M0,3.113l.635-.973a2.963,2.963,0,0,0,1.649.622c.429,0,.624-.156.624-.389V2.355c0-.321-.507-.428-1.083-.6C1.093,1.538.264,1.2.264.186V.166A1.707,1.707,0,0,1,2.176-1.487a3.624,3.624,0,0,1,1.951.6L3.562.137A3.109,3.109,0,0,0,2.147-.349c-.362,0-.547.156-.547.36V.03c0,.292.5.428,1.064.622C3.4.9,4.245,1.246,4.245,2.2v.019c0,1.157-.868,1.682-2,1.682A3.672,3.672,0,0,1,0,3.113" transform="translate(0 1.487)"/></g></g><g transform="translate(77.627 72.606)"><g transform="translate(0 0)"><path class="f" d="M0,.066H1.483V.8A1.87,1.87,0,0,1,3.025-.032,1.565,1.565,0,0,1,4.5.8,2.156,2.156,0,0,1,6.215-.032,1.671,1.671,0,0,1,7.981,1.884V5.278H6.5V2.371c0-.7-.312-1.06-.868-1.06s-.9.36-.9,1.06V5.278H3.249V2.371c0-.7-.313-1.06-.868-1.06s-.9.36-.9,1.06V5.278H0Z" transform="translate(0 0.032)"/></g></g><g transform="translate(86.643 72.606)"><g transform="translate(0 0)"><path class="f" d="M2.5,1.553A1.12,1.12,0,0,0,1.393.445,1.164,1.164,0,0,0,.262,1.553Zm-3.688.438v-.02A2.6,2.6,0,0,1,1.393-.742,2.541,2.541,0,0,1,3.94,2.088c0,.117-.009.253-.02.389H.281A1.213,1.213,0,0,0,1.559,3.5a1.717,1.717,0,0,0,1.269-.535l.849.749a2.618,2.618,0,0,1-2.136.973A2.612,2.612,0,0,1-1.192,1.991" transform="translate(1.192 0.742)"/></g></g><g transform="translate(11.295 43.761)"><g transform="translate(0 0)"><path class="f" d="M1.612,1.8V1.79A.783.783,0,0,0,.862.939a.784.784,0,0,0-.756.851V1.8a.786.786,0,0,0,.756.85.782.782,0,0,0,.75-.85M-.77,1.8V1.79A1.446,1.446,0,0,1,.637.2,1.189,1.189,0,0,1,1.6.657V-.86h.877v4.2H1.6V2.893a1.135,1.135,0,0,1-.963.5A1.452,1.452,0,0,1-.77,1.8" transform="translate(0.77 0.86)"/></g></g><g transform="translate(15.175 44.818)"><g transform="translate(0 0)"><path class="f" d="M1.475.918A.662.662,0,0,0,.824.263.687.687,0,0,0,.155.918ZM-.7,1.177V1.165A1.536,1.536,0,0,1,.824-.439a1.5,1.5,0,0,1,1.5,1.673c0,.069-.006.149-.011.23H.166a.717.717,0,0,0,.756.6,1.014,1.014,0,0,0,.75-.316l.5.443A1.549,1.549,0,0,1,.91,2.769,1.544,1.544,0,0,1-.7,1.177" transform="translate(0.704 0.439)"/></g></g><g transform="translate(18.617 44.829)"><g transform="translate(0 0)"><path class="f" d="M0,1.84l.375-.575a1.749,1.749,0,0,0,.975.368c.254,0,.369-.092.369-.23V1.392c0-.189-.3-.253-.64-.356C.646.909.156.708.156.11V.1a1.009,1.009,0,0,1,1.13-.978,2.142,2.142,0,0,1,1.153.357L2.1.081a1.838,1.838,0,0,0-.836-.287c-.213,0-.323.092-.323.213V.018c0,.173.294.253.628.368.433.144.934.351.934.914v.011c0,.684-.513.995-1.182.995A2.168,2.168,0,0,1,0,1.84" transform="translate(0 0.879)"/></g></g><g transform="translate(23.726 39.441)"><g transform="translate(0 0)"><path class="f" d="M0,2.947V2.923a4.262,4.262,0,0,1,4.38-4.33A4.34,4.34,0,0,1,7.692-.115L6.516,1.236A3.1,3.1,0,0,0,4.368.291,2.484,2.484,0,0,0,1.932,2.9v.024A2.49,2.49,0,0,0,4.368,5.554a3.039,3.039,0,0,0,2.208-.981L7.752,5.757A4.3,4.3,0,0,1,4.308,7.252,4.233,4.233,0,0,1,0,2.947" transform="translate(0 1.407)"/></g></g><g transform="translate(32.233 39.524)"><g transform="translate(0 0)"><path class="f" d="M3.752,3.335,2.636.62,1.52,3.335ZM1.808-1.593h1.7l3.6,8.432H5.18L4.412,4.962H.86L.092,6.84H-1.792Z" transform="translate(1.792 1.593)"/></g></g><g transform="translate(42 39.584)"><g transform="translate(0 0)"><path class="f" d="M0,3.238V-1.546H1.848V3.19c0,1.364.684,2.069,1.812,2.069s1.812-.682,1.812-2.01v-4.8H7.32V3.178c0,2.536-1.428,3.78-3.684,3.78S0,5.7,0,3.238" transform="translate(0 1.546)"/></g></g><g transform="translate(50.627 39.464)"><g transform="translate(0 0)"><path class="f" d="M0,4.922l1.092-1.3A3.863,3.863,0,0,0,3.6,4.635c.756,0,1.212-.3,1.212-.789V3.821c0-.466-.288-.706-1.692-1.064C1.428,2.327.336,1.86.336.2V.173c0-1.519,1.224-2.524,2.94-2.524A4.87,4.87,0,0,1,6.4-1.285L5.436.1A3.951,3.951,0,0,0,3.252-.723c-.708,0-1.08.323-1.08.729V.03c0,.55.36.729,1.812,1.1,1.7.442,2.664,1.052,2.664,2.512v.023c0,1.663-1.272,2.6-3.084,2.6A5.354,5.354,0,0,1,0,4.922" transform="translate(0 2.35)"/></g></g><g transform="translate(58.185 39.464)"><g transform="translate(0 0)"><path class="f" d="M0,4.922l1.092-1.3A3.863,3.863,0,0,0,3.6,4.635c.756,0,1.212-.3,1.212-.789V3.821c0-.466-.288-.706-1.692-1.064C1.428,2.327.336,1.86.336.2V.173c0-1.519,1.224-2.524,2.94-2.524A4.875,4.875,0,0,1,6.4-1.285L5.436.1A3.948,3.948,0,0,0,3.252-.723c-.708,0-1.08.323-1.08.729V.03c0,.55.36.729,1.812,1.1,1.7.442,2.664,1.052,2.664,2.512v.023c0,1.663-1.272,2.6-3.084,2.6A5.355,5.355,0,0,1,0,4.922" transform="translate(0 2.35)"/></g></g><g transform="translate(66.44 39.584)"><g transform="translate(0 0)"><path class="f" d="M0,0H6.335V1.639h-4.5v1.7H5.8V4.976H1.836V6.734H6.4V8.373H0Z"/></g></g><g transform="translate(73.903 39.464)"><g transform="translate(0 0)"><path class="f" d="M0,4.922l1.092-1.3A3.863,3.863,0,0,0,3.6,4.635c.756,0,1.212-.3,1.212-.789V3.821c0-.466-.288-.706-1.692-1.064C1.428,2.327.336,1.86.336.2V.173c0-1.519,1.224-2.524,2.94-2.524A4.872,4.872,0,0,1,6.4-1.285L5.436.1A3.948,3.948,0,0,0,3.252-.723c-.708,0-1.08.323-1.08.729V.03c0,.55.36.729,1.812,1.1,1.7.442,2.663,1.052,2.663,2.512v.023c0,1.663-1.272,2.6-3.084,2.6A5.354,5.354,0,0,1,0,4.922" transform="translate(0 2.35)"/></g></g><g transform="translate(14.114 56.475)"><g transform="translate(0 0)"><path class="f" d="M1.362,2.268V2.112A1.366,1.366,0,0,0,.8,2C.428,2,.2,2.147.2,2.423v.012c0,.235.2.373.479.373.409,0,.686-.224.686-.541M-.189-.755l.756-.327.64,1.018H.561ZM-.65,2.469V2.458c0-.672.513-.983,1.246-.983a2.208,2.208,0,0,1,.756.126V1.55c0-.362-.225-.563-.663-.563a2.279,2.279,0,0,0-.853.167L-.385.486A2.734,2.734,0,0,1,.814.239,1.429,1.429,0,0,1,1.858.584a1.339,1.339,0,0,1,.334.983V3.354H1.345V3.021a1.19,1.19,0,0,1-.934.391A.955.955,0,0,1-.65,2.469" transform="translate(0.65 1.083)"/></g></g><g transform="translate(19.949 52.181)"><path class="f" d="M95.742,73.327h1.824v8.731H95.742Z" transform="translate(-95.742 -73.327)"/></g><g transform="translate(23.044 52.54)"><g transform="translate(0 0)"><path class="f" d="M0,2.1c.828-.084,1.236-.5,1.176-1.184H.432V-1H2.376V.614A1.965,1.965,0,0,1,.156,2.85Z" transform="translate(0 1.001)"/></g></g><g transform="translate(25.192 52.48)"><g transform="translate(0 0)"><path class="f" d="M3.752,3.335,2.636.62,1.52,3.335ZM1.808-1.593h1.7l3.6,8.432H5.18L4.412,4.962H.86L.092,6.84H-1.792Z" transform="translate(1.792 1.593)"/></g></g><g transform="translate(34.959 52.54)"><g transform="translate(0 0)"><path class="f" d="M0,3.238V-1.546H1.848V3.19c0,1.364.684,2.07,1.812,2.07s1.812-.682,1.812-2.01v-4.8H7.32V3.178c0,2.535-1.428,3.78-3.684,3.78S0,5.7,0,3.238" transform="translate(0 1.546)"/></g></g><g transform="translate(44.162 52.54)"><g transform="translate(0 0)"><path class="f" d="M2.664,3.327H.528V5.169h2.2c.816,0,1.308-.287,1.308-.909V4.236c0-.562-.42-.909-1.368-.909m.9-2.44c0-.55-.432-.861-1.212-.861H.528V1.8h1.7c.816,0,1.332-.263,1.332-.885ZM-1.272-1.589h3.9a3.038,3.038,0,0,1,2.2.741A1.919,1.919,0,0,1,5.4.576V.6A1.947,1.947,0,0,1,4.3,2.406,2.048,2.048,0,0,1,5.868,4.463v.024c0,1.531-1.248,2.3-3.144,2.3h-4Z" transform="translate(1.272 1.589)"/></g></g><g transform="translate(52.824 52.54)"><g transform="translate(0 0)"><path class="f" d="M2.518,2.752c.9,0,1.416-.479,1.416-1.185V1.544c0-.789-.552-1.2-1.452-1.2H.646v2.4ZM-1.2-1.314h3.84a3.354,3.354,0,0,1,2.448.849,2.624,2.624,0,0,1,.72,1.914v.023a2.6,2.6,0,0,1-1.8,2.6l2.052,2.99H3.9L2.1,4.379H.646V7.058H-1.2Z" transform="translate(1.202 1.314)"/></g></g><g transform="translate(60.779 52.48)"><g transform="translate(0 0)"><path class="f" d="M3.752,3.335,2.636.62,1.52,3.335ZM1.808-1.593h1.7l3.6,8.432H5.18L4.412,4.962H.86L.092,6.84H-1.792Z" transform="translate(1.792 1.593)"/></g></g><g transform="translate(70.065 52.396)"><g transform="translate(0 0)"><path class="f" d="M0,2.947V2.923a4.263,4.263,0,0,1,4.381-4.33A4.339,4.339,0,0,1,7.692-.115L6.516,1.237A3.1,3.1,0,0,0,4.368.292,2.484,2.484,0,0,0,1.932,2.9v.024A2.49,2.49,0,0,0,4.368,5.554a3.037,3.037,0,0,0,2.208-.981L7.752,5.758A4.3,4.3,0,0,1,4.308,7.253,4.233,4.233,0,0,1,0,2.947" transform="translate(0 1.407)"/></g></g></g></svg>