<svg xmlns="http://www.w3.org/2000/svg" width="149" height="146.424" viewBox="0 0 149 146.424"><defs><style>.a,.g{fill:#b4b000;}.b{fill:none;}.c,.f{fill:#009fd0;}.d,.e{fill:#512527;}.e,.f,.g{fill-rule:evenodd;}</style></defs><g transform="translate(536.188 -90.28)"><g transform="translate(-439.464 122.871)"><path class="a" d="M-444.874,135.976a11.878,11.878,0,0,0,1.231-.564,4.563,4.563,0,0,1,3.282-.79c.294,0,.528.057.762.057a10.375,10.375,0,0,1,4.162.4c.235.169.528.056.762,0,.118,0,.176-.057.176-.227s-.118-.112-.294-.281c.235-.17.469-.226.646-.451a1.875,1.875,0,0,0,.234-.9c.234-1.635.469-3.271.645-4.906.176-1.805.118-3.666.176-5.527,0-.282-.235-.508-.293-.9-.176-.169-.118-.394-.294-.677a2.025,2.025,0,0,1,2.229-.169c.645.394,1.289.564,1.992.959l.762,1.072a5.912,5.912,0,0,1,.293.732c.235,2.031.469,4.062.646,6.091a10.08,10.08,0,0,1-.118,2.651c0,.169-.059.282,0,.451a2.94,2.94,0,0,1,.176,1.41c-.059.733,2.4.847,2.931.79a1.535,1.535,0,0,1,.7.113,5.733,5.733,0,0,0,2.707-.226.679.679,0,0,1,.469-.17,4.909,4.909,0,0,1,1.95.678c.813.048,3.823-.754,5.276.169.472.3-.029,2.115-.205,2.51-.879,1.354-.557,1.717-2.3,2.63-.234.339-1.251.387-1.661.444a4.929,4.929,0,0,1-1.817.056,15.776,15.776,0,0,0-2.254,0c-.176,0-.293.113-.469.057-1.465-.394-2.872.113-4.337.169-1,.17-1.055.226-1.231,1.184a26.527,26.527,0,0,0-.175,6.825l.175,2.031c0,.226.059.508-.118.677-.468.508-.352,1.3-1.114,1.692-.175,0-.117.226-.175.394-.059.226-.176.339-.293.339a7,7,0,0,0-2.052.79c-.645.226-.821.281-1.231-.339a6.87,6.87,0,0,1-1.173-2.764,25.774,25.774,0,0,1-.645-7.049,15.944,15.944,0,0,0,0-2.37c-.059-1.071-.293-1.353-1.407-1.522a9.064,9.064,0,0,0-2.462-.169,15.6,15.6,0,0,1-3.225-.226.507.507,0,0,1-.352-.113,7.018,7.018,0,0,1-2.345-1.749,7.507,7.507,0,0,1-1.171-2.876Z" transform="translate(445.694 -120.772)"/></g><path class="b" d="M-480.652,97.683c-.2.2-.3.3-.3.4a.267.267,0,0,0,.3.3l.907.2c-.3-.3-.2-.5-.5-.807C-480.349,97.683-480.449,97.683-480.652,97.683Z" transform="translate(3.803 0.51)"/><path class="c" d="M-508.167,129.544a20.629,20.629,0,0,0-.4-5.547v-.3c0-1.513-.3-3.026-.4-4.64a74.418,74.418,0,0,1,0-9.481,17.261,17.261,0,0,0,.3-3.933,24.18,24.18,0,0,1,.706-7.666,7.7,7.7,0,0,0,.2-3.026,3.119,3.119,0,0,0-1.916-2.925,4.334,4.334,0,0,0-1.716-.6c-.807-.3-1.714-.3-2.521-.6l-.907-.3a2.731,2.731,0,0,0-1.513.3c-.3.3-.5.3-.807.6a15.518,15.518,0,0,1-2.824,2.017l-4.74,2.925c-2.319,1.513-4.74,2.925-7.161,4.438a27.81,27.81,0,0,1-4.034,2.623c-.3.3-.4.5-.1.806l.5.5,2.118,1.009,1.311.4a9.135,9.135,0,0,0,5.244-.6l2.32-1.21c1.512-.707,3.228-1.21,4.74-1.916a5.183,5.183,0,0,1,.907-.2.683.683,0,0,1,.909.6,6.893,6.893,0,0,1-.2,2.018c-.5,2.319-.907,4.841-1.21,7.362-.3,2.421-.606,4.741-1.109,7.161l-.2,1.412a36.9,36.9,0,0,0-.5,5.749,9.082,9.082,0,0,0-.2,1.109l-.705,5.346c-.3,1.512-.3,2.622-.606,4.135a41.226,41.226,0,0,0-.706,6.051,20.081,20.081,0,0,1-.5,3.43,20.172,20.172,0,0,0-.5,3.429,5.515,5.515,0,0,0,.807,2.925,33.761,33.761,0,0,0,2.421,3.227,5.637,5.637,0,0,1,3.026.5c1.109.4,2.219.807,3.328,1.109a2.318,2.318,0,0,0,1.816.1,6.789,6.789,0,0,0,3.025-1.311,2.6,2.6,0,0,0,1.109-1.412l.807-2.623a2.944,2.944,0,0,0,.1-1.614,86.881,86.881,0,0,1-.1-8.876,25.79,25.79,0,0,0,.3-3.933,17.467,17.467,0,0,0-.2-6.052A21.1,21.1,0,0,1-508.167,129.544Z" transform="translate(0 0.016)"/><path class="a" d="M-395.522,129.544a20.589,20.589,0,0,0-.4-5.547v-.3c0-1.513-.3-3.026-.4-4.64a74.435,74.435,0,0,1,0-9.481,17.261,17.261,0,0,0,.3-3.933,24.179,24.179,0,0,1,.707-7.666,7.679,7.679,0,0,0,.2-3.026,3.117,3.117,0,0,0-1.915-2.925,4.334,4.334,0,0,0-1.715-.6c-.807-.3-1.714-.3-2.521-.6l-.907-.3a2.73,2.73,0,0,0-1.513.3c-.3.3-.5.3-.807.6a15.517,15.517,0,0,1-2.824,2.017l-4.74,2.925c-2.319,1.513-4.74,2.925-7.161,4.438a27.81,27.81,0,0,1-4.034,2.623c-.3.3-.4.5-.1.806l.5.5,2.118,1.009,1.311.4a9.136,9.136,0,0,0,5.244-.6l2.32-1.21c1.512-.707,3.228-1.21,4.74-1.916a5.162,5.162,0,0,1,.907-.2.683.683,0,0,1,.908.6,6.894,6.894,0,0,1-.2,2.018c-.5,2.319-.907,4.841-1.211,7.362-.3,2.421-.6,4.741-1.108,7.161l-.2,1.412a36.9,36.9,0,0,0-.5,5.749,9.084,9.084,0,0,0-.2,1.109l-.705,5.346c-.3,1.512-.3,2.622-.606,4.135a41.23,41.23,0,0,0-.705,6.051,20.19,20.19,0,0,1-.5,3.43,20.175,20.175,0,0,0-.5,3.429,5.515,5.515,0,0,0,.807,2.925,33.762,33.762,0,0,0,2.421,3.227,5.637,5.637,0,0,1,3.026.5c1.109.4,2.219.807,3.328,1.109a2.315,2.315,0,0,0,1.815.1,6.788,6.788,0,0,0,3.026-1.311,2.6,2.6,0,0,0,1.109-1.412l.807-2.623a2.944,2.944,0,0,0,.1-1.614,86.89,86.89,0,0,1-.1-8.876,25.785,25.785,0,0,0,.3-3.933,17.466,17.466,0,0,0-.2-6.052A21.092,21.092,0,0,1-395.522,129.544Z" transform="translate(7.755 0.016)"/><path class="c" d="M-470.268,127.1a12.512,12.512,0,0,1-1.311,5.144A45.233,45.233,0,0,0-474.3,139.2c-.3.4-.2.807-.5,1.109a58.677,58.677,0,0,1-4.438,6.657,7.075,7.075,0,0,1-1.815,1.412,1.688,1.688,0,0,1-2.017-.5,13.037,13.037,0,0,1-1.513-1.714c-.2-.1-.3-.4-.4-.705-.807-1.916-2.018-3.632-2.32-5.951l-.807-4.236a22.656,22.656,0,0,1-.6-5.851,16.657,16.657,0,0,0-.3-3.227,7.7,7.7,0,0,1-.2-2.623c-.1-3.227,0-6.455,0-9.683a15.512,15.512,0,0,1,.606-4.336l1.613-5.144a5.379,5.379,0,0,1,.606-1.412l1.008-2.118a1.011,1.011,0,0,0-.6-1.008c-.3-.1-.5-.5-.6-1.009l-.907-.2a.268.268,0,0,1-.3-.3c0-.1.1-.2.3-.4.2,0,.3,0,.4.1.3.3.2.5.5.807l1.21.2a6.143,6.143,0,0,1,3.631,1.714,5.9,5.9,0,0,0,2.018,1.512,15.422,15.422,0,0,1,1.529.869,31.958,31.958,0,0,1,1.01-7.069c-.04-.017-.078-.035-.12-.052a11.643,11.643,0,0,0-5.547-1.816,4.563,4.563,0,0,1-1.31-.1,12.416,12.416,0,0,0-3.328-.3l-4.842.2-2.723,1.816a16.118,16.118,0,0,0-1.311,2.219,21.7,21.7,0,0,1-2.521,4.438l-.3.6a19.787,19.787,0,0,0-1.714,4.64,29.516,29.516,0,0,1-1.311,5.144,31.757,31.757,0,0,0-1.31,5.143c-.3,1.513-.2,2.623-.5,4.135-.4,2.32-.2,4.438-.909,6.758a3.118,3.118,0,0,0-.1,1.008c0,1.513,0,2.825.1,4.135a11.164,11.164,0,0,0,.2,1.816l1.412,5.143a18.352,18.352,0,0,0,1.109,2.825c.807,2.017,1.916,3.833,2.824,5.748a10.978,10.978,0,0,0,1.916,2.723c.707.5,1.009,1.109,1.716,1.614a12.432,12.432,0,0,0,3.429,2.521,9.808,9.808,0,0,0,4.942,1.311c1.614,0,3.228,0,4.841-.1a10.391,10.391,0,0,0,6.758-2.521l1.412-1.211,1.109-1.008a6.368,6.368,0,0,0,2.319-2.32l.807-1.009a3.069,3.069,0,0,0,.707-1.008,39.705,39.705,0,0,1,4.236-7.061c0-.3.1-.807.2-1.512.3-1.211.2-2.32.907-3.43a4.329,4.329,0,0,0,.4-2.722,7.175,7.175,0,0,1,.4-5.245,18.016,18.016,0,0,1-.3-2.164,21.265,21.265,0,0,0-6.587-3.776Q-470.209,124.89-470.268,127.1Z" transform="translate(2.143 0.243)"/><g transform="translate(-460.978 144.681)"><path class="c" d="M-465.818,148.377a.11.11,0,0,1,.08.136C-465.8,148.473-465.838,148.434-465.818,148.377Zm.2,4-.06-.038a2.7,2.7,0,0,1,.04-.309.51.51,0,0,1-.1-.251c.061-.059.041-.1.1-.155l-.08-.174a.077.077,0,0,0,.061-.019c0-.058-.02-.038-.02-.1a.5.5,0,0,1-.061-.232,1.464,1.464,0,0,0-.04-.233.563.563,0,0,1,.14-.309c0-.136,0-.115-.06-.193v-.077a.576.576,0,0,0-.02-.483c0-.04,0-.078.02-.1a.2.2,0,0,1-.061-.1c.061-.078.121-.136.061-.271l.06-.135a.433.433,0,0,1-.019-.174c0-.077-.061-.115,0-.193.019,0,.04.019.06.019,0-.058.019-.077.019-.135,0-.019-.019-.059-.019-.078l.041-.038a.54.54,0,0,0-.041-.425c.06,0,.06.019.121.019,0-.077-.02-.135-.02-.213l.08-.058a.251.251,0,0,0-.08-.136.123.123,0,0,1,.121-.058l-.041-.115.1-.117c-.06-.136,0-.251-.019-.387v-.1c.019-.019.04-.038.04-.058l.04-.329a.293.293,0,0,0-.1-.27c.061,0,.081-.019.141-.019.02-.019,0-.058-.041-.1a.163.163,0,0,0,.061-.115.119.119,0,0,1,0-.117c.02-.058,0-.1,0-.154l-.061-.059a.685.685,0,0,0,.041-.347.632.632,0,0,1,.1-.31l.08-.154c.02,0,.041-.02.061-.02.06-.135-.061-.154-.081-.212,0-.078.061-.04.121-.1l.242-.677c-.061-.019-.041-.038-.1-.1a.154.154,0,0,0,.1.019c.02-.019.02-.04.04-.1-.06-.019-.04-.038-.1-.058l.1-.1c0,.04,0,.059.02.078a.238.238,0,0,0,.141-.136l-.1-.077.019.019a.226.226,0,0,1-.08-.038c0-.058.061,0,.121-.058,0-.1-.041-.213.02-.31l.12-.1.041-.136a.859.859,0,0,1,.161-.213c0-.019.019-.019.019-.038a.332.332,0,0,0,.161-.136l.5-.464c.081-.077.2-.135.282-.213a1.84,1.84,0,0,1,.583-.368.641.641,0,0,0,.141-.115c.08-.058.16-.077.261-.136a.213.213,0,0,1,.24-.019c.1.059.221.1.281.232a.321.321,0,0,0,.262-.019.885.885,0,0,0,.2.193c.06,0,.121.019.2.019a.287.287,0,0,0,.1.136h.16a1.556,1.556,0,0,1,.382.29.223.223,0,0,1,.08.213,1.811,1.811,0,0,0,.161.29h-.02l.08.291c0,.019-.02.038-.041.1a.142.142,0,0,1,.041.078.977.977,0,0,1,.1.232l.06.541c.02.077,0,.155.061.232s.04.155.06.213c.061.174.04.368.1.542-.061.213.06.425.06.638.02,0,.02,0,.02.019l.061-.04c.06.059-.02.1,0,.155a.411.411,0,0,0-.02.174h-.02l.041.115c-.02.059-.041.04-.061.1a1.529,1.529,0,0,1-.08.851c.16.135.08.309.141.483,0,.019-.02.038-.041.058l.041.155-.041.1a.207.207,0,0,0,.041.078c0,.077-.02.115,0,.174,0,.058.019.058.019.115l.041.251v.464a.855.855,0,0,0,.039.193v.445l.061.078v.213a.068.068,0,0,0,.02.058.208.208,0,0,0-.041.077l.061.078-.041.192a.6.6,0,0,1,.041.523,1.475,1.475,0,0,0,.04.232l-.06.058a.2.2,0,0,1,.06.1c-.06.019-.1.058-.08.115a.6.6,0,0,1,0,.523.634.634,0,0,1-.02.213c-.02.173-.06.328-.08.541,0,.058.02.117.02.174l-.161.077v.117l-.24.173v.02l-.121.038v.135c-.06.019-.08.059-.14.078-.061-.019-.121-.078-.2-.019l.041.115c0,.019-.019.038-.019.058a1.044,1.044,0,0,0,.019.271.755.755,0,0,0-.121.019.433.433,0,0,0-.06.154,1.993,1.993,0,0,1-.14-.347.219.219,0,0,0-.1-.058c-.06.058-.019.1,0,.154-.06.078-.1.019-.16,0l-.06-.135c-.08.058,0,.1-.02.115-.02.058-.041.058-.1.038s-.06-.058-.121-.077l-.121-.115c.081-.136-.019-.174-.08-.233v-.115a3.5,3.5,0,0,0-.22-.348.341.341,0,0,0-.041-.232v-.019a1.188,1.188,0,0,0-.08-.541v-.271a2.486,2.486,0,0,1-.041-.386c-.02-.019-.02-.059-.02-.117v-.077a2.347,2.347,0,0,1,0-.368,3.246,3.246,0,0,0,0-.445.508.508,0,0,0-.06-.29.416.416,0,0,0,.041-.348,3.128,3.128,0,0,0-.02-.445,1.444,1.444,0,0,0-.041-.27l-.06-.058-.141.193a.2.2,0,0,0-.2.058.254.254,0,0,1-.2.038c-.081.1-.221.1-.322.155l-.422-.117-.16.136-.182-.213v-.019c-.019,0-.06-.019-.08-.019-.06.058-.04.115-.04.173l-.061.078a.207.207,0,0,1,.041.077c-.06.29-.041.561-.1.87a.117.117,0,0,0,.019.193,4.436,4.436,0,0,0-.04.483,3.484,3.484,0,0,0-.08.483,1.425,1.425,0,0,1,.1.561c.019.058.019.058.08.117-.061.232.041.464-.02.754l.041.464a1.858,1.858,0,0,0,.1.483l-.1.078-.041.213a.214.214,0,0,1-.1.058c-.08.077-.04.213-.181.232a1.461,1.461,0,0,0-.783-.193c-.06-.058-.041-.077-.06-.1-.1-.059-.221,0-.3-.136l-.121.1-.08-.077c.02-.058.061-.077.08-.136a.285.285,0,0,0-.08-.115c-.08.058-.141.038-.221.1l-.06-.077.1-.038v-.1a.25.25,0,0,0,.061-.328.906.906,0,0,0-.061-.29c-.019-.059-.14-.02-.16-.155.041,0,.061,0,.081.019l.06-.077-.06-.117c.019-.019.019-.058.019-.115C-465.637,152.4-465.617,152.4-465.617,152.379Zm.361-7.346h0Zm.041,6.283c.02,0,.02,0,.02-.019C-465.215,151.3-465.215,151.3-465.215,151.315Zm.16-6.418c.02.019.02.058.02.1C-465.074,144.954-465.074,144.916-465.055,144.9Zm.1-.7c.041-.019.061,0,.041.058A.239.239,0,0,0-464.954,144.2Zm.382-.657h-.019v-.019Zm.181-.251v0h0Zm.122-.291-.081.078c0,.058-.041.077.041.135A.162.162,0,0,0-464.27,143Zm.964,4.08.221-.038a.237.237,0,0,1,.2-.019c.02,0,.02-.019.041-.019a3.234,3.234,0,0,0,.441-.019c.061,0,.1,0,.121.019l.08-.058c.061,0,.081-.02.141-.02a.2.2,0,0,1,.06-.1,4.554,4.554,0,0,1-.019-.5V146.1c.019-.059,0-.04,0-.1a3.89,3.89,0,0,0,.019-.483,1.877,1.877,0,0,1,0-.329,1.249,1.249,0,0,0,.041-.386c.02-.232,0-.464,0-.7l-.041-.561-.06-.27c-.02-.059-.041-.078-.06-.059l-.1.155a1.7,1.7,0,0,0-.341.425l-.181.329v.038a.248.248,0,0,1-.061.154c-.019.02-.04.04-.04.059-.02.1-.08.115-.1.174l-.061.135-.06.193a1.612,1.612,0,0,0-.08.425l-.06.155a2.609,2.609,0,0,0-.081.386,1.955,1.955,0,0,1-.1.465c0,.058-.02.058-.02.115,0,.1-.02.193-.02.29a.528.528,0,0,0,0,.252c.02.019.02.038.02.1C-463.346,147.062-463.367,147.081-463.306,147.081Zm1.746,5.994v-.02l.021.02Zm.041.077v0Zm1.085.136c0-.02-.02-.02-.039-.02v.02c.019,0,.019,0,.039.019Zm.523-.58v-.019h-.041v.019Z" transform="translate(465.823 -141.177)"/><path class="c" d="M-457.9,152.854c0-.136-.06-.232-.06-.368a.465.465,0,0,1-.02-.193.978.978,0,0,1-.02-.27.619.619,0,0,1,0-.193c0-.058.02-.117.02-.174a.293.293,0,0,1,.1-.27.157.157,0,0,1-.1-.019v-.174c0-.136-.02-.213-.02-.348s.02-.232.02-.367a2.005,2.005,0,0,0-.02-.348c-.02-.155,0-.328-.02-.5a5.1,5.1,0,0,1,.02-.542.73.73,0,0,1,.041-.115v-.078a2.717,2.717,0,0,1,0-.811.652.652,0,0,0,0-.193,1.261,1.261,0,0,1,.041-.232.486.486,0,0,1,.019-.193v-.425c0-.058-.019-.136-.019-.213l.04-.232a.425.425,0,0,0,.02-.213.394.394,0,0,1,.019-.213.689.689,0,0,0,.041-.348c.02-.135.041-.213.041-.27a2.915,2.915,0,0,1,.06-.832c0-.135.02-.232.02-.328a.572.572,0,0,1,.041-.329.28.28,0,0,0,0-.251.106.106,0,0,1,0-.174.428.428,0,0,0,.019-.173.364.364,0,0,0,.02-.155.068.068,0,0,0,.02-.058.493.493,0,0,1,.1-.425.259.259,0,0,0-.041-.31l.3-.27a.334.334,0,0,1,.2-.077c.061,0,.041-.019.1-.019a.537.537,0,0,1,.3-.019,1.742,1.742,0,0,0,.261.038,2.688,2.688,0,0,1,.422.1.155.155,0,0,1,.08.038l.141.136c.06.136.2.174.261.27a.727.727,0,0,1,.041.117l.04.058c.02.019.02.077.02.136a.469.469,0,0,0,.041.135l.16.464c.061.078.04.155.061.232l.06.291c.02,0,.02,0,.02.019-.061.174.06.328.12.483l.041.174c0,.038,0,.077.02.1a.608.608,0,0,1,.06.27.116.116,0,0,0,.041.136l.06.077c.061.291.2.484.282.774a.144.144,0,0,0,.019.1.466.466,0,0,0,.041.136c0,.019.019.038.019.058-.06.078.02.136.041.213l.08.445c.02.019.02.078.02.136.06.155.08.29.141.445.06.1.04.193.1.29l.041.1.06.174.041.058a.115.115,0,0,0,.061-.116c.06-.251.08-.5.14-.754,0-.019.02-.058.041-.136v-.038a1.372,1.372,0,0,0,.019-.27.955.955,0,0,1,.041-.213c.02-.136.061-.213.08-.348a2.908,2.908,0,0,0,.041-.29c.019-.058.019-.077.041-.1l.04-.115a.207.207,0,0,1,.041-.077l.019-.02c-.019-.1.061-.154.081-.232a1.112,1.112,0,0,1,.019-.251v-.058a1.079,1.079,0,0,0,.061-.368c-.02-.019-.02-.038.019-.077.081-.077.061-.155.081-.251l.04-.406.06-.5a.13.13,0,0,1,.1-.136c.019-.019.04-.038.04-.058.02-.1.08-.174.02-.31v-.077a1.242,1.242,0,0,0,.1-.368c.02-.058,0-.1-.041-.154.021-.1.021-.155-.04-.193a2.082,2.082,0,0,1,.08-.251c0-.019.041-.019.06-.078.061-.154.182-.27.2-.445.02-.155.121-.232.262-.309a.126.126,0,0,1,.08.019c.06,0,.06.019.121.019a.3.3,0,0,0,.12.155c.1.058.161.058.221.019.02,0,.02.019.08.019a.408.408,0,0,0-.08.29c.02.058.041.1.061.1.08.038.1.1.04.193a.467.467,0,0,0-.1.347.77.77,0,0,1-.019.425.728.728,0,0,0,.019.5.442.442,0,0,1,0,.232c0,.059.02.078.02.136s.02.116.02.174,0,.1.02.115a.263.263,0,0,1,0,.174c-.02.019-.02.058-.02.136,0,.1-.02.174-.02.27,0,.058,0,.1.02.117a.292.292,0,0,1-.02.232l-.061.192a.392.392,0,0,0,0,.213.787.787,0,0,1,.021.291.148.148,0,0,0,0,.135.583.583,0,0,1,.019.252v.019c.061.135,0,.193,0,.328,0,.058-.019.038-.019.1a.315.315,0,0,0,0,.27v.077a1.8,1.8,0,0,1-.081.445.6.6,0,0,1-.019.213l-.041.232a.411.411,0,0,0-.02.174l-.041.193v.155a.375.375,0,0,0-.019.154,2.272,2.272,0,0,1-.1.5c0,.058,0,.1.019.115l.061.445c0,.058-.02.136-.02.193s-.02.077-.02.136a.331.331,0,0,1-.06.232.155.155,0,0,0,0,.135.613.613,0,0,1,0,.271v.1a.631.631,0,0,1-.02.213c-.02.019-.02.058-.02.116,0,.135.02.213.02.347v.058a.115.115,0,0,0,0,.155.058.058,0,0,1,.02.038c-.06.136.04.251.1.348a.907.907,0,0,1,.04.29v.136a.292.292,0,0,0,.041.213c.02.019,0,.058,0,.115a.257.257,0,0,0,0,.174.63.63,0,0,1,.1.329,1.021,1.021,0,0,0,.04.213.243.243,0,0,1-.019.213.49.49,0,0,0-.06.232.364.364,0,0,1-.081.29c0,.019-.02.038-.08.038-.02,0-.041,0-.041-.019-.1,0-.12.038-.1.136l-.02.019-.081.038a.861.861,0,0,1-.441.019,1.672,1.672,0,0,1-.422-.1c-.019-.02-.019-.02-.04-.02a.255.255,0,0,1-.221-.135.207.207,0,0,0-.14-.077h-.1c-.121,0-.2-.02-.221-.078l-.02-.019c-.1-.038-.161-.1-.161-.193l-.1-.1c-.019-.019-.06-.019-.08-.078a.376.376,0,0,1-.16-.27.443.443,0,0,1,0-.232.343.343,0,0,0-.04-.309,2.073,2.073,0,0,1-.081-.193l-.181-.425c-.08-.213-.161-.348-.22-.561l-.181-.406a5.39,5.39,0,0,1-.2-.522l-.221-.657a7.59,7.59,0,0,1-.261-.793.814.814,0,0,0-.1-.173l-.281-.484-.02-.019c-.019,0-.019,0-.04-.019v.1c-.02.058,0,.115-.061.173a.353.353,0,0,0-.04.291.473.473,0,0,1,0,.232,2.9,2.9,0,0,0-.041.29.091.091,0,0,0,.02.117.12.12,0,0,1,.02.135.956.956,0,0,0-.041.174l-.06.406-.061.348a.141.141,0,0,1-.04.077.158.158,0,0,0,0,.136c.02.058-.02.135-.041.192a.378.378,0,0,0-.04.174,1.161,1.161,0,0,1-.061.638l-.04.155a1.08,1.08,0,0,1-.081.347c-.079.213-.2.348-.261.561a3.76,3.76,0,0,0-.2.406.482.482,0,0,1-.441.27.29.29,0,0,1-.181,0,2.429,2.429,0,0,1-.322-.038A1.326,1.326,0,0,0-457.9,152.854Z" transform="translate(466.36 -141.168)"/><path class="c" d="M-447.745,141.584a.127.127,0,0,1-.081.019,1.341,1.341,0,0,0-.4.058.075.075,0,0,1-.061.02.143.143,0,0,0-.041.077c0,.019.02.038.061.038h.181c.08,0,.141-.038.221.019.06.019.1.019.121,0,.1-.058.22,0,.3-.1-.06-.078-.14-.019-.2-.078a.233.233,0,0,1,.221-.058l.663.232a.263.263,0,0,1,.14.117,1.071,1.071,0,0,0,.221.193.172.172,0,0,1,.14.115.332.332,0,0,0,.141.155.177.177,0,0,1,.06.1.112.112,0,0,1-.1.059c-.08.058-.181.077-.281.135s-.22.058-.321.117a.212.212,0,0,0-.08.038c-.141.135-.342.135-.483.27a2.921,2.921,0,0,1-.382.27.253.253,0,0,0-.1.136.6.6,0,0,1-.16.155.331.331,0,0,0-.141.154,2.544,2.544,0,0,0-.341.542.409.409,0,0,0-.061.155l-.04.251v.038c-.081.1-.041.213-.1.347a1.3,1.3,0,0,0,.06.523.311.311,0,0,0,.121.155c.06.019.08.038.08.1a.742.742,0,0,0,.161.425,2.523,2.523,0,0,1,.22.328.222.222,0,0,1,.041.078l.121.174a2.632,2.632,0,0,0,.4.522c.021.019.021.019.021.038a1.73,1.73,0,0,0,.3.445l.2.213.281.31a3.872,3.872,0,0,1,.261.367l.182.251a1.956,1.956,0,0,1,.361.5l.141.27.041.115a2.755,2.755,0,0,0,.181.542l.04.058a1.938,1.938,0,0,0,.181.425c0,.019.02.058.02.078.02.154.1.29.121.424.06.213.06.387.121.561.019.058-.02.077-.02.136a.155.155,0,0,0,0,.135.283.283,0,0,1,.02.251,2.923,2.923,0,0,1-.041.291.308.308,0,0,1-.08.115.233.233,0,0,0-.1.1,1.162,1.162,0,0,1-.322.29c-.06.058-.1.058-.16.117a1.154,1.154,0,0,1-.441.115.7.7,0,0,0-.443.193.321.321,0,0,1-.161.117.878.878,0,0,0-.121.038.551.551,0,0,1-.421.154,1.621,1.621,0,0,0-.441.059h-.041l-.5.038a.909.909,0,0,1-.2-.038.232.232,0,0,0-.2-.019c-.06,0-.08.019-.141.019s-.1,0-.12-.019a.369.369,0,0,0-.2-.02.308.308,0,0,1-.322-.115.233.233,0,0,0-.16-.058.133.133,0,0,1-.121,0c-.141-.059-.322-.078-.482-.136-.1-.038-.121-.115-.061-.213a.956.956,0,0,1,.161-.232,1.525,1.525,0,0,1,.5-.5,2.99,2.99,0,0,1,.622-.291,1.081,1.081,0,0,0,.443-.328c.1-.136.22-.232.3-.368a2.573,2.573,0,0,0,.22-.27.757.757,0,0,0,.161-.445,2.818,2.818,0,0,0-.04-.7,4.489,4.489,0,0,0-.362-1.063l-.08-.174a3.29,3.29,0,0,0-.3-.522,2.158,2.158,0,0,1-.221-.31l-.4-.5a2.466,2.466,0,0,1-.462-.715l-.041-.059a1.327,1.327,0,0,1-.16-.29c-.02-.019-.02-.019-.02-.038a5.924,5.924,0,0,1-.322-.734c-.08-.252-.16-.484-.22-.716a2.418,2.418,0,0,1-.081-.754,2.357,2.357,0,0,1,.041-.329l.041-.27a1.419,1.419,0,0,1,.08-.29,2.137,2.137,0,0,1,.262-.677l.12-.291a1.674,1.674,0,0,1,.623-.734,2.9,2.9,0,0,1,.382-.232c.14-.058.261-.058.4-.117l.182-.038a1.383,1.383,0,0,1,.683-.058Zm-2.512,4.293a1.784,1.784,0,0,0,.141.193l.08.213a1.107,1.107,0,0,0,.08.347.042.042,0,0,0,.04.038.12.12,0,0,0,.141.019.144.144,0,0,0,.041-.154c-.02-.059-.06-.078-.08-.136l-.181-.406c-.061-.1-.061-.174-.121-.27-.04-.077-.08-.115-.121-.115-.06.019-.041.1-.06.154Zm1.044,1.662a.089.089,0,0,0-.1-.019c-.02.019-.041.038-.02.078,0,.058.04.077.1.077.019,0,.041-.019.06-.038C-449.191,147.579-449.213,147.558-449.213,147.539Z" transform="translate(466.872 -141.152)"/></g><path class="c" d="M-472.5,109.745a2.628,2.628,0,0,0-.115,1.829,2.881,2.881,0,0,0,1.272,1.927c5.192-.858,14.258-1.982,16.394,2.235.144.583.324.936.343,1.085,1.7-.575.451-.321,3.033-.131a12.045,12.045,0,0,0,2.951-.733,1.218,1.218,0,0,0,.621-.538,3.261,3.261,0,0,1-.1-.651,2.366,2.366,0,0,0,1.237-.337c2.386-.589,1.013-1.6,2.039-2.985-1.4-8.069-9.991-9.228-17.918-7.323a20.07,20.07,0,0,0-8.2,3.832A5.851,5.851,0,0,0-472.5,109.745Z" transform="translate(4.369 0.898)"/><path class="d" d="M-447.942,129.058c.565-.43,1.1-.314,1.412-.823.3-.549.12-1.433.418-1.963-2.1-8.152-15.3-12.929-23.653-11.007-.938,1.194-1.5,1.111-1.825,2.662-.063.017.173.185.1.2,1.063,1.212,2.824,1.341,4.267,2.014.452.216,1.908,1.655,2.4,1.66.69.492,1.516,2.137,1.847,2.049.5.386.409,1.649.885,2,.573,2.064.328,2.287.069,2.786.033.125.322.449.362.6.121.065,1.133.446,1.457.274,1.163-.263,6.759,2.1,7.307,2.7C-449.484,131.587-449.98,130.639-447.942,129.058Z" transform="translate(4.447 1.691)"/><path class="a" d="M-473.3,108.957c.393-.557,1.633-.85,1.919-1.46a20.776,20.776,0,0,1,2.294-3.97c2.78-3.324,9.277-5.6,12.905-3.217.22-.027.063-.142-.285-.895-.418-1.5-2.091-4.9-1.756-5.888-.406-.976-.67-.561-1.289-1.081-.43-.3-.721-1.294-1.2-1.518-.484.1-.97.206-1.471.283-.124-.259-.255-.553-.358-.806-.676.133-1.32.276-1.953.37-.369-.025-1.556-.446-1.838-.5-.733.134-1.431.255-2.134.388-1.711-.249-3.054.64-4.327,1.714-.7.61-1.562.618-2.187,1.308a15.25,15.25,0,0,0-2.5,3.991c-1.23,2.986.1,9.62,1.721,11.105C-475.157,109.308-474.518,109.254-473.3,108.957Z" transform="translate(4.009)"/><g transform="translate(-524.43 172.435)"><path class="e" d="M-465.356,196.2c-4.934-.879-7.1-3.816-8.534-5.233-1.093-1.111-3.643-1.507-4.818-1.577-.191-.014-.343-.022-.45-.026v6.418a2.42,2.42,0,0,0,2.431,2.409h6.961a.852.852,0,0,1,.178-.227,1.634,1.634,0,0,1,.409-.263,7.9,7.9,0,0,1,1.009-.361,12.918,12.918,0,0,0,2.241-.81C-465.709,196.413-465.521,196.3-465.356,196.2Zm5.888.086a24.526,24.526,0,0,1-2.789.169h-.082c-.538,0-1.047-.025-1.537-.065-.028.029-.056.058-.086.086a7.015,7.015,0,0,1-1.463.982,10.7,10.7,0,0,1-1.915.735h16.8a2.419,2.419,0,0,0,2.4-2.09,36.45,36.45,0,0,0-4.187-.326A63.551,63.551,0,0,0-459.468,196.286Zm.658-16.291a.727.727,0,0,0-.167.468.607.607,0,0,0-.005.087c.01.191.038.2.086.243a.829.829,0,0,0,.469.1,4.009,4.009,0,0,0,1.346-.282,2.492,2.492,0,0,0-1.435-.708A.4.4,0,0,0-458.809,179.995Zm8.274-12.852h-4.813a2.77,2.77,0,0,1-.074.3c-.041.14-.09.3-.138.5a6.177,6.177,0,0,0-.193,1.541,8.809,8.809,0,0,0,1.571,4.742,6.5,6.5,0,0,1,1.059,3.359,3.393,3.393,0,0,1-.925,2.446,6.632,6.632,0,0,1-1.373.992,3.207,3.207,0,0,1,.419,1.528,2.565,2.565,0,0,1-.309,1.224,6.088,6.088,0,0,1-2.084,1.984c-.636.416-1.345.814-2.06,1.22l.1.139a3.111,3.111,0,0,0,1.491.245c-.238.012-.707.42-.909.537s-.661.506-.918.518a3,3,0,0,1-1.655-.33c-1.562.992-2.824,2.1-3.09,3.394a4.22,4.22,0,0,0-.106.9,2.949,2.949,0,0,0,.478,1.617,3.082,3.082,0,0,1,.623,1.365c.377.025.771.04,1.18.042a23.472,23.472,0,0,0,2.668-.161,64.535,64.535,0,0,1,7.27-.516,33.694,33.694,0,0,1,4.21.329v-25.5A2.419,2.419,0,0,0-450.535,167.143Zm-6.762,22.586c.094-.112.079-.312.278-.322.022.045-.006.022.047.04l.022-.035a.219.219,0,0,0,.041-.133l.086.006c.01-.178,0-.242.061-.316,0,.006.022-.017.022-.011a.337.337,0,0,1,.049.1c.066.174.308.58.523.608.214.144.716-.2.749.207.11.2-.236.438-.336.485a1.412,1.412,0,0,1-.255.06C-456.552,190.557-457.292,190.1-457.3,189.729Zm2.23,1.968a1.247,1.247,0,0,1-.236.288c-.055.046-.122.041-.181.081a.437.437,0,0,1-.352.093l-.17.011c-.025-.006-.111-.049-.139-.058-.049,0-.1.009-.155.012a.436.436,0,0,0-.021-.066c-.04,0-.077.006-.115.006-.036-.019-.05-.1-.079-.129-.045-.044-.066-.015-.094-.094.037-.073-.059-.354-.079-.472-.02-.065-.03-.076-.014-.077a.883.883,0,0,0,1.035-.127,1.828,1.828,0,0,0,.217-.288c.026-.045.127-.059.161-.1.1-.014.149-.011.191.036A1.138,1.138,0,0,1-455.067,191.7Zm.214-2.351a.459.459,0,0,1-.313-.015c-.017-.029-.033-.052-.051-.081-.087-.056-.1-.1-.177-.155l-.232-.337a1,1,0,0,0,.017-.1c-.1-.155.029-.418.123-.525a.724.724,0,0,1,.435-.315c.052.015.1.03.157.042a4.126,4.126,0,0,0,.483-.124c.046-.009.156-.037.181.02.036.1-.2.062-.232.211-.111.1-.09.3-.108.439a.27.27,0,0,1,.121.162C-454.556,188.7-454.52,189.375-454.853,189.345Zm2.032,2.683c-.032.032-.071.013-.119.035-.178.074-.161.153-.421.135a1.474,1.474,0,0,0-.48-.34c-.027.005-.091-.04-.1-.046s-.016-.043-.016-.052c.028-.031.05-.043.047-.2-.026-.035.005-.125-.022-.161-.029,0-.057-.138-.1-.186-.034-.012-.112-.144-.142-.169-.092-.075-.218-.12-.271-.229.005,0-.009-.017,0-.017.051-.106.092-.089.182-.159.647.022,1.515.624,1.512,1.259C-452.784,191.926-452.787,191.994-452.822,192.028Zm.389-1.856a.182.182,0,0,1-.1.017.356.356,0,0,0,0,.048.09.09,0,0,1-.051.036.973.973,0,0,1-.226.036c-.192-.032-.1-.044-.227-.011a.669.669,0,0,1-.019-.084c-.135-.33-.821-.3-1.217-.275a.232.232,0,0,1-.082-.153.208.208,0,0,1,.021-.138.48.48,0,0,1,.129-.124,1.48,1.48,0,0,1,.641-.234c.6-.09,1.243.053,1.294.669C-452.347,190.058-452.252,190.144-452.432,190.172Zm-20.72.043c1.639,1.59,3.554,4.367,8.618,5.036-.075-.152-.226-.4-.43-.714a4.028,4.028,0,0,1-.629-2.161,5.156,5.156,0,0,1,.133-1.13,6.616,6.616,0,0,1,3.117-3.77c.109-.074.221-.143.332-.215a1.883,1.883,0,0,1-.076-.288,3.4,3.4,0,0,1,.127-1.6c.057-.172.761-.451.907-.535s.869-.369.919-.518a3.239,3.239,0,0,0-.131,1.573l.172.231c.759-.43,1.491-.84,2.118-1.252a5.139,5.139,0,0,0,1.734-1.6,1.484,1.484,0,0,0,.183-.723,2.165,2.165,0,0,0-.319-1.072,6.027,6.027,0,0,1-2.051.472,1.831,1.831,0,0,1-1.091-.3,1.309,1.309,0,0,1-.518-1.095,1.722,1.722,0,0,1,.012-.2,1.736,1.736,0,0,1,.484-1.115,1.443,1.443,0,0,1,1.024-.388,3.559,3.559,0,0,1,2.307,1.136q.083.082.164.17a5.006,5.006,0,0,0,1.249-.871,2.335,2.335,0,0,0,.619-1.7,5.445,5.445,0,0,0-.9-2.8,9.884,9.884,0,0,1-1.734-5.307,7.268,7.268,0,0,1,.2-1.712c.063-.258.128-.479.17-.623h-20.293a2.422,2.422,0,0,0-2.431,2.41v18.756a15.681,15.681,0,0,1,2.168.237A7.52,7.52,0,0,1-473.152,190.215Zm.3-4.643a1.6,1.6,0,0,1-.3.37c-.068.057-.157.051-.233.1a.544.544,0,0,1-.451.12c-.074.005-.144.009-.218.015-.03-.01-.141-.064-.177-.076-.066.007-.132.012-.2.014-.01-.026-.02-.056-.029-.082l-.152.01c-.043-.027-.061-.127-.1-.167-.056-.057-.085-.02-.119-.123.048-.091-.077-.45-.1-.6-.027-.082-.036-.094-.015-.1a1.134,1.134,0,0,0,1.323-.161,2.55,2.55,0,0,0,.279-.371c.033-.058.164-.076.208-.123.124-.014.188-.014.244.047A1.456,1.456,0,0,1-472.848,185.572Zm.275-3.015a.586.586,0,0,1-.4-.017l-.071-.1c-.108-.073-.124-.127-.226-.2l-.3-.429c.007-.046.015-.09.022-.135-.129-.2.034-.537.156-.673a.953.953,0,0,1,.558-.406c.066.021.136.04.2.057a5.831,5.831,0,0,0,.619-.158c.058-.015.2-.051.231.026.045.121-.255.076-.3.267-.142.124-.115.388-.136.564a.363.363,0,0,1,.156.208C-472.192,181.739-472.146,182.6-472.573,182.557Zm-.726-6.632c-.037-.113-.055-.13-.023-.13a1.58,1.58,0,0,0,1.847-.228,3.338,3.338,0,0,0,.388-.516c.049-.08.228-.1.292-.17.17-.019.262-.019.339.065a2.027,2.027,0,0,1,.055,1.573,2.169,2.169,0,0,1-.42.511c-.1.082-.216.071-.324.144a.758.758,0,0,1-.628.165c-.1.01-.2.015-.3.021-.046-.012-.2-.092-.25-.1-.091.01-.183.015-.273.021l-.04-.118c-.071,0-.141.009-.213.014-.062-.038-.084-.18-.138-.232-.079-.08-.122-.027-.165-.169C-473.092,176.644-473.265,176.139-473.3,175.925ZM-469.97,186c-.041.041-.089.017-.15.044-.232.1-.206.2-.539.173a1.976,1.976,0,0,0-.617-.433c-.035.006-.122-.052-.13-.063s-.019-.05-.019-.064c.036-.042.064-.055.063-.262-.036-.044,0-.16-.035-.211-.033,0-.065-.173-.122-.235-.048-.014-.145-.185-.182-.218-.12-.094-.28-.153-.352-.291.008,0-.01-.02,0-.02.071-.139.119-.115.236-.207.824.029,1.939.8,1.936,1.615C-469.924,185.866-469.927,185.954-469.97,186Zm.5-2.379a.233.233,0,0,1-.124.022.282.282,0,0,0,.006.062.116.116,0,0,1-.066.047,1.186,1.186,0,0,1-.289.047c-.247-.04-.125-.055-.293-.014,0-.014-.014-.048-.025-.107-.17-.423-1.05-.391-1.555-.353a.286.286,0,0,1-.11-.2.242.242,0,0,1,.031-.176.518.518,0,0,1,.161-.157,1.952,1.952,0,0,1,.823-.3c.778-.114,1.593.067,1.66.859C-469.363,183.472-469.24,183.583-469.472,183.617Zm1.263-6.81c-.048.011-.167-.074-.181-.087s-.027-.073-.027-.091c.051-.056.091-.076.088-.364-.05-.063.005-.224-.047-.292-.046,0-.1-.243-.17-.33-.064-.018-.2-.255-.255-.3-.166-.137-.39-.214-.486-.408.01,0-.015-.03-.006-.03.1-.191.166-.161.329-.284,1.153.037,2.708,1.114,2.7,2.247-.057.059-.064.181-.122.242s-.123.022-.212.059c-.32.136-.289.276-.754.24A2.686,2.686,0,0,0-468.209,176.808Zm.915,4c.091-.111.076-.31.278-.32.019.044-.006.02.048.037a.112.112,0,0,1,.018-.033.194.194,0,0,0,.042-.13c.028,0,.057,0,.086.005.008-.181,0-.245.062-.315,0,0,.021-.02.021-.014a.229.229,0,0,1,.048.1c.067.174.311.58.525.607.213.145.714-.2.749.21.11.195-.237.437-.337.484a1.783,1.783,0,0,1-.255.062C-466.55,181.642-467.288,181.183-467.294,180.813Zm2.226,1.969a1.2,1.2,0,0,1-.233.288c-.055.048-.122.04-.182.081a.428.428,0,0,1-.353.093l-.17.01c-.021-.006-.11-.05-.139-.056-.05,0-.1.006-.155.011-.005-.02-.013-.045-.02-.066-.04,0-.079.005-.118.009-.034-.022-.048-.1-.078-.129-.044-.046-.068-.016-.091-.1.035-.074-.063-.354-.081-.475-.02-.062-.031-.073-.014-.073a.889.889,0,0,0,1.035-.129,1.628,1.628,0,0,0,.216-.288c.028-.045.127-.056.162-.1.1-.012.149-.011.19.035A1.127,1.127,0,0,1-465.067,182.781Zm2.247.331c-.033.033-.068.015-.117.034-.182.075-.162.153-.421.134a1.569,1.569,0,0,0-.48-.337c-.028,0-.1-.041-.1-.047s-.016-.043-.016-.053c.029-.03.051-.043.047-.2-.027-.035,0-.125-.025-.162-.026,0-.053-.135-.1-.185-.035-.01-.114-.144-.143-.17-.091-.075-.219-.119-.271-.228,0,0,0-.017,0-.017.053-.106.093-.089.187-.159.639.025,1.51.624,1.507,1.259C-462.783,183.013-462.785,183.08-462.821,183.113Zm-.734-2.735c.606-.092,1.244.051,1.3.668-.089.1.007.183-.174.212a.189.189,0,0,1-.1.017.207.207,0,0,0,.006.047.114.114,0,0,1-.049.04,1.1,1.1,0,0,1-.23.034c-.192-.032-.1-.045-.226-.012a.6.6,0,0,1-.019-.082c-.135-.33-.821-.306-1.216-.277a.21.21,0,0,1-.083-.151.206.206,0,0,1,.021-.14.447.447,0,0,1,.127-.122A1.464,1.464,0,0,1-463.555,180.377Zm-1.5-1.479c.055.013.106.028.158.043a4.634,4.634,0,0,0,.482-.124c.048-.011.157-.04.182.019.034.1-.2.062-.232.211-.111.1-.09.3-.108.443a.273.273,0,0,1,.122.159c-.106.142-.069.812-.4.78a.446.446,0,0,1-.311-.014c-.017-.029-.036-.053-.056-.081-.086-.057-.1-.1-.173-.153l-.232-.338c0-.033.012-.067.015-.1-.1-.156.028-.418.124-.527A.728.728,0,0,1-465.052,178.9Zm-2.65-6.674c1.086-.162,2.225.1,2.317,1.194-.154.173.018.326-.309.376a.319.319,0,0,1-.17.031.465.465,0,0,0,.006.089.162.162,0,0,1-.09.064,1.611,1.611,0,0,1-.4.063c-.344-.055-.173-.075-.408-.017,0-.02-.021-.071-.034-.15-.236-.591-1.465-.547-2.173-.494a.386.386,0,0,1-.147-.274.35.35,0,0,1,.037-.244.8.8,0,0,1,.229-.222A2.717,2.717,0,0,1-467.7,172.224Zm-3.449-2.078a1.325,1.325,0,0,1,.776-.564c.1.027.187.053.282.079a8.059,8.059,0,0,0,.865-.22c.08-.02.279-.071.322.035.064.168-.358.106-.418.376-.2.169-.16.534-.19.785a.516.516,0,0,1,.22.288c-.19.251-.125,1.449-.724,1.395a.8.8,0,0,1-.559-.031c-.031-.045-.063-.091-.1-.141-.152-.1-.172-.175-.315-.276l-.414-.6c.012-.06.02-.123.029-.183C-471.552,170.806-471.323,170.34-471.151,170.146Zm-2.739,2.285c.04.08-.01.035.087.065l.034-.058a.354.354,0,0,0,.077-.236l.152.01c.015-.319,0-.433.109-.562,0,.011.04-.034.04-.024a.53.53,0,0,1,.088.177c.117.31.55,1.035.94,1.085.379.258,1.275-.366,1.335.371.2.348-.42.778-.6.869a2.81,2.81,0,0,1-.456.1c-.969.25-2.288-.565-2.295-1.226C-474.221,172.8-474.248,172.451-473.891,172.432Zm-1.458,10.209c.027.057-.009.025.061.046.009-.013.017-.028.028-.042a.259.259,0,0,0,.05-.169l.11.005c.012-.228,0-.309.079-.4,0,.006.03-.027.027-.017a.3.3,0,0,1,.064.127c.087.22.4.743.672.778.274.185.916-.264.961.265.14.252-.3.559-.434.624a2.1,2.1,0,0,1-.326.077c-.694.179-1.641-.41-1.647-.884C-475.586,182.906-475.605,182.651-475.349,182.64Z" transform="translate(528.356 -167.143)"/><path class="f" d="M-494.153,196.2c-3.927-.7-5.65-3.037-6.794-4.165-.869-.884-2.9-1.2-3.835-1.255-.152-.012-.273-.018-.358-.021v5.11a1.926,1.926,0,0,0,1.935,1.918h5.542a.666.666,0,0,1,.142-.181,1.3,1.3,0,0,1,.326-.208,6.159,6.159,0,0,1,.8-.289,10.267,10.267,0,0,0,1.785-.645C-494.434,196.368-494.284,196.28-494.153,196.2Zm4.688.068a19.565,19.565,0,0,1-2.22.134h-.065c-.429,0-.835-.019-1.224-.051-.022.024-.045.046-.068.068a5.614,5.614,0,0,1-1.164.781,8.434,8.434,0,0,1-1.525.586h13.377a1.927,1.927,0,0,0,1.914-1.663,28.973,28.973,0,0,0-3.333-.26A50.521,50.521,0,0,0-489.465,196.267Zm.524-12.968a.575.575,0,0,0-.133.372.521.521,0,0,0,0,.069c.008.153.03.157.068.193a.662.662,0,0,0,.373.078,3.173,3.173,0,0,0,1.071-.224,1.983,1.983,0,0,0-1.143-.563A.314.314,0,0,0-488.942,183.3Zm6.586-10.231h-3.831a2.261,2.261,0,0,1-.059.237c-.032.111-.072.24-.11.4a4.922,4.922,0,0,0-.154,1.226,7.027,7.027,0,0,0,1.251,3.776,5.168,5.168,0,0,1,.843,2.673,2.7,2.7,0,0,1-.736,1.947,5.244,5.244,0,0,1-1.093.789,2.555,2.555,0,0,1,.335,1.216,2.047,2.047,0,0,1-.247.975,4.824,4.824,0,0,1-1.659,1.579c-.506.331-1.07.65-1.64.972l.082.11a2.472,2.472,0,0,0,1.188.2c-.189.009-.562.335-.724.426s-.525.4-.73.413a2.393,2.393,0,0,1-1.318-.262,4.928,4.928,0,0,0-2.459,2.7,3.341,3.341,0,0,0-.084.717,2.338,2.338,0,0,0,.38,1.287,2.463,2.463,0,0,1,.5,1.087q.451.03.94.033a18.692,18.692,0,0,0,2.124-.128,51.109,51.109,0,0,1,5.788-.41,26.723,26.723,0,0,1,3.351.261v-20.3A1.925,1.925,0,0,0-482.355,173.068Zm-5.382,17.979c.075-.089.062-.248.221-.255.017.035-.005.017.037.031l.017-.028a.177.177,0,0,0,.033-.106l.067.005c.008-.142,0-.192.049-.252,0,.005.018-.014.018-.009a.3.3,0,0,1,.038.078c.052.14.245.463.417.485.17.114.57-.162.6.165.088.156-.188.348-.266.386a1.181,1.181,0,0,1-.2.048C-487.144,191.707-487.733,191.342-487.737,191.047Zm1.774,1.566a1,1,0,0,1-.188.23c-.043.036-.1.032-.144.065a.346.346,0,0,1-.279.073l-.136.01c-.019-.006-.089-.04-.111-.047-.038,0-.081.007-.122.011-.005-.018-.011-.037-.017-.053l-.093.005c-.029-.016-.04-.08-.063-.1s-.052-.012-.074-.076c.029-.058-.047-.281-.063-.376-.017-.051-.025-.06-.012-.061a.7.7,0,0,0,.823-.1,1.45,1.45,0,0,0,.174-.23c.02-.035.1-.047.128-.076.077-.011.118-.007.152.029A.9.9,0,0,1-485.963,192.613Zm.17-1.872a.363.363,0,0,1-.249-.012c-.013-.022-.027-.042-.041-.064-.07-.045-.077-.078-.141-.123l-.185-.268a.672.672,0,0,0,.014-.083c-.081-.123.022-.332.1-.418a.577.577,0,0,1,.346-.251c.042.013.082.025.125.034a3.214,3.214,0,0,0,.385-.1c.036-.006.124-.03.144.016.028.078-.159.049-.185.168-.089.077-.072.239-.086.351a.213.213,0,0,1,.1.129C-485.557,190.233-485.527,190.766-485.793,190.741Zm1.618,2.136c-.027.027-.057.011-.1.028-.142.06-.128.123-.335.108a1.193,1.193,0,0,0-.383-.27c-.021,0-.073-.032-.079-.037s-.013-.033-.013-.041c.022-.026.039-.034.037-.164-.02-.027,0-.1-.018-.128-.022,0-.045-.109-.078-.148-.028-.01-.09-.115-.113-.135-.074-.06-.173-.1-.217-.182,0,0-.006-.014,0-.014.041-.084.073-.071.144-.126.515.017,1.206.5,1.2,1C-484.146,192.8-484.148,192.85-484.175,192.877Zm.309-1.476a.152.152,0,0,1-.076.014.272.272,0,0,0,0,.037.071.071,0,0,1-.041.029.762.762,0,0,1-.18.029c-.154-.026-.08-.034-.181-.009,0-.009-.01-.031-.015-.066-.107-.263-.654-.244-.969-.219a.184.184,0,0,1-.065-.122.166.166,0,0,1,.017-.11.38.38,0,0,1,.1-.1,1.188,1.188,0,0,1,.511-.187c.481-.071.99.043,1.029.533C-483.8,191.309-483.721,191.377-483.866,191.4Zm-16.493.033c1.3,1.267,2.829,3.477,6.861,4.009-.06-.121-.18-.317-.342-.568a3.211,3.211,0,0,1-.5-1.721,4.135,4.135,0,0,1,.106-.9,5.264,5.264,0,0,1,2.482-3c.087-.059.175-.114.264-.171a1.444,1.444,0,0,1-.06-.23,2.7,2.7,0,0,1,.1-1.274c.045-.138.606-.36.723-.426s.692-.294.731-.414a2.588,2.588,0,0,0-.1,1.254l.137.183c.6-.342,1.188-.668,1.687-1a4.083,4.083,0,0,0,1.38-1.275,1.186,1.186,0,0,0,.145-.576,1.727,1.727,0,0,0-.253-.853,4.774,4.774,0,0,1-1.633.376,1.452,1.452,0,0,1-.868-.24,1.039,1.039,0,0,1-.413-.871,1.315,1.315,0,0,1,.009-.159,1.386,1.386,0,0,1,.385-.887,1.154,1.154,0,0,1,.816-.309,2.834,2.834,0,0,1,1.836.9c.044.044.088.09.13.136a3.985,3.985,0,0,0,1-.693,1.862,1.862,0,0,0,.492-1.356,4.325,4.325,0,0,0-.713-2.224,7.878,7.878,0,0,1-1.381-4.225,5.781,5.781,0,0,1,.162-1.363c.05-.205.1-.382.136-.5h-16.155a1.927,1.927,0,0,0-1.935,1.919v14.931a12.633,12.633,0,0,1,1.725.188A5.991,5.991,0,0,1-500.359,191.434Zm.243-3.7a1.328,1.328,0,0,1-.239.294c-.056.045-.126.041-.186.081a.44.44,0,0,1-.359.1c-.059,0-.114.006-.173.012-.025-.009-.112-.052-.142-.061-.052.006-.1.009-.155.012-.009-.021-.016-.045-.022-.065l-.122.006c-.034-.021-.048-.1-.079-.133s-.068-.016-.1-.1c.039-.073-.061-.359-.081-.482-.021-.065-.03-.075-.012-.076a.9.9,0,0,0,1.053-.129,1.928,1.928,0,0,0,.221-.295c.027-.046.13-.06.167-.1.1-.011.15-.011.193.037A1.153,1.153,0,0,1-500.116,187.739Zm.219-2.4a.476.476,0,0,1-.32-.014c-.017-.028-.036-.055-.056-.082-.086-.058-.1-.1-.18-.158l-.236-.342c.006-.036.012-.071.018-.107-.1-.159.028-.426.124-.535a.753.753,0,0,1,.444-.323c.053.016.109.031.161.044a4.477,4.477,0,0,0,.493-.126c.046-.012.159-.041.184.021.036.1-.2.061-.238.213-.112.1-.091.309-.107.449a.285.285,0,0,1,.123.166C-499.595,184.687-499.559,185.373-499.9,185.338Zm-.578-5.28c-.03-.09-.043-.1-.018-.1a1.256,1.256,0,0,0,1.47-.182,2.641,2.641,0,0,0,.309-.41c.039-.063.182-.082.233-.136.135-.015.207-.015.269.052a1.612,1.612,0,0,1,.043,1.253,1.722,1.722,0,0,1-.335.406c-.076.066-.171.057-.258.114a.6.6,0,0,1-.5.133c-.081.007-.16.012-.242.017-.036-.01-.158-.074-.2-.083-.073.007-.145.012-.217.017l-.032-.094-.169.011c-.05-.03-.067-.142-.11-.184-.062-.063-.1-.021-.131-.135C-500.311,180.631-500.449,180.229-500.476,180.058Zm2.65,8.017c-.032.033-.071.014-.12.035-.184.077-.164.157-.429.138a1.558,1.558,0,0,0-.491-.344c-.029,0-.1-.043-.1-.05s-.015-.041-.015-.051c.029-.033.05-.044.049-.208-.029-.035,0-.128-.028-.168-.026,0-.051-.138-.1-.187-.04-.011-.117-.148-.145-.174-.1-.074-.223-.121-.28-.231.006,0-.008-.017,0-.017.057-.11.094-.092.188-.164.657.022,1.543.637,1.541,1.286C-497.79,187.973-497.792,188.042-497.826,188.076Zm.4-1.894a.184.184,0,0,1-.1.018.264.264,0,0,0,.005.049.093.093,0,0,1-.052.038.949.949,0,0,1-.23.036c-.2-.031-.1-.043-.233-.011,0-.012-.011-.038-.02-.086-.135-.337-.835-.311-1.238-.28a.23.23,0,0,1-.088-.157.193.193,0,0,1,.026-.141.405.405,0,0,1,.128-.125,1.561,1.561,0,0,1,.654-.24c.62-.091,1.269.055,1.322.684C-497.343,186.066-497.244,186.155-497.429,186.182Zm1.006-5.421c-.038.01-.133-.058-.143-.067s-.021-.059-.021-.073c.041-.045.072-.061.068-.291-.04-.05.005-.178-.036-.232-.037,0-.077-.193-.136-.263-.051-.014-.162-.2-.2-.238-.13-.109-.31-.17-.387-.325.009,0-.012-.023,0-.023.076-.153.131-.128.262-.227.918.03,2.156.886,2.151,1.788-.046.047-.051.143-.1.192s-.1.017-.169.047c-.254.108-.229.219-.6.191A2.15,2.15,0,0,0-496.424,180.761Zm.729,3.189c.072-.089.06-.247.22-.255.015.035,0,.017.038.03a.147.147,0,0,1,.014-.026.153.153,0,0,0,.034-.1l.067,0c.006-.143,0-.195.049-.25,0,0,.018-.016.018-.012a.2.2,0,0,1,.037.079c.055.138.248.462.418.483.17.115.569-.162.6.167.088.155-.189.347-.268.386a1.527,1.527,0,0,1-.2.049C-495.1,184.609-495.691,184.245-495.695,183.95Zm1.771,1.567a.945.945,0,0,1-.185.229c-.044.037-.1.032-.145.064a.338.338,0,0,1-.28.075l-.136.007c-.017-.005-.088-.04-.11-.044-.04,0-.081,0-.124.007,0-.016-.01-.035-.016-.052-.031,0-.062,0-.093.006-.028-.017-.038-.08-.063-.1s-.053-.013-.072-.077c.028-.059-.05-.281-.065-.377-.016-.049-.025-.058-.011-.058a.708.708,0,0,0,.823-.1,1.277,1.277,0,0,0,.172-.229c.022-.036.1-.045.129-.077.078-.009.119-.007.152.029A.9.9,0,0,1-493.923,185.517Zm1.789.264c-.027.026-.055.012-.093.027-.145.06-.129.122-.336.107a1.239,1.239,0,0,0-.382-.268.179.179,0,0,1-.081-.037c0-.012-.013-.034-.013-.043.023-.025.042-.033.038-.161-.021-.028,0-.1-.02-.129-.02,0-.043-.108-.076-.148-.028-.007-.091-.114-.113-.135-.073-.06-.175-.1-.217-.182l0-.013c.042-.084.074-.072.149-.127.509.019,1.2.5,1.2,1C-492.105,185.7-492.106,185.754-492.134,185.781Zm-.585-2.177c.482-.074.99.041,1.031.531-.069.077.006.145-.138.169a.165.165,0,0,1-.077.014.155.155,0,0,0,.005.037.1.1,0,0,1-.039.031.855.855,0,0,1-.183.027c-.154-.025-.078-.035-.18-.01a.544.544,0,0,1-.016-.065c-.107-.263-.653-.243-.967-.22a.167.167,0,0,1-.066-.12.16.16,0,0,1,.017-.112.344.344,0,0,1,.1-.1A1.155,1.155,0,0,1-492.719,183.6Zm-1.193-1.178c.044.01.086.021.127.033a3.315,3.315,0,0,0,.384-.1c.037-.007.125-.031.143.015.029.078-.158.05-.184.168-.089.078-.072.24-.085.353a.219.219,0,0,1,.1.127c-.083.112-.056.647-.321.621a.353.353,0,0,1-.248-.012c-.014-.022-.029-.043-.044-.064-.068-.045-.076-.078-.139-.122l-.184-.269c0-.026.009-.053.012-.082-.081-.124.022-.332.1-.419A.582.582,0,0,1-493.912,182.426Zm-2.109-5.313c.865-.129,1.771.076,1.845.95-.123.138.015.26-.246.3a.261.261,0,0,1-.136.025.4.4,0,0,0,.005.071.133.133,0,0,1-.07.051,1.282,1.282,0,0,1-.323.05c-.274-.044-.138-.06-.325-.014,0-.016-.017-.056-.027-.12-.188-.47-1.167-.435-1.729-.392a.306.306,0,0,1-.118-.218.277.277,0,0,1,.029-.195.643.643,0,0,1,.183-.176A2.169,2.169,0,0,1-496.021,177.113Zm-2.746-1.654a1.053,1.053,0,0,1,.618-.449l.224.063a6.555,6.555,0,0,0,.688-.175c.064-.017.222-.057.257.028.051.134-.285.084-.332.3-.158.134-.128.425-.152.625a.405.405,0,0,1,.175.229c-.152.2-.1,1.153-.576,1.109a.632.632,0,0,1-.445-.025c-.025-.035-.05-.073-.076-.112-.121-.08-.137-.139-.251-.219l-.329-.479c.01-.048.016-.1.024-.145C-499.085,175.984-498.9,175.613-498.766,175.459Zm-2.18,1.818c.031.065-.007.029.069.052l.027-.046a.277.277,0,0,0,.061-.187c.039,0,.08,0,.122.007.011-.253,0-.345.087-.448,0,.009.031-.027.031-.019a.42.42,0,0,1,.069.142c.093.247.438.823.748.863.3.206,1.015-.291,1.062.3.158.278-.335.619-.478.692a2.193,2.193,0,0,1-.363.082c-.772.2-1.821-.45-1.828-.976C-501.21,177.574-501.231,177.293-500.947,177.277Zm-1.161,8.128c.021.045-.006.019.049.036l.021-.033a.206.206,0,0,0,.041-.135l.088,0c.01-.181,0-.246.063-.319,0,0,.024-.021.02-.014a.256.256,0,0,1,.052.1c.067.176.314.592.534.62.218.147.729-.21.764.212.112.2-.242.444-.345.5a1.773,1.773,0,0,1-.26.061c-.552.142-1.305-.327-1.31-.7C-502.3,185.616-502.311,185.413-502.108,185.4Z" transform="translate(526.567 -166.735)"/><path class="g" d="M-516.984,196.2a8.53,8.53,0,0,1-5.031-3.085,5.085,5.085,0,0,0-2.84-.929c-.112-.009-.2-.013-.264-.015v3.783a1.426,1.426,0,0,0,1.431,1.42h4.1a.483.483,0,0,1,.107-.134.961.961,0,0,1,.24-.155,4.621,4.621,0,0,1,.594-.213,7.706,7.706,0,0,0,1.321-.478C-517.192,196.322-517.081,196.258-516.984,196.2Zm3.471.051a14.471,14.471,0,0,1-1.644.1h-.048c-.317,0-.618-.015-.906-.038-.016.017-.033.034-.05.05a4.093,4.093,0,0,1-.863.578,6.224,6.224,0,0,1-1.129.434h9.905a1.426,1.426,0,0,0,1.416-1.231,21.337,21.337,0,0,0-2.467-.192A37.352,37.352,0,0,0-513.513,196.249Zm.388-9.6a.426.426,0,0,0-.1.276.413.413,0,0,0,0,.051c.005.112.022.115.05.142a.494.494,0,0,0,.277.059,2.347,2.347,0,0,0,.793-.167,1.471,1.471,0,0,0-.846-.417A.23.23,0,0,0-513.125,186.646Zm4.877-7.576h-2.838a1.617,1.617,0,0,1-.043.176c-.023.082-.053.177-.081.292a3.657,3.657,0,0,0-.114.909,5.2,5.2,0,0,0,.927,2.8,3.827,3.827,0,0,1,.623,1.98,2,2,0,0,1-.544,1.442,3.888,3.888,0,0,1-.81.584,1.887,1.887,0,0,1,.248.9,1.511,1.511,0,0,1-.183.721,3.581,3.581,0,0,1-1.228,1.169c-.375.245-.793.481-1.214.719l.061.081a1.832,1.832,0,0,0,.879.145c-.14.006-.416.247-.535.315s-.389.3-.541.306a1.774,1.774,0,0,1-.976-.195,3.649,3.649,0,0,0-1.82,2,2.447,2.447,0,0,0-.063.531,1.736,1.736,0,0,0,.282.953,1.829,1.829,0,0,1,.367.8c.223.015.454.023.7.025a13.76,13.76,0,0,0,1.572-.1,37.881,37.881,0,0,1,4.286-.3,19.618,19.618,0,0,1,2.481.195V180.49A1.426,1.426,0,0,0-508.248,179.07Zm-3.986,13.313c.056-.065.047-.184.164-.189.013.027,0,.013.028.022l.013-.02a.123.123,0,0,0,.025-.078l.05,0c.005-.106,0-.143.036-.186l.013-.007a.2.2,0,0,1,.029.059c.039.1.182.342.309.358.125.086.421-.12.441.122.064.117-.14.259-.2.286a.87.87,0,0,1-.152.035C-511.795,192.871-512.231,192.6-512.234,192.383Zm1.314,1.16a.687.687,0,0,1-.139.17c-.032.028-.072.024-.107.048a.251.251,0,0,1-.206.055l-.1.006c-.015,0-.065-.029-.082-.034s-.06.005-.091.007a.354.354,0,0,0-.012-.04l-.07,0c-.021-.012-.029-.059-.046-.077s-.04-.009-.056-.055c.021-.044-.034-.209-.046-.279-.013-.038-.018-.045-.009-.046a.519.519,0,0,0,.609-.074,1.087,1.087,0,0,0,.128-.17c.015-.027.075-.035.1-.057.058-.009.088-.006.112.021A.666.666,0,0,1-510.92,193.542Zm.127-1.386a.272.272,0,0,1-.185-.007c-.01-.017-.02-.032-.031-.048-.05-.033-.057-.058-.1-.092l-.137-.2a.578.578,0,0,0,.01-.062c-.06-.091.017-.246.073-.309a.429.429,0,0,1,.256-.186c.03.009.06.017.092.025a2.554,2.554,0,0,0,.285-.073c.027-.005.092-.022.107.012.02.058-.118.036-.137.124-.066.057-.053.177-.064.259a.167.167,0,0,1,.072.1C-510.619,191.78-510.6,192.174-510.793,192.156Zm1.2,1.582c-.019.019-.042.007-.071.02-.1.045-.094.091-.248.08a.864.864,0,0,0-.282-.2c-.016,0-.055-.022-.06-.027s-.009-.025-.009-.031c.016-.018.029-.025.028-.121-.015-.02,0-.073-.014-.1-.016,0-.033-.08-.058-.109-.02-.006-.066-.086-.084-.1-.053-.044-.128-.071-.16-.135v-.01c.031-.063.055-.052.108-.094.38.013.893.368.891.742C-509.575,193.678-509.576,193.717-509.6,193.738Zm.229-1.093a.114.114,0,0,1-.057.011c0,.009,0,.028,0,.028a.052.052,0,0,1-.03.021.6.6,0,0,1-.133.021c-.114-.019-.06-.026-.134-.006a.471.471,0,0,1-.012-.049c-.079-.2-.484-.18-.717-.162a.133.133,0,0,1-.049-.09.124.124,0,0,1,.013-.082.3.3,0,0,1,.076-.073.878.878,0,0,1,.378-.138c.357-.052.733.031.763.394C-509.317,192.577-509.261,192.627-509.367,192.644Zm-12.212.025c.965.938,2.094,2.575,5.079,2.969a4.764,4.764,0,0,0-.253-.421,2.372,2.372,0,0,1-.371-1.274,3.09,3.09,0,0,1,.078-.666,3.9,3.9,0,0,1,1.838-2.222c.064-.043.129-.084.2-.126a1.131,1.131,0,0,1-.045-.17,1.991,1.991,0,0,1,.075-.944c.033-.1.449-.266.536-.316s.512-.217.541-.3a1.908,1.908,0,0,0-.077.927l.1.136c.447-.252.879-.494,1.248-.738a3.012,3.012,0,0,0,1.022-.944.88.88,0,0,0,.108-.426,1.281,1.281,0,0,0-.188-.632,3.514,3.514,0,0,1-1.209.278,1.076,1.076,0,0,1-.643-.177.773.773,0,0,1-.306-.645.857.857,0,0,1,.008-.119,1.027,1.027,0,0,1,.285-.656.848.848,0,0,1,.6-.229,2.1,2.1,0,0,1,1.361.669c.032.033.064.066.1.1a2.941,2.941,0,0,0,.737-.513,1.379,1.379,0,0,0,.365-1,3.22,3.22,0,0,0-.528-1.647,5.816,5.816,0,0,1-1.022-3.129,4.268,4.268,0,0,1,.12-1.009c.037-.152.076-.282.1-.368h-11.963a1.427,1.427,0,0,0-1.431,1.42v11.056a9.2,9.2,0,0,1,1.277.139A4.434,4.434,0,0,1-521.579,192.669Zm.178-2.736a.923.923,0,0,1-.177.218c-.041.033-.093.03-.138.06a.319.319,0,0,1-.265.071c-.043,0-.086.005-.128.01-.018-.006-.083-.038-.1-.046-.039,0-.078.007-.115.009-.005-.015-.012-.032-.017-.048l-.09.005c-.025-.016-.035-.075-.059-.1s-.05-.012-.07-.072c.028-.053-.046-.266-.061-.357-.016-.049-.021-.056-.009-.057a.67.67,0,0,0,.78-.1,1.447,1.447,0,0,0,.164-.218c.019-.034.1-.045.123-.073.074-.007.111-.007.144.028A.856.856,0,0,1-521.4,189.933Zm.162-1.777a.35.35,0,0,1-.236-.01c-.013-.02-.027-.041-.041-.061-.064-.043-.074-.075-.134-.118l-.175-.252.014-.079c-.077-.119.02-.316.092-.4a.557.557,0,0,1,.328-.239c.04.013.081.024.12.033a3.294,3.294,0,0,0,.364-.093c.034-.009.118-.03.137.015.026.072-.152.045-.176.158-.083.073-.068.229-.08.332a.215.215,0,0,1,.092.123C-521.014,187.674-520.987,188.181-521.238,188.155Zm-.428-3.909c-.022-.067-.032-.077-.014-.077a.93.93,0,0,0,1.088-.135,1.909,1.909,0,0,0,.229-.3c.029-.047.135-.061.172-.1.1-.012.155-.012.2.038a1.193,1.193,0,0,1,.032.927,1.27,1.27,0,0,1-.248.3c-.057.049-.126.043-.19.086a.448.448,0,0,1-.371.1c-.06.005-.119.009-.179.013-.027-.007-.118-.055-.147-.062-.053.006-.108.01-.16.013l-.023-.069-.126.009c-.036-.022-.049-.106-.08-.137-.047-.047-.073-.016-.1-.1C-521.545,184.671-521.646,184.373-521.666,184.246Zm1.961,5.936c-.024.025-.052.011-.088.026-.137.058-.122.117-.319.1a1.158,1.158,0,0,0-.363-.255.162.162,0,0,1-.077-.037c0-.006-.011-.029-.011-.037.021-.025.037-.033.037-.155-.021-.026,0-.094-.021-.124-.019,0-.038-.1-.072-.138-.029-.009-.086-.109-.107-.129-.071-.055-.166-.09-.207-.171,0,0-.005-.012,0-.012.042-.082.071-.068.139-.122.486.017,1.144.471,1.141.952C-519.678,190.107-519.679,190.157-519.7,190.183Zm.294-1.4a.142.142,0,0,1-.074.014.307.307,0,0,0,0,.036.072.072,0,0,1-.04.028.7.7,0,0,1-.17.027c-.145-.022-.074-.032-.172-.007,0-.009-.009-.029-.015-.063-.1-.249-.619-.231-.917-.207a.171.171,0,0,1-.064-.118.139.139,0,0,1,.018-.1.308.308,0,0,1,.1-.093,1.16,1.16,0,0,1,.485-.177c.459-.067.938.04.978.507C-519.346,188.695-519.273,188.76-519.41,188.78Zm.744-4.014c-.028.006-.1-.044-.106-.051s-.016-.043-.016-.053c.03-.033.053-.045.051-.215-.029-.037,0-.133-.027-.172-.028,0-.058-.143-.1-.195-.038-.011-.121-.151-.151-.176-.1-.08-.23-.126-.286-.24.005,0-.01-.018,0-.018.057-.112.1-.1.195-.167.68.021,1.6.655,1.593,1.323-.034.035-.039.107-.073.142s-.073.014-.125.035c-.188.08-.169.162-.444.142A1.586,1.586,0,0,0-518.666,184.767Zm.54,2.36c.055-.065.045-.182.164-.188.012.026,0,.012.029.022a.068.068,0,0,1,.011-.019.12.12,0,0,0,.025-.078c.016,0,.033,0,.05,0,0-.106,0-.144.036-.185l.013-.009a.139.139,0,0,1,.029.058c.04.1.183.342.309.358.125.086.421-.12.441.123.065.115-.14.259-.2.286a1.331,1.331,0,0,1-.15.036C-517.688,187.617-518.123,187.346-518.127,187.127Zm1.313,1.161a.694.694,0,0,1-.137.169c-.033.029-.073.025-.108.048a.251.251,0,0,1-.207.056l-.1.005c-.013,0-.065-.03-.082-.032s-.059,0-.091.005l-.012-.038-.069,0c-.02-.013-.029-.06-.046-.076s-.041-.01-.053-.057c.02-.044-.037-.208-.048-.28-.012-.036-.018-.043-.009-.043a.525.525,0,0,0,.61-.076.984.984,0,0,0,.127-.169c.016-.027.075-.033.1-.057.058-.007.087-.006.111.021A.661.661,0,0,1-516.814,188.288Zm1.324.2c-.019.019-.041.009-.069.019-.107.045-.1.091-.248.08a.9.9,0,0,0-.282-.2c-.017,0-.057-.025-.06-.028s-.01-.025-.01-.032c.017-.017.03-.025.028-.12-.016-.02,0-.074-.015-.1-.015,0-.031-.08-.056-.109-.021-.006-.067-.086-.084-.1-.053-.044-.129-.069-.16-.135l0-.01c.032-.062.056-.052.11-.094.377.015.89.368.889.742C-515.468,188.425-515.468,188.463-515.49,188.483Zm-.433-1.612c.357-.055.733.03.764.393-.052.057,0,.107-.1.124a.11.11,0,0,1-.057.011.111.111,0,0,0,0,.028.071.071,0,0,1-.029.023.7.7,0,0,1-.135.02c-.114-.019-.058-.027-.134-.007a.429.429,0,0,1-.012-.048c-.079-.2-.483-.181-.716-.164a.123.123,0,0,1-.049-.089.12.12,0,0,1,.013-.083.291.291,0,0,1,.075-.072A.871.871,0,0,1-515.923,186.872Zm-.883-.872.094.025a2.616,2.616,0,0,0,.283-.073c.029-.006.093-.024.107.011.021.058-.118.037-.136.125-.066.057-.053.177-.064.261a.16.16,0,0,1,.072.093c-.062.084-.041.48-.237.461a.263.263,0,0,1-.184-.009c-.011-.017-.021-.032-.032-.048-.051-.033-.057-.058-.1-.09l-.137-.2c0-.019.006-.041.009-.061-.06-.092.017-.247.073-.311A.427.427,0,0,1-516.806,186Zm-1.562-3.934c.64-.1,1.311.057,1.366.7-.091.1.011.191-.182.221a.187.187,0,0,1-.1.018.269.269,0,0,0,0,.052.094.094,0,0,1-.052.038.981.981,0,0,1-.238.037c-.2-.033-.1-.045-.24-.011,0-.012-.013-.042-.02-.089-.139-.348-.864-.322-1.28-.291a.227.227,0,0,1-.088-.161.21.21,0,0,1,.022-.143.467.467,0,0,1,.135-.131A1.619,1.619,0,0,1-518.367,182.065Zm-2.033-1.225a.779.779,0,0,1,.457-.331l.166.046a4.835,4.835,0,0,0,.51-.129c.047-.013.165-.043.19.02.037.1-.212.063-.247.221-.117.1-.094.315-.112.463a.3.3,0,0,1,.13.17c-.112.148-.074.854-.426.822a.479.479,0,0,1-.33-.018c-.018-.027-.036-.053-.056-.083-.09-.06-.1-.1-.186-.162l-.244-.354c.007-.036.012-.073.017-.108C-520.636,181.229-520.5,180.954-520.4,180.84Zm-1.615,1.347c.024.048-.005.021.051.04l.02-.034a.209.209,0,0,0,.045-.139l.09.005c.009-.188,0-.255.064-.331,0,.006.023-.02.023-.014a.309.309,0,0,1,.051.1c.068.183.325.609.554.639.224.152.753-.216.788.219.117.205-.248.459-.355.511a1.636,1.636,0,0,1-.268.062c-.572.148-1.349-.333-1.353-.723C-522.21,182.407-522.225,182.2-522.015,182.187Zm-.859,6.018c.016.033,0,.015.036.028l.016-.026a.151.151,0,0,0,.03-.1q.032,0,.064,0c.008-.134,0-.182.047-.235,0,0,.018-.016.016-.011a.175.175,0,0,1,.037.075c.051.13.233.438.4.459.161.109.54-.155.566.156.082.149-.18.329-.255.369a1.37,1.37,0,0,1-.192.045c-.409.106-.967-.242-.971-.521C-523.014,188.361-523.025,188.211-522.874,188.2Z" transform="translate(525.192 -166.322)"/><g transform="translate(83.315 20.478)"><path d="M-440.766,189.489a3.078,3.078,0,0,1-1.073,2.4,2.893,2.893,0,0,1-.661.441l1.734,4.636-.659,0-1.662-4.421a5.091,5.091,0,0,1-1.368.17h-2.129v4.253h-.654v-9.41a1.135,1.135,0,0,1,.479-.993,1.412,1.412,0,0,1,.836-.257l1.969.006a3.149,3.149,0,0,1,2.311.87A3.113,3.113,0,0,1-440.766,189.489Zm-.692.016a2.651,2.651,0,0,0-.67-1.885,2.384,2.384,0,0,0-1.83-.715h-2.032a.6.6,0,0,0-.6.639v4.563h2.355a2.857,2.857,0,0,0,1.991-.67A2.444,2.444,0,0,0-441.458,189.505Z" transform="translate(447.239 -186.302)"/><path d="M-433.137,193.2a3.666,3.666,0,0,1-.989,2.643,3.408,3.408,0,0,1-2.588,1.037,3.441,3.441,0,0,1-2.6-1.04,3.653,3.653,0,0,1-1-2.64,3.662,3.662,0,0,1,1-2.644,3.428,3.428,0,0,1,2.6-1.043,3.432,3.432,0,0,1,2.6,1.047A3.691,3.691,0,0,1-433.137,193.2Zm-.653-.015a3.212,3.212,0,0,0-.778-2.227,2.739,2.739,0,0,0-2.145-.888,2.8,2.8,0,0,0-2.163.888,3.2,3.2,0,0,0-.777,2.227,3.188,3.188,0,0,0,.777,2.224,2.773,2.773,0,0,0,2.163.889,2.731,2.731,0,0,0,2.139-.9A3.188,3.188,0,0,0-433.79,193.186Z" transform="translate(447.716 -186.081)"/><path d="M-426.547,193.655a3.449,3.449,0,0,1-.716,2.283,2.662,2.662,0,0,1-2.17.934,2.655,2.655,0,0,1-2.175-.928,3.454,3.454,0,0,1-.712-2.289v-4.02h.6v4.217a2.572,2.572,0,0,0,.593,1.757,2.141,2.141,0,0,0,1.691.713,2.111,2.111,0,0,0,1.675-.719,2.569,2.569,0,0,0,.6-1.751v-4.217h.615Z" transform="translate(448.266 -186.073)"/><path d="M-423.1,190.346h-1.924v5.075c0,.579.2.868.619.868h.424v.58h-.315a1.2,1.2,0,0,1-1.345-1.381v-7.736h.617v2.013h1.924Z" transform="translate(448.726 -186.202)"/><path d="M-415.613,193.075a1.207,1.207,0,0,1-.035.322h-6.468a3.047,3.047,0,0,0,.891,2.106,2.9,2.9,0,0,0,2.123.8,4.472,4.472,0,0,0,1.388-.228,2.812,2.812,0,0,0,1.208-.682l.452.433a4.066,4.066,0,0,1-3.048,1.058,3.569,3.569,0,0,1-2.649-1.025,3.6,3.6,0,0,1-1.016-2.655,3.654,3.654,0,0,1,1-2.644,3.424,3.424,0,0,1,2.594-1.043,3.464,3.464,0,0,1,2.557,1.006A3.471,3.471,0,0,1-415.613,193.075Zm-.654-.26a3.068,3.068,0,0,0-.9-1.986,2.778,2.778,0,0,0-2.009-.76,2.8,2.8,0,0,0-2.021.76,3.072,3.072,0,0,0-.914,1.986Z" transform="translate(448.924 -186.081)"/><path d="M-405.284,186.467v10.491h-.616v-1.323a3.469,3.469,0,0,1-1.617,1.214,3.618,3.618,0,0,1-1.316.242,3.446,3.446,0,0,1-2.607-1.025,3.668,3.668,0,0,1-.988-2.655,3.714,3.714,0,0,1,.949-2.661,3.4,3.4,0,0,1,2.611-1.026,3.409,3.409,0,0,1,2.967,1.57v-4.826Zm-.616,8.264v-.962a3.951,3.951,0,0,0-.7-2.432,2.61,2.61,0,0,0-2.226-1.058,2.769,2.769,0,0,0-2.161.882,3.178,3.178,0,0,0-.778,2.234,3.2,3.2,0,0,0,.761,2.239,2.8,2.8,0,0,0,2.178.874,2.917,2.917,0,0,0,1.315-.3A3.732,3.732,0,0,0-405.9,194.731Z" transform="translate(449.636 -186.291)"/><path d="M-397.433,193.075a1.2,1.2,0,0,1-.037.322h-6.467a3.059,3.059,0,0,0,.889,2.106,2.912,2.912,0,0,0,2.125.8,4.466,4.466,0,0,0,1.387-.228,2.8,2.8,0,0,0,1.207-.682l.454.433a4.066,4.066,0,0,1-3.048,1.058,3.569,3.569,0,0,1-2.65-1.025,3.61,3.61,0,0,1-1.018-2.655,3.66,3.66,0,0,1,1-2.644A3.418,3.418,0,0,1-401,189.513a3.462,3.462,0,0,1,2.558,1.006A3.472,3.472,0,0,1-397.433,193.075Zm-.653-.26a3.081,3.081,0,0,0-.906-1.986,2.775,2.775,0,0,0-2.011-.76,2.807,2.807,0,0,0-2.022.76,3.06,3.06,0,0,0-.912,1.986Z" transform="translate(450.175 -186.081)"/></g><g transform="translate(0 33.919)"><path d="M-471.018,221.163h-1.46V210.97a6.168,6.168,0,0,0-1.459-4.236,5.15,5.15,0,0,0-4.073-1.744,5.382,5.382,0,0,0-4.022,1.525,5.55,5.55,0,0,0-1.494,4.057v10.59h-1.494V203.923h1.494v2.366a6.4,6.4,0,0,1,5.516-2.652,6.428,6.428,0,0,1,5.248,2.262,8.334,8.334,0,0,1,1.744,5.532Z" transform="translate(527.952 -198.549)"/><path d="M-451.288,211.9a2.948,2.948,0,0,1-.089.78h-15.655a7.406,7.406,0,0,0,2.152,5.1,7.05,7.05,0,0,0,5.142,1.927,10.942,10.942,0,0,0,3.363-.552,6.721,6.721,0,0,0,2.917-1.654l1.1,1.049q-2.491,2.56-7.383,2.562a8.637,8.637,0,0,1-6.414-2.483,8.734,8.734,0,0,1-2.464-6.431,8.889,8.889,0,0,1,2.419-6.4,8.313,8.313,0,0,1,6.282-2.527,8.375,8.375,0,0,1,6.189,2.443A8.39,8.39,0,0,1-451.288,211.9Zm-1.584-.624a7.424,7.424,0,0,0-2.188-4.811,6.723,6.723,0,0,0-4.875-1.844,6.785,6.785,0,0,0-4.892,1.844,7.384,7.384,0,0,0-2.205,4.811Z" transform="translate(529.082 -198.575)"/><path d="M-439.723,205.4l-.1-.018q.178,0-2.009-.247a5.084,5.084,0,0,0-4.183,2.173,9.548,9.548,0,0,0-1.619,5.965v7.693h-1.46v-17.2h1.46v3.36a6.634,6.634,0,0,1,6.012-3.433c.2.022.837.114,1.9.266Z" transform="translate(530.426 -198.546)"/><path d="M-421.964,220.1a9.016,9.016,0,0,1-2.189,6.369,8.039,8.039,0,0,1-6.225,2.454,13.678,13.678,0,0,1-3.614-.426,34.754,34.754,0,0,1-3.379-1.282l.515-1.494a12.832,12.832,0,0,0,6.548,1.708,6.471,6.471,0,0,0,5.1-2.046,7.661,7.661,0,0,0,1.745-5.283v-2.4a10.779,10.779,0,0,1-1.959,1.779,8.679,8.679,0,0,1-1.779,1.052,9.646,9.646,0,0,1-3.362.586,8.355,8.355,0,0,1-6.318-2.483,8.892,8.892,0,0,1-2.382-6.431,8.968,8.968,0,0,1,2.295-6.439,8.255,8.255,0,0,1,6.334-2.493,8.223,8.223,0,0,1,7.171,3.808v-3.487h1.493Zm-1.493-4.413v-2.615a9.561,9.561,0,0,0-1.708-5.887,6.3,6.3,0,0,0-5.384-2.564,6.729,6.729,0,0,0-5.241,2.136,7.707,7.707,0,0,0-1.883,5.409,7.744,7.744,0,0,0,1.848,5.425,6.758,6.758,0,0,0,5.276,2.117,7.547,7.547,0,0,0,3.358-.73A9.351,9.351,0,0,0-423.457,215.688Z" transform="translate(531.103 -198.575)"/><path d="M-417.116,200.585a.967.967,0,0,1-1.1,1.086.945.945,0,0,1-1.052-1.086.929.929,0,0,1,1.052-1.05Q-417.116,199.535-417.116,200.585Zm-.339,20.861h-1.492v-17.2h1.492Z" transform="translate(532.479 -198.832)"/><path d="M-396.555,212.194a3.073,3.073,0,0,1-.088.781H-412.3a7.406,7.406,0,0,0,2.153,5.1A7.053,7.053,0,0,0-405.005,220a10.888,10.888,0,0,0,3.36-.553,6.724,6.724,0,0,0,2.918-1.655l1.1,1.049q-2.49,2.562-7.382,2.562a8.638,8.638,0,0,1-6.414-2.482,8.733,8.733,0,0,1-2.466-6.431,8.881,8.881,0,0,1,2.421-6.406,8.312,8.312,0,0,1,6.281-2.526,8.378,8.378,0,0,1,6.191,2.443A8.387,8.387,0,0,1-396.555,212.194Zm-1.584-.625a7.429,7.429,0,0,0-2.188-4.812,6.73,6.73,0,0,0-4.875-1.843,6.782,6.782,0,0,0-4.892,1.843,7.389,7.389,0,0,0-2.206,4.812Z" transform="translate(532.85 -198.554)"/><path d="M-493.54,198.877h-2.176l-2.917,2.987,2.129,0Zm6.348,13.341a8.426,8.426,0,0,0-2.438-6.2,8.374,8.374,0,0,0-6.191-2.446A8.315,8.315,0,0,0-502.1,206.1a8.894,8.894,0,0,0-2.419,6.4,8.738,8.738,0,0,0,2.464,6.431,8.638,8.638,0,0,0,6.413,2.483q4.893,0,7.384-2.562l-1.1-1.049a6.73,6.73,0,0,1-2.919,1.654,10.927,10.927,0,0,1-3.363.552,7.063,7.063,0,0,1-5.142-1.922A7.393,7.393,0,0,1-502.938,213h15.655A2.994,2.994,0,0,0-487.192,212.218Zm-15.746-.623a7.42,7.42,0,0,1,2.206-4.824,6.766,6.766,0,0,1,4.893-1.848,6.708,6.708,0,0,1,4.874,1.848,7.454,7.454,0,0,1,2.188,4.824Z" transform="translate(526.61 -198.877)"/><path d="M-510,199.431l.132,4.4h1.53l.132-4.4Z" transform="translate(526.232 -198.839)"/><path d="M-523.6,218.642V199.431h-1.583v19.193a2.752,2.752,0,0,0,1.156,2.4,3.392,3.392,0,0,0,2.028.623h9.466v-1.458h-9.623A1.458,1.458,0,0,1-523.6,218.642Z" transform="translate(525.187 -198.839)"/></g></g></g></svg>