<svg xmlns="http://www.w3.org/2000/svg" xmlns:xlink="http://www.w3.org/1999/xlink" width="108.812" height="77.877" viewBox="0 0 108.812 77.877"><defs><style>.a{fill:none;}.b{clip-path:url(#a);}.c{fill:#d8d8da;}.d{fill:#009ddd;}.e{fill:#f05d20;}.f{fill:#ff2d16;}.g{fill:#e34ea6;}.h{fill:#00aa4f;}.i{fill:#ff7d23;}.j{fill:#0064b6;}.k{fill:#9a9b9f;}</style><clipPath id="a"><path class="a" d="M50.787,50.741H159.6V-27.136H50.787Z" transform="translate(-50.787 27.136)"/></clipPath></defs><g class="b" transform="translate(0 0)"><g transform="translate(2.146 45.501)"><g transform="translate(0 0)"><path class="c" d="M0,1.721c3.171,1.067,7.378,4.334,9.844,6.4,2.8,2.347,9.506,4.6,15.712-4.576-3.878,1.124-4.183.168-8.807-2.681S6.58-.892,0,1.721" transform="translate(0 0.822)"/></g></g><g transform="translate(12.235 30.89)"><g transform="translate(0 0)"><path class="c" d="M10.933,10.527C13.136,1.626,2.232-5.5-5.221-5-2.17-3.572.568,2.319,1.664,5.2s5.045,6.056,9.27,5.33" transform="translate(5.221 5.027)"/></g></g><g transform="translate(27.387 12.574)"><g transform="translate(0 0)"><path class="c" d="M2.945,17.373c-.254-1.812.826-4.589,3.715-7.909a15.415,15.415,0,0,0,3.7-11c-.217-1.7-1.649-5.822-.051-6.757A21.7,21.7,0,0,0,.329.652C-2.084,4.588-2.619,11.558,2.945,17.373" transform="translate(1.406 8.296)"/></g></g><g transform="translate(45.134 0.799)"><g transform="translate(0 0)"><path class="c" d="M.255,14.219c1.249-3.273,3.683-4.3,10.07-7.407,5.185-2.524,6.715-9.793,5.683-13.6C13.83-3.489,9.193-2.14,6.6-.831S-1.624,5.307.255,14.219" transform="translate(0.122 6.79)"/></g></g><g transform="translate(37.271 32.119)"><g transform="translate(0 0)"><path class="c" d="M0,11.766c12.574.917,16.045-3.313,16.265-9.566.094-2.714-.7-5.084,1.267-7.818-2.968.524-7.668,2.78-10.682,9.034S.821,11.223,0,11.766" transform="translate(0 5.618)"/></g></g><g transform="translate(32.061 54.893)"><g transform="translate(0 0)"><path class="c" d="M0,2.577c3.517,0,3.1,1.76,8.567,4.979s9.319.993,12.216-3.588c-1.871.789-3.473-1.677-7.4-3.645S4.02-2.535,0,2.577" transform="translate(0 1.23)"/></g></g><g transform="translate(0.001 46.509)"><g transform="translate(0 0)"><path class="d" d="M0,2.247c3.238.838,7.665,3.8,10.267,5.683,2.96,2.141,9.8,3.91,15.354-5.683-3.791,1.4-4.162.466-8.972-2.049S6.381-.826,0,2.247" transform="translate(0 1.073)"/></g></g><g transform="translate(9.99 32.119)"><g transform="translate(0 0)"><path class="e" d="M11.644,9.781C13.217.748,1.84-5.588-5.56-4.561-2.414-3.353.73,2.329,2.025,5.123s5.456,5.683,9.618,4.658" transform="translate(5.56 4.67)"/></g></g><g transform="translate(26.222 13.225)"><g transform="translate(0 0)"><path class="f" d="M3.788,17.84c-.463-1.768.29-4.655,2.775-8.289A15.431,15.431,0,0,0,8.97-1.813C8.556-3.472,6.657-7.4,8.136-8.519A21.743,21.743,0,0,0-.742,1.541c-1.944,4.191-1.667,11.176,4.53,16.3" transform="translate(1.809 8.519)"/></g></g><g transform="translate(43.374 -0.001)"><g transform="translate(0 0)"><path class="g" d="M.443,14.94c1.018-3.353,3.374-4.546,9.526-8.1,4.995-2.889,6.013-10.246,4.717-13.972C12.745-3.69,8.213-2.012,5.716-.522S-2.054,6.186.443,14.94" transform="translate(0.212 7.134)"/></g></g><g transform="translate(36.906 30.177)"><g transform="translate(0 0)"><path class="h" d="M0,13.3c12.58-.838,15.439-5.512,14.8-11.736-.277-2.7-1.387-4.936.186-7.917C12.119-5.421,7.77-2.534,5.643,4.08S.742,12.65,0,13.3" transform="translate(0 6.352)"/></g></g><g transform="translate(31.079 54.207)"><g transform="translate(0 0)"><path class="i" d="M0,2.711c3.515-.093,3.144,1.677,8.694,4.75s9.343.746,12.117-3.912C18.961,4.388,17.3,1.966,13.319.1S3.885-2.505,0,2.711" transform="translate(0 1.295)"/></g></g><g transform="translate(13.876 20.675)"><path class="j" d="M0,27.738c10.453.185,20.111-4.4,25.066-20.678C28.951-5.7,39.772-12.407,46.987-13.246,38.016-13.059,27.1-9.8,21.179,6.315S7.678,25.5,0,27.738" transform="translate(0 13.246)"/></g><g transform="translate(56.264 32.448)"><g transform="translate(0 0)"><path class="d" d="M2,.195a.487.487,0,0,0-.427.164.907.907,0,0,0-.111.5v9.976H8.993q.785,0,.785-.712h.268v2.73H9.777q0-.453-.785-.452H-.956v-.284a.5.5,0,0,0,.425-.155.694.694,0,0,0,.113-.417V.763A.69.69,0,0,0-.531.349.494.494,0,0,0-.956.195V-.093H2Z" transform="translate(0.956 0.093)"/></g></g><g transform="translate(68.984 34.261)"><g transform="translate(0 0)"><path class="d" d="M.237.511A.4.4,0,0,0-.113.383V.147H7.618A1.3,1.3,0,0,0,8.227.061a.339.339,0,0,0,.128-.3h.224V1.988H8.356a.535.535,0,0,0-.147-.4.8.8,0,0,0-.571-.147H1.88V4.53H5.625a1.1,1.1,0,0,0,.544-.118.444.444,0,0,0,.212-.428H6.6V6.349H6.382a.475.475,0,0,0-.165-.412,1.026,1.026,0,0,0-.555-.115H1.88V9.146H8.042A.905.905,0,0,0,8.614,9,.626.626,0,0,0,8.8,8.482H9.02V10.81H8.8c0-.247-.212-.372-.645-.372H-.113V10.2a.4.4,0,0,0,.35-.128.574.574,0,0,0,.094-.342V.853A.581.581,0,0,0,.237.511" transform="translate(0.113 0.244)"/></g></g><g transform="translate(80.223 34.536)"><g transform="translate(0 0)"><path class="d" d="M.835,4.952a.688.688,0,0,0-.055.254.8.8,0,0,0,.323.567,3.424,3.424,0,0,0,.848.54,6.4,6.4,0,0,0,1.191.4,5.887,5.887,0,0,0,1.348.155A4.53,4.53,0,0,0,7.027,6.32,1.654,1.654,0,0,0,7.81,4.912a1.155,1.155,0,0,0-.193-.685,1.237,1.237,0,0,0-.536-.42A3.013,3.013,0,0,0,6.288,3.6a7.7,7.7,0,0,0-.969-.057c-.564,0-1.165,0-1.8-.01a6.032,6.032,0,0,1-1.741-.255A2.856,2.856,0,0,1,.467,2.467,2.418,2.418,0,0,1-.05.784,2.341,2.341,0,0,1,.318-.5a3.264,3.264,0,0,1,1.007-.987,5.293,5.293,0,0,1,1.5-.647A7.2,7.2,0,0,1,4.71-2.365a7.028,7.028,0,0,1,1.375.118,9.2,9.2,0,0,1,1.005.254c.284.091.517.176.7.255a1.254,1.254,0,0,0,.46.117A.451.451,0,0,0,8.549-1.7a2.351,2.351,0,0,0,.184-.177l.222.1L7.939.473l-.2-.137A1.181,1.181,0,0,0,7.755.08c0-.089-.073-.2-.22-.332a2.683,2.683,0,0,0-.628-.382,5.067,5.067,0,0,0-.969-.311A5.481,5.481,0,0,0,4.71-1.071a4.732,4.732,0,0,0-2.372.506A1.512,1.512,0,0,0,1.463.765a.877.877,0,0,0,.193.6,1.281,1.281,0,0,0,.534.351,2.887,2.887,0,0,0,.794.166c.3.027.623.042.969.042.579,0,1.18.008,1.808.027a5.908,5.908,0,0,1,1.735.3,2.978,2.978,0,0,1,1.311.88,2.684,2.684,0,0,1,.515,1.78,2.528,2.528,0,0,1-.3,1.2,3.062,3.062,0,0,1-.913,1.027,4.592,4.592,0,0,1-1.5.7A7.659,7.659,0,0,1,4.525,8.1,7.9,7.9,0,0,1,2.8,7.934a7.081,7.081,0,0,1-1.245-.391c-.344-.15-.626-.287-.85-.41a1.182,1.182,0,0,0-.534-.187.546.546,0,0,0-.387.235L-.4,7.064l1-2.25Z" transform="translate(0.399 2.365)"/></g></g><g transform="translate(56.635 47.85)"><g transform="translate(0 0)"><path class="d" d="M5.959,4.349a3.2,3.2,0,0,0,2.267-.643,2.343,2.343,0,0,0,.66-1.76A2.018,2.018,0,0,0,8.292.339,3.72,3.72,0,0,0,5.959-.178H0V4.349Zm-8.3-5.91a.583.583,0,0,0-.5-.182v-.334H6.012A5.506,5.506,0,0,1,9.757-1.045a3.744,3.744,0,0,1,1.132,2.906A4.442,4.442,0,0,1,9.768,5.1,4.981,4.981,0,0,1,6.091,6.249H0v5.365a.81.81,0,0,0,.132.489.58.58,0,0,0,.5.182v.335H-2.846v-.335a.583.583,0,0,0,.5-.182.821.821,0,0,0,.132-.489V-1.072a.824.824,0,0,0-.132-.489" transform="translate(2.846 2.077)"/></g></g><g transform="translate(69.324 51.083)"><g transform="translate(0 0)"><path class="d" d="M5.609,4.72,3.285-.424,1.146,4.72ZM-.211,7.9c-.052.131-.116.276-.184.436a1.04,1.04,0,0,0-.1.37c0,.16.117.24.349.24v.263H-2.679V8.949a.87.87,0,0,0,.216-.022A.324.324,0,0,0-2.287,8.8,2.017,2.017,0,0,0-2.1,8.479c.068-.139.155-.323.268-.554L1.886-.881c.111-.247.192-.433.247-.554a.777.777,0,0,0,.081-.3c0-.176-.124-.262-.368-.262v-.262h3v.262c-.219,0-.328.086-.328.262a.809.809,0,0,0,.1.337c.068.139.159.331.268.578L8.836,7.86c.124.26.22.465.29.61A1.645,1.645,0,0,0,9.32,8.8a.371.371,0,0,0,.2.129,1.342,1.342,0,0,0,.287.022v.263H6.946V8.949a.5.5,0,0,0,.328-.077.293.293,0,0,0,.082-.228A.567.567,0,0,0,7.3,8.415c-.033-.081-.1-.251-.214-.513L6.307,6.159H.489Z" transform="translate(2.679 2.254)"/></g></g><g transform="translate(81.168 51.082)"><g transform="translate(0)"><path class="d" d="M2.95,7.583a.455.455,0,0,0,.39-.142.629.629,0,0,0,.1-.382V3.092L-.522-2.62a5.54,5.54,0,0,0-.463-.564.578.578,0,0,0-.423-.174v-.263H1.7v.263c-.342.013-.512.115-.512.3a.406.406,0,0,0,.122.251,2.009,2.009,0,0,1,.227.315l2.837,4.1,3-4.231c.055-.072.117-.15.186-.236a.419.419,0,0,0,.1-.241c0-.174-.152-.26-.453-.26v-.263H10.17v.263a.6.6,0,0,0-.463.185c-.119.123-.273.308-.463.552L5.172,3.092V7.06a.629.629,0,0,0,.1.382.457.457,0,0,0,.39.142v.262H2.95Z" transform="translate(1.409 3.621)"/></g></g><g transform="translate(94.06 50.952)"><g transform="translate(0 0)"><path class="d" d="M.933,5.517A.749.749,0,0,0,.871,5.8a.9.9,0,0,0,.358.631,3.781,3.781,0,0,0,.947.6A6.93,6.93,0,0,0,3.5,7.478,6.51,6.51,0,0,0,5,7.653a5.057,5.057,0,0,0,2.827-.61,1.847,1.847,0,0,0,.874-1.57,1.312,1.312,0,0,0-.216-.763,1.4,1.4,0,0,0-.6-.469,3.308,3.308,0,0,0-.883-.228,8.5,8.5,0,0,0-1.08-.065q-.947,0-2-.01a6.828,6.828,0,0,1-1.944-.284A3.2,3.2,0,0,1,.522,2.748,2.687,2.687,0,0,1-.055.875,2.6,2.6,0,0,1,.357-.554a3.681,3.681,0,0,1,1.119-1.1,5.946,5.946,0,0,1,1.676-.719,8.034,8.034,0,0,1,2.1-.262A7.776,7.776,0,0,1,6.782-2.5,10.9,10.9,0,0,1,7.9-2.221q.473.153.782.284a1.389,1.389,0,0,0,.514.131.506.506,0,0,0,.328-.088,2.136,2.136,0,0,0,.206-.2l.247.109L8.848.526,8.623.372A1.242,1.242,0,0,0,8.644.09c0-.1-.082-.225-.247-.37a2.909,2.909,0,0,0-.7-.425,5.561,5.561,0,0,0-1.08-.348A6.1,6.1,0,0,0,5.25-1.2a5.25,5.25,0,0,0-2.642.567A1.681,1.681,0,0,0,1.632.853a.978.978,0,0,0,.216.664,1.417,1.417,0,0,0,.6.393,3.369,3.369,0,0,0,.885.185q.5.043,1.078.043.968,0,2.015.034a6.509,6.509,0,0,1,1.933.337,3.271,3.271,0,0,1,1.46.984,2.976,2.976,0,0,1,.576,1.982,2.832,2.832,0,0,1-.339,1.338A3.385,3.385,0,0,1,9.034,7.958a5.176,5.176,0,0,1-1.676.784,8.44,8.44,0,0,1-2.312.284A8.669,8.669,0,0,1,3.122,8.84a7.979,7.979,0,0,1-1.387-.434c-.384-.168-.7-.321-.947-.457a1.3,1.3,0,0,0-.6-.209A.617.617,0,0,0-.241,8l-.2-.131L.665,5.364Z" transform="translate(0.445 2.634)"/></g></g><g transform="translate(11.2 71.384)"><g transform="translate(0 0)"><path class="k" d="M2.042,3.48a1.449,1.449,0,0,0,1.245-.559A2.725,2.725,0,0,0,3.7,1.278,2.467,2.467,0,0,0,3.225-.365,1.676,1.676,0,0,0,1.874-.924H.041v4.4ZM-.8-1.454a.194.194,0,0,0-.178-.073v-.134H1.947A2.473,2.473,0,0,1,3-1.443a2.269,2.269,0,0,1,.791.608A2.8,2.8,0,0,1,4.3.1a3.745,3.745,0,0,1,.179,1.178,4.492,4.492,0,0,1-.149,1.18,2.783,2.783,0,0,1-.45.933A2.082,2.082,0,0,1,3.141,4a2.245,2.245,0,0,1-1.013.217h-3.1V4.083A.2.2,0,0,0-.8,4.012a.346.346,0,0,0,.048-.2V-1.259A.337.337,0,0,0-.8-1.454" transform="translate(0.975 1.662)"/></g></g><g transform="translate(17.718 71.163)"><g transform="translate(0 0)"><path class="k" d="M.121.29A.2.2,0,0,0-.058.218V.084H3.9A.617.617,0,0,0,4.206.034a.207.207,0,0,0,.067-.172h.116V1.134H4.272A.327.327,0,0,0,4.2.906.391.391,0,0,0,3.9.821H.962V2.589H2.877a.5.5,0,0,0,.277-.069.271.271,0,0,0,.109-.247h.113V3.628H3.264a.285.285,0,0,0-.086-.236.45.45,0,0,0-.284-.067H.962v1.9H4.114a.434.434,0,0,0,.292-.085A.383.383,0,0,0,4.5,4.847h.113v1.33H4.5c0-.142-.109-.212-.33-.212H-.058V5.83a.2.2,0,0,0,.179-.073.34.34,0,0,0,.048-.2V.484A.337.337,0,0,0,.121.29" transform="translate(0.058 0.138)"/></g></g><g transform="translate(26.197 67.6)"><g transform="translate(0 0)"><path class="k" d="M.7,4.6a.67.67,0,0,0-.046.236.776.776,0,0,0,.268.527,2.818,2.818,0,0,0,.706.5,4.684,4.684,0,0,0,.989.372,4.349,4.349,0,0,0,1.118.145,3.456,3.456,0,0,0,2.109-.508,1.585,1.585,0,0,0,.652-1.308,1.163,1.163,0,0,0-.162-.636,1.074,1.074,0,0,0-.444-.391,2.345,2.345,0,0,0-.658-.19,5.6,5.6,0,0,0-.807-.053c-.469,0-.967,0-1.494-.011a4.545,4.545,0,0,1-1.449-.236A2.364,2.364,0,0,1,.389,2.293,2.429,2.429,0,0,1-.04.729,2.356,2.356,0,0,1,.266-.46,2.922,2.922,0,0,1,1.1-1.378a4.292,4.292,0,0,1,1.249-.6A5.381,5.381,0,0,1,3.914-2.2a5.3,5.3,0,0,1,1.143.11,7.226,7.226,0,0,1,.834.236c.236.086.43.164.584.236a.953.953,0,0,0,.384.109A.339.339,0,0,0,7.1-1.578a1.375,1.375,0,0,0,.154-.163l.184.091L6.6.44,6.429.313A1.181,1.181,0,0,0,6.445.075a.494.494,0,0,0-.184-.307,2.121,2.121,0,0,0-.522-.356,4.094,4.094,0,0,0-.806-.291A4.256,4.256,0,0,0,3.914-1a3.585,3.585,0,0,0-1.969.473A1.426,1.426,0,0,0,1.216.712a.885.885,0,0,0,.162.552,1.046,1.046,0,0,0,.446.327,2.228,2.228,0,0,0,.658.155c.251.024.519.037.806.037q.721,0,1.5.027a4.392,4.392,0,0,1,1.44.283,2.447,2.447,0,0,1,1.089.816,2.689,2.689,0,0,1,.428,1.653,2.6,2.6,0,0,1-.252,1.118,2.761,2.761,0,0,1-.76.953,3.71,3.71,0,0,1-1.248.655,5.748,5.748,0,0,1-1.725.235,5.828,5.828,0,0,1-1.435-.155A5.434,5.434,0,0,1,1.293,7c-.285-.139-.522-.267-.706-.38a.908.908,0,0,0-.444-.174c-.1,0-.209.072-.322.217l-.154-.107L.5,4.471Z" transform="translate(0.332 2.196)"/></g></g><g transform="translate(35.049 69.18)"><g transform="translate(0 0)"><path class="k" d="M3.538,3.329,2.072-.3.724,3.329ZM-.132,5.572c-.035.093-.075.193-.117.308a.8.8,0,0,0-.065.262c0,.112.073.169.22.169v.182h-1.6V6.311a.5.5,0,0,0,.136-.018A.218.218,0,0,0-1.442,6.2a1.617,1.617,0,0,0,.116-.224c.043-.1.1-.228.168-.391L1.188-.622c.071-.174.124-.3.157-.391A.6.6,0,0,0,1.4-1.222q0-.182-.233-.182v-.185H3.058V-1.4c-.138,0-.209.061-.209.182a.665.665,0,0,0,.065.24c.046.1.1.233.171.407L5.576,5.542l.181.43A1.064,1.064,0,0,0,5.88,6.2.224.224,0,0,0,6,6.294a.746.746,0,0,0,.181.018v.182h-1.8V6.311a.307.307,0,0,0,.208-.054.233.233,0,0,0,.052-.163.514.514,0,0,0-.033-.16c-.022-.057-.067-.179-.136-.362L3.979,4.342H.308Z" transform="translate(1.69 1.589)"/></g></g><g transform="translate(44.026 69.182)"><g transform="translate(0 0)"><path class="k" d="M0,5.345a.277.277,0,0,0,.247-.1.5.5,0,0,0,.065-.268V-2a.491.491,0,0,0-.065-.27A.277.277,0,0,0,0-2.37v-.182H1.712v.182a.274.274,0,0,0-.246.1A.478.478,0,0,0,1.4-2V4.978a.487.487,0,0,0,.065.268.273.273,0,0,0,.246.1V5.53H0Z" transform="translate(0 2.552)"/></g></g><g transform="translate(47.813 69.18)"><g transform="translate(0 0)"><path class="k" d="M4.162,4.1V-1.4A.489.489,0,0,0,4.1-1.671a.265.265,0,0,0-.246-.1v-.185H5.406v.185a.267.267,0,0,0-.246.1A.489.489,0,0,0,5.1-1.4V5.573a.486.486,0,0,0,.065.268.27.27,0,0,0,.246.1v.185H3.746V5.942c.173,0,.26-.042.26-.123a.277.277,0,0,0-.052-.177.992.992,0,0,1-.078-.113L-.743-.7v6.27a.486.486,0,0,0,.065.268.275.275,0,0,0,.247.1v.185H-1.987V5.942a.268.268,0,0,0,.246-.1.46.46,0,0,0,.065-.268V-1.4a.463.463,0,0,0-.065-.268.265.265,0,0,0-.246-.1v-.185H.206v.185a.338.338,0,0,0-.2.038A.15.15,0,0,0-.04-1.6a.19.19,0,0,0,.032.1.764.764,0,0,0,.071.1L4.136,4.1Z" transform="translate(1.987 1.957)"/></g></g><g transform="translate(56.597 68.783)"><g transform="translate(0 0)"><path class="k" d="M1.676,5.615a.278.278,0,0,0,.247-.1.5.5,0,0,0,.063-.268V-1.27H-.192a.559.559,0,0,0-.35.085.387.387,0,0,0-.1.315H-.8V-2.681h.155c0,.265.151.4.453.4H5.257c.3,0,.453-.134.453-.4h.157V-.871H5.71a.387.387,0,0,0-.1-.315.559.559,0,0,0-.349-.085H3.078V5.248a.474.474,0,0,0,.065.268.273.273,0,0,0,.246.1V5.8H1.676Z" transform="translate(0.8 2.681)"/></g></g><g transform="translate(63.731 73.376)"><path class="k" d="M78.232,53.089H75.21V52.075h3.022Z" transform="translate(-75.21 -52.075)"/></g><g transform="translate(68.26 67.347)"><g transform="translate(0 0)"><path class="k" d="M3.735,4.106a.435.435,0,0,0-.121-.362A.712.712,0,0,0,3.137,3.6H-.128V7.3a.564.564,0,0,0,.076.318.321.321,0,0,0,.293.118v.219H-1.783V7.738a.315.315,0,0,0,.29-.118A.577.577,0,0,0-1.417,7.3V-.943a.577.577,0,0,0-.076-.318.319.319,0,0,0-.29-.118V-1.6H4.81a.97.97,0,0,0,.5-.081.333.333,0,0,0,.109-.281h.184V.109H5.423A.532.532,0,0,0,5.3-.263.637.637,0,0,0,4.822-.4H-.128V2.4H3.121a.985.985,0,0,0,.507-.081.336.336,0,0,0,.106-.283h.184V4.106Z" transform="translate(1.783 1.96)"/></g></g><g transform="translate(76.714 69.18)"><g transform="translate(0 0)"><path class="k" d="M1.159.125A.259.259,0,0,0,.915.231.621.621,0,0,0,.85.556V7.009H5.209a.4.4,0,0,0,.453-.461h.154V8.317H5.662c0-.195-.152-.294-.453-.294H-.553V7.841a.272.272,0,0,0,.247-.1.487.487,0,0,0,.065-.267V.493A.5.5,0,0,0-.306.223a.278.278,0,0,0-.247-.1V-.06H1.159Z" transform="translate(0.553 0.06)"/></g></g><g transform="translate(83.617 69.088)"><g transform="translate(0 0)"><path class="k" d="M1.26,1.262A3.311,3.311,0,0,0,.54,3.523a3.31,3.31,0,0,0,.72,2.263A2.581,2.581,0,0,0,3.3,6.6a2.584,2.584,0,0,0,2.044-.819,3.31,3.31,0,0,0,.72-2.263,3.311,3.311,0,0,0-.72-2.261A2.574,2.574,0,0,0,3.3.443a2.57,2.57,0,0,0-2.042.819m3.6-1.6A3.437,3.437,0,0,1,6.1.465a3.666,3.666,0,0,1,.817,1.3,4.9,4.9,0,0,1,.293,1.766A4.914,4.914,0,0,1,6.914,5.3,3.59,3.59,0,0,1,6.1,6.591a3.318,3.318,0,0,1-1.238.776A4.652,4.652,0,0,1,3.3,7.62a4.649,4.649,0,0,1-1.556-.254A3.33,3.33,0,0,1,.505,6.591,3.63,3.63,0,0,1-.31,5.3,4.95,4.95,0,0,1-.6,3.531,4.935,4.935,0,0,1-.31,1.765,3.707,3.707,0,0,1,.505.465a3.449,3.449,0,0,1,1.242-.8A4.386,4.386,0,0,1,3.3-.6a4.389,4.389,0,0,1,1.557.268" transform="translate(0.602 0.603)"/></g></g><g transform="translate(92.712 69.179)"><g transform="translate(0 0)"><path class="k" d="M.165.192a.266.266,0,0,0-.244-.1V-.092H1.632V.095a.267.267,0,0,0-.246.1.483.483,0,0,0-.065.268V5.379a1.369,1.369,0,0,0,.55,1.237,3.009,3.009,0,0,0,1.641.361,3.005,3.005,0,0,0,1.641-.361,1.366,1.366,0,0,0,.552-1.237V.461A.483.483,0,0,0,5.639.192a.267.267,0,0,0-.246-.1V-.092H7.106V.095a.263.263,0,0,0-.244.1.47.47,0,0,0-.067.268V5.042a4.223,4.223,0,0,1-.227,1.506,2.125,2.125,0,0,1-.65.923,2.339,2.339,0,0,1-1.029.455,7.618,7.618,0,0,1-1.376.113,7.6,7.6,0,0,1-1.375-.113A2.343,2.343,0,0,1,1.106,7.47a2.133,2.133,0,0,1-.647-.923A4.185,4.185,0,0,1,.23,5.042V.461A.5.5,0,0,0,.165.192" transform="translate(0.079 0.092)"/></g></g><g transform="translate(101.751 69.181)"><g transform="translate(0 0)"><path class="k" d="M2.871,2.392a1.465,1.465,0,0,0,1.116-.354,1.369,1.369,0,0,0,.323-.968A1.789,1.789,0,0,0,4.245.547.748.748,0,0,0,4.014.186a1.105,1.105,0,0,0-.46-.217A3.436,3.436,0,0,0,2.806-.1H.029V2.392ZM.094,6.656a.273.273,0,0,0,.247.1v.185H-1.371V6.755a.27.27,0,0,0,.246-.1.467.467,0,0,0,.065-.268V-.59a.469.469,0,0,0-.065-.27.273.273,0,0,0-.246-.1v-.184H2.975a2.5,2.5,0,0,1,1.843.573A2.313,2.313,0,0,1,5.374,1.1a2.508,2.508,0,0,1-.427,1.539,2.077,2.077,0,0,1-1.4.723l1.632,3a1.5,1.5,0,0,0,.23.324.4.4,0,0,0,.277.075v.185H3.819V6.755a.482.482,0,0,0,.212-.029.125.125,0,0,0,.048-.11.265.265,0,0,0-.065-.168l-1.6-3.013H.029V6.388a.507.507,0,0,0,.065.268" transform="translate(1.371 1.142)"/></g></g></g></svg>