<svg xmlns="http://www.w3.org/2000/svg" xmlns:xlink="http://www.w3.org/1999/xlink" width="138" height="92.639" viewBox="0 0 138 92.639"><defs><style>.a{fill:none;}.b{clip-path:url(#a);}.c{fill:#696a6f;}.d{clip-path:url(#b);}.e{fill:url(#c);}.f{clip-path:url(#d);}.g{fill:url(#e);}.h{clip-path:url(#f);}.i{fill:url(#g);}</style><clipPath id="a"><path class="a" d="M6.1,60.7h138V-31.935H6.1Z" transform="translate(-6.097 31.935)"/></clipPath><clipPath id="b"><path class="a" d="M66.974-31.8,56.888-6.722l2.974,9.137L74.188-31.8H66.974Zm-37.237,0L49.145,14.553h5.638l1.833-4.376L39.653-31.8Z" transform="translate(-29.737 31.795)"/></clipPath><linearGradient id="c" x1="0.278" y1="0.378" x2="0.818" y2="0.378" gradientUnits="objectBoundingBox"><stop offset="0" stop-color="#ad2319"/><stop offset="0.1" stop-color="#9e242d"/><stop offset="0.2" stop-color="#752656"/><stop offset="0.3" stop-color="#502773"/><stop offset="0.4" stop-color="#392c81"/><stop offset="0.5" stop-color="#143396"/><stop offset="0.6" stop-color="#135d88"/><stop offset="0.7" stop-color="#1d8567"/><stop offset="0.8" stop-color="#259e49"/><stop offset="0.9" stop-color="#25a047"/><stop offset="1" stop-color="#25a047"/></linearGradient><clipPath id="d"><path class="a" d="M34.36-30.378a20.38,20.38,0,0,0-11.711,12.4h0a23.535,23.535,0,0,0,.431,17.9h0A23.665,23.665,0,0,0,35.43,12.875h0a20.532,20.532,0,0,0,17.02.419h0a20.906,20.906,0,0,0,7.951-5.8h0L56.852-.982a13.457,13.457,0,0,1-7.244,7.414h0a13.438,13.438,0,0,1-11.272-.314h0a16.576,16.576,0,0,1-8.31-9.081h0a16.764,16.764,0,0,1-.574-12.353h0a13.439,13.439,0,0,1,7.75-8.193h0a13.4,13.4,0,0,1,10.263.113h0l-3.548-8.476c-.555-.042-1.111-.064-1.666-.064h0a20.637,20.637,0,0,0-7.89,1.557" transform="translate(-21.088 31.935)"/></clipPath><linearGradient id="e" x1="0.278" y1="0.362" x2="0.818" y2="0.362" xlink:href="#c"/><clipPath id="f"><path class="a" d="M29.062-31.8l-1.855,4.421L44.147,14.553H54.1L34.7-31.8ZM9.654,14.553h7.21l3.4-8.446H33.419L31.05.238H22.627l4.308-10.713-2.974-9.137Z" transform="translate(-9.654 31.795)"/></clipPath><linearGradient id="g" x1="0.278" y1="0.344" x2="0.818" y2="0.344" gradientUnits="objectBoundingBox"><stop offset="0" stop-color="#ad2319"/><stop offset="0.1" stop-color="#9f242c"/><stop offset="0.2" stop-color="#732658"/><stop offset="0.3" stop-color="#502774"/><stop offset="0.4" stop-color="#392c81"/><stop offset="0.5" stop-color="#173295"/><stop offset="0.6" stop-color="#135c89"/><stop offset="0.7" stop-color="#1d8666"/><stop offset="0.8" stop-color="#259f48"/><stop offset="0.9" stop-color="#25a047"/><stop offset="1" stop-color="#25a047"/></linearGradient></defs><g transform="translate(-6.097 31.935)"><g class="b" transform="translate(6.097 -31.935)"><g transform="translate(27.084 82.518)"><path class="c" d="M6.289,5.071C6.289,2.759,5,1.349,2.362,1.259V2.475A1.326,1.326,0,0,1,3.33,3.934H1.3V5.071ZM2.136,6.915C1.123,6.761.556,6.031.556,4.5a1.889,1.889,0,0,1,1.183-2.01V1.259c-2.373.1-4,1.345-4,3.507,0,2.445,1.753,3.507,4.4,3.507Zm.631,1.33C4.482,8.117,6.1,7.441,6.2,5.778H4.758c-.212.9-.726,1.19-1.991,1.19Zm8.1-1.64a.333.333,0,0,1-.125-.28v-3.7h1.882V1.489H10.74V-1.054H9.274A2.337,2.337,0,0,1,6.617,1.553V2.626H8.046V6.311c0,1.319,1,1.946,2.819,1.946Zm.627,1.564a1.967,1.967,0,0,0,1.353-2.15V5.136H11.594v1.19a.426.426,0,0,1-.1.295ZM24.408,6.734,27.091,1c.178-.382.529-.435.918-.435h.5v-1.3H24.072v1.3h.964c.363,0,.491.14.491.348a1.282,1.282,0,0,1-.166.521L23.63,5.147ZM23.743,8.17l.238-.514C21.374,2.32,20.822,1.092,20.822.824c0-.166.1-.257.325-.257h1.081v-1.3H16.533v1.3c1.028,0,1.205.076,1.444.574l3.4,7.029Zm9.731-.091V6.942h-.79c-.287,0-.336-.128-.336-.359V1.349l-3.915.14V2.626h.816a.344.344,0,0,1,.378.321V6.594c0,.333-.2.348-.329.348h-.865V8.079ZM30.893.839A1.328,1.328,0,0,0,32.2-.495a1.324,1.324,0,0,0-1.3-1.33,1.322,1.322,0,0,0-1.3,1.33,1.325,1.325,0,0,0,1.3,1.334m12.5,4.349H42.165v1.2c0,.231-.076.333-.276.333A.311.311,0,0,1,41.6,6.39V3.242c0-1.625-1.882-1.984-3.337-2.007v.945c.351.076.639.257.639.642V5.714c0,2.456,1.183,2.558,2.245,2.558s2.245-.408,2.245-1.587ZM38.28,3.96a14.2,14.2,0,0,0-1.731.317c-1.266.336-2.5.82-2.5,2.15,0,1.255,1.179,1.818,2.5,1.818a3.58,3.58,0,0,0,1.991-.525,3.56,3.56,0,0,1-.261-1.137,1.576,1.576,0,0,1-.692.14.66.66,0,0,1-.741-.627c0-.6.752-.933,1.432-1.1Zm-.642-2.713c-1.277.038-3.159.28-3.159,1.651,0,.718.654,1.1,1.406,1.1.627,0,1.33-.268,1.33-.911,0-.382-.215-.559-.578-.714a2.185,2.185,0,0,1,1-.242ZM53.252,8.079V6.942h-.8a.323.323,0,0,1-.336-.268V-1.644l-3.99.2V-.317h.93c.276,0,.378.155.378.423V8.079ZM48.8,6.84a1.309,1.309,0,0,1-.775.231c-1.119,0-1.383-.54-1.383-2.23s.253-2.366,1.383-2.366A1.308,1.308,0,0,1,48.8,2.7V1.655a2.984,2.984,0,0,0-1.527-.408A3.259,3.259,0,0,0,43.722,4.7c0,1.855.888,3.594,3.17,3.594a4.031,4.031,0,0,0,1.9-.431ZM59.17.567l-1.3-2.022h-2.6L57.613.567Zm3.148,4.5c0-2.316-1.292-3.722-3.926-3.813V2.475a1.324,1.324,0,0,1,.967,1.459H57.326V5.071ZM58.165,6.915c-1.017-.155-1.58-.884-1.58-2.418a1.891,1.891,0,0,1,1.179-2.01V1.259c-2.369.1-4,1.345-4,3.507,0,2.445,1.753,3.507,4.4,3.507Zm.627,1.33c1.719-.128,3.337-.8,3.439-2.468H60.787c-.212.9-.729,1.19-2,1.19Zm14.6-.166V6.942h-.816c-.261,0-.325-.257-.325-.487V3.28c0-1.523-1.406-2.071-2.645-2.071a3.9,3.9,0,0,0-2.018.563V2.91a2.091,2.091,0,0,1,.888-.193A.949.949,0,0,1,69.55,3.741V6.466c0,.461-.1.476-.325.476h-.59V8.079Zm-5.453,0V6.942h-.642c-.276,0-.336-.257-.336-.487V1.349l-3.9.14V2.626h.85a.292.292,0,0,1,.329.321V6.466c0,.461-.155.476-.329.476h-.828V8.079ZM82.406,5.071c0-2.313-1.292-3.722-3.926-3.813V2.475a1.326,1.326,0,0,1,.967,1.459H77.414V5.071ZM78.257,6.915c-1.017-.155-1.583-.884-1.583-2.418a1.891,1.891,0,0,1,1.179-2.01V1.259c-2.369.1-4,1.345-4,3.507,0,2.445,1.753,3.507,4.4,3.507Zm.624,1.33c1.719-.128,3.337-.8,3.439-2.468H80.876c-.212.9-.726,1.19-2,1.19Z" transform="translate(2.263 1.825)"/></g><g transform="translate(-0.005 67.332)"><path class="c" d="M3.265,7.158v-1.3H2.524c-.514,0-.714-.064-.714-.283a6.293,6.293,0,0,1,.54-1.281L3.79,1.222,3-.452.257,5.378a.769.769,0,0,1-.718.476h-.714v1.3Zm7.648,0v-1.3h-.4c-.726,0-.877-.144-1.077-.578L6.088-1.76H3.617l-.178.37,2.1,4.4H3.692l-.6,1.277H6.137A4.483,4.483,0,0,1,6.677,5.6c0,.166-.1.257-.367.257H5.26v1.3ZM16.446,5.7a2.175,2.175,0,0,1-.9.181c-.567,0-1.066-.268-1.066-.9V.428L10.638.572V1.705h.828c.238,0,.314.117.314.359v3.3c0,1.41,1.47,2,2.683,2a3.266,3.266,0,0,0,1.984-.51Zm4.625,1.459V6.021h-.964a.285.285,0,0,1-.314-.317V.417L15.879.572V1.705h.88c.249,0,.314.117.314.359V7.158Zm2.649.064,1.137-1.716V-2.576l-3.96.227v1.137h.816c.4,0,.461.219.461.461V7.223Zm1.19-.359a3.876,3.876,0,0,0,1.98.484,3.348,3.348,0,0,0,3.65-3.529A3.238,3.238,0,0,0,27.178.326a3.916,3.916,0,0,0-1.693.4V1.8a1.258,1.258,0,0,1,.767-.215c1.255,0,1.391,1.534,1.391,2.418,0,.782-.1,2.15-1.455,2.15a1.3,1.3,0,0,1-.7-.166ZM37.1,7.158V6.021H35.555A.308.308,0,0,1,35.23,5.7V.428l-3.9.144V1.705h.59c.325,0,.563,0,.563.487v3.48a.31.31,0,0,1-.287.348h-.843V7.158ZM35.858,2.053a1.612,1.612,0,0,1,1.051-.472,1.264,1.264,0,0,0-.238.676c0,.6.616.971,1.243.971a1.328,1.328,0,0,0,1.444-1.357c0-1.02-.843-1.519-1.92-1.519a2.568,2.568,0,0,0-1.58.472ZM49.1,4.268H47.871v1.2c0,.234-.076.333-.276.333a.311.311,0,0,1-.287-.333V2.321C47.308.7,45.426.337,43.971.315V1.26c.351.076.639.257.639.642V4.793c0,2.456,1.179,2.555,2.245,2.555s2.245-.4,2.245-1.583ZM43.982,3.039a15.113,15.113,0,0,0-1.731.317c-1.266.333-2.494.82-2.494,2.15,0,1.255,1.179,1.818,2.494,1.818a3.585,3.585,0,0,0,2-.525,3.664,3.664,0,0,1-.265-1.137,1.558,1.558,0,0,1-.688.14.66.66,0,0,1-.741-.627c0-.6.752-.933,1.428-1.1ZM43.344.326c-1.277.038-3.159.283-3.159,1.651,0,.714.65,1.1,1.406,1.1.624,0,1.326-.268,1.326-.907,0-.385-.212-.563-.578-.718a2.255,2.255,0,0,1,1.005-.242Zm9.984,5.54a2.257,2.257,0,0,1-1.1-2.109,2.244,2.244,0,0,1,1.1-2.086V.353C51.03.5,49.4,1.721,49.4,3.859c0,2.162,1.515,3.4,3.926,3.488Zm.624-4.361c.042,0,.076-.015.128-.015a2,2,0,0,1,.877.181,1.265,1.265,0,0,0-.578,1.073c0,.7.654,1.062,1.319,1.062a1.376,1.376,0,0,0,1.489-1.368c0-1.512-1.791-2.059-3.235-2.1Zm0,5.842c1.784-.076,3.412-.816,3.461-2.747H56.048A1.653,1.653,0,0,1,54.2,6.059a1.81,1.81,0,0,1-.253-.011Zm4.6,1.512a2.151,2.151,0,0,0,2.271-2.343c0-.865-.351-1.712-1.3-1.712a1.177,1.177,0,0,0-1.205,1.217,1.012,1.012,0,0,0,1.153,1.111v.155a.816.816,0,0,1-.914.778Zm11.915-3c-1.719-.31-2.131-1.625-2.131-3.046,0-1.394.336-2.959,2.131-3.291V-1.937c-3.061.128-5.192,2.007-5.192,4.72s2.109,4.527,5.192,4.633Zm5.079-4.145V-1.824h-1.3l-.378.616a5.925,5.925,0,0,0-2.77-.729V-.532a2.45,2.45,0,0,1,.325-.015,2.78,2.78,0,0,1,2.7,2.256ZM71.1,7.415c2.634-.106,4.625-1.421,4.625-3.839H74.228c-.11,1.576-1.115,2.343-3.133,2.343ZM85.754,4.268H84.526v1.2c0,.234-.076.333-.276.333a.311.311,0,0,1-.287-.333V2.321C83.963.7,82.081.337,80.626.315V1.26c.351.076.639.257.639.642V4.793c0,2.456,1.179,2.555,2.245,2.555s2.245-.4,2.245-1.583ZM80.637,3.039a15.113,15.113,0,0,0-1.731.317c-1.266.333-2.494.82-2.494,2.15,0,1.255,1.179,1.818,2.494,1.818a3.592,3.592,0,0,0,2-.525,3.664,3.664,0,0,1-.265-1.137,1.558,1.558,0,0,1-.688.14.66.66,0,0,1-.741-.627c0-.6.752-.933,1.428-1.1ZM80,.326c-1.281.038-3.159.283-3.159,1.651,0,.714.65,1.1,1.4,1.1.627,0,1.33-.268,1.33-.907,0-.385-.212-.563-.578-.718A2.255,2.255,0,0,1,80,1.21ZM91.91,7.158V6.021H90.368a.308.308,0,0,1-.325-.321V.428l-3.9.144V1.705h.59c.325,0,.563,0,.563.487v3.48a.309.309,0,0,1-.287.348h-.843V7.158ZM90.67,2.053a1.613,1.613,0,0,1,1.054-.472,1.241,1.241,0,0,0-.242.676c0,.6.616.971,1.243.971a1.328,1.328,0,0,0,1.444-1.357c0-1.02-.843-1.519-1.92-1.519a2.568,2.568,0,0,0-1.58.472Zm8.676,5.105V6.021H98.47c-.253,0-.325-.128-.325-.359V-2.576L94.2-2.349v1.137h.831c.185,0,.374.106.374.45V5.673c0,.283-.087.348-.325.348h-.778V7.158Zm9.867-2.891h-1.224v1.2c0,.234-.076.333-.276.333a.314.314,0,0,1-.291-.333V2.321c0-1.625-1.882-1.984-3.333-2.007V1.26c.351.076.639.257.639.642V4.793c0,2.456,1.179,2.555,2.245,2.555s2.241-.4,2.241-1.583ZM104.1,3.039a15.113,15.113,0,0,0-1.731.317c-1.266.333-2.494.82-2.494,2.15,0,1.255,1.179,1.818,2.494,1.818a3.592,3.592,0,0,0,2-.525,3.463,3.463,0,0,1-.265-1.137,1.564,1.564,0,0,1-.692.14.656.656,0,0,1-.737-.627c0-.6.752-.933,1.428-1.1ZM103.461.326C102.18.364,100.3.61,100.3,1.978c0,.714.654,1.1,1.406,1.1.627,0,1.33-.268,1.33-.907,0-.385-.215-.563-.578-.718a2.24,2.24,0,0,1,1.005-.242Zm15.61,6.832V6.021h-.8a.324.324,0,0,1-.34-.268V-2.565l-3.987.2v1.126h.926c.276,0,.378.151.378.423v7.97ZM114.62,5.919a1.321,1.321,0,0,1-.778.231c-1.115,0-1.379-.537-1.379-2.226s.253-2.369,1.379-2.369a1.3,1.3,0,0,1,.778.231V.734a3,3,0,0,0-1.53-.408,3.261,3.261,0,0,0-3.548,3.454c0,1.855.892,3.6,3.174,3.6a4.032,4.032,0,0,0,1.9-.435ZM128.137,4.15c0-2.313-1.289-3.722-3.922-3.813V1.554a1.326,1.326,0,0,1,.964,1.459h-2.029V4.15Zm-4.149,1.844c-1.017-.155-1.58-.88-1.58-2.418a1.878,1.878,0,0,1,1.179-2.007V.337c-2.373.106-4,1.345-4,3.507,0,2.445,1.757,3.5,4.4,3.5Zm.627,1.33c1.716-.128,3.337-.809,3.435-2.468h-1.44c-.215.9-.729,1.19-2,1.19Zm8.616-.166V5.93H132.1l4.727-4.251V.572H132.6V1.785h1.088l-4.75,4.263V7.158Zm3.6,0V4.37h-1.217c0,1.243-.2,1.561-1.2,1.561h-.552V7.158Zm-4.852-5.374V.572h-2.883V3.228h1.251c.011-.831.162-1.444,1.217-1.444Z" transform="translate(1.175 2.576)"/></g><g transform="translate(9.344 52.229)"><path class="c" d="M1.965,5.221C.6,5.021.211,3.627.211,2.285.211.925.559-.579,1.965-.753v-.756C.226-1.365-.707.388-.707,2.285c0,2.029.828,3.541,2.672,3.673ZM4.8,1.337V-1.335H4.33l-.306.654a2.5,2.5,0,0,0-1.685-.828V-.76c.775.038,1.678.574,1.935,2.1ZM2.339,5.958C4.281,5.909,4.882,4.5,4.882,2.727H4.289c0,1.364-.646,2.505-1.95,2.517Zm5.336-.627C6.643,5.244,6.465,4.144,6.465,3.215c0-.9.215-1.988,1.209-2.1V.46a2.46,2.46,0,0,0-2.112,2.7c0,1.564.673,2.747,2.112,2.8Zm.344.627C9.326,5.837,10.1,4.749,10.1,3.215c0-1.5-.782-2.675-2.082-2.755v.665C8.944,1.239,9.2,2.274,9.2,3.143c0,.937-.215,2.037-1.187,2.18Zm7.973-.151V5.191H15.44c-.128,0-.242-.159-.242-.291V1.8A1.361,1.361,0,0,0,13.819.419a1.6,1.6,0,0,0-1.171.476V1.62a1.233,1.233,0,0,1,.873-.393.8.8,0,0,1,.865.8V4.87c0,.242-.087.321-.253.321h-.45v.616Zm2.887,0V5.191H18.35A.287.287,0,0,1,18.1,4.9V1.991A1.472,1.472,0,0,0,15.572.872v.79a1.138,1.138,0,0,1,.854-.435.854.854,0,0,1,.888.907V4.889c0,.253-.121.3-.261.3H16.6v.616Zm-5.808,0V5.191h-.514c-.17,0-.283-.1-.283-.382V.453l-1.64.166V1.2h.62c.064,0,.208.049.208.261V4.787c0,.295-.053.4-.268.4h-.5v.616Zm11.529,0V5.191h-.555c-.125,0-.238-.159-.238-.291V1.8A1.361,1.361,0,0,0,22.427.419a1.609,1.609,0,0,0-1.175.476V1.62a1.249,1.249,0,0,1,.877-.393.8.8,0,0,1,.865.8V4.87c0,.242-.091.321-.253.321h-.45v.616Zm2.887,0V5.191h-.529a.287.287,0,0,1-.249-.291V1.991A1.47,1.47,0,0,0,24.181.872v.79a1.136,1.136,0,0,1,.85-.435.854.854,0,0,1,.888.907V4.889c0,.253-.117.3-.261.3h-.446v.616Zm-5.808,0V5.191h-.514c-.174,0-.283-.1-.283-.382V.453L19.238.619V1.2h.62c.068,0,.208.049.208.261V4.787c0,.295-.049.4-.268.4h-.5v.616Zm9.341-1a1.333,1.333,0,0,1-.933.435c-.457,0-.9-.276-.9-1.02V.453l-1.564.17V1.2h.552a.228.228,0,0,1,.215.261V4.413a1.445,1.445,0,0,0,1.462,1.564A1.558,1.558,0,0,0,31.02,5.5Zm2.029,1V5.191h-.635c-.091,0-.219-.049-.219-.261V.453l-1.58.17V1.2h.552a.23.23,0,0,1,.223.261V5.807Zm5.725,0V5.191h-.521c-.136,0-.257-.1-.257-.374V1.991A1.434,1.434,0,0,0,36.549.419a1.588,1.588,0,0,0-1.164.476v.767a1.336,1.336,0,0,1,.933-.435c.45,0,.888.261.888,1.009V4.817c0,.253-.045.374-.268.374h-.446v.616Zm-2.963,0V5.191h-.518c-.17,0-.283-.1-.283-.382V.453l-1.64.166V1.2h.612c.083,0,.215.049.215.261V4.817c0,.272-.053.374-.268.374h-.491v.616Zm7.539-.979c0,.272,0,.465-.253.465-.227,0-.253-.121-.253-.295V1.76C42.844.744,41.96.43,41.231.4v.684c.59.042.85.314.85.99V4.757c0,.9.174,1.221.964,1.221a.759.759,0,0,0,.752-.865V3.869h-.446ZM41.707,2.516a5.456,5.456,0,0,0-1.394.393,1.764,1.764,0,0,0-1.126,1.678,1.26,1.26,0,0,0,1.326,1.391,2.133,2.133,0,0,0,1.27-.472,5.376,5.376,0,0,1-.076-.778,1.452,1.452,0,0,1-1.043.435.7.7,0,0,1-.658-.767c0-.767,1.088-1.141,1.7-1.262Zm-.85-2.1c-.642.06-1.44.363-1.44,1.228,0,.435.155.737.559.737.291,0,.506-.231.506-.616a.537.537,0,0,0-.261-.5,1.141,1.141,0,0,1,.635-.189Zm6.473,4.4a1.319,1.319,0,0,1-.933.435c-.457,0-.9-.276-.9-1.02V.453l-1.568.17V1.2h.552a.23.23,0,0,1,.219.261V4.413a1.443,1.443,0,0,0,1.462,1.564A1.556,1.556,0,0,0,47.33,5.5Zm2.029,1V5.191h-.635c-.091,0-.215-.049-.215-.261V.453l-1.583.17V1.2h.552a.232.232,0,0,1,.227.261V5.807Zm1.769-.586A.285.285,0,0,1,51.041,5V1.2h.975V.611h-.975V-1.444h-.552C50.489-.065,50.308.6,49.48.641V1.2h.76V5.01c0,.635.265.926.888.956Zm.374.688a.829.829,0,0,0,.59-.8V3.869h-.438V5a.286.286,0,0,1-.151.261Zm4.773-7.618h-1.2l-.76,1.462h.59Zm-1.4,6.919c-.642-.091-1.27-.676-1.27-1.976,0-1.425.529-2.059,1.27-2.12V.43c-1.36.072-2.12,1.258-2.12,2.785s.688,2.66,2.12,2.743ZM57.14,3.324c0-1.553-.552-2.743-1.889-2.872v.684c.673.128.948.8.948,1.512H54.011v.676ZM55.25,5.958a1.946,1.946,0,0,0,1.837-1.886H56.55a1.278,1.278,0,0,1-1.3,1.16Zm9.53-.151V5.191h-.453c-.2,0-.3-.1-.3-.382V-1.879l-1.591.17v.574h.6c.083,0,.212.049.212.261V5.807Zm-1.9-1.081a1.064,1.064,0,0,1-.911.555c-.971,0-1.315-.9-1.315-1.988,0-1.19.253-2.211,1.224-2.211a1.166,1.166,0,0,1,1,.514V.812A1.721,1.721,0,0,0,61.75.4c-1.013,0-1.991.9-1.991,2.913,0,1.636.918,2.653,2.059,2.653a1.478,1.478,0,0,0,1.062-.472ZM67.3,5.21c-.642-.091-1.27-.676-1.27-1.976,0-1.425.533-2.059,1.27-2.12V.43c-1.357.072-2.12,1.258-2.12,2.785s.688,2.66,2.12,2.743Zm2.26-1.886c0-1.553-.552-2.743-1.886-2.872v.684c.673.128.948.8.948,1.512H66.439v.676ZM67.679,5.958a1.946,1.946,0,0,0,1.837-1.886h-.537a1.278,1.278,0,0,1-1.3,1.16ZM74.9,5.221c-1.368-.2-1.753-1.595-1.753-2.936,0-1.36.351-2.864,1.753-3.038v-.756c-1.738.144-2.672,1.9-2.672,3.794,0,2.029.828,3.541,2.672,3.673Zm2.83-3.885V-1.335H77.27l-.3.654a2.52,2.52,0,0,0-1.689-.828V-.76c.775.038,1.678.574,1.935,2.1ZM75.278,5.958c1.942-.049,2.543-1.462,2.543-3.231h-.593c0,1.364-.642,2.505-1.95,2.517Zm5.336-.627C79.586,5.244,79.4,4.144,79.4,3.215c0-.9.215-1.988,1.209-2.1V.46a2.46,2.46,0,0,0-2.109,2.7c0,1.564.669,2.747,2.109,2.8Zm.344.627c1.307-.121,2.082-1.209,2.082-2.743,0-1.5-.782-2.675-2.082-2.755v.665c.926.113,1.187,1.149,1.187,2.018,0,.937-.215,2.037-1.187,2.18Zm7.973-.151V5.191h-.552c-.128,0-.242-.159-.242-.291V1.8A1.361,1.361,0,0,0,86.758.419a1.6,1.6,0,0,0-1.171.476V1.62a1.233,1.233,0,0,1,.873-.393.8.8,0,0,1,.869.8V4.87c0,.242-.091.321-.257.321h-.446v.616Zm2.887,0V5.191h-.529a.287.287,0,0,1-.246-.291V1.991A1.472,1.472,0,0,0,88.512.872v.79a1.149,1.149,0,0,1,.85-.435.855.855,0,0,1,.892.907V4.889c0,.253-.121.3-.265.3h-.446v.616Zm-5.8,0V5.191H85.5c-.17,0-.283-.1-.283-.382V.453l-1.64.166V1.2h.62c.068,0,.208.049.208.261V4.787c0,.295-.053.4-.268.4h-.5v.616Zm11.526,0V5.191h-.555c-.125,0-.238-.159-.238-.291V1.8A1.361,1.361,0,0,0,95.367.419,1.588,1.588,0,0,0,94.2.895V1.62a1.233,1.233,0,0,1,.873-.393.8.8,0,0,1,.865.8V4.87c0,.242-.091.321-.253.321h-.446v.616Zm2.887,0V5.191H99.9a.284.284,0,0,1-.246-.291V1.991A1.472,1.472,0,0,0,97.12.872v.79a1.136,1.136,0,0,1,.85-.435.855.855,0,0,1,.892.907V4.889c0,.253-.121.3-.265.3h-.446v.616Zm-5.808,0V5.191H94.1c-.174,0-.283-.1-.283-.382V.453L92.177.619V1.2h.62c.068,0,.212.049.212.261V4.787c0,.295-.053.4-.268.4h-.5v.616Zm9.341-1a1.326,1.326,0,0,1-.933.435c-.457,0-.9-.276-.9-1.02V.453l-1.564.17V1.2h.552a.228.228,0,0,1,.215.261V4.413a1.445,1.445,0,0,0,1.462,1.564A1.558,1.558,0,0,0,103.96,5.5Zm2.029,1V5.191h-.635c-.091,0-.215-.049-.215-.261V.453l-1.583.17V1.2h.552a.23.23,0,0,1,.223.261V5.807Zm5.725,0V5.191h-.521c-.136,0-.253-.1-.253-.374V1.991A1.437,1.437,0,0,0,109.488.419a1.588,1.588,0,0,0-1.164.476v.767a1.336,1.336,0,0,1,.933-.435c.45,0,.888.261.888,1.009V4.817c0,.253-.045.374-.268.374h-.446v.616Zm-2.963,0V5.191h-.518c-.17,0-.283-.1-.283-.382V.453l-1.64.166V1.2h.612c.083,0,.215.049.215.261V4.817c0,.272-.049.374-.268.374h-.491v.616Zm5.472-.6c-.642-.091-1.27-.676-1.27-1.976,0-1.425.529-2.059,1.27-2.12V.43c-1.36.072-2.12,1.258-2.12,2.785s.684,2.66,2.12,2.743Zm2.26-1.886c0-1.553-.552-2.743-1.889-2.872v.684c.676.128.952.8.952,1.512h-2.188v.676Zm-1.889,2.634a1.94,1.94,0,0,0,1.837-1.886h-.537a1.274,1.274,0,0,1-1.3,1.16Zm4.886,0a1.624,1.624,0,0,0,1.6-1.7,1.377,1.377,0,0,0-1.043-1.383L118.5,2.436a.646.646,0,0,1-.548-.616c0-.472.4-.665.778-.7V.441a1.534,1.534,0,0,0-1.553,1.572,1.407,1.407,0,0,0,1.149,1.413l1.33.393c.367.113.65.253.65.635,0,.514-.419.737-.828.8Zm-.374-.688a1.463,1.463,0,0,1-1.455-1.432h-.45V5.815h.438l.113-.442a2.125,2.125,0,0,0,1.353.586ZM120.791,2.3V.43h-.408l-.174.484a1.759,1.759,0,0,0-1.1-.472v.684A1.275,1.275,0,0,1,120.345,2.3Z" transform="translate(0.707 1.879)"/></g></g><g class="d" transform="translate(95.429 -31.406)"><g transform="translate(-122.974 -27.755) rotate(-4.1)"><path class="e" d="M10.629,0,201.607,13.689,190.978,161.972,0,148.283Z" transform="translate(0 0)"/></g></g><g class="f" transform="translate(62.745 -31.935)"><g transform="translate(-90.289 -27.225) rotate(-4.1)"><path class="g" d="M10.629,0,201.607,13.689,190.978,161.972,0,148.283Z" transform="translate(0 0)"/></g></g><g class="h" transform="translate(19.538 -31.406)"><g transform="translate(-47.083 -27.755) rotate(-4.1)"><path class="i" d="M10.629,0,201.607,13.689,190.978,161.972,0,148.283Z" transform="translate(0 0)"/></g></g></g></svg>