<svg xmlns="http://www.w3.org/2000/svg" xmlns:xlink="http://www.w3.org/1999/xlink" width="152" height="99.872" viewBox="0 0 152 99.872"><defs><style>.a{fill:none;}.b{clip-path:url(#a);}.c{fill:#84b33f;}.d{opacity:0.5;}.e{clip-path:url(#b);}.f{clip-path:url(#c);}.g{fill:#fff;}.h{fill:#5e3315;}.i{fill:#1d5b58;}</style><clipPath id="a"><path class="a" d="M0,68.754H152V-31.118H0Z" transform="translate(0 31.118)"/></clipPath><clipPath id="b"><rect class="a" width="24.711" height="28.35"/></clipPath><clipPath id="c"><path class="a" d="M14.927,5.73h24.71V-22.619H14.927Z" transform="translate(-14.927 22.619)"/></clipPath></defs><g transform="translate(0 31.118)"><g class="b" transform="translate(0 -31.118)"><g transform="translate(6.145 8.754)"><path class="c" d="M31.235,0a48.33,48.33,0,0,0-4.086,3.89c-2.391,2.876-1.486,2.982-2.818,6.419-.218.558-2.333-.067-2.333,2.237,0,.4-.356,2.67.1,1.945-1.515,2.439-3.967,3.306-4.182,6.027-2.446-.478-6.791,1.053-7.2-2.138C8.948,18.522,7.1,19.812,5.9,19.546,3.451,19,5.4,21.426,4.59,22.267c-.86.9-4.2,5.286-6.708,1.557-.228.488-.456.972-.68,1.46-.25-.183-.4-.918-.488-.972-1.784,1.91-4.988,4.849-7.391,5.443.1.7.5.716.584,1.168h-.972c-.209-.8-.356-.709-.68-1.361-.388.34-.27,1.47-.1,1.361-4.936-.029-.574,7.879.777,9.628-3,.937-2.818,5.055.729,5.055,4.593,0-.334,4.442-1.6,5.058A9.377,9.377,0,0,0-9.9,53.482c1.913-.96,1.926-.594,3.4,1.069-.356.164-.712.327-1.069.488,2.025-.616,2.243-.979,3.986-1.557-.16-.42-.324-.841-.485-1.265,1.1.574,1.643.3,2.333.876,1.383-2.484,3.665-1.265,4.57,1.069,1.765-.282,1.127.022,2.917.388-1.072.3-2.028,1.136-3.113,1.364,2.144,1.008,3.5-.841,5.058-.392.478.141.818,1.374,1.553,1.656,1.926.729,2.937,1.861,4.474,3.206,1.627,1.425,8.361,6.711,4.959,9.044,2.41.8,3.11,3.232,4.182,4.57C19,78.587,29.4,84.813,33.276,84.6c.494-.026,1.826-.908,2.821-.876a12.556,12.556,0,0,1,4.474,1.364,9.729,9.729,0,0,0,.34,2.282c.886,1.4.876-.7,1.8-.241,1.409.7,3.553.27,4.766.777a49.88,49.88,0,0,1-.1-10.405c3.344,1.091,6.782,2.3,9.529.68-1.775-4.262,1.56-3.38,2.917-4.763,1.236-1.265,2.818.571,2.818-2.433,0-.905.77-3.014,1.557-3.014,1.695,0,4.975-4.651.78-5.251-1.284-.183-3.245-.379-3.89-2.336-1.9.231-1.582-.324-3.405-.777,3.845-1.066,2.462-5.007,5.835-5.931-1.576-3.623-5.921-1.887-8.945-1.168.918-.87.838-1.81,1.557-2.818-1.9-.424-1.6-1.364-3.5-1.072a9.172,9.172,0,0,1-.388-2.333,6.821,6.821,0,0,1-1.752,1.069A24.067,24.067,0,0,1,52.337,42.3c-2.943-.761-.228-7.51-3.55-11.085C47.2,29.5,49.8,26.908,48.011,25.477a25.88,25.88,0,0,1-4.426-5.347c-1.162-1.614-2.025-2.3-2.722-4.862-.555-2.032.664-2.125-1.265-3.306,1.964-1.374.574-.109.777-2.333-2.734,1.187-2.85-3.338-2.917-5.543-2.028.436-2.612-.148-4.278,1.069C33.764,2.908,33.433.469,31.235,0" transform="translate(14.137)"/></g><g class="d" transform="translate(47.908 27.275)"><g class="e"><g class="f" transform="translate(0 0.003)"><g transform="translate(0.001 -0.001)"><path class="g" d="M17.011,16.37c-3.094-1.48,0-7.494-3.707-11.275-1.094-2.282,1.04-3.9-.443-5.366A20.789,20.789,0,0,1,9.148-4.549c-.735-1.133-1.447-1.82-2.1-2.86C4.8-6.546.476-5.22-1.408-3.715c-7.886,6.3-8.431,15.768-1.22,21.137,5.2,3.867,11.4,4.464,18.31,2.189.151-.4.578-1.56,1.329-3.242" transform="translate(7.699 7.409)"/></g></g></g></g><g transform="translate(63.987 44.022)"><path class="h" d="M2.954,2.5c-1.406-.029-3,.218-3,1.6A1.142,1.142,0,0,0,1.166,5.329,1.764,1.764,0,0,0,2.88,4.141a1.3,1.3,0,0,0,.074-.411Zm.189,3.617-.1-.892H3A2.652,2.652,0,0,1,.829,6.282,2.02,2.02,0,0,1-1.337,4.244c0-1.714,1.521-2.651,4.262-2.635V1.461A1.46,1.46,0,0,0,1.314-.179,3.536,3.536,0,0,0-.531.348L-.827-.5A4.4,4.4,0,0,1,1.5-1.132c2.17,0,2.7,1.48,2.7,2.9V4.42a10.082,10.082,0,0,0,.116,1.7Z" transform="translate(1.337 1.132)"/></g><g transform="translate(71.558 44.182)"><path class="h" d="M4.116,3.551c0,.732.013,1.377.058,1.935H3.031L2.958,4.327H2.929A2.669,2.669,0,0,1,.586,5.646c-1.114,0-2.449-.616-2.449-3.107V-1.607h1.29V2.318c0,1.348.411,2.256,1.582,2.256A1.867,1.867,0,0,0,2.71,3.4a1.936,1.936,0,0,0,.116-.658V-1.607h1.29Z" transform="translate(1.863 1.607)"/></g><g transform="translate(79.179 44.021)"><path class="h" d="M.221,4.085a3.362,3.362,0,0,0,1.7.514C2.859,4.6,3.3,4.13,3.3,3.543c0-.616-.366-.953-1.316-1.3C.7,1.784.1,1.081.1.231a2.188,2.188,0,0,1,2.449-2.08,3.542,3.542,0,0,1,1.743.44L3.97-.472A2.738,2.738,0,0,0,2.522-.883c-.764,0-1.187.44-1.187.969,0,.584.424.851,1.348,1.2,1.229.469,1.858,1.085,1.858,2.137,0,1.245-.966,2.125-2.651,2.125A4.041,4.041,0,0,1-.1,5.067Z" transform="translate(0.1 1.849)"/></g><g transform="translate(84.98 44.021)"><path class="h" d="M.221,4.085a3.374,3.374,0,0,0,1.7.514C2.859,4.6,3.3,4.13,3.3,3.543c0-.616-.366-.953-1.319-1.3C.706,1.784.105,1.081.105.231a2.185,2.185,0,0,1,2.446-2.08,3.532,3.532,0,0,1,1.743.44l-.321.937A2.76,2.76,0,0,0,2.522-.883c-.764,0-1.187.44-1.187.969,0,.584.424.851,1.348,1.2,1.229.469,1.861,1.085,1.861,2.137,0,1.245-.969,2.125-2.654,2.125A4.041,4.041,0,0,1-.1,5.067Z" transform="translate(0.1 1.849)"/></g><g transform="translate(90.766 44.023)"><path class="h" d="M3.449,2.077a1.835,1.835,0,0,0-1.788-2.1,2.138,2.138,0,0,0-1.977,2.1ZM-.332,3A2.27,2.27,0,0,0,2.1,5.46a4.663,4.663,0,0,0,1.964-.366l.218.924a5.726,5.726,0,0,1-2.359.44A3.292,3.292,0,0,1-1.561,2.882C-1.561.745-.3-.94,1.764-.94c2.314,0,2.93,2.035,2.93,3.338a4.568,4.568,0,0,1-.045.6Z" transform="translate(1.561 0.94)"/></g><g transform="translate(98.121 44.021)"><path class="h" d="M.221,4.085a3.372,3.372,0,0,0,1.7.514c.94,0,1.38-.469,1.38-1.056,0-.616-.366-.953-1.319-1.3C.706,1.784.105,1.081.105.231a2.185,2.185,0,0,1,2.446-2.08,3.532,3.532,0,0,1,1.743.44l-.321.937A2.76,2.76,0,0,0,2.522-.883c-.764,0-1.187.44-1.187.969,0,.584.424.851,1.348,1.2,1.229.469,1.861,1.085,1.861,2.137,0,1.245-.969,2.125-2.654,2.125A4.041,4.041,0,0,1-.1,5.067Z" transform="translate(0.1 1.849)"/></g><path class="h" d="M26.48-12.887h1.29v10.4H26.48Z" transform="translate(58.506 71.399)"/><g transform="translate(87.959 58.879)"><path class="h" d="M1.513,0A16.911,16.911,0,0,1,.137,3.473l-.822.1A20.764,20.764,0,0,0,.182.132Z" transform="translate(0.685)"/></g><g transform="translate(89.543 59.039)"><path class="h" d="M3.842,3.975,2.876,1.131C2.655.486,2.507-.1,2.363-.669H2.334c-.148.584-.308,1.188-.5,1.788L.867,3.975ZM.6,4.97-.42,8.077H-1.739L1.615-1.8H3.152l3.37,9.876H5.161L4.105,4.97Z" transform="translate(1.739 1.799)"/></g><g transform="translate(98.993 61.823)"><path class="h" d="M4.114,3.551c0,.732.016,1.377.058,1.932H3.029L2.955,4.327H2.927A2.669,2.669,0,0,1,.584,5.646c-1.114,0-2.446-.616-2.446-3.107V-1.607H-.575V2.321c0,1.345.411,2.256,1.582,2.256A1.869,1.869,0,0,0,2.708,3.4a1.861,1.861,0,0,0,.116-.658V-1.607h1.29Z" transform="translate(1.862 1.607)"/></g><g transform="translate(107.05 58.514)"><path class="h" d="M.917,5.2a2.462,2.462,0,0,0,.058.469A1.99,1.99,0,0,0,2.91,7.18c1.348,0,2.154-1.1,2.154-2.725,0-1.422-.735-2.635-2.109-2.635A2.056,2.056,0,0,0,.991,3.4a2.6,2.6,0,0,0-.074.53ZM-.415,8.044c.029-.481.058-1.2.058-1.829V-2.355H.917V2.1H.946A2.644,2.644,0,0,1,3.363.793c1.759,0,3,1.464,2.988,3.62,0,2.532-1.6,3.794-3.177,3.794A2.518,2.518,0,0,1,.8,6.872H.756L.7,8.044Z" transform="translate(0.415 2.355)"/></g><g transform="translate(115.386 61.661)"><path class="h" d="M.04,1.635C.04.8.024.082-.018-.576H1.109L1.153.813h.058A2.135,2.135,0,0,1,3.175-.74,1.428,1.428,0,0,1,3.541-.7V.521A1.952,1.952,0,0,0,3.1.476a1.811,1.811,0,0,0-1.73,1.656,3.7,3.7,0,0,0-.058.6V6.513H.04Z" transform="translate(0.018 0.74)"/></g><g transform="translate(119.605 61.663)"><path class="h" d="M2.954,2.5c-1.406-.029-3,.218-3,1.6A1.141,1.141,0,0,0,1.166,5.329,1.764,1.764,0,0,0,2.88,4.141a1.3,1.3,0,0,0,.074-.408Zm.189,3.617-.1-.892H3A2.643,2.643,0,0,1,.829,6.282,2.02,2.02,0,0,1-1.337,4.244c0-1.714,1.521-2.651,4.262-2.635V1.461A1.461,1.461,0,0,0,1.314-.179,3.536,3.536,0,0,0-.531.348L-.827-.5A4.43,4.43,0,0,1,1.5-1.132c2.17,0,2.7,1.48,2.7,2.9V4.42a9.736,9.736,0,0,0,.119,1.7Z" transform="translate(1.337 1.132)"/></g><g transform="translate(126.432 60.156)"><path class="h" d="M1.613,4.529C.474,2.4,2.329-.352,5.75-1.626A10.092,10.092,0,0,1,7.217-2.05a12.007,12.007,0,0,0-2.433.5C.888-.33-1.481,2.507-.514,4.789s4.9,3.142,8.8,1.919A11.468,11.468,0,0,0,10,6.022c-.042.016-.083.035-.125.051C6.45,7.347,2.753,6.654,1.613,4.529" transform="translate(0.73 2.05)"/></g><g transform="translate(132.089 59.65)"><path class="h" d="M0,.108,2.9-.049l-1.8,1.9L1.274.66Z" transform="translate(0 0.049)"/></g><g transform="translate(83.289 52.456)"><path class="h" d="M1.24,1.887c-.591-.013-1.258.093-1.258.671a.478.478,0,0,0,.51.517.744.744,0,0,0,.719-.5A.675.675,0,0,0,1.24,2.4ZM.405-.854.938.025H.559L-.192-.854ZM1.32,3.4l-.042-.376H1.259a1.106,1.106,0,0,1-.908.443.848.848,0,0,1-.911-.854c0-.719.639-1.114,1.788-1.107V1.45A.612.612,0,0,0,.553.764,1.474,1.474,0,0,0-.224.985L-.346.629A1.848,1.848,0,0,1,.633.362c.908,0,1.13.623,1.13,1.216V2.692a4.364,4.364,0,0,0,.048.713Z" transform="translate(0.561 0.854)"/></g><g transform="translate(43.253 22.119)"><path class="h" d="M1.544,1.79a.92.92,0,0,0-.026-.228A.791.791,0,0,0,.739.936C.18.936-.15,1.427-.15,2.085c0,.6.3,1.1.876,1.1a.812.812,0,0,0,.793-.645.9.9,0,0,0,.026-.234Zm.542-2.6V2.785c0,.263,0,.565.022.767H1.625L1.6,3.038H1.586a1.1,1.1,0,0,1-1.011.584A1.358,1.358,0,0,1-.7,2.111,1.423,1.423,0,0,1,.636.512a1,1,0,0,1,.9.453h.013V-.81Z" transform="translate(0.699 0.81)"/></g><g transform="translate(46.719 23.442)"><path class="h" d="M1.447.871A.771.771,0,0,0,.7-.009.9.9,0,0,0-.132.871Zm-1.585.388A.952.952,0,0,0,.882,2.289,1.94,1.94,0,0,0,1.7,2.135l.093.388a2.4,2.4,0,0,1-.989.183,1.381,1.381,0,0,1-1.464-1.5,1.444,1.444,0,0,1,1.4-1.6,1.26,1.26,0,0,1,1.229,1.4,1.945,1.945,0,0,1-.019.254Z" transform="translate(0.655 0.394)"/></g><g transform="translate(49.805 23.439)"><path class="h" d="M.093,1.715a1.407,1.407,0,0,0,.712.215c.395,0,.578-.2.578-.443s-.154-.4-.552-.546C.295.748.045.456.045.1A.916.916,0,0,1,1.068-.776,1.474,1.474,0,0,1,1.8-.59L1.665-.2a1.146,1.146,0,0,0-.607-.173c-.321,0-.5.183-.5.4,0,.247.18.356.568.5.514.2.78.456.78.9,0,.523-.408.889-1.114.889a1.7,1.7,0,0,1-.834-.2Z" transform="translate(0.042 0.776)"/></g><g transform="translate(41.478 25.724)"><path class="h" d="M5.372,15.077C1.582,8,7.751-1.172,19.144-5.415a34.6,34.6,0,0,1,4.875-1.409,40.328,40.328,0,0,0-8.1,1.662C2.965-1.1-4.93,8.35-1.714,15.944s16.33,10.456,29.286,6.39a38.76,38.76,0,0,0,5.713-2.288c-.138.055-.276.112-.417.164-11.4,4.243-23.705,1.945-27.5-5.132" transform="translate(2.432 6.824)"/></g><g transform="translate(60.309 24.051)"><path class="h" d="M0,.358l9.644-.52L3.652,6.157l.591-3.964Z" transform="translate(0 0.162)"/></g><g transform="translate(74.505 5.033)"><path class="i" d="M3.131,4.054A6.488,6.488,0,0,1,.8,4.561,2.158,2.158,0,0,1-.82,3.948a2.325,2.325,0,0,1-.6-1.691A4.2,4.2,0,0,1-.91.267,4.156,4.156,0,0,1,.435-1.27a3.48,3.48,0,0,1,2.009-.565,7.424,7.424,0,0,1,1.707.209L4-.872A6.863,6.863,0,0,0,2.81-1.164c-.209-.019-.363-.026-.469-.026A2.437,2.437,0,0,0,.919-.766,3.193,3.193,0,0,0-.095.5,3.861,3.861,0,0,0-.5,2.18a1.7,1.7,0,0,0,.43,1.236,1.64,1.64,0,0,0,1.236.446A4.478,4.478,0,0,0,1.841,3.8a9.133,9.133,0,0,0,1.425-.436Z" transform="translate(1.417 1.835)"/></g><g transform="translate(80.053 6.704)"><path class="i" d="M1.14,2.8a1.38,1.38,0,0,0,1.165-.745A2.96,2.96,0,0,0,2.787.408a1.326,1.326,0,0,0-.2-.8.727.727,0,0,0-.613-.263A1.373,1.373,0,0,0,.832.078a2.962,2.962,0,0,0-.481,1.65,1.322,1.322,0,0,0,.2.8A.687.687,0,0,0,1.14,2.8m-.18.61A1.371,1.371,0,0,1-.15,2.976,1.605,1.605,0,0,1-.516,1.9,3.545,3.545,0,0,1-.134.328,3.049,3.049,0,0,1,.822-.859a2.244,2.244,0,0,1,1.342-.408,1.374,1.374,0,0,1,1.13.433A1.633,1.633,0,0,1,3.65.235,3.53,3.53,0,0,1,3.274,1.8a3.151,3.151,0,0,1-.944,1.194,2.27,2.27,0,0,1-1.37.417" transform="translate(0.516 1.267)"/></g><g transform="translate(84.899 6.703)"><path class="i" d="M0,3.148.889-1.322H1.7L1.342.5A5.017,5.017,0,0,1,2.33-.8a1.858,1.858,0,0,1,1.255-.626.693.693,0,0,1,.472.18.758.758,0,0,1,.205.6A2.85,2.85,0,0,1,4.2-.1L4.079.5A5.555,5.555,0,0,1,5.132-.857a1.792,1.792,0,0,1,1.2-.568.693.693,0,0,1,.472.183.762.762,0,0,1,.205.6A3.171,3.171,0,0,1,6.945-.1L6.3,3.148H5.485L6.13-.106a1.026,1.026,0,0,0,.019-.209.31.31,0,0,0-.074-.225.208.208,0,0,0-.157-.074q-.491,0-2.041,2.134L3.556,3.148H2.741L3.389-.106a.994.994,0,0,0,.019-.212.3.3,0,0,0-.074-.221.218.218,0,0,0-.157-.074c-.324,0-.95.635-1.878,1.913l-.16.221L.815,3.148Z" transform="translate(0 1.425)"/></g><g transform="translate(92.77 6.703)"><path class="i" d="M0,3.148.889-1.322H1.7L1.342.5A5.017,5.017,0,0,1,2.33-.8a1.858,1.858,0,0,1,1.255-.626.693.693,0,0,1,.472.18.758.758,0,0,1,.205.6A2.85,2.85,0,0,1,4.2-.1L4.079.5A5.555,5.555,0,0,1,5.132-.857a1.792,1.792,0,0,1,1.2-.568.693.693,0,0,1,.472.183.762.762,0,0,1,.205.6A3.171,3.171,0,0,1,6.945-.1L6.3,3.148H5.485L6.13-.106a1.026,1.026,0,0,0,.019-.209.31.31,0,0,0-.074-.225.208.208,0,0,0-.157-.074q-.491,0-2.041,2.134L3.556,3.148H2.741L3.389-.106a.994.994,0,0,0,.019-.212.3.3,0,0,0-.074-.221.218.218,0,0,0-.157-.074c-.324,0-.95.635-1.878,1.913l-.16.221L.815,3.148Z" transform="translate(0 1.425)"/></g><g transform="translate(100.791 6.806)"><path class="i" d="M2.815,0,1.926,4.471H1.114l.363-1.826A6.2,6.2,0,0,1,.494,4.021a1.532,1.532,0,0,1-1.088.552.661.661,0,0,1-.488-.2.935.935,0,0,1-.193-.661,2.6,2.6,0,0,1,.048-.51L-.587,0H.231L-.414,3.226a.959.959,0,0,0-.022.221.387.387,0,0,0,.064.231.205.205,0,0,0,.17.083c.2,0,.453-.183.754-.552A16.111,16.111,0,0,0,1.688,1.576L2,0Z" transform="translate(1.274)"/></g><g transform="translate(105.874 6.703)"><path class="i" d="M0,3.148.889-1.322H1.7L1.338.5A6.32,6.32,0,0,1,2.41-.873,1.748,1.748,0,0,1,3.6-1.425a.737.737,0,0,1,.53.2.877.877,0,0,1,.205.652,2.916,2.916,0,0,1-.045.523l-.635,3.2H2.844L3.485-.077A1.3,1.3,0,0,0,3.5-.3a.322.322,0,0,0-.074-.225.232.232,0,0,0-.183-.087,1.322,1.322,0,0,0-.822.52,16.475,16.475,0,0,0-1.3,1.669L.815,3.148Z" transform="translate(0 1.425)"/></g><g transform="translate(111.008 6.704)"><path class="i" d="M2.3,1.224,2.505.187A1.34,1.34,0,0,0,2.2.069,1.358,1.358,0,0,0,1.88.03,1.5,1.5,0,0,0,.936.418a2.8,2.8,0,0,0-.8,1.127A3.446,3.446,0,0,0-.178,2.887.578.578,0,0,0-.094,3.2a.29.29,0,0,0,.254.128q.607,0,2.141-2.109m-.555,2.8L2.107,2.19a5.442,5.442,0,0,1-1.136,1.4,1.846,1.846,0,0,1-1.159.53A.724.724,0,0,1-.81,3.788a1.278,1.278,0,0,1-.231-.745A3.789,3.789,0,0,1-.585,1.327,3.894,3.894,0,0,1,.541-.063,2.342,2.342,0,0,1,1.96-.554a1.882,1.882,0,0,1,.315.026,2.749,2.749,0,0,1,.356.077h.812L2.56,4.019Z" transform="translate(1.041 0.554)"/></g><g transform="translate(116.385 6.806)"><path class="i" d="M2.815,0,1.926,4.471H1.114l.363-1.826A6.2,6.2,0,0,1,.494,4.021a1.532,1.532,0,0,1-1.088.552.661.661,0,0,1-.488-.2.935.935,0,0,1-.193-.661,2.6,2.6,0,0,1,.048-.51L-.587,0H.231L-.414,3.226a.959.959,0,0,0-.022.221.387.387,0,0,0,.064.231.205.205,0,0,0,.17.083c.2,0,.453-.183.754-.552A16.111,16.111,0,0,0,1.688,1.576L2,0Z" transform="translate(1.274)"/></g><g transform="translate(121.747 5.896)"><path class="i" d="M1.273,3.719A1.987,1.987,0,0,1,.737,3.8a1.3,1.3,0,0,1-.883-.27.856.856,0,0,1-.308-.677,3.4,3.4,0,0,1,.077-.648L.092-.165H-.576l.119-.607H.214l.16-.812.831-.1-.18.911H2.165l-.128.607H.907L.419,2.3a2.671,2.671,0,0,0-.071.449.451.451,0,0,0,.122.308.563.563,0,0,0,.44.138,1.687,1.687,0,0,0,.481-.083Z" transform="translate(0.576 1.683)"/></g><g transform="translate(124.645 4.775)"><path class="i" d="M1.392.84,2.448-.38h.969L2,.84ZM.259,3.863a3.954,3.954,0,0,0,1.13-.241,1.585,1.585,0,0,0,.623-.449.886.886,0,0,0,.228-.542.456.456,0,0,0-.132-.308.462.462,0,0,0-.347-.141,1.042,1.042,0,0,0-.568.183,1.791,1.791,0,0,0-.424.379,2.425,2.425,0,0,0-.276.4,3.233,3.233,0,0,0-.234.716m2.587,1.81a4.4,4.4,0,0,1-2,.552A1.413,1.413,0,0,1-.245,5.811,1.572,1.572,0,0,1-.63,4.691,3.374,3.374,0,0,1-.277,3.2,3.323,3.323,0,0,1,.686,2.014,2.116,2.116,0,0,1,2,1.549a1.1,1.1,0,0,1,.757.234.833.833,0,0,1,.263.658,1.489,1.489,0,0,1-.324.934,2.487,2.487,0,0,1-.963.725,4.585,4.585,0,0,1-1.553.369,1.2,1.2,0,0,0,.25.841.836.836,0,0,0,.648.266,2.994,2.994,0,0,0,.851-.167A4.127,4.127,0,0,0,3,4.89Z" transform="translate(0.63 0.38)"/></g><g transform="translate(131.469 7.11)"><path class="i" d="M1.476,1.635,1.608.971a.835.835,0,0,0-.4-.1A.963.963,0,0,0,.6,1.118a1.82,1.82,0,0,0-.51.722,2.228,2.228,0,0,0-.2.86.376.376,0,0,0,.055.205.178.178,0,0,0,.16.08q.39,0,1.374-1.351M1.12,3.426l.234-1.168a3.49,3.49,0,0,1-.732.9,1.167,1.167,0,0,1-.741.34.458.458,0,0,1-.4-.215A.814.814,0,0,1-.668,2.8a2.41,2.41,0,0,1,.3-1.1A2.482,2.482,0,0,1,.349.81,1.509,1.509,0,0,1,1.261.5,1.744,1.744,0,0,1,1.688.56l.26-1.3h.52L1.643,3.426Z" transform="translate(0.668 0.74)"/></g><g transform="translate(134.789 8.345)"><path class="i" d="M.393,1.021A2.448,2.448,0,0,0,1.119.867a1.007,1.007,0,0,0,.4-.289A.562.562,0,0,0,1.664.231a.279.279,0,0,0-.087-.2.29.29,0,0,0-.221-.09A.67.67,0,0,0,.993.061,1.124,1.124,0,0,0,.721.3a1.61,1.61,0,0,0-.177.26,1.939,1.939,0,0,0-.151.459M2.049,2.183a2.8,2.8,0,0,1-1.281.353.912.912,0,0,1-.7-.263,1.018,1.018,0,0,1-.247-.719A2.149,2.149,0,0,1,.05.6,2.11,2.11,0,0,1,.666-.164a1.365,1.365,0,0,1,.847-.3A.712.712,0,0,1,2-.311a.537.537,0,0,1,.17.424.972.972,0,0,1-.209.6,1.608,1.608,0,0,1-.616.465,3,3,0,0,1-1,.237.764.764,0,0,0,.16.536.536.536,0,0,0,.414.173,1.946,1.946,0,0,0,.546-.106,2.873,2.873,0,0,0,.687-.334Z" transform="translate(0.178 0.462)"/></g><g transform="translate(92.79 15.151)"><path class="i" d="M3.131,4.054A6.488,6.488,0,0,1,.8,4.561,2.158,2.158,0,0,1-.82,3.948a2.325,2.325,0,0,1-.6-1.691A4.2,4.2,0,0,1-.91.267,4.156,4.156,0,0,1,.435-1.27a3.48,3.48,0,0,1,2.009-.565,7.424,7.424,0,0,1,1.707.209L4-.872A6.863,6.863,0,0,0,2.81-1.164c-.209-.019-.363-.026-.469-.026A2.437,2.437,0,0,0,.919-.766,3.193,3.193,0,0,0-.095.5,3.861,3.861,0,0,0-.5,2.18a1.7,1.7,0,0,0,.43,1.236,1.64,1.64,0,0,0,1.236.446A4.478,4.478,0,0,0,1.841,3.8a9.133,9.133,0,0,0,1.425-.436Z" transform="translate(1.417 1.835)"/></g><g transform="translate(98.337 16.821)"><path class="i" d="M1.14,2.8a1.38,1.38,0,0,0,1.165-.745A2.96,2.96,0,0,0,2.787.408a1.326,1.326,0,0,0-.2-.8.727.727,0,0,0-.613-.263A1.373,1.373,0,0,0,.832.078a2.962,2.962,0,0,0-.481,1.65,1.322,1.322,0,0,0,.2.8A.687.687,0,0,0,1.14,2.8m-.18.61A1.371,1.371,0,0,1-.15,2.976,1.605,1.605,0,0,1-.516,1.9,3.545,3.545,0,0,1-.134.328,3.049,3.049,0,0,1,.822-.859a2.251,2.251,0,0,1,1.342-.408,1.378,1.378,0,0,1,1.13.433A1.633,1.633,0,0,1,3.65.235,3.53,3.53,0,0,1,3.274,1.8a3.151,3.151,0,0,1-.944,1.194,2.27,2.27,0,0,1-1.37.417" transform="translate(0.516 1.267)"/></g><g transform="translate(103.184 16.82)"><path class="i" d="M0,3.148.889-1.322H1.7L1.342.5A5.017,5.017,0,0,1,2.33-.8a1.858,1.858,0,0,1,1.255-.626.693.693,0,0,1,.472.18.758.758,0,0,1,.205.6A2.85,2.85,0,0,1,4.2-.1L4.079.5A5.478,5.478,0,0,1,5.132-.857a1.792,1.792,0,0,1,1.2-.568.693.693,0,0,1,.472.183.762.762,0,0,1,.205.6A2.915,2.915,0,0,1,6.942-.1L6.3,3.148H5.485L6.13-.106a1.026,1.026,0,0,0,.019-.209.31.31,0,0,0-.074-.225.213.213,0,0,0-.157-.074q-.491,0-2.041,2.134L3.556,3.148H2.741L3.386-.106a.808.808,0,0,0,.022-.212.3.3,0,0,0-.074-.221.218.218,0,0,0-.157-.074c-.324,0-.95.635-1.878,1.913l-.16.221L.815,3.148Z" transform="translate(0 1.425)"/></g><g transform="translate(111.055 16.82)"><path class="i" d="M0,3.148.889-1.322H1.7L1.342.5A5.017,5.017,0,0,1,2.33-.8a1.858,1.858,0,0,1,1.255-.626.693.693,0,0,1,.472.18.758.758,0,0,1,.205.6A2.85,2.85,0,0,1,4.2-.1L4.079.5A5.478,5.478,0,0,1,5.132-.857a1.792,1.792,0,0,1,1.2-.568.693.693,0,0,1,.472.183.762.762,0,0,1,.205.6A2.915,2.915,0,0,1,6.942-.1L6.3,3.148H5.485L6.13-.106a1.026,1.026,0,0,0,.019-.209.31.31,0,0,0-.074-.225.213.213,0,0,0-.157-.074q-.491,0-2.041,2.134L3.556,3.148H2.741L3.386-.106a.808.808,0,0,0,.022-.212.3.3,0,0,0-.074-.221.218.218,0,0,0-.157-.074c-.324,0-.95.635-1.878,1.913l-.16.221L.815,3.148Z" transform="translate(0 1.425)"/></g><g transform="translate(119.075 16.923)"><path class="i" d="M2.815,0,1.926,4.471H1.114l.363-1.826A6.2,6.2,0,0,1,.494,4.021a1.532,1.532,0,0,1-1.088.552.661.661,0,0,1-.488-.2.935.935,0,0,1-.193-.661,2.6,2.6,0,0,1,.048-.51L-.587,0H.228L-.414,3.226a.959.959,0,0,0-.022.221.366.366,0,0,0,.067.231A.2.2,0,0,0-.2,3.761c.2,0,.453-.183.754-.552A16.111,16.111,0,0,0,1.688,1.576L2,0Z" transform="translate(1.274)"/></g><g transform="translate(124.159 16.82)"><path class="i" d="M0,3.148.889-1.322H1.7L1.342.5A6.215,6.215,0,0,1,2.41-.873,1.748,1.748,0,0,1,3.6-1.425a.737.737,0,0,1,.53.2.877.877,0,0,1,.205.652,2.916,2.916,0,0,1-.045.523l-.635,3.2H2.844L3.485-.077A1.3,1.3,0,0,0,3.5-.3a.322.322,0,0,0-.074-.225.23.23,0,0,0-.186-.087,1.325,1.325,0,0,0-.818.52,16.475,16.475,0,0,0-1.3,1.669L.815,3.148Z" transform="translate(0 1.425)"/></g><g transform="translate(129.342 16.82)"><path class="i" d="M.612,1.593a3.97,3.97,0,0,0,1.13-.237A1.583,1.583,0,0,0,2.364.9.879.879,0,0,0,2.592.361a.433.433,0,0,0-.135-.3.439.439,0,0,0-.343-.141,1.037,1.037,0,0,0-.568.18,1.73,1.73,0,0,0-.424.379,2.722,2.722,0,0,0-.276.4,3.071,3.071,0,0,0-.234.716M3.2,3.4a4.357,4.357,0,0,1-2,.552A1.423,1.423,0,0,1,.108,3.544a1.578,1.578,0,0,1-.385-1.12A3.374,3.374,0,0,1,.076.932,3.334,3.334,0,0,1,1.039-.256,2.116,2.116,0,0,1,2.358-.721a1.12,1.12,0,0,1,.757.234.84.84,0,0,1,.263.661,1.522,1.522,0,0,1-.324.934,2.482,2.482,0,0,1-.963.722A4.582,4.582,0,0,1,.538,2.2a1.188,1.188,0,0,0,.25.838.838.838,0,0,0,.648.27,2.976,2.976,0,0,0,.847-.167,4.309,4.309,0,0,0,1.069-.52Z" transform="translate(0.277 0.721)"/></g><g transform="translate(133.685 16.819)"><path class="i" d="M0,2.985.135,2.3a3.394,3.394,0,0,0,1.409.417.821.821,0,0,0,.536-.16.522.522,0,0,0,.193-.417A.559.559,0,0,0,2.2,1.849a2.547,2.547,0,0,0-.3-.359l-.376-.382a3.564,3.564,0,0,1-.6-.741A1.157,1.157,0,0,1,.8-.131a1.178,1.178,0,0,1,.379-.822,1.526,1.526,0,0,1,1.162-.4,3.582,3.582,0,0,1,.481.035,4.493,4.493,0,0,1,.767.225l-.135.684a3.875,3.875,0,0,0-.729-.286A2,2,0,0,0,2.3-.741a.755.755,0,0,0-.523.154.493.493,0,0,0-.164.369.529.529,0,0,0,.074.273,2.722,2.722,0,0,0,.369.433L2.462.9a2.755,2.755,0,0,1,.478.607,1.175,1.175,0,0,1,.144.574,1.1,1.1,0,0,1-.433.9,1.824,1.824,0,0,1-1.171.343,3.149,3.149,0,0,1-.449-.032c-.154-.026-.3-.058-.446-.1A5.2,5.2,0,0,1,0,2.985" transform="translate(0 1.351)"/></g></g></g></svg>