<svg xmlns="http://www.w3.org/2000/svg" xmlns:xlink="http://www.w3.org/1999/xlink" width="215" height="128.865" viewBox="0 0 215 128.865"><defs><style>.a{fill:none;}.b{fill:#ff6a2f;}.c{clip-path:url(#a);}.d{fill:#ff9438;}.e{fill:#55beb2;}.f{fill:#31b3a4;}.g{fill:#77caed;}.h{fill:#ff9f2a;}.i{fill:#ffc174;}.j{fill:#53bde8;}.k{fill:#0546a5;}.l{fill:#00b8f1;}</style><clipPath id="a"><path class="a" d="M0,95.366H215V-33.5H0Z" transform="translate(0 33.499)"/></clipPath></defs><g transform="translate(0 33.499)"><g transform="translate(55.727 57.591)"><path class="b" d="M1.2,0-.422,4.408h.5l.354-1H2.359l.35,1h.5L1.6,0Zm.2.677L2.225,3H.574Z" transform="translate(0.422)"/></g><g class="c" transform="translate(0 -33.499)"><g transform="translate(60.009 91.09)"><path class="b" d="M1.136,3.288A1.454,1.454,0,0,1-.4,1.8V-1.155H.07V1.761A1.025,1.025,0,0,0,1.136,2.869,1.028,1.028,0,0,0,2.205,1.761V-1.155h.469V1.8A1.457,1.457,0,0,1,1.136,3.288" transform="translate(0.399 1.155)"/></g><g transform="translate(64.298 91.091)"><path class="b" d="M1.236,1.754H.035V3.369h1.2a.793.793,0,0,0,.885-.812.787.787,0,0,0-.885-.8M1.186-.2H.035V1.334h1.15c.489,0,.866-.242.866-.769S1.674-.2,1.186-.2m.092,3.985H-.434v-4.4H1.224A1.165,1.165,0,0,1,2.524.561a1.009,1.009,0,0,1-.65.962A1.072,1.072,0,0,1,2.59,2.569,1.166,1.166,0,0,1,1.278,3.789" transform="translate(0.434 0.616)"/></g><g transform="translate(68.428 91.092)"><path class="b" d="M1.218.31H.041V1.926H1.218a.773.773,0,0,0,.877-.8A.778.778,0,0,0,1.218.31M2.1,4.3l-1-1.954H.041V4.3H-.428v-4.4H1.261A1.191,1.191,0,0,1,2.569,1.114,1.143,1.143,0,0,1,1.607,2.3l1.046,2Z" transform="translate(0.428 0.109)"/></g><g transform="translate(71.922 91.092)"><path class="b" d="M1.352.5.521,2.826H2.168Zm1.3,3.731-.35-1H.379l-.35,1h-.5l1.623-4.4h.4L3.16,4.23Z" transform="translate(0.475 0.175)"/></g><g transform="translate(76.039 91.051)"><path class="b" d="M1.139,3.317A1.585,1.585,0,0,1,.012,2.859C-.4,2.443-.4,2.012-.4,1.078S-.4-.292.012-.7a1.572,1.572,0,0,1,1.127-.462A1.485,1.485,0,0,1,2.666.147H2.185A1.044,1.044,0,0,0,1.139-.742a1.066,1.066,0,0,0-.762.308C.1-.149.069.154.069,1.078S.1,2.3.377,2.586a1.054,1.054,0,0,0,.762.312A1.053,1.053,0,0,0,2.2,2h.469A1.484,1.484,0,0,1,1.139,3.317" transform="translate(0.4 1.165)"/></g><g transform="translate(35.241 99.861)"><path class="b" d="M1.181.31H.054v1.75H1.181a.835.835,0,0,0,.935-.877A.832.832,0,0,0,1.181.31m.042,2.173H.054V4.3H-.415v-4.4H1.224A1.253,1.253,0,0,1,2.586,1.184a1.259,1.259,0,0,1-1.362,1.3" transform="translate(0.415 0.109)"/></g><path class="b" d="M10.174-7.54h.469v4.4h-.469Z" transform="translate(28.964 107.4)"/><g transform="translate(40.883 99.861)"><path class="b" d="M0,3.26v-4.4H2.735v.419H.469V.828H2.4v.419H.469V2.84H2.735V3.26Z" transform="translate(0 1.145)"/></g><g transform="translate(44.594 99.861)"><path class="b" d="M1.218.31H.041V1.926H1.218a.773.773,0,0,0,.877-.8A.778.778,0,0,0,1.218.31M2.1,4.3l-1-1.954H.041V4.3H-.428v-4.4H1.261a1.188,1.188,0,0,1,1.3,1.223A1.14,1.14,0,0,1,1.607,2.3l1.046,2Z" transform="translate(0.428 0.109)"/></g><g transform="translate(48.652 99.861)"><path class="b" d="M1.218.31H.041V1.926H1.218a.773.773,0,0,0,.877-.8A.778.778,0,0,0,1.218.31M2.1,4.3l-1-1.954H.041V4.3H-.428v-4.4H1.261a1.188,1.188,0,0,1,1.3,1.223A1.14,1.14,0,0,1,1.607,2.3l1.046,2Z" transform="translate(0.428 0.109)"/></g><g transform="translate(52.71 99.861)"><path class="b" d="M0,3.26v-4.4H2.735v.419H.469V.828H2.4v.419H.469V2.84H2.735V3.26Z" transform="translate(0 1.145)"/></g><g transform="translate(56.423 99.861)"><path class="b" d="M.347.31V1.93H2.278v.423H.347V4.3H-.122v-4.4H2.613V.31Z" transform="translate(0.122 0.109)"/></g><g transform="translate(59.72 99.824)"><path class="b" d="M1.7.544a1.077,1.077,0,0,0-1.523,0c-.277.285-.308.581-.308,1.5s.031,1.219.308,1.5a1.077,1.077,0,0,0,1.523,0c.277-.285.312-.581.312-1.5S1.979.828,1.7.544m.365,3.285a1.565,1.565,0,0,1-1.127.458A1.572,1.572,0,0,1-.186,3.829C-.6,3.413-.6,2.983-.6,2.048S-.6.678-.186.267A1.572,1.572,0,0,1,.941-.191,1.565,1.565,0,0,1,2.068.267c.415.412.415.846.415,1.781s0,1.366-.415,1.781" transform="translate(0.598 0.191)"/></g><g transform="translate(63.906 99.861)"><path class="b" d="M1.218.31H.045V1.926H1.218a.776.776,0,0,0,.881-.8A.781.781,0,0,0,1.218.31M2.1,4.3l-1-1.954H.045V4.3H-.428v-4.4H1.261A1.191,1.191,0,0,1,2.569,1.114,1.143,1.143,0,0,1,1.607,2.3l1.046,2Z" transform="translate(0.428 0.109)"/></g><g transform="translate(67.511 99.861)"><path class="b" d="M1.292.31V4.3H.823V.31H-.454V-.109h3.02V.31Z" transform="translate(0.454 0.109)"/></g><g transform="translate(70.421 99.861)"><path class="b" d="M1.349.5.522,2.826H2.165Zm1.3,3.731-.35-1H.38l-.354,1h-.5l1.62-4.4h.4l1.616,4.4Z" transform="translate(0.474 0.175)"/></g><path class="b" d="M19.435-7.54H19.9v4.4h-.469Z" transform="translate(55.328 107.4)"/><g transform="translate(76.131 99.824)"><path class="b" d="M1.116,3.314A1.91,1.91,0,0,1-.392,2.733l.319-.323a1.518,1.518,0,0,0,1.2.485c.646,0,1.039-.3,1.039-.819a.708.708,0,0,0-.208-.55.936.936,0,0,0-.577-.208L.87,1.236A1.642,1.642,0,0,1,.058.9,1.042,1.042,0,0,1-.277.079,1.245,1.245,0,0,1,1.135-1.164a1.761,1.761,0,0,1,1.312.481l-.3.3A1.392,1.392,0,0,0,1.116-.756c-.589,0-.927.327-.927.816a.645.645,0,0,0,.2.508,1.317,1.317,0,0,0,.6.242l.481.073a1.432,1.432,0,0,1,.8.308,1.1,1.1,0,0,1,.373.873c0,.773-.608,1.25-1.523,1.25" transform="translate(0.392 1.164)"/></g><g transform="translate(25.659 108.63)"><path class="b" d="M1.181.31H.054v1.75H1.181a.835.835,0,0,0,.935-.877A.832.832,0,0,0,1.181.31m.042,2.173H.054V4.3H-.415v-4.4H1.224A1.253,1.253,0,0,1,2.586,1.184a1.259,1.259,0,0,1-1.362,1.3" transform="translate(0.415 0.109)"/></g><g transform="translate(29.556 108.629)"><path class="b" d="M0,3.26v-4.4H.469V2.84H2.724V3.26Z" transform="translate(0 1.145)"/></g><g transform="translate(32.539 108.63)"><path class="b" d="M1.349.5.518,2.826H2.165Zm1.3,3.731-.35-1H.38l-.354,1h-.5l1.62-4.4h.4l1.616,4.4Z" transform="translate(0.474 0.175)"/></g><g transform="translate(36.881 108.629)"><path class="b" d="M2.078,3.26-.261-.272V3.26H-.73v-4.4h.446l2.339,3.52v-3.52h.469v4.4Z" transform="translate(0.73 1.145)"/></g><g transform="translate(41.41 107.255)"><path class="b" d="M.883.7.213-.246H.748L1.29.7ZM-.31,5.532v-4.4H2.425v.419H.159V3.1H2.09v.423H.159V5.113H2.425v.419Z" transform="translate(0.31 0.246)"/></g><g transform="translate(44.835 108.629)"><path class="b" d="M0,3.26V2.813L2.2-.726H.088v-.419H2.735v.4L.515,2.84h2.22V3.26Z" transform="translate(0 1.145)"/></g><g transform="translate(48.559 108.629)"><path class="b" d="M0,3.26v-4.4H2.735v.419H.469V.828H2.4v.419H.469V2.84H2.735V3.26Z" transform="translate(0 1.145)"/></g><g transform="translate(53.361 108.63)"><path class="b" d="M1.29.31V4.3H.82V.31H-.453V-.109H2.563V.31Z" transform="translate(0.453 0.109)"/></g><g transform="translate(57.201 108.63)"><path class="b" d="M1.218.31H.041V1.926H1.218a.773.773,0,0,0,.877-.8A.778.778,0,0,0,1.218.31M2.1,4.3l-1-1.954H.041V4.3H-.428v-4.4H1.261A1.191,1.191,0,0,1,2.569,1.114,1.143,1.143,0,0,1,1.607,2.3l1.046,2Z" transform="translate(0.428 0.109)"/></g><g transform="translate(61.197 108.628)"><path class="b" d="M1.136,3.288A1.454,1.454,0,0,1-.4,1.8V-1.155H.07V1.761A1.025,1.025,0,0,0,1.136,2.869,1.028,1.028,0,0,0,2.205,1.761V-1.155h.469V1.8A1.457,1.457,0,0,1,1.136,3.288" transform="translate(0.399 1.155)"/></g><g transform="translate(64.897 108.63)"><path class="b" d="M1.318,1.913v1.82H.849V1.913L-.463-.672H.045L1.083,1.436,2.111-.672h.508Z" transform="translate(0.463 0.672)"/></g><g transform="translate(68.665 107.255)"><path class="b" d="M.883.7.213-.246H.748L1.29.7ZM-.31,5.532v-4.4H2.425v.419H.159V3.1H2.087v.423H.159V5.113H2.425v.419Z" transform="translate(0.31 0.246)"/></g><g transform="translate(72.375 108.63)"><path class="b" d="M1.218.31H.041V1.926H1.218a.775.775,0,0,0,.877-.8A.78.78,0,0,0,1.218.31M2.1,4.3l-1-1.954H.041V4.3H-.428v-4.4H1.261a1.188,1.188,0,0,1,1.3,1.223A1.14,1.14,0,0,1,1.607,2.3l1.046,2Z" transform="translate(0.428 0.109)"/></g><g transform="translate(76.434 108.629)"><path class="b" d="M0,3.26v-4.4H2.735v.419H.469V.828H2.4v.419H.469V2.84H2.735V3.26Z" transform="translate(0 1.145)"/></g><g transform="translate(9.524 117.359)"><path class="b" d="M1.142,3.317A1.572,1.572,0,0,1,.014,2.859C-.4,2.443-.4,2.012-.4,1.078S-.4-.292.014-.7a1.56,1.56,0,0,1,1.127-.462A1.485,1.485,0,0,1,2.669.151H2.188A1.044,1.044,0,0,0,1.142-.742,1.066,1.066,0,0,0,.38-.434C.1-.149.072.154.072,1.078S.1,2.3.38,2.586a1.054,1.054,0,0,0,.762.312A1.055,1.055,0,0,0,2.2,2h.469A1.484,1.484,0,0,1,1.142,3.317" transform="translate(0.401 1.165)"/></g><g transform="translate(13.007 117.399)"><path class="b" d="M1.352.5.521,2.826H2.168Zm1.3,3.731-.35-1H.379l-.35,1h-.5l1.623-4.4h.4L3.16,4.23Z" transform="translate(0.475 0.175)"/></g><g transform="translate(17.351 117.399)"><path class="b" d="M0,3.26v-4.4H.469V2.84H2.724V3.26Z" transform="translate(0 1.145)"/></g><g transform="translate(20.895 117.398)"><path class="b" d="M1.7.549A1.153,1.153,0,0,0,.834.226H-.128V3.792H.834A1.153,1.153,0,0,0,1.7,3.469a2.358,2.358,0,0,0,.292-1.508A2.073,2.073,0,0,0,1.7.549M2.027,3.8a1.537,1.537,0,0,1-1.112.408H-.6v-4.4H.915A1.537,1.537,0,0,1,2.027.215a2.333,2.333,0,0,1,.435,1.746A2.574,2.574,0,0,1,2.027,3.8" transform="translate(0.597 0.193)"/></g><g transform="translate(24.432 117.399)"><path class="b" d="M1.352.5.521,2.826H2.168Zm1.3,3.731-.35-1H.379l-.35,1h-.5l1.623-4.4h.4L3.16,4.23Z" transform="translate(0.475 0.175)"/></g><g transform="translate(28.548 117.359)"><path class="b" d="M2.01,2.941a1.569,1.569,0,0,1-1.177.508A1.569,1.569,0,0,1-.291,2.991c-.415-.415-.415-.846-.415-1.781s0-1.369.415-1.781A1.544,1.544,0,0,1,.833-1.033,1.5,1.5,0,0,1,2.375.286H1.906A1.06,1.06,0,0,0,.833-.61a1.064,1.064,0,0,0-.762.315c-.277.285-.308.581-.308,1.5s.031,1.223.308,1.508a1.06,1.06,0,0,0,.762.312,1.065,1.065,0,0,0,.835-.381,1.145,1.145,0,0,0,.25-.8V1.517H.833V1.1H2.387v.7A1.52,1.52,0,0,1,2.01,2.941" transform="translate(0.706 1.033)"/></g><g transform="translate(32.673 117.398)"><path class="b" d="M1.136,3.288A1.454,1.454,0,0,1-.4,1.8V-1.155H.07V1.761A1.023,1.023,0,0,0,1.136,2.869,1.026,1.026,0,0,0,2.205,1.761V-1.155h.469V1.8A1.457,1.457,0,0,1,1.136,3.288" transform="translate(0.399 1.155)"/></g><g transform="translate(36.962 116.025)"><path class="b" d="M.883.7.213-.246H.748L1.29.7ZM-.31,5.532v-4.4H2.425v.419H.159V3.1H2.09v.423H.159V5.113H2.425v.419Z" transform="translate(0.31 0.246)"/></g><g transform="translate(40.296 117.359)"><path class="b" d="M1.116,3.317A1.91,1.91,0,0,1-.392,2.736l.319-.323a1.518,1.518,0,0,0,1.2.485c.642,0,1.042-.3,1.042-.819a.71.71,0,0,0-.212-.55.936.936,0,0,0-.577-.208L.87,1.239A1.642,1.642,0,0,1,.058.9,1.048,1.048,0,0,1-.277.081,1.248,1.248,0,0,1,1.135-1.165,1.763,1.763,0,0,1,2.447-.68l-.3.3A1.377,1.377,0,0,0,1.116-.753c-.589,0-.927.327-.927.816a.645.645,0,0,0,.2.508,1.317,1.317,0,0,0,.6.242l.481.073a1.4,1.4,0,0,1,.8.308,1.1,1.1,0,0,1,.373.873c0,.773-.608,1.25-1.523,1.25" transform="translate(0.392 1.165)"/></g><g transform="translate(45.85 117.399)"><path class="b" d="M2.445,3.26V-.087L1.238,2.567h-.4L-.39-.087V3.26H-.859v-4.4H-.39L1.045,1.979l1.4-3.124h.469v4.4Z" transform="translate(0.859 1.145)"/></g><g transform="translate(50.336 117.399)"><path class="b" d="M1.349.5.522,2.826H2.165Zm1.3,3.731-.35-1H.38l-.354,1h-.5l1.62-4.4h.4l1.616,4.4Z" transform="translate(0.474 0.175)"/></g><g transform="translate(54.677 117.4)"><path class="b" d="M1.218.31H.041V1.926H1.218a.773.773,0,0,0,.877-.8A.778.778,0,0,0,1.218.31M2.1,4.3l-1-1.954H.041V4.3H-.428v-4.4H1.261A1.191,1.191,0,0,1,2.569,1.114,1.143,1.143,0,0,1,1.607,2.3l1.046,2Z" transform="translate(0.428 0.109)"/></g><g transform="translate(58.569 117.359)"><path class="b" d="M2.01,2.941a1.569,1.569,0,0,1-1.177.508A1.569,1.569,0,0,1-.291,2.991c-.415-.415-.415-.846-.415-1.781s0-1.369.415-1.781A1.544,1.544,0,0,1,.833-1.033,1.5,1.5,0,0,1,2.375.286H1.906A1.063,1.063,0,0,0,.833-.61a1.064,1.064,0,0,0-.762.315c-.277.285-.308.581-.308,1.5s.031,1.223.308,1.508a1.06,1.06,0,0,0,.762.312,1.065,1.065,0,0,0,.835-.381,1.145,1.145,0,0,0,.25-.8V1.517H.833V1.1H2.387v.7A1.52,1.52,0,0,1,2.01,2.941" transform="translate(0.706 1.033)"/></g><g transform="translate(62.756 117.399)"><path class="b" d="M0,3.26v-4.4H2.735v.419H.469V.828H2.4v.419H.469V2.84H2.735V3.26Z" transform="translate(0 1.145)"/></g><g transform="translate(66.467 117.4)"><path class="b" d="M1.218.31H.045V1.926H1.218a.773.773,0,0,0,.877-.8A.778.778,0,0,0,1.218.31M2.1,4.3l-1-1.954H.045V4.3H-.428v-4.4H1.261A1.191,1.191,0,0,1,2.569,1.114,1.143,1.143,0,0,1,1.607,2.3l1.046,2Z" transform="translate(0.428 0.109)"/></g><path class="b" d="M18.333-2.981H18.8v4.4h-.469Z" transform="translate(52.191 120.379)"/><g transform="translate(72.269 117.398)"><path class="b" d="M1.7.549A1.153,1.153,0,0,0,.834.226H-.128V3.792H.834A1.153,1.153,0,0,0,1.7,3.469a2.358,2.358,0,0,0,.292-1.508A2.073,2.073,0,0,0,1.7.549M2.027,3.8a1.537,1.537,0,0,1-1.112.408H-.6v-4.4H.915A1.537,1.537,0,0,1,2.027.215a2.333,2.333,0,0,1,.435,1.746A2.574,2.574,0,0,1,2.027,3.8" transform="translate(0.597 0.193)"/></g><g transform="translate(76.434 117.399)"><path class="b" d="M0,3.26v-4.4H2.735v.419H.469V.828H2.4v.419H.469V2.84H2.735V3.26Z" transform="translate(0 1.145)"/></g><g transform="translate(130.201 13.191)"><path class="d" d="M4.934,0A32.95,32.95,0,0,1,.825,8.517c-.862,1.3-1.743,2.589-2.558,3.924L5.1,16.08Z" transform="translate(1.733)"/></g><g transform="translate(136.871 11.647)"><path class="b" d="M.117,13.041h0v.008l15.53,8.286a31.576,31.576,0,0,0-4.62-15.3A31.5,31.5,0,0,0,.382-4.581C.255-4.066.113-3.554-.041-3.046Z" transform="translate(0.041 4.581)"/></g><g transform="translate(136.867 13.182)"><path class="b" d="M.12,11.905h0L-.038-4.182a.012.012,0,0,0,0,.008Z" transform="translate(0.042 4.182)"/></g><g transform="translate(126.693 25.632)"><path class="e" d="M2.6,0A24.859,24.859,0,0,0,.2,4.916,24.718,24.718,0,0,0-.682,15.768c.827,6.609,5.566,11.1,9.733,15.83.223.25.431.5.642.754l-.165-17.73-.1-10.979Z" transform="translate(0.912)"/></g><g transform="translate(130.2 25.63)"><path class="e" d="M5.053,2.693-1.775-.946h0L5.053,2.7Z" transform="translate(1.775 0.946)"/></g><g transform="translate(137.026 29.269)"><path class="e" d="M0,.006V0H0V.006Z" transform="translate(0.001 0.002)"/></g><g transform="translate(137.028 29.268)"><path class="e" d="M0,.006V0Z" transform="translate(0 0.002)"/></g><g transform="translate(104.469 11.901)"><path class="f" d="M16.426,8.765-5.77-3.079l15.853,26A29.64,29.64,0,0,1,16.426,8.765" transform="translate(5.77 3.079)"/></g><g transform="translate(137.029 29.277)"><path class="f" d="M.077,8.122.246,25.86A33.414,33.414,0,0,1,3.9,31.184,31.841,31.841,0,0,0,15.5,5.433L-.027-2.853Z" transform="translate(0.027 2.853)"/></g><g transform="translate(137.029 29.277)"><path class="f" d="M.077,8.122l-.1-10.975h0Z" transform="translate(0.027 2.853)"/></g><g transform="translate(89.14 11.711)"><path class="g" d="M23.054,19.524c.008-.065.023-.131.031-.2L7.232-6.666,7.155-6.8l-.038-.058L6.989-6.8A31.716,31.716,0,0,0-8.075,21.455l31.106-1.746.023-.185" transform="translate(8.098 6.858)"/></g><g transform="translate(104.471 11.902)"><path class="g" d="M0,0H0L15.853,26Z"/></g><g transform="translate(106.528 56.585)"><path class="h" d="M13.38,1.09c-.308-.485-.592-.977-.869-1.473L-4.7,10.111a31.792,31.792,0,0,0,24.181,1.858,15.114,15.114,0,0,0-.835-2.312C17.246,6.6,15.169,3.925,13.38,1.09" transform="translate(4.7 0.383)"/></g><g transform="translate(103.697 38.458)"><path class="i" d="M12.247,0-4.3,27a30.862,30.862,0,0,0,2.831,1.62L15.74,18.126A28.875,28.875,0,0,1,12.247,0" transform="translate(4.302)"/></g><g transform="translate(104.346 7.057)"><path class="b" d="M16.517,12.351c.658-.831,1.354-1.643,2.1-2.431a46.15,46.15,0,0,0,6.055-7.3A19.053,19.053,0,0,0,26.127-.34,31.705,31.705,0,0,0-5.8.3l.046.073.077.131Z" transform="translate(5.802 4.338)"/></g><g transform="translate(104.391 11.771)"><path class="b" d="M.06.1-.021-.034Z" transform="translate(0.021 0.034)"/></g><g transform="translate(89.164 38.275)"><path class="j" d="M23.02,0-8.086,1.746A31.6,31.6,0,0,0-3.47,17.018,31.66,31.66,0,0,0,6.447,27.186L23,.181C23,.123,23.012.062,23.02,0" transform="translate(8.086)"/></g><g transform="translate(118.63 84.375)"><path class="k" d="M1.537,0A1.979,1.979,0,0,0,.072.612,2.014,2.014,0,0,0-.54,2.1,1.985,1.985,0,0,0,.072,3.57a1.979,1.979,0,0,0,1.466.612A2.014,2.014,0,0,0,3.03,3.57,1.985,1.985,0,0,0,3.642,2.1,2.014,2.014,0,0,0,3.03.612,2.014,2.014,0,0,0,1.537,0" transform="translate(0.54)"/></g><g transform="translate(87.147 85.03)"><path class="k" d="M16.85,13.1a3.685,3.685,0,0,1-1.962-.469,3.29,3.29,0,0,1-1.15-1.185A4.809,4.809,0,0,1,13.2,9.916a9.14,9.14,0,0,1-.142-1.546A9.058,9.058,0,0,1,13.2,6.846a4.809,4.809,0,0,1,.542-1.531,3.38,3.38,0,0,1,1.15-1.2,3.614,3.614,0,0,1,1.962-.485,3.622,3.622,0,0,1,1.947.485,3.363,3.363,0,0,1,1.166,1.2A4.836,4.836,0,0,1,20.5,6.846a9,9,0,0,1,.138,1.523A9.124,9.124,0,0,1,20.5,9.916a4.836,4.836,0,0,1-.542,1.531,3.234,3.234,0,0,1-1.169,1.189,3.715,3.715,0,0,1-1.943.465M-5.919,9.158v1.989a2.893,2.893,0,0,0,.462,1.55,4.309,4.309,0,0,0,1.423,1.35,8.816,8.816,0,0,0,2.458.989,13.859,13.859,0,0,0,3.466.389c.273,0,.646-.023,1.146-.069a9.885,9.885,0,0,0,1.55-.277,9.275,9.275,0,0,0,1.677-.619,5.846,5.846,0,0,0,1.52-1.081,5.155,5.155,0,0,0,1.466-3.054l.192-1.446L9.122,7.758a3.467,3.467,0,0,0-.2-.546A4.058,4.058,0,0,0,7.864,5.8,5.354,5.354,0,0,0,6.31,4.9a15.4,15.4,0,0,0-1.9-.589L-.349,3.138c-.208-.054-.431-.119-.677-.192a2.591,2.591,0,0,1-.758-.362,1.984,1.984,0,0,1-.6-.673A2.178,2.178,0,0,1-2.618.841,2.161,2.161,0,0,1-2.257-.413a2.628,2.628,0,0,1,.892-.8A4.106,4.106,0,0,1-.187-1.636a6.35,6.35,0,0,1,1.235-.127,6.56,6.56,0,0,1,1.943.246,3.927,3.927,0,0,1,1.3.642,2.384,2.384,0,0,1,.727.889,2.2,2.2,0,0,1,.215.912V2.261H8.668V.9A4.865,4.865,0,0,0,8.28-.909a5.146,5.146,0,0,0-1.243-1.77A6.94,6.94,0,0,0,4.771-4.048,9.361,9.361,0,0,0,1.348-4.6a11.006,11.006,0,0,0-2.681.289,8.156,8.156,0,0,0-1.947.75,4.616,4.616,0,0,0-1.3,1.054,5.494,5.494,0,0,0-.792,1.246,5.423,5.423,0,0,0-.4,1.258,6.018,6.018,0,0,0-.119,1.146,5.249,5.249,0,0,0,.5,2.47,4.32,4.32,0,0,0,1.3,1.516,6.288,6.288,0,0,0,1.893.9c.735.215,1.5.415,2.3.592l2.1.492c.519.127,1,.258,1.427.381a6.185,6.185,0,0,1,1.181.473,2.376,2.376,0,0,1,.827.719,1.968,1.968,0,0,1,.3,1.1,2.363,2.363,0,0,1-.419,1.439,2.772,2.772,0,0,1-1.054.842,4.91,4.91,0,0,1-1.377.4,9.815,9.815,0,0,1-2.866.015,4.176,4.176,0,0,1-1.162-.335,2.463,2.463,0,0,1-.839-.627,1.514,1.514,0,0,1-.346-1V9.158ZM9.565,9.07l.212,1.243a8.2,8.2,0,0,0,.362,1.412,6.321,6.321,0,0,0,1.427,2.316,5.672,5.672,0,0,0,2.123,1.343,7.846,7.846,0,0,0,2.666.439,5.113,5.113,0,0,0,2.57-.669,4.484,4.484,0,0,0,1.8-1.835l.5-.939v1.45a1.245,1.245,0,0,0,.158.627,1.932,1.932,0,0,0,.423.523,2.063,2.063,0,0,0,.562.339,1.4,1.4,0,0,0,.523.119h5.978a1.2,1.2,0,0,0,.269-.035l.062-.012.058.012a1.073,1.073,0,0,0,.246.035H32.38V12.109h-.7a.854.854,0,0,1-.562-.239l-.092-.081v-4.5a3.688,3.688,0,0,1,.946-2.727,3.25,3.25,0,0,1,2.354-.931,3.036,3.036,0,0,1,1.55.342,2.285,2.285,0,0,1,.858.842,2.656,2.656,0,0,1,.323,1.046c.027.335.042.65.042.931v6.12a2.292,2.292,0,0,0,.185.866,3.375,3.375,0,0,0,.5.827,2.855,2.855,0,0,0,.692.6,1.42,1.42,0,0,0,.758.223h2.851V12.659h-.673a.9.9,0,0,1-.7-.373,1.152,1.152,0,0,1-.277-.719V5.558a4.986,4.986,0,0,0-.377-2.016A4.259,4.259,0,0,0,39.043,2.1a4.169,4.169,0,0,0-1.52-.881A6.04,6.04,0,0,0,35.6.914a4.628,4.628,0,0,0-1.708.285,4.706,4.706,0,0,0-1.227.7,4.36,4.36,0,0,0-.816.866,6.926,6.926,0,0,0-.477.785l-.5,1V2.938a1.36,1.36,0,0,0-.127-.554,2.189,2.189,0,0,0-.846-.942.956.956,0,0,0-.5-.142H25.744V4.076h.673a.928.928,0,0,1,.689.319.977.977,0,0,1,.292.692v7.24l-.088.081a.939.939,0,0,1-.619.25H25.175a.862.862,0,0,1-.654-.323.985.985,0,0,1-.273-.658V1.438h-3V3.261l-.473-.6a3.563,3.563,0,0,0-.731-.677,5.744,5.744,0,0,0-2.1-.935,4.935,4.935,0,0,0-1.1-.135,8.384,8.384,0,0,0-2.75.454,6.507,6.507,0,0,0-2.293,1.366,6.59,6.59,0,0,0-1.593,2.308A7.882,7.882,0,0,0,9.645,7.7Z" transform="translate(5.919 4.602)"/></g><g transform="translate(134.878 85.807)"><path class="k" d="M0,5.44H1.985v7.413a5.079,5.079,0,0,0,.969,3.354,3.055,3.055,0,0,0,2.458,1.119c.373,0,.7.008,1,.015a11.569,11.569,0,0,0,1.158,0c.019,0,.038,0,.058,0V14h-.45a2.286,2.286,0,0,1-1.027-.192,1.433,1.433,0,0,1-.589-.492,1.417,1.417,0,0,1-.219-.612,4.975,4.975,0,0,1-.031-.512V5.44h2.4V3.213h-2.4V-1.911H1.985V3.213H0Z" transform="translate(0 1.911)"/></g><g transform="translate(165.966 90.546)"><path class="k" d="M5.352,9.019A3.685,3.685,0,0,1,3.39,8.549,3.29,3.29,0,0,1,2.24,7.365,4.836,4.836,0,0,1,1.7,5.834a9.176,9.176,0,0,1-.142-1.546A9.094,9.094,0,0,1,1.7,2.764,4.9,4.9,0,0,1,2.24,1.233,3.436,3.436,0,0,1,3.386.036,3.637,3.637,0,0,1,5.352-.448,3.622,3.622,0,0,1,7.3.036a3.363,3.363,0,0,1,1.166,1.2A4.738,4.738,0,0,1,9,2.764a8.674,8.674,0,0,1,.142,1.523A8.761,8.761,0,0,1,9,5.834a4.738,4.738,0,0,1-.539,1.531A3.234,3.234,0,0,1,7.295,8.553a3.715,3.715,0,0,1-1.943.465m0-12.187A8.424,8.424,0,0,0,2.6-2.714,6.491,6.491,0,0,0,.309-1.348,6.59,6.59,0,0,0-1.284.96a8.473,8.473,0,0,0-.6,3.328,8.593,8.593,0,0,0,.6,3.343A6.639,6.639,0,0,0,.309,9.95,6.3,6.3,0,0,0,2.6,11.3a8.814,8.814,0,0,0,5.509,0A6.334,6.334,0,0,0,10.4,9.95a6.682,6.682,0,0,0,1.589-2.32,8.521,8.521,0,0,0,.6-3.343,8.389,8.389,0,0,0-.6-3.328A6.633,6.633,0,0,0,10.4-1.348,6.507,6.507,0,0,0,8.1-2.714a8.384,8.384,0,0,0-2.75-.454" transform="translate(1.88 3.168)"/></g><g transform="translate(180.714 90.547)"><path class="k" d="M0,2.34H.7a.877.877,0,0,1,.666.339.992.992,0,0,1,.289.669v5.6a6.789,6.789,0,0,0,.358,2.335,4.233,4.233,0,0,0,.969,1.585,3.832,3.832,0,0,0,1.485.916,5.825,5.825,0,0,0,1.912.3,4.793,4.793,0,0,0,2.627-.742,4.12,4.12,0,0,0,1.646-2.012l.515-1.319v2a1.407,1.407,0,0,0,.192.754,1.871,1.871,0,0,0,.492.531,2.2,2.2,0,0,0,.615.308,1.878,1.878,0,0,0,.527.1h3.466l1.827-2.777H15.4a1.036,1.036,0,0,1-.742-.327l-.077-.077V6.325a5.9,5.9,0,0,1,.146-1.281,3.15,3.15,0,0,1,.569-1.235A3.085,3.085,0,0,1,16.468,2.9,4.668,4.668,0,0,1,18.4,2.559h.565c.092,0,.181,0,.273.012V-.8L19.107-.81c-.112-.008-.227-.012-.35-.012a3.862,3.862,0,0,0-1.4.227A3.527,3.527,0,0,0,16.341.02a4,4,0,0,0-.75.881c-.212.335-.423.692-.627,1.062l-.077.135H14.41V1.336a1.188,1.188,0,0,0-.185-.623,2.294,2.294,0,0,0-.5-.592,2.271,2.271,0,0,0-.231-.162L13.46-.064a1.785,1.785,0,0,0-1.1-.373H9.348V2.34h.7a.868.868,0,0,1,.673.358A1.055,1.055,0,0,1,11,3.379V7.76A4.232,4.232,0,0,1,10.687,9.5a3.269,3.269,0,0,1-.8,1.108,2.754,2.754,0,0,1-1.069.592,3.74,3.74,0,0,1-2.023.046A2.2,2.2,0,0,1,5.224,9.876,3.828,3.828,0,0,1,4.982,8.4V1.778a2.552,2.552,0,0,0-.112-.75A2.145,2.145,0,0,0,4.512.34a2.06,2.06,0,0,0-.6-.523A2.084,2.084,0,0,0,3.07-.437H0Z" transform="translate(0 0.822)"/></g><path class="k" d="M37.546-4.958H40.82V-8.236H37.546Z" transform="translate(106.888 105.419)"/><g transform="translate(87.044 109.202)"><path class="b" d="M3.448,9.526A4.662,4.662,0,0,1,.035,8.141C-1.246,6.86-1.211,5.279-1.211,3.09S-1.246-.676.035-1.957A4.665,4.665,0,0,1,3.448-3.346a4.465,4.465,0,0,1,4.659,4H5.6a2.1,2.1,0,0,0-2.131-1.8,2.054,2.054,0,0,0-1.585.658C1.4.051,1.263.655,1.263,3.09s.142,3.039.619,3.574a2.054,2.054,0,0,0,1.585.658A2.093,2.093,0,0,0,5.6,5.525H8.106a4.475,4.475,0,0,1-4.659,4" transform="translate(1.211 3.346)"/></g><g transform="translate(97.388 109.201)"><path class="b" d="M4.632,2.132a2.058,2.058,0,0,0-1.581-.677,2.1,2.1,0,0,0-1.6.677c-.481.535-.6,1.119-.6,3.554s.123,3.024.6,3.554a2.081,2.081,0,0,0,1.6.677,2.045,2.045,0,0,0,1.581-.677c.481-.531.623-1.119.623-3.554s-.142-3.02-.623-3.554m1.831,8.605a4.575,4.575,0,0,1-3.412,1.385A4.613,4.613,0,0,1-.381,10.738C-1.662,9.457-1.627,7.876-1.627,5.687S-1.662,1.921-.381.64A4.616,4.616,0,0,1,3.051-.749,4.578,4.578,0,0,1,6.463.64C7.744,1.921,7.725,3.5,7.725,5.687s.019,3.77-1.262,5.051" transform="translate(1.627 0.749)"/></g><g transform="translate(108.589 109.31)"><path class="b" d="M6.656,9.366V1.988L4.24,6.789H2.567L.132,1.988V9.366h-2.47V-3.29H.1L3.4,3.554,6.691-3.29H9.126V9.366Z" transform="translate(2.338 3.29)"/></g><g transform="translate(122.33 109.31)"><path class="b" d="M6.656,9.366V1.988l-2.42,4.8H2.567L.132,1.988V9.366h-2.47V-3.29H.1L3.4,3.554,6.691-3.29H9.126V9.366Z" transform="translate(2.338 3.29)"/></g><g transform="translate(135.872 109.31)"><path class="b" d="M3.448,9.446A4.4,4.4,0,0,1-1.211,5V-3.318H1.263V4.914A2.092,2.092,0,0,0,3.448,7.242a2.106,2.106,0,0,0,2.2-2.327V-3.318H8.106V5A4.4,4.4,0,0,1,3.448,9.446" transform="translate(1.211 3.318)"/></g><g transform="translate(147.269 109.31)"><path class="b" d="M5.537,9.366.525,1.6V9.366h-2.47V-3.29h2.2L5.272,4.458V-3.29h2.47V9.366Z" transform="translate(1.945 3.29)"/></g><g transform="translate(157.842 109.311)"><path class="b" d="M4.171,2.761l-1.6,4.6H5.717Zm2.951,8.925L6.375,9.447h-4.5l-.766,2.239H-1.465L3.14-.97H5.078L9.7,11.686Z" transform="translate(1.465 0.97)"/></g><g transform="translate(169.698 109.31)"><path class="b" d="M3.448,9.446A4.4,4.4,0,0,1-1.211,5V-3.318H1.263V4.914A2.092,2.092,0,0,0,3.448,7.242a2.106,2.106,0,0,0,2.2-2.327V-3.318H8.106V5A4.4,4.4,0,0,1,3.448,9.446" transform="translate(1.211 3.318)"/></g><g transform="translate(180.15 109.309)"><path class="b" d="M4.276,1.631V12.083H1.806V1.631H-1.5v-2.2H7.584v2.2Z" transform="translate(1.502 0.573)"/></g><g transform="translate(190.568 105.06)"><path class="b" d="M3.393,2.238H1.847L2.986-.786H5.421ZM-1.192,16.121V3.465H7.144v2.2H1.278v2.97h5v2.2h-5v3.074H7.144v2.2Z" transform="translate(1.192 0.786)"/></g><g transform="translate(158.148 85.736)"><path class="k" d="M4.487,11.843a1.063,1.063,0,0,1-.754-.339,1.048,1.048,0,0,1-.339-.754V-1.89a2.067,2.067,0,0,0-.15-.731,2.679,2.679,0,0,0-.439-.754,2.272,2.272,0,0,0-.7-.565,1.936,1.936,0,0,0-.923-.219H-1.576v2.608h.658a.915.915,0,0,1,.7.335,1.049,1.049,0,0,1,.289.7V11.962A3.1,3.1,0,0,0,.32,13.208a3.634,3.634,0,0,0,.654,1.027,3.168,3.168,0,0,0,.877.692,2.009,2.009,0,0,0,.927.242h3.37V11.843Z" transform="translate(1.576 4.16)"/></g><g transform="translate(148.825 85.702)"><path class="k" d="M5.819.026C5.684.018,5.554.01,5.4.006,5.107,0,4.68-.009,4.115-.009A4.562,4.562,0,0,0,1.141.883,3.749,3.749,0,0,0,.079,3.919v1.45H-2.044V7.6H.079l0,11.8A3.166,3.166,0,0,0,2.43,18.36a4.038,4.038,0,0,0,.977-2.851V7.6H5.915V5.369H3.407V4.523c0-.3.012-.562.027-.781a1.358,1.358,0,0,1,.2-.631.939.939,0,0,1,.546-.385,3.083,3.083,0,0,1,.846-.1l.873,0h.027V.026Z" transform="translate(2.044 0.009)"/></g><g transform="translate(88.75 62.026)"><path class="l" d="M81.075,1.775C61.318-.652,43.041,9.815,24.619,15.285c-8.963,2.658-18.557,4.6-27.859,2.631C-13.68,15.7-21.878,8.792-28.479.725c9.406,7.121,18.761,12.9,30.906,13.249a.568.568,0,0,0-.081,0c13.191-.677,25.27-5.539,37.8-9.252C53.509.755,67.43-3.357,81.075,1.775" transform="translate(28.479 0.623)"/></g></g></g></svg>