<svg xmlns="http://www.w3.org/2000/svg" width="389.244" height="312.411" viewBox="0 0 389.244 312.411"><defs><style>.a{fill:#e0e7eb;}</style></defs><g transform="translate(835.255 -295.952) rotate(-9)"><path class="a" d="M-629.215,264c-32.949-23.73-79.15-35.329-115-17.389-2.188,1.082-4.322,2.285-6.416,3.574-4.755-.017-9.5-.189-14.279.034a106.816,106.816,0,0,0-14.617-14.09c-40.339-31.721-82.69-22.665-113.14,6.272-13.631,10.654-25.6,25.483-34.571,44.3-26.073,54.575-10.051,125.387,31.315,159.2,48.241,39.436,115,27.476,169.595,30.294,48.715,2.509,100.414-6.048,127.54-65.5C-575.151,358.908-588.187,293.577-629.215,264Z" transform="translate(60.001 0)"/></g></svg>