<svg xmlns="http://www.w3.org/2000/svg" width="242.441" height="211.804" viewBox="0 0 242.441 211.804"><defs><style>.a{fill:#43a567;}.b{fill:#184c3b;}.c{fill:#388d56;}</style></defs><g transform="translate(-605.918 -581.077)"><g transform="translate(719.165 632.888)"><path class="a" d="M668.037,615.893c-.734-1.694-1.257-3.479-1.884-5.206a54.706,54.706,0,0,0-2.63-6.328,14.855,14.855,0,0,0-1.406-2.329,2.891,2.891,0,0,0-1.333-1.113c-.494-.131-1.168.531-1.508,1a10.79,10.79,0,0,0-1.383,2.969l-.01.031c-.254,1.218-.5,2.436-.758,3.654-1.388,6.592-2.875,13.171-4.689,19.668-.274,1.412-.544,2.823-.849,4.229q-.475,2.176-.946,4.349c-.005.1-.013.2-.018.3a166.622,166.622,0,0,0,24.041-.11C673.361,630.956,668.178,616.214,668.037,615.893Z" transform="translate(-647.026 -600.9)"/><path class="a" d="M655.564,665.55c4.26-.037,8.521.037,12.781.081,4.179.042,8.351-.005,12.53-.076l.345,0c-.068-.222-.131-.431-.178-.614-2.47-9.642-4.893-19.292-7.418-28.926a121.02,121.02,0,0,0-4.245-13.623,63.9,63.9,0,0,0-3.032-6.649c-.306-.578-.609-1.16-.957-1.725a1.463,1.463,0,0,0-1.223-.894c-1.3-.005-2.2,1.325-2.729,2.041-2.847,3.882-4.153,8.27-5.126,12.6-1.056,4.715-1.924,9.459-2.794,14.2q-2.18,11.848-3.9,23.74Q652.588,665.576,655.564,665.55Z" transform="translate(-648.643 -581.178)"/><path class="a" d="M656.6,654.214c-2.452.065-4.9.165-7.35.272q2.172-8.48,4.571-16.871,3.148-10.989,6.691-21.817.886-2.705,1.8-5.4a11.15,11.15,0,0,1,2.01-4.156,1.735,1.735,0,0,1,1.511-.687c.682.125,1.1.8,1.4,1.474a37.993,37.993,0,0,1,1.649,5.207c2.044,7.491,3.907,15.055,5.855,22.583l5.018,19.407Q668.172,653.908,656.6,654.214Z" transform="translate(-649.246 -593.418)"/><path class="b" d="M659.552,671.183q.114,4.669.18,9.341h1.725q-.18-12.079-.654-24.148c.228-.05,3.142-5.431,4.721-7.786a.871.871,0,0,0-.309-1.181.883.883,0,0,0-1.184.308,56.762,56.762,0,0,0-3.351,5.7q-.2-4.733-.431-9.462l.016.008c.442.1,1.21-1.116,1.31-1.365a5.212,5.212,0,0,1,.541-.917,4.824,4.824,0,0,1,.392-.439.865.865,0,0,0-1.223-1.223,6.033,6.033,0,0,0-1.155,1.618q-.239-4.493-.515-8.978l.005,0c1.283-1.77,2.624-3.442,4.1-5.112a.865.865,0,0,0-1.223-1.223c-1.061,1.205-2.067,2.457-3.045,3.727-.084-1.27-.159-2.543-.248-3.813q-.616-8.978-1.393-17.948c-.1-1.1-1.827-1.111-1.73,0q1.062,12.307,1.827,24.637a44.159,44.159,0,0,1-3.155-4.566.864.864,0,1,0-1.492.873,46.325,46.325,0,0,0,4.679,6.438.668.668,0,0,0,.136.1q.682,11.472,1.1,22.959c-1.1-1.963-2.227-3.908-3.419-5.816-.591-.941-2.089-.073-1.495.873q2.693,4.3,5.055,8.787Q659.447,666.872,659.552,671.183Z" transform="translate(-642.965 -590.326)"/></g><g transform="translate(761.764 581.077)"><path class="c" d="M703.547,630.163q-2.991-.028-5.983-.081c-7.886-.144-17.282-.1-25.168-.24q-3.368-.059-6.736-.078c1.1-5.468,3.4-12.266,5.084-17.622q1.486-4.732,3.27-9.391a62.54,62.54,0,0,1,3.79-8.792,9.457,9.457,0,0,1,6.6-4.969c3.053-.473,4.268,1.309,5.836,3.461a52.518,52.518,0,0,1,4.626,8.38c4.109,8.68,6.074,17.559,8.6,27.549A8.487,8.487,0,0,1,703.547,630.163Z" transform="translate(-665.355 -568.431)"/><path class="c" d="M668.78,644.882c1.882-9.159,3.283-18.377,5-27.557,1.03-5.5,2.083-11.043,3.539-16.485a44.781,44.781,0,0,1,2.428-7.054c.774-1.694,1.764-3.785,3.62-4.93,2.169-1.341,4.378.447,5.572,1.874a22.057,22.057,0,0,1,3.921,7.6.532.532,0,0,0,.086.144c.039.251.073.5.112.748,1.069,6.717,2.331,13.416,3.829,20.081,1.506,6.707,3.139,13.39,4.517,20.118q1.043,5.1,2.023,10.214A67.268,67.268,0,0,1,704.8,657.6c.034.491.073.98.107,1.471l-5.855-.023-28-.11q-1.8,0-3.6-.013a8.69,8.69,0,0,1-1.913-.113C666.608,654.163,667.826,649.529,668.78,644.882Z" transform="translate(-665.544 -569.286)"/><path class="c" d="M667.133,616.9q.314-1.047.63-2.091.749-2.474,1.542-4.94c1.079-3.346,2.243-6.683,3.578-10a93.409,93.409,0,0,1,4.53-9.7q1.31-2.415,2.818-4.778.78-1.223,1.62-2.426a4.272,4.272,0,0,1,1.712-1.741c1.981-.828,2.873,2.2,3.236,2.948q1.164,2.4,2.258,4.807,2.235,4.913,4.185,9.9,3.493,8.915,6.053,18.027Z" transform="translate(-662.98 -581.077)"/><path class="b" d="M678.3,668.886c.51-5.9.933-11.72,1.263-17.313q.243-4.132.426-8.27l.008-.141.107-.107a56.514,56.514,0,0,0,4.307-4.754.544.544,0,0,0,.1-.476.958.958,0,0,0-1.163-.7,1.008,1.008,0,0,0-.572.405c-.364.45-.729.891-1.106,1.33l-1.571,1.759.047-1.192c.248-6.388.4-12.622.46-18.526l0-.146.1-.11a41.6,41.6,0,0,0,6.628-8.96.8.8,0,0,0-.316-1.15,1.042,1.042,0,0,0-.465-.1.9.9,0,0,0-.781.368,40.169,40.169,0,0,1-4.352,6.417l-.805.978,0-1.213c.034-9.637-.146-19.247-.536-28.56a.888.888,0,0,0-.972-.792,1.009,1.009,0,0,0-.674.227.661.661,0,0,0-.2.533c.253,6.048.423,12.125.5,18.066q.02,1.6.024,3.2l.016,2.465-7.684-8.552a.761.761,0,0,0-.562-.2,1.114,1.114,0,0,0-.708.235.8.8,0,0,0,.031,1.194l8.774,9.77.131.115.031.172c0,5.706-.107,11.756-.329,19.044l-.037,1.187-3.6-4.543a1.064,1.064,0,0,0-.826-.426,1.139,1.139,0,0,0-.476.113.832.832,0,0,0-.421.531.638.638,0,0,0,.084.557L678.1,637.5l.118.118.12.266c-.052,1.383-.115,2.763-.175,4.143l-.044.993c-.395,8.936-.951,17.632-1.657,25.852.22-.005.439-.005.661-.005C677.513,668.862,677.908,668.868,678.3,668.886Z" transform="translate(-659.047 -570.496)"/></g><g transform="translate(666.245 595.467)"><path class="c" d="M629,645.849q3.156-.036,6.315-.107c8.327-.2,18.246-.144,26.571-.329,2.371-.052,8.67.465,11.04.444-3.683-12.034-12.251-32.878-13.508-37.083-1.189-3.991-6.958-18.079-10.212-18.725-3.223-.64-7.075,13.516-8.453,17.25-4.336,11.767-9.007,22.593-11.667,36.13A14.937,14.937,0,0,0,629,645.849Z" transform="translate(-628.999 -581.022)"/><path class="c" d="M663.634,619.533c-1.756-4.663-3.539-9.321-5.528-13.95a92.4,92.4,0,0,0-6.866-13.808,22.085,22.085,0,0,0-2.366-3.079,17.972,17.972,0,0,0-1.37-1.343c-.512-.452-1.158-1.077-1.968-.6a3.533,3.533,0,0,0-1.129,1.312q-.49.78-.967,1.56-.988,1.623-1.916,3.262a110.76,110.76,0,0,0-10.873,26.644Z" transform="translate(-626.333 -586.582)"/><path class="c" d="M658.857,612.033a80.6,80.6,0,0,0-4.4-10.936,22.172,22.172,0,0,0-3.949-6.1,3.526,3.526,0,0,0-1.694-1.045,20.741,20.741,0,0,0-1.589,1.73,31.49,31.49,0,0,0-5.416,11.108,103.556,103.556,0,0,0-2.6,12.614q-1.333,8.221-2.666,16.44c-1.362,8.4-6.009,17.88-7.371,26.278,2.559-.259,8.45-.653,11.022-.6,6.628.136,11.759,0,18.39,0,2.292,0,11.519.152,13.811.144C672.394,661.623,659.924,617.543,658.857,612.033Z" transform="translate(-628.713 -574.691)"/><path class="b" d="M640.931,653.218q.4,9.233.826,18.466c.719-.01,1.437-.042,2.156-.06q-.4-8.582-.766-17.164a1.313,1.313,0,0,0,.418-.384,47.277,47.277,0,0,1,5.766-6.817,1.091,1.091,0,0,0-.042-1.526,1.1,1.1,0,0,0-1.526.042,48.58,48.58,0,0,0-4.757,5.426c-.178-4.2-.329-8.393-.494-12.59q2.34-2.462,4.679-4.922a1.08,1.08,0,0,0-1.568-1.485l-3.228,3.4c-.024-.588-.044-1.179-.068-1.77a1.073,1.073,0,0,0-.018-.491q-.211-5.528-.408-11.059a1.283,1.283,0,0,0,.5-.659l.058-.159c.044-.118.094-.233.141-.345.1-.227.2-.45.3-.672q.318-.662.7-1.294c.12-.2.243-.395.371-.585q.106-.165.219-.321l.092-.131c.306-.4.62-.795.959-1.168a1.079,1.079,0,1,0-1.568-1.482,16.622,16.622,0,0,0-1.931,2.619q-.463-12.765-.855-25.536a1.093,1.093,0,1,0-2.156.044q.3,10.213.667,20.424c-.042-.058-.086-.115-.126-.173a13.676,13.676,0,0,1-.808-1.359c-.065-.123-.128-.248-.188-.374l-.078-.17,0,0-.016-.039c-.11-.256-.214-.515-.311-.776a1.078,1.078,0,1,0-2.062.63,14.927,14.927,0,0,0,3.714,5.664q.266,7.488.549,14.971a12.362,12.362,0,0,1-1.053-1.106c-.133-.17-.264-.337-.387-.512a1.079,1.079,0,1,0-1.832,1.14,13.144,13.144,0,0,0,3.382,3.291c.209,5.379.4,10.758.63,16.137a58.218,58.218,0,0,1-4.548-4.286,1.085,1.085,0,0,0-1.524.042,1.106,1.106,0,0,0,.042,1.526A58.314,58.314,0,0,0,640.931,653.218Z" transform="translate(-620.196 -578.976)"/></g><g transform="translate(815.784 585.099)"><path class="c" d="M705.005,597.612c-.735-1.694-1.257-3.479-1.884-5.206a54.773,54.773,0,0,0-2.629-6.328,14.676,14.676,0,0,0-1.409-2.329,2.9,2.9,0,0,0-1.33-1.116c-.494-.131-1.171.533-1.508,1a10.8,10.8,0,0,0-1.385,2.969l-.008.031c-.254,1.218-.5,2.436-.761,3.654-1.385,6.592-2.875,13.17-4.687,19.668-.274,1.411-.544,2.823-.849,4.229q-.474,2.172-.946,4.349c-.005.1-.013.2-.021.3a166.6,166.6,0,0,0,24.041-.11C710.329,612.675,705.146,597.933,705.005,597.612Z" transform="translate(-683.993 -582.616)"/><path class="c" d="M692.53,647.267c4.26-.036,8.521.037,12.781.081,4.179.042,8.351-.005,12.528-.076l.345,0c-.065-.222-.128-.431-.175-.614-2.47-9.642-4.9-19.292-7.418-28.926a121.044,121.044,0,0,0-4.245-13.623,63.866,63.866,0,0,0-3.032-6.649c-.306-.578-.609-1.16-.957-1.725a1.462,1.462,0,0,0-1.223-.894c-1.3-.005-2.2,1.325-2.729,2.041-2.849,3.881-4.153,8.27-5.125,12.6-1.056,4.715-1.923,9.459-2.794,14.2q-2.18,11.848-3.9,23.741Q689.554,647.293,692.53,647.267Z" transform="translate(-685.609 -562.892)"/><path class="c" d="M693.562,635.929c-2.452.065-4.9.165-7.35.272q2.172-8.476,4.572-16.869,3.148-10.989,6.691-21.817.886-2.705,1.8-5.4a11.156,11.156,0,0,1,2.01-4.153,1.735,1.735,0,0,1,1.511-.687c.68.125,1.1.8,1.4,1.474a38.34,38.34,0,0,1,1.649,5.207c2.044,7.491,3.907,15.055,5.852,22.58q2.513,9.707,5.021,19.409Q705.138,635.624,693.562,635.929Z" transform="translate(-686.212 -575.133)"/><path class="b" d="M696.518,652.9q.114,4.669.18,9.341h1.725q-.184-12.079-.653-24.148c.227-.05,3.142-5.431,4.72-7.786a.87.87,0,0,0-.311-1.181.881.881,0,0,0-1.182.308,55.9,55.9,0,0,0-3.351,5.7c-.133-3.155-.269-6.31-.431-9.462l.016.008c.442.1,1.21-1.116,1.309-1.364a5.217,5.217,0,0,1,.541-.917,4.461,4.461,0,0,1,.392-.439.865.865,0,0,0-1.223-1.223,6.06,6.06,0,0,0-1.155,1.615q-.239-4.489-.515-8.976l0,0c1.283-1.769,2.627-3.442,4.1-5.112a.865.865,0,1,0-1.223-1.223c-1.061,1.2-2.067,2.454-3.045,3.727-.084-1.273-.162-2.543-.248-3.813q-.615-8.978-1.4-17.948c-.094-1.1-1.824-1.111-1.728,0q1.063,12.306,1.827,24.637a43.758,43.758,0,0,1-3.155-4.566.866.866,0,1,0-1.495.873,46.546,46.546,0,0,0,4.681,6.437.79.79,0,0,0,.136.1q.678,11.472,1.095,22.959c-1.1-1.963-2.227-3.907-3.421-5.816-.588-.941-2.086-.073-1.492.873q2.689,4.3,5.055,8.787Q696.414,648.589,696.518,652.9Z" transform="translate(-679.932 -572.041)"/></g><g transform="translate(657.741 700.174)"><path class="a" d="M625.752,685.909q3.156-.035,6.315-.107c8.325-.2,18.244-.144,26.571-.329,2.371-.052,8.67.465,11.04.447-3.685-12.034-12.253-32.881-13.508-37.086-1.192-3.989-6.958-18.079-10.214-18.725-3.22-.64-7.073,13.516-8.45,17.253-4.336,11.764-9.007,22.593-11.67,36.127A14.969,14.969,0,0,0,625.752,685.909Z" transform="translate(-625.745 -621.083)"/><path class="a" d="M660.383,659.592c-1.757-4.663-3.542-9.321-5.531-13.947a91.746,91.746,0,0,0-6.866-13.811,22.2,22.2,0,0,0-2.363-3.079,19.064,19.064,0,0,0-1.37-1.341c-.512-.452-1.158-1.079-1.971-.6a3.524,3.524,0,0,0-1.129,1.312q-.49.776-.964,1.56-.988,1.619-1.918,3.259A110.968,110.968,0,0,0,627.4,659.592Z" transform="translate(-623.08 -626.643)"/><path class="a" d="M655.6,652.093a80.609,80.609,0,0,0-4.394-10.936,22.115,22.115,0,0,0-3.952-6.1,3.516,3.516,0,0,0-1.694-1.046,22,22,0,0,0-1.587,1.73,31.442,31.442,0,0,0-5.418,11.108,104.093,104.093,0,0,0-2.6,12.614q-1.333,8.222-2.666,16.443c-1.362,8.4-6.009,17.878-7.368,26.276,2.559-.259,8.448-.654,11.022-.6,6.626.136,11.759,0,18.39,0,2.292,0,11.519.154,13.811.144C669.138,701.683,656.668,657.6,655.6,652.093Z" transform="translate(-625.459 -614.753)"/><path class="b" d="M637.679,693.278q.4,9.237.826,18.466c.719-.011,1.438-.042,2.156-.06q-.4-8.578-.768-17.164a1.346,1.346,0,0,0,.421-.382,47.3,47.3,0,0,1,5.763-6.819,1.088,1.088,0,0,0-.042-1.526,1.1,1.1,0,0,0-1.524.042,49.1,49.1,0,0,0-4.76,5.426c-.178-4.2-.327-8.393-.494-12.59q2.34-2.458,4.681-4.922a1.08,1.08,0,0,0-1.568-1.484l-3.231,3.4c-.024-.591-.042-1.181-.065-1.772a1.061,1.061,0,0,0-.018-.489q-.216-5.532-.41-11.061a1.263,1.263,0,0,0,.5-.659l.057-.159c.042-.117.091-.23.141-.345.094-.227.2-.45.3-.672q.318-.662.7-1.294c.118-.2.24-.392.368-.585l.22-.321.094-.131c.306-.4.62-.792.957-1.168a1.078,1.078,0,1,0-1.566-1.482,16.585,16.585,0,0,0-1.931,2.619q-.463-12.765-.855-25.536a1.094,1.094,0,1,0-2.156.044q.3,10.213.664,20.424c-.039-.057-.084-.113-.123-.173a13.727,13.727,0,0,1-.81-1.359c-.063-.123-.125-.248-.186-.374l-.081-.167V651l-.016-.039c-.11-.256-.214-.515-.311-.776a1.079,1.079,0,0,0-2.065.63,14.941,14.941,0,0,0,3.717,5.667q.266,7.484.546,14.969a11.671,11.671,0,0,1-1.051-1.106c-.133-.17-.264-.337-.389-.512a1.079,1.079,0,0,0-1.832,1.14,13.145,13.145,0,0,0,3.382,3.291c.209,5.379.405,10.761.632,16.14a58.29,58.29,0,0,1-4.548-4.289,1.088,1.088,0,0,0-1.526.042,1.106,1.106,0,0,0,.044,1.527A58.067,58.067,0,0,0,637.679,693.278Z" transform="translate(-616.942 -619.037)"/></g><g transform="translate(605.918 673.584)"><path class="c" d="M615.9,634.043c.862-1.984,1.474-4.075,2.208-6.1a65.467,65.467,0,0,1,3.081-7.418,17.5,17.5,0,0,1,1.652-2.729,3.376,3.376,0,0,1,1.56-1.3c.577-.154,1.37.622,1.767,1.174a12.6,12.6,0,0,1,1.623,3.479l.011.039q.443,2.141.891,4.281c1.626,7.726,3.369,15.437,5.494,23.056.321,1.652.635,3.306,1,4.956.369,1.7.742,3.4,1.108,5.1q.012.176.023.353a195.034,195.034,0,0,1-28.179-.128C609.655,651.7,615.732,634.422,615.9,634.043Z" transform="translate(-602.342 -616.469)"/><path class="c" d="M635.989,692.249c-4.992-.045-9.987.042-14.979.094-4.9.05-9.788-.008-14.687-.089l-.405-.005c.078-.259.152-.5.206-.719,2.9-11.3,5.737-22.611,8.7-33.9a142.248,142.248,0,0,1,4.974-15.97,74.785,74.785,0,0,1,3.555-7.794c.358-.677.714-1.362,1.121-2.023A1.716,1.716,0,0,1,625.9,630.8c1.529-.008,2.585,1.553,3.2,2.392,3.335,4.55,4.867,9.692,6.006,14.773,1.239,5.528,2.253,11.087,3.275,16.639q2.556,13.887,4.571,27.828Q639.476,692.278,635.989,692.249Z" transform="translate(-605.918 -593.352)"/><path class="c" d="M606.85,678.976q2.941-11.378,5.884-22.75c2.279-8.821,4.464-17.687,6.861-26.469a44.782,44.782,0,0,1,1.932-6.1c.345-.787.842-1.579,1.639-1.728a2.037,2.037,0,0,1,1.772.808,13.043,13.043,0,0,1,2.355,4.869q1.066,3.156,2.1,6.331,4.152,12.687,7.844,25.57,2.815,9.837,5.358,19.776c-2.87-.125-5.742-.24-8.612-.319Q620.417,678.6,606.85,678.976Z" transform="translate(-604.414 -607.701)"/><path class="b" d="M617.5,698.85q-.129,5.473-.209,10.949h-2.023q.216-14.157.766-28.3c-.267-.06-3.68-6.367-5.533-9.125a1.015,1.015,0,0,1,1.751-1.025,65.463,65.463,0,0,1,3.926,6.675c.157-3.7.316-7.394.507-11.092l-.018.01c-.517.117-1.419-1.309-1.534-1.6a6.083,6.083,0,0,0-.635-1.074,5.814,5.814,0,0,0-.46-.517,1.024,1.024,0,0,1,0-1.432,1.035,1.035,0,0,1,1.435,0,7.063,7.063,0,0,1,1.354,1.895q.278-5.261.6-10.52l0-.005c-1.506-2.073-3.076-4.036-4.8-5.991a1.014,1.014,0,1,1,1.432-1.435c1.244,1.411,2.423,2.878,3.57,4.368.1-1.49.188-2.98.29-4.47q.722-10.523,1.634-21.035c.112-1.291,2.141-1.3,2.028,0q-1.247,14.424-2.141,28.877a51.48,51.48,0,0,0,3.7-5.353,1.015,1.015,0,0,1,1.751,1.025,54.307,54.307,0,0,1-5.486,7.546.767.767,0,0,1-.159.112q-.8,13.448-1.283,26.911c1.288-2.3,2.611-4.582,4.009-6.817.69-1.1,2.446-.086,1.751,1.025q-3.156,5.038-5.925,10.3Q617.619,693.8,617.5,698.85Z" transform="translate(-598.757 -604.075)"/></g></g></svg>