<svg xmlns="http://www.w3.org/2000/svg" xmlns:xlink="http://www.w3.org/1999/xlink" width="81.135" height="79.959" viewBox="0 0 81.135 79.959"><defs><style>.a{fill:none;}.b{clip-path:url(#a);}.c{fill:#2b2e34;}</style><clipPath id="a"><path class="a" d="M0,54.117H81.135V-25.842H0Z" transform="translate(0 25.842)"/></clipPath></defs><g class="b" transform="translate(0 0)"><g transform="translate(8.812 30.791)"><g transform="translate(0 0)"><path class="c" d="M5.826,5.486H.556l.7-2.322A12.2,12.2,0,0,1,3.19-.859,12.217,12.217,0,0,1,5.123,3.165Zm.885-1.478L6.7,3.96c-.141-.464-.28-.917-.413-1.35C5.24-.782,3.824-2.138,3.265-2.563L3.191-2.62l-.075.057C2.556-2.137,1.14-.781.1,2.61c-.137.446-.28.914-.426,1.392a73.151,73.151,0,0,1-2.4,7.213l-.055.094.1.035a.733.733,0,0,0,.222.024c1.343,0,1.773-1.543,2.152-2.9l.02-.071c.035-.127.07-.253.106-.377L.192,6.728h6l.37,1.289c.034.117.068.237.1.358l.025.09c.379,1.361.809,2.9,2.152,2.9a.731.731,0,0,0,.222-.024l.1-.035-.055-.094a73.326,73.326,0,0,1-2.4-7.206" transform="translate(2.782 2.62)"/></g></g><g transform="translate(23.347 34.758)"><g transform="translate(0 0)"><path class="c" d="M4.276,0H4.186V8.484a6.185,6.185,0,0,1-2.472.451C-.511,8.934-.8,7.814-.8,6.838V.941C-.8.027-1.94,0-1.951,0l-.091,0V7.225A2.5,2.5,0,0,0-.8,9.513a4.791,4.791,0,0,0,2.438.586,8.705,8.705,0,0,0,1.514-.181A6.956,6.956,0,0,1,4.3,9.77a2.339,2.339,0,0,1,1.011.186l.126.056V.941C5.432.012,4.287,0,4.276,0" transform="translate(2.042 0.001)"/></g></g><g transform="translate(34.91 30.138)"><g transform="translate(0 0)"><path class="c" d="M.843,5.177c0-1.161,1.418-1.942,2.743-1.942A1.975,1.975,0,0,1,5.826,5.37V8.928c0,1.477-.834,2.135-2.7,2.135a5.973,5.973,0,0,1-2.279-.529Zm3-3.125a4.5,4.5,0,0,0-3.111.971A9.454,9.454,0,0,0,.843,1.329V-1.359A1.014,1.014,0,0,0-.292-2.472H-.4V11.536l.075.013a14.5,14.5,0,0,1,1.422.327,8.142,8.142,0,0,0,2.143.37c1.847,0,3.834-.948,3.834-3.028V5.08A3.041,3.041,0,0,0,3.839,2.052" transform="translate(0.403 2.472)"/></g></g><g transform="translate(46.279 34.663)"><g transform="translate(0 0)"><path class="c" d="M2.555,0A6.907,6.907,0,0,0,.994.234,5.6,5.6,0,0,1-.2.425,1.84,1.84,0,0,1-1.091.164L-1.22.1V9.157c0,.929,1.144.94,1.156.94H.025V1.69a5.376,5.376,0,0,1,2.1-.371c1.186,0,1.8.375,1.832,1.114l.016.356.154-.321A1.841,1.841,0,0,0,4.244.678,1.879,1.879,0,0,0,2.555,0" transform="translate(1.22 0)"/></g></g><g transform="translate(53.846 34.663)"><g transform="translate(0 0)"><path class="c" d="M4.176,3.15V7.057a5.369,5.369,0,0,1-2.259.468C.223,7.526-.71,6.939-.71,5.874c0-1.41,1.56-1.731,2.937-2.015a3.933,3.933,0,0,0,1.95-.709M1.82-1.5C-.264-1.5-1.665-.7-1.665.5A2.033,2.033,0,0,0-1.24,1.713l.161.213V1.659c0-1.2,1.111-1.941,2.9-1.941,1.645,0,2.35.547,2.356,1.83-.267.761-1.361,1.013-2.519,1.28-1.711.395-3.651.842-3.651,3.028,0,1.775,1.4,2.835,3.756,2.835A7.526,7.526,0,0,0,3.147,8.5a5.835,5.835,0,0,1,1-.144A3.588,3.588,0,0,1,5.3,8.548l.121.047V1.62C5.421-.424,4.176-1.5,1.82-1.5" transform="translate(1.994 1.504)"/></g></g><g transform="translate(65.059 34.663)"><g transform="translate(0 0)"><path class="c" d="M4.824,4.658l-.162-.232v.283c0,1.276-1.127,2.038-3.015,2.038-1.719,0-2.7-.75-2.7-2.057V1.074C-1.058-.323-.25-1,1.413-1,3.19-1,4.293-.258,4.293.939v.266L4.455.992A2.039,2.039,0,0,0,4.9-.221c0-1.217-1.352-2-3.445-2C-.9-2.224-2.3-1.071-2.3.862V4.884c0,1.9,1.514,3.086,3.951,3.086a6.019,6.019,0,0,0,2.487-.477A1.756,1.756,0,0,0,5.326,5.928a2.361,2.361,0,0,0-.5-1.27" transform="translate(2.304 2.224)"/></g></g><g transform="translate(0 0)"><g transform="translate(0 0)"><path class="c" d="M.6,53.355V41.509c7.867.04,19.241.879,31.282,1.768,14.584,1.077,30.918,2.283,44.095,2.283q2.044,0,3.982-.041v7.837ZM79.96-24.592V31.454c-10.077-1.237-32.466.859-39.218,2.441l-3.188-.156c-7.149-.348-12.306-.578-14.912-.667-1.73-.059-4.713-.377-8.165-.745C9.769,31.824,4.458,31.258.6,31.166V-24.592ZM74.346,35.675h-.014c-7.141-.418-18.894-1.044-29.886-1.595C53.5,32.7,71.6,31.408,79.96,32.45v3.577c-1.162-.084-3.042-.2-5.614-.351M40.54,34.736a.428.428,0,0,0,.153.031.441.441,0,0,0,.1-.012l.024-.005c7.394.366,15.425.78,22.351,1.154-5.634.323-12.273.883-19.463,1.489C29.379,38.6,13.159,39.965.6,39.7V32.583c3.819.093,9.1.655,13.785,1.155,3.469.37,6.627.351,8.389.411,2.6.089,7.592.091,14.737.438l3.028.148M79.96,44.1c-13.726.3-32.764-.828-48.845-2.015-6.547-.483-13.071-.9-19.32-1.154,10.26-.514,21.615-1.821,31.983-2.695,12.1-1.02,29.309-1.617,36.182-1.35ZM-.287,54.241H80.849V-25.478H-.287Zm0-79.719" transform="translate(0.287 25.478)"/></g></g><g transform="translate(6.986 16.318)"><g transform="translate(0 0)"><path class="c" d="M.744.609V7.937H3.112c1.478,0,2.643-.548,2.643-2.243V2.839c0-1.695-1.164-2.23-2.643-2.23ZM.718,8.837c-.1,0-1.073-.026-1.073-.652V-.291H3.112c1.923,0,3.742.652,3.742,3.012v3.1c0,2.36-1.819,3.012-3.742,3.012Z" transform="translate(0.355 0.291)"/></g></g><g transform="translate(16.158 18.769)"><g transform="translate(0 0)"><path class="c" d="M.708,1.862A4.911,4.911,0,0,0,2.069,2.1c1.243,0,1.675-.378,1.675-1.017C3.744.415,3.378-.042,2.3-.042c-1.164,0-1.6.535-1.6,1.447Zm4.161,2.7c0,.913-1.23,1.382-2.512,1.382-1.662,0-2.7-.782-2.7-2.1V1.21c0-1.317.981-2.1,2.643-2.1S4.791-.107,4.791,1.08c0,1.056-.719,1.93-2.643,1.93A3,3,0,0,1,.708,2.7v.952c0,.913.51,1.382,1.727,1.382,1.138,0,2.093-.469,2.093-1.382a1.617,1.617,0,0,1,.34.913" transform="translate(0.338 0.889)"/></g></g><g transform="translate(22.805 18.769)"><g transform="translate(0 0)"><path class="c" d="M1.736,0c1.348,0,2.42.365,2.42,1.252a2,2,0,0,1-.379,1.043c0-.9-.693-1.382-2.041-1.382C.519.913.218,1.252.218,2.034c0,1.552,4.213-.209,4.213,2.816,0,1.187-.9,1.982-2.7,1.982C.362,6.832-.79,6.454-.79,5.542a1.9,1.9,0,0,1,.353-1c0,.913.824,1.382,2.172,1.382s1.649-.482,1.649-1.134c0-1.878-4.213-.013-4.213-2.751C-.829.717.074,0,1.736,0" transform="translate(0.829)"/></g></g><g transform="translate(29.766 17.374)"><g transform="translate(0 0)"><path class="c" d="M0,0S1.047.013,1.047.665V1.747H3.781s-.013.9-.654.9H1.047V5.763c0,.939.327,1.552,1.361,1.552.9,0,1.675-.5,1.675-1.382a1.754,1.754,0,0,1,.353.965c0,.887-1.073,1.33-2.133,1.33A2.047,2.047,0,0,1,0,6.128Z" transform="translate(0)"/></g></g><g transform="translate(35.458 16.5)"><g transform="translate(0 0)"><path class="c" d="M0,1.58s1.047-.013,1.047.652v6.05S0,8.282,0,7.63ZM0-.754H.824a.241.241,0,0,1,.222.235v.86H.236A.234.234,0,0,1,0,.106Z" transform="translate(0 0.754)"/></g></g><g transform="translate(38.598 18.769)"><g transform="translate(0 0)"><path class="c" d="M2.843,1.456C2.843.648,2.424.178,1.259.178A4.192,4.192,0,0,0-.311.452v5.62s-1.047,0-1.047-.652V-.63a1.809,1.809,0,0,0,.851.209C.121-.422.7-.7,1.443-.7c1.191,0,2.447.417,2.447,1.956V6.072S2.843,6.059,2.843,5.42Z" transform="translate(1.357 0.695)"/></g></g><g transform="translate(45.677 18.769)"><g transform="translate(0 0)"><path class="c" d="M2.807,2.083c-.249.873-3.1.3-3.1,1.851C-.294,4.508.138,5,1.263,5a3.229,3.229,0,0,0,1.544-.352Zm-.039-1.03c0-.665-.3-1.134-1.518-1.134S-.791.388-.791,1.3A1.686,1.686,0,0,1-1.144.348c0-.887,1.125-1.343,2.394-1.343,1.662,0,2.564.782,2.564,2.1V5.773A2.16,2.16,0,0,0,2.951,5.6c-.6,0-1.151.235-1.871.235-1.191,0-2.421-.509-2.421-1.917C-1.34,1.4,2.31,2.3,2.768,1.053" transform="translate(1.34 0.995)"/></g></g><g transform="translate(52.86 17.374)"><g transform="translate(0 0)"><path class="c" d="M0,0S1.047.013,1.047.665V1.747H3.781s-.013.9-.654.9H1.047V5.763c0,.939.327,1.552,1.361,1.552.9,0,1.675-.5,1.675-1.382a1.754,1.754,0,0,1,.353.965c0,.887-1.073,1.33-2.133,1.33A2.047,2.047,0,0,1,0,6.128Z" transform="translate(0)"/></g></g><g transform="translate(58.552 16.5)"><g transform="translate(0 0)"><path class="c" d="M0,1.58s1.047-.013,1.047.652v6.05S0,8.282,0,7.63ZM0-.754H.824a.241.241,0,0,1,.222.235v.86H.236A.234.234,0,0,1,0,.106Z" transform="translate(0 0.754)"/></g></g><g transform="translate(61.561 18.769)"><g transform="translate(0 0)"><path class="c" d="M3.117,1.553c0-.913-.3-1.447-1.779-1.447S-.442.64-.442,1.553V3.8c0,.913.3,1.447,1.779,1.447S3.117,4.709,3.117,3.8ZM4.164,3.991c0,1.317-.9,2.1-2.826,2.1s-2.826-.782-2.826-2.1V1.358c0-1.317.9-2.1,2.826-2.1s2.826.782,2.826,2.1Z" transform="translate(1.489 0.742)"/></g></g><g transform="translate(69.176 18.769)"><g transform="translate(0 0)"><path class="c" d="M2.842,1.456C2.842.648,2.424.178,1.259.178A4.192,4.192,0,0,0-.311.452v5.62s-1.047,0-1.047-.652V-.63a1.809,1.809,0,0,0,.851.209C.121-.422.7-.7,1.443-.7c1.19,0,2.447.417,2.447,1.956V6.072S2.842,6.059,2.842,5.42Z" transform="translate(1.357 0.695)"/></g></g></g></svg>