<svg xmlns="http://www.w3.org/2000/svg" xmlns:xlink="http://www.w3.org/1999/xlink" width="128.497" height="53.891" viewBox="0 0 128.497 53.891"><defs><style>.a{fill:none;}.b{clip-path:url(#a);}.c{fill:#ff561c;}.d{fill:#014080;}</style><clipPath id="a"><path class="a" d="M0,36.474H128.5V-17.417H0Z" transform="translate(0 17.417)"/></clipPath></defs><g class="b" transform="translate(0 0)"><g transform="translate(0.001 0.001)"><path class="c" d="M16.439,24.919c-.439.461-1.643.631-1.98,1.154a22.254,22.254,0,0,1-2.618,3.475C8.858,32.332,2.478,33.737-.668,31.07c-.2.012-.084.13.161.891C-.279,33.406.9,36.8.464,37.663c.285.959.582.61,1.114,1.139.365.365.52,1.309.938,1.563.48-.034.959-.068,1.436-.1.087.263.176.529.263.792.616-.043,1.231-.084,1.847-.127.343.077,1.392.606,1.7.693.684-.05,1.368-.1,2.048-.142a5.173,5.173,0,0,0,4.251-1.111c.74-.492,1.547-.418,2.2-.965a15.024,15.024,0,0,0,2.84-3.456c1.485-2.652.984-9.01-.362-10.582-.526-.569-1.145-.576-2.3-.449m12.4-1.742c-1.111.839-1.578.631-2.228,1.925-.068,0,.1.195.031.195.659,1.3,2.181,1.832,3.3,2.748.35.288,1.287,1.9,1.736,2.014.5.591.832,2.228,1.16,2.228.34.458-.031,1.541.3,1.962.025,1.937-.251,2.073-.591,2.451,0,.133.186.483.186.616.1.093.885.653,1.228.582,1.064.037,5.455,3.407,5.8,4.06,3.147.235,2.918-.715,5.087-1.624.591-.244,1.055-.012,1.442-.408s.433-1.207.82-1.618c.056-7.633-10.477-14.864-18.277-15.127m8.549-16.13a18.01,18.01,0,0,0-7.76,2.819,5.372,5.372,0,0,0-1.55,1.476,2.413,2.413,0,0,0-.263,1.649,2.66,2.66,0,0,0,1.009,1.832c4.787-.35,13.1-.647,14.719,3.323.087.551.21.879.226,1.015,1.584-.387.424-.251,2.76.111a10.675,10.675,0,0,0,2.726-.418,1.108,1.108,0,0,0,.622-.449,2.59,2.59,0,0,1-.05-.585,2.248,2.248,0,0,0,1.151-.195c2.215-.356,1.052-1.383,2.1-2.537-.631-7.414-8.345-9.137-15.687-8.042M7.695,20.571a19.045,19.045,0,0,0,3.082-.709c1.219-.6,5.412-3.49,4.081-5.845-.418-4.96-6.482-.767-9.06-2.5C3.181,11.177.241,6.3-.539,4.219a3.4,3.4,0,0,0-.6-1.2c.006-.071-.266.226-.263.158-.767.876-.631,1.643-.752,3.781-.343-.019-.681-.04-1.024-.062a2.381,2.381,0,0,1-.517,1.6c-.077.13-.155.257-.229.39-.65-.217-.325.09-.591-.442-2.4.114-2.225,2.5-3.332,3.858.05,4.449,8.988,9.945,15.545,8.271M25.106-3.64c.2-1.683-.05-4.143,1.3-5.3.39-1.8,3.255-1.38,2.809-2.522-.278-.715-1.621-.374-2.166-.241a59.257,59.257,0,0,1-5.854,1.488c-.64-.176-1.278-.35-1.918-.529-2.463.328-3.889,2.265-5.26,3.8C12.865-5.652,11.309-2.5,12.547-.611c-.068.412-.136.826-.2,1.241l2.8,4.035c.962.684,1.092,1.194,2.135,1.869.21.319.424.634.644.95a5.488,5.488,0,0,0,3.778.2c4.041.374,3.6-7.692,4.886-9.381a3.4,3.4,0,0,0-1.482-1.94" transform="translate(7.85 11.899)"/></g><g transform="translate(89.921 19.473)"><path class="d" d="M5.424,12.632c3.58,0,6.485-1.166,6.485-7.4,0-5.3-2.905-7.061-6.485-7.061H3.546V12.632Zm1.9-18.664C13.8-6.032,18.175-2,18.175,5.234,18.175,14.312,12.16,17,5.854,17H-2.59c.031-.5,0-1.847,0-3.527V-2.5c0-1.68.031-2.754,0-3.53Z" transform="translate(2.59 6.032)"/></g><g transform="translate(113.688 19.473)"><path class="d" d="M4.184,13.2c0,1.68.084,3.53.084,3.53H-2s.043-1.85.043-3.53V-2.773C-1.955-4.453-2-6.3-2-6.3H12.811v4.456S9.5-1.931,8.377-1.931H4.184V2.707l4.193.043c.783,0,3.487-.043,3.487-.043V6.955S9.469,6.89,8.377,6.89l-4.193.022Z" transform="translate(1.998 6.303)"/></g><g transform="translate(65.498 18.983)"><path class="d" d="M4.54,6.222c.09-1.327.579-4.428,3.988-4.428,3.493,0,3.688,2.909,3.688,4.446v.313s-2.336.062-3.732.062-3.964-.059-3.964-.059ZM9.754,15.9A4.9,4.9,0,0,1,4.54,10.885v-.257s5.474-.127,7.327-.127c3.159,0,4.459-.031,6.943-.068V8.7C18.81.844,15.435-2.971,8.485-2.971c-3.2,0-10.653,1.188-10.653,12.179,0,7.33,3.756,11.711,10.313,11.711,5.149,0,8.314-1.3,10.61-2.943-.257-.384-2.181-3.781-2.429-4.152A10.994,10.994,0,0,1,9.754,15.9" transform="translate(2.168 2.971)"/></g></g></svg>