<svg xmlns="http://www.w3.org/2000/svg" xmlns:xlink="http://www.w3.org/1999/xlink" width="772.009" height="498.942" viewBox="0 0 772.009 498.942"><defs><style>.a,.e,.f,.j,.l,.m,.n,.t,.u,.w{fill:none;}.b{fill:#216f40;}.c{fill:#184c3b;}.d{fill:#e0e7eb;}.e,.f{stroke:#79cbc5;}.e,.f,.j,.l,.m,.n,.t,.u,.w{stroke-miterlimit:10;}.e{stroke-width:0.587px;}.f{stroke-width:0.578px;}.g{fill:#ea734c;}.h{fill:#f5a76e;}.i{fill:#3a9081;}.j,.l{stroke:#3a9081;}.j,.m{stroke-width:2.125px;}.k{fill:#e7d9b4;}.l,.n{stroke-width:1.594px;}.m{stroke:#e7d9b4;}.n{stroke:#dfb68f;}.o{fill:#43a567;}.p{fill:#5f5c52;}.q{fill:#101724;}.r{fill:#bcb9a6;}.s{fill:#a64c1a;}.t{stroke:#a64c1a;stroke-width:0.524px;}.u,.w{stroke:#ea734c;}.u{stroke-width:0.214px;}.v{fill:#fc4504;}.w{stroke-width:0.5px;}.x{clip-path:url(#a);}.y{fill:#ddebf2;}.aa,.z{fill:#6ad4de;}.aa{font-size:31px;font-family:BrandonPrinted-One, Brandon Printed;letter-spacing:-0.04em;}</style><clipPath id="a"><path class="a" d="M0,61.233H357.637v-115H0Z" transform="translate(0 53.768)"/></clipPath></defs><g transform="translate(390.73 107.581)"><path class="b" d="M497.721,1105.8a20.867,20.867,0,0,0-6.212.788,50.236,50.236,0,0,0,5.036-3.442c1.673-1.326,4.008-3.219,4.176-5.512a4.016,4.016,0,0,0-3.625-4.137c-2.141-.38-4.464.185-6.554.649-1.032.23-2.049.511-3.057.824,2.521-2.017,5-4.087,7.382-6.264,1.463-1.338,3.871-2.928,3.871-5.137,0-2.25-2.211-3.36-4.187-3.344a29.57,29.57,0,0,0-11.579,3.031c.563-.524,1.144-1.03,1.678-1.586q1.366-1.421,2.6-2.965a14.362,14.362,0,0,0,2.48-3.69,3.282,3.282,0,0,0-2.942-4.4,7.65,7.65,0,0,0-3.762,1.016,14.037,14.037,0,0,0-2.76,1.8,32.859,32.859,0,0,0-.8-5.151c-.5-2.082-1.26-5.185-3.932-5.273-2.909-.1-3.457,2.911-3.834,5.146a37.645,37.645,0,0,0-.5,7.051,35.624,35.624,0,0,0-3.979-5.706c-1.662-1.876-4.5-1.915-5.682.5-1.072,2.2-.076,5.078.409,7.315q.8,3.673,1.941,7.26,1.205,3.769,2.777,7.412c-.793-.979-1.585-1.958-2.434-2.89a16.315,16.315,0,0,0-3.658-3.491,3.091,3.091,0,0,0-4.639,1.8c-.409,1.551.079,3.592.405,5.116a28.861,28.861,0,0,0,3.016,7.718c-2.219-1.379-5.029-1.87-7.181.028-2.663,2.348-1.58,6.109-.1,8.784a66.064,66.064,0,0,0,5.425,8.256c.68.888,1.384,1.755,2.1,2.609-3.428-1.6-7.462-2.744-10.752-.36a6.3,6.3,0,0,0-2.772,4.942,7.235,7.235,0,0,0,2.911,5.355,49.867,49.867,0,0,0,9.326,6.259c4.439,2.34,9.9,3.842,14.735,5.153.338.092.68.167,1.021.247,1.075.253,5.173-2.516,6.283-3.12a68.375,68.375,0,0,0,9.38-6.1,22.136,22.136,0,0,0,3.457-3.227c1.1-1.32,2.61-3.143,2.108-5-.533-1.974-2.488-2.777-4.631-3.018a61.26,61.26,0,0,0,8.228-5.942c1.515-1.311,3.072-3.079,3.439-5.106C502.826,1107.205,500.03,1105.972,497.721,1105.8Z" transform="translate(-446.063 -1063.009)"/><path class="c" d="M478.383,1112.769q-3.13,4.189-5.835,8.668-.468-12.434-.51-24.893a57.636,57.636,0,0,1,4.158-5.716.789.789,0,0,0,0-1.085.773.773,0,0,0-1.085,0c-1.08,1.295-2.091,2.643-3.061,4.021.006-3.192,0-6.383.045-9.577.016-1.044-2.51-.851-2.525.187q-.125,8.1-.062,16.192l-1.367-1a.77.77,0,0,0-1.049.275.788.788,0,0,0,.275,1.05l2.159,1.578q.066,6.532.257,13.057a39.1,39.1,0,0,1-5.073-6.029.786.786,0,0,0-1.05-.275.774.774,0,0,0-.275,1.049,40.938,40.938,0,0,0,6.485,7.447q.641,19.318,2.329,38.57c.833-.064,1.665-.124,2.5-.191-.333-3.781-.648-7.564-.918-11.349-.488-6.813-.836-13.634-1.122-20.461a107.02,107.02,0,0,1,7.049-10.745C480.3,1112.752,478.969,1111.987,478.383,1112.769Z" transform="translate(-443.288 -1059.708)"/></g><g transform="translate(498.627)"><g transform="translate(0 34.593)"><path class="d" d="M595.885,126.921a7.742,7.742,0,0,0-2.159-2.286c-1.862-1.317-4.269-1.366-6.036-2.563-1.977-1.339-3.213-2.422-5.682-3.043-4.2-1.055-8.847-2.135-13.2-1.643a12.184,12.184,0,0,0-5.35,1.855c-1.295.86-2.329,3.3-3.722,3.573-.835.163-2.369-.535-3.317-.54a8.982,8.982,0,0,0-5.845,1.965c-5.168,4.346-1.871,10.939,4,11.947,2.268.39,5.592.642,7.747-.338,4.179-1.9,7.5-.776,11.957-.48l13.16.871c2.784.184,5.613.178,7.664-2.034a6.2,6.2,0,0,0,1.5-5.571A6.128,6.128,0,0,0,595.885,126.921Z" transform="translate(-548.007 -117.264)"/><path class="e" d="M554.51,136.583a6.678,6.678,0,0,0,5.734.421" transform="translate(-549.329 -121.192)"/><path class="e" d="M567.808,136.385l4.841-.285" transform="translate(-552.033 -121.094)"/><path class="e" d="M581.392,136.1l4,.5" transform="translate(-554.795 -121.093)"/><path class="e" d="M593.9,136.664a5.23,5.23,0,0,0,3.145-.528" transform="translate(-557.339 -121.101)"/><path class="e" d="M604.64,136.029l.852-1.71" transform="translate(-559.521 -120.732)"/><path class="e" d="M589.97,132.883h3.7" transform="translate(-556.539 -120.44)"/><path class="e" d="M599.905,130.805l-.284-1.139" transform="translate(-558.501 -119.786)"/><path class="e" d="M580.325,132.138l1.992-.289" transform="translate(-554.578 -120.229)"/></g><g transform="translate(88.621 0)"><g transform="translate(0)"><path class="d" d="M805.57,87.858c-6.159-2.077-11.717-.839-17.566,1.42-4.674,1.8-6.53.428-10.4-2.162a56.874,56.874,0,0,0-9.962-5.247c-15.17-6.272-30.327-4.913-45.533.189a45.159,45.159,0,0,1-9.515,2.4c-3.831-2.471-7.4-5.748-11.284-7.579a32.575,32.575,0,0,0-21.291-2.154c-12.991,3.1-24.976,16.6-19.352,30.417,6.375,15.658,25.022,16.04,39.295,15.946l57.393-.377q14.608-.1,29.218-.193c7.617-.053,15.853.046,22.447-4.363C820.688,108.359,818.869,92.343,805.57,87.858Z" transform="translate(-659.245 -73.843)"/><path class="f" d="M678.035,120.949c-.031.491.8,1.181,1.051,1.593a5.593,5.593,0,0,0,2.444,2.172" transform="translate(-663.065 -83.421)"/><path class="f" d="M686.765,126.683l-.176-.014a11.868,11.868,0,0,0,4.747,1.358" transform="translate(-664.804 -84.584)"/><path class="f" d="M699.3,129.049h4.033" transform="translate(-667.388 -85.067)"/><path class="f" d="M712.122,128.711h4.3" transform="translate(-669.995 -84.999)"/><path class="f" d="M723.6,129.049h2.689" transform="translate(-672.328 -85.067)"/><path class="f" d="M831.6,127.425c.755-.882,2.075-.5,2.957-1.076" transform="translate(-694.286 -84.518)"/><path class="f" d="M840.371,124.044a4.208,4.208,0,0,0,1.542-.8,5.662,5.662,0,0,0,1.954-1.617" transform="translate(-696.07 -83.558)"/><path class="f" d="M850.159,117.025c.025-.667,1.168-1.762,1.613-2.151" transform="translate(-698.06 -82.185)"/><path class="f" d="M684.447,120.611c.911.915,2.342,1.178,3.5,1.613" transform="translate(-664.369 -83.352)"/><path class="f" d="M696.592,122.3l-.02.135a4.433,4.433,0,0,1,.714.407c.679.315,1.544.28,2.263.533" transform="translate(-666.834 -83.695)"/><path class="f" d="M706.722,123.78a13.175,13.175,0,0,0,4.571-.806" transform="translate(-668.897 -83.832)"/><path class="f" d="M718.534,123.849c1.558-.027,3.031-.431,4.571-.538" transform="translate(-671.299 -83.901)"/><path class="f" d="M833.284,121.418c.457-.626,2.279-.537,2.958-.807" transform="translate(-694.629 -83.352)"/><path class="f" d="M844.421,114.8c.464-.529.882-1.084,1.345-1.613" transform="translate(-696.894 -81.842)"/></g></g></g><g transform="translate(498.627 36.219)"><g transform="translate(18.959)"><path class="g" d="M402.745,715.535a1.95,1.95,0,0,1-.023-.237c-.939-1.155-1.442-1.751-3.206-3.962-.12-.218-.331-.361-.463-.573a34.242,34.242,0,0,0-3.086-3.879,7.417,7.417,0,0,0-.561-.738c-.778-.984-1.563-1.98-2.339-2.97-2.6-9.286-6.148-21.2-6.782-23.487l-.038-.012c-.056-.017-.113-.029-.17-.043-.008.015-.02.028-.028.043-.362,1.262-1.318,4.666-2.766,9.79a31.463,31.463,0,0,1-1.174,3.927c-1,3.547-1.558,5.718-2.579,9.43-1.182,1.5-2.42,3.076-3.634,4.637a1.552,1.552,0,0,0-.379.362l-2.912,3.917v0c-1.049,1.383-2,2.662-2.775,3.737l-.017.058.028.015a.1.1,0,0,1,.03.027h.066a.654.654,0,0,1,.094.023h5.138a36.88,36.88,0,0,0,5.2,0h21.844a.542.542,0,0,1,.149-.03c.129,0,.258-.011.387-.016Z" transform="translate(-356.891 -679.634)"/><g transform="translate(17.019 57.846)"><path class="h" d="M397.716,735.327c0-2.3-.048-3.6,0-5.845-9.816-.041-16-.034-24.2-.017-.006.149-.016.3-.022.446-.254,6.65-.108,13.132-.144,19.783.087-.007.175-.014.283-.014,1.195,0,2.386.031,3.576.065q1.93-.01,3.861-.024,1.857-.037,3.718-.055a3.081,3.081,0,0,1,.326-.014c4.163.024,8.321-.042,12.482-.053.092-1.479.089-2.928.072-4.415-.019-1.689.074-3.307.106-5C397.811,738.217,397.716,736.956,397.716,735.327Z" transform="translate(-373.341 -729.451)"/></g><path class="h" d="M369.83,759.783c-2.986,3.509-5.8,7.162-8.821,10.643,0,4.165,0,8.25,0,14.228.725-.012,1.454.061,2.176.075,1.026.019,2.053,0,3.078-.016,1.2-.022,2.4.007,3.6,0C369.822,773.812,369.833,768.254,369.83,759.783Z" transform="translate(-358.309 -666.717)"/><g transform="translate(17.24 37.298)"><path class="h" d="M397.863,717.255c0-2.159-.048-3.372,0-5.473-9.8-.037-15.968-.03-24.157-.015-.006.138-.015.278-.021.417-.255,6.224-.108,12.291-.145,18.516.087-.007.175-.013.283-.013,1.193,0,2.382.029,3.569.062q1.928-.01,3.855-.024,1.853-.033,3.711-.051c.1-.007.2-.013.325-.013,4.156.023,8.307-.038,12.462-.049.091-1.385.088-2.742.072-4.133-.02-1.581.073-3.1.1-4.676C397.958,719.96,397.863,718.779,397.863,717.255Z" transform="translate(-373.531 -711.756)"/></g><path class="i" d="M379.79,725.168c2.213.03,4.427.044,6.642.029.819-.006,1.522-.023,2.342-.022.056,0,.144.006.144-.035-.02-1.746-.033-3.687-.026-4.76a6.6,6.6,0,0,0-.569-2.938,5.38,5.38,0,0,0-4.664-3.068c-1.91,0-2.861,1.758-3.528,3.36a8.556,8.556,0,0,0-.333,1.6c0,.012-.1,1.166-.1,3.155C379.7,723.38,379.761,724.274,379.79,725.168Z" transform="translate(-355.297 -674.035)"/><g transform="translate(13.084 63.281)"><path class="h" d="M401.539,760.857V750.3l-16.228-16.17s-9.842,10.745-15.027,15.944c-.007.294-.071,2.466-.078,2.761-.31,13.146-.21,23.2-.254,36.35a2.7,2.7,0,0,1,.345-.026c1.451,0,2.9.117,4.98.117,2.005-.038,3.695.019,5.259,0,1.5-.049,3.271.048,5.07.037.117-.016,3.064-.077,3.215-.076,5.524.038,7.075-.076,12.575-.172.111-2.925.109-5.788.088-8.727-.023-3.339.089-6.539.127-9.877C401.655,766.571,401.539,764.077,401.539,760.857Z" transform="translate(-369.952 -734.132)"/></g><path class="i" d="M390.177,749.374a4.859,4.859,0,0,0-2.7-3.117,6.2,6.2,0,0,0-3.335-.521,5.068,5.068,0,0,0-1.283.181,5.74,5.74,0,0,0-3.977,5.43.762.762,0,0,0,.03.153,5.362,5.362,0,0,0,1.866,4.178A6.033,6.033,0,0,0,386,756.873a5.587,5.587,0,0,0,3.833-2.948,4.769,4.769,0,0,0,.629-2.283A7.917,7.917,0,0,0,390.177,749.374Z" transform="translate(-355.43 -668.988)"/><g transform="translate(9.475 60.743)"><path class="i" d="M384.9,732.366q-8.987,10.541-17.976,21.083a1.235,1.235,0,0,0-.079.143q.2.219.4.43c.418.433.865.837,1.311,1.244a1.164,1.164,0,0,0,.189-.149q8.989-10.541,17.976-21.083C387.746,732.829,385.931,731.155,384.9,732.366Z" transform="translate(-366.844 -731.946)"/><path class="i" d="M401.511,755.026c.621-.516,1.232-1.043,1.839-1.575-.026-.034-.03-.068-.059-.1L384.3,732.378c-1.064-1.176-2.944.424-1.875,1.6l18.992,20.973C401.445,754.987,401.48,755,401.511,755.026Z" transform="translate(-364.385 -731.943)"/></g><g transform="translate(0 89.719)"><path class="i" d="M370.168,756.9l-11.4,13.377a1.087,1.087,0,0,0-.079.143c.129.146.262.289.4.43.417.433.865.837,1.31,1.242a1.1,1.1,0,0,0,.19-.148l9.753-11.439C370.276,759.3,370.2,758.1,370.168,756.9Z" transform="translate(-358.684 -756.901)"/></g><path class="h" d="M398.283,759.783c2.987,3.509,5.8,7.162,8.823,10.643,0,4.165,0,8.25,0,14.228-.725-.012-1.455.061-2.176.075-1.026.019-2.053,0-3.079-.016-1.2-.022-2.4.007-3.6,0C398.292,773.812,398.281,768.254,398.283,759.783Z" transform="translate(-352.307 -666.717)"/><g transform="translate(45.847 89.719)"><path class="i" d="M398.335,756.9l11.4,13.377a1.253,1.253,0,0,1,.08.143q-.2.219-.4.43c-.418.433-.865.837-1.311,1.242a1.148,1.148,0,0,1-.19-.148l-9.751-11.439C398.227,759.3,398.3,758.1,398.335,756.9Z" transform="translate(-398.168 -756.901)"/></g><path class="j" d="M397.431,748.917c-.233,11.1-.245,24.6.039,36.833" transform="translate(-352.468 -668.468)"/><path class="j" d="M369.877,748.663c.238,12.083-.285,24.752.284,37.128" transform="translate(-356.88 -668.509)"/><path class="j" d="M373.1,711.766c.43,13.06.47,23.9.121,36.968" transform="translate(-356.36 -674.456)"/><path class="j" d="M394.029,710.562c-.006,13.329.144,25.825.513,39.148" transform="translate(-352.988 -674.65)"/><path class="j" d="M373.453,728.551c7.931.345,16.091-.115,24.251,0" transform="translate(-356.304 -671.754)"/><path class="j" d="M376.6,782.528c.065-5.144.477-10.681,4.439-13.107,2.131-1.3,6.318-1.775,8.244-.106a10.5,10.5,0,0,1,2.537,2.854c.951,1.585,1.522,6.694,1.586,10.042" transform="translate(-355.798 -665.354)"/></g><g transform="translate(78.781 67.167)"><path class="j" d="M411.929,748.974q.059,8.881.641,17.746" transform="translate(-409.925 -735.626)"/><path class="k" d="M434.4,766.875q.4-8.627-.024-17.258a.949.949,0,0,0-.071-.312q-1.045-.009-2.09-.013c-5.511-.031-11.024-.034-16.533.124-1.116.033-2.233.082-3.35.136a159.42,159.42,0,0,0,.21,17.657C419.827,767.164,427.112,766.928,434.4,766.875Z" transform="translate(-409.887 -735.577)"/><path class="i" d="M435.491,746.971c-.793-3.142-1.687-6.083-2.469-9.483-.6-.024-1.584.029-2.189,0-3.626-.033-6.838.091-10.464.034-1.836.056-5.716-.159-6.216.053-.075.148-.373.915-.444,1.064-1.2,4-1.887,7.092-3.01,11.231-.144.53-.337,1.037-.5,1.556,1.093.072,2.188.1,3.283.13,4.721.06,9.655-.045,14.876-.1,1.6-.01,2.326-.048,3.927,0,.122,0,1.486-.057,1.608-.053,1.088,0,1.8-.041,2.887-.036C436.314,749.857,435.877,748.5,435.491,746.971Z" transform="translate(-410.203 -737.478)"/><path class="i" d="M420.617,757.419c.031-1.648-.019-3.024-.031-4.673-1.722-.008-3.424,0-5.146-.032-.046,2.8.028,4.979.024,7.091a1.447,1.447,0,0,0,.022.175c1.685.044,3.414,0,5.1.091C420.58,759.28,420.6,758.21,420.617,757.419Z" transform="translate(-409.362 -735.023)"/><g transform="translate(16.45 22.674)"><path class="j" d="M424.547,757.118c-.175,2.776.288,5.655.193,8.483" transform="translate(-424.348 -756.987)"/><path class="j" d="M428.977,757.005l.305,8.613" transform="translate(-423.628 -757.005)"/><path class="j" d="M429.115,757.162q-2.371-.092-4.745-.072" transform="translate(-424.37 -756.992)"/></g></g><g transform="translate(0 90.352)"><path class="k" d="M381.3,877.429c.413-29.951.5-56.653.062-86.6a15.72,15.72,0,0,0-.109-1.626c-1.072-.03-2.967.012-4.037-.009-8.473-.159-15.632-.224-25.283.186a43.9,43.9,0,0,0-5.15.237c-.526,30.627.533,57.454,1.009,88.126C359,877.511,370.1,877.708,381.3,877.429Z" transform="translate(-341.665 -752.349)"/><path class="k" d="M378.447,815.909c.071,22.09-.091,31.775-.141,49.766a2.3,2.3,0,0,0,.247.96c2.444.017,6.766-.007,9.21,0,19.322.094,35.648.134,57.659-.109,3.931-.043,7.829.023,11.745-.139-.435-18.708-.495-31.452-.495-50.254C431.123,816.273,403.994,815.744,378.447,815.909Z" transform="translate(-336.562 -748.029)"/><path class="i" d="M388.8,773.675c-4.054,16.2-6.248,22.4-10.28,36.9-.084.3-.122,10.171.006,10.417,2.444.016,6.766-.006,9.21,0,19.322.081,35.648.115,57.659-.094,3.931-.037,7.123.082,11.3.125-.108-3,.762-7.59.007-9.875-5.295-16.024-7.279-23.167-11.162-37.283C419.994,773.99,414.352,773.532,388.8,773.675Z" transform="translate(-336.539 -754.835)"/><path class="i" d="M455.157,757.58c-6.442,27.057-11.14,22.557-11.14,32.632,0,.231.067,2.243.139,2.427,1.368.012,3.787,0,5.154,0,10.815.06,19.953.085,32.273-.071,2.2-.027,4.382.016,6.575-.088,0-.471-.041-1.637-.041-2.069,0-9.94-6.189-9.645-11.252-32.968C462.565,757.533,469.457,757.474,455.157,757.58Z" transform="translate(-325.972 -757.446)"/><path class="i" d="M353.5,757.58c-6.442,27.057-11.139,22.557-11.139,32.632,0,.231.066,2.243.138,2.427,1.368.012,3.787,0,5.154,0,10.815.06,19.953.085,32.273-.071,2.2-.027,4.382.016,6.574-.088,0-.471-.041-1.637-.041-2.069,0-9.94-6.188-9.645-11.252-32.968C360.9,757.533,367.795,757.474,353.5,757.58Z" transform="translate(-342.356 -757.446)"/><path class="k" d="M483.607,877.41c.433-29.951.528-56.653.065-86.6a15.014,15.014,0,0,0-.114-1.626c-2.239.008-5.068.06-6.191.085-8.054.178-13.082.159-24.024.232-1.808.013-3.255.078-5.914.1-.552,30.627.557,57.454,1.057,88.126C460.227,877.493,471.867,877.69,483.607,877.41Z" transform="translate(-325.447 -752.331)"/><path class="k" d="M453.05,869.024c-.312-8.286-.625-15.2-.785-24.122a1.03,1.03,0,0,0-.13-.453c-2.568,0-5.814.016-7.1.023-9.238.05-15.006.044-27.559.065-2.074,0-3.734.022-6.785.027-.086,8.431-.339,15.759-.146,24.547C424.011,869.047,439.58,869.1,453.05,869.024Z" transform="translate(-331.379 -743.425)"/><path class="i" d="M453.28,845.681c-.312-2.375-.625-4.356-.785-6.911,0-.05-.063-.092-.13-.13-2.568,0-5.814,0-7.1.007-9.238.014-15.006.013-27.559.019-2.074,0-2.758.006-5.808.007-1.143,2.429-2,4.713-2.855,7.033C422.51,845.688,439.811,845.7,453.28,845.681Z" transform="translate(-331.609 -744.361)"/><path class="i" d="M365.339,804.4c.051-2.989-.028-5.483-.05-8.472-2.73-.015-5.43,0-8.16-.059-.073,5.079.044,9.027.04,12.859a2.882,2.882,0,0,0,.035.317c2.671.081,5.413,0,8.085.165C365.281,807.773,365.314,805.833,365.339,804.4Z" transform="translate(-339.979 -751.254)"/><path class="i" d="M365.339,822.8c.051-2.989-.028-5.483-.05-8.472-2.73-.016-5.43,0-8.16-.059-.073,5.079.044,9.027.04,12.859a2.88,2.88,0,0,0,.035.317c2.671.081,5.413,0,8.085.165C365.281,826.169,365.314,824.229,365.339,822.8Z" transform="translate(-339.979 -748.289)"/><path class="i" d="M365.339,847c.051-2.988-.028-5.483-.05-8.472-2.73-.015-5.43,0-8.16-.059-.073,5.079.044,9.028.04,12.859a2.932,2.932,0,0,0,.035.318c2.671.08,5.413,0,8.085.164C365.281,850.376,365.314,848.434,365.339,847Z" transform="translate(-339.979 -744.388)"/><path class="i" d="M468.615,847c.051-2.988-.029-5.483-.05-8.472-2.73-.015-5.43,0-8.159-.059-.073,5.079.044,9.028.038,12.859a2.671,2.671,0,0,0,.036.318c2.67.08,5.413,0,8.085.164C468.557,850.376,468.589,848.434,468.615,847Z" transform="translate(-323.335 -744.388)"/><path class="i" d="M404.813,829.089c.049-2.816-.027-5.168-.046-7.984-2.573-.015-5.118,0-7.692-.056-.068,4.787.042,8.509.037,12.119a2.844,2.844,0,0,0,.033.3c2.517.077,5.1,0,7.622.154C404.759,832.271,404.79,830.442,404.813,829.089Z" transform="translate(-333.541 -747.196)"/><path class="k" d="M419.272,817.117c.077-4.462-.042-8.19-.074-12.653-4.078-.023-8.111,0-12.188-.088-.109,7.587.065,13.484.058,19.207a4.274,4.274,0,0,0,.052.474c3.989.121,8.086.007,12.077.245C419.185,822.158,419.235,819.26,419.272,817.117Z" transform="translate(-331.942 -749.883)"/><path class="i" d="M428.542,829.089c.049-2.816-.027-5.168-.046-7.984-2.574-.015-5.118,0-7.692-.056-.068,4.787.042,8.509.037,12.119a2.566,2.566,0,0,0,.033.3c2.517.077,5.1,0,7.622.154C428.488,832.271,428.519,830.442,428.542,829.089Z" transform="translate(-329.717 -747.196)"/><path class="l" d="M416.652,811.533c.049-1.827-.027-3.351-.046-5.178-2.574-.009-5.118,0-7.692-.036-.069,3.1.042,5.517.037,7.858a1.227,1.227,0,0,0,.033.194c2.517.05,5.1,0,7.622.1-.008-.877.023-2.063.046-2.939" transform="translate(-331.633 -749.57)"/><path class="l" d="M439.781,855.448c1.275-.01,2.509-.044,3.889-.057.012-2.466,0-4.9.043-7.37-3.679-.066-6.539.039-9.312.035a1.678,1.678,0,0,0-.23.031c-.015.613-.022,1.231-.028,1.85" transform="translate(-327.564 -742.852)"/><path class="l" d="M434.155,849.668c-.014,1.818,0,3.654-.091,5.454,1.038-.007,2.444.023,3.482.045.785.016,1.522.018,2.247.012" transform="translate(-327.576 -742.584)"/><path class="i" d="M438.547,829.089c.048-2.816-.027-5.168-.048-7.984-2.573-.015-5.117,0-7.69-.056-.069,4.787.042,8.509.037,12.119a2.333,2.333,0,0,0,.032.3c2.517.077,5.1,0,7.621.154C438.493,832.271,438.524,830.442,438.547,829.089Z" transform="translate(-328.104 -747.196)"/><path class="i" d="M394.808,843.935c.049-2.816-.027-5.168-.046-7.985-2.573-.014-5.118,0-7.69-.056-.07,4.788.041,8.509.036,12.12a2.572,2.572,0,0,0,.034.3c2.516.077,5.1,0,7.621.154C394.753,847.117,394.785,845.287,394.808,843.935Z" transform="translate(-335.153 -744.803)"/><path class="i" d="M404.813,843.935c.049-2.816-.027-5.168-.046-7.985-2.573-.014-5.118,0-7.692-.056-.068,4.788.042,8.509.037,12.12a2.841,2.841,0,0,0,.033.3c2.517.077,5.1,0,7.622.154C404.759,847.117,404.79,845.287,404.813,843.935Z" transform="translate(-333.541 -744.803)"/><path class="m" d="M343.963,782.084l40.241.125" transform="translate(-342.097 -753.475)"/><path class="m" d="M445.959,782.084l40.241.125" transform="translate(-325.659 -753.475)"/><path class="m" d="M403.1,807.05c2.816-3.595,5.288-7.218,8.1-10.813" transform="translate(-332.567 -751.194)"/><path class="m" d="M414.366,795.778c3.025,3.581,5.647,7.26,8.672,10.815" transform="translate(-330.751 -751.268)"/><path class="m" d="M410.407,795.966c.788-.108,3.561,0,4.351-.107" transform="translate(-331.389 -751.255)"/><g transform="translate(84.25 113.678)"><path class="j" d="M424.1,855.417c.014,4.173.055,7.061.055,11.8" transform="translate(-413.433 -855.335)"/><path class="j" d="M414.913,855.387q5.924-.049,11.859-.038" transform="translate(-414.913 -855.346)"/></g><path class="j" d="M410.912,844.87c.014,8.427.056,14.26.056,23.826" transform="translate(-331.307 -743.357)"/><path class="i" d="M420.418,855.844a.652.652,0,0,0-.2-.473c-1.371.015-2.743.021-4.114.034-.027.032-.078.048-.1.084-.012-.031-.041-.052-.057-.081h-.171c-.028.434-.064.867-.071,1.282-.02,1.4.022,2.809.029,4.214.075,2.423.093,4.353.211,6.414.041,0,.081.007.122.01,1.316-.007,2.747,0,4.2.023l.209,0C420.4,863.518,420.37,859.68,420.418,855.844Z" transform="translate(-330.536 -741.664)"/><path class="m" d="M434.149,799.588c-.026,3.293-.026,6.692.012,9.971" transform="translate(-327.566 -750.654)"/><path class="m" d="M437.542,799.731c.111,3.155-.017,6.6.035,9.819" transform="translate(-327.016 -750.631)"/><path class="m" d="M433.668,799.59h5.489" transform="translate(-327.702 -750.654)"/><path class="m" d="M391.374,775.181a325.509,325.509,0,0,1-6.592,36.869" transform="translate(-335.519 -754.588)"/><path class="m" d="M394.914,776.111q-.017,15.555-.77,31.1" transform="translate(-334.01 -754.438)"/><path class="m" d="M399.4,776.738q.93,12.993.815,26.032" transform="translate(-333.164 -754.337)"/><path class="m" d="M405.382,776.422a128.955,128.955,0,0,0,1.04,20.256" transform="translate(-332.207 -754.388)"/><path class="m" d="M411.909,778.292l1.482,13.738" transform="translate(-331.147 -754.087)"/><path class="m" d="M418.64,776.443q1.909,12.018,4.813,23.851" transform="translate(-330.062 -754.384)"/><path class="m" d="M425.884,776.745l5.545,22.391" transform="translate(-328.895 -754.336)"/><path class="m" d="M433.136,777.343l7.179,22.075" transform="translate(-327.726 -754.239)"/><path class="m" d="M354.365,759.633q-1.815,10.123-3.849,20.206" transform="translate(-341.041 -757.094)"/><path class="m" d="M357.452,762.1q.254,9.4-.316,18.806" transform="translate(-339.974 -756.696)"/><path class="m" d="M362.156,760.219l3.083,22.082" transform="translate(-339.165 -756.999)"/><path class="m" d="M367.027,759.928l5.106,18.793" transform="translate(-338.38 -757.046)"/><path class="m" d="M456.023,760.225a74.956,74.956,0,0,1-3.882,16.659" transform="translate(-324.663 -756.998)"/><path class="m" d="M460.412,760.228a112.427,112.427,0,0,1-1.753,17.364" transform="translate(-323.613 -756.998)"/><path class="m" d="M464.5,760.235a183.924,183.924,0,0,1,1.89,19.88" transform="translate(-322.671 -756.997)"/><path class="m" d="M468.3,759.913a111.035,111.035,0,0,0,5.338,15.945" transform="translate(-322.059 -757.048)"/></g><path class="n" d="M446.677,788.666c.207,15.419.682,73.216,1.347,88.621" transform="translate(-325.544 -662.062)"/><path class="n" d="M345.785,789.157c.154,13.467,1.806,70.988,2.356,87.776" transform="translate(-341.803 -661.983)"/><path class="n" d="M378.627,815.788l33.025-.444" transform="translate(-336.511 -657.763)"/><path class="n" d="M378.169,815.922c1.555,15.375-.319,34.1.257,49.542" transform="translate(-336.584 -657.67)"/><g transform="translate(185.528 186.498)"><g transform="translate(0)"><path class="o" d="M576.907,784.9a11.059,11.059,0,0,0-6-8.073A17.714,17.714,0,0,0,563.652,775a7.043,7.043,0,0,0,1.96-2.1,6.651,6.651,0,0,0-1.386-7.991c-2.5-2.465-6.038-2.659-9.259-2.333a75.235,75.235,0,0,0-10.24,1.821c-.444-2.576-2.927-5.614-5.347-6.036-3.464-.6-7.013,1.332-9.945,3.084a23.084,23.084,0,0,0-9.087,11.005,6.976,6.976,0,0,0-2.084-1.717c-3.061-1.621-7.161-2.167-10-.547-2.629,1.5-4.959,5.271-5.924,8.45a6.926,6.926,0,0,0-.107,3.47c-2.637-1.024-5.434-1.585-8.112-.514a8.125,8.125,0,0,0-4.8,6.3,12.721,12.721,0,0,0,1.54,8.584,11.514,11.514,0,0,0,8.1,5.253,17.287,17.287,0,0,0,5.849-.068,8.027,8.027,0,0,0-.39,1.121c-.92,3.468.716,7.067,2.982,9.5a16.052,16.052,0,0,0,18.373,3.426.879.879,0,0,0,.475-.5,8.945,8.945,0,0,0,4.892.612c3.724,4.675,10.116,6.37,15.295,3.349a13.3,13.3,0,0,0,5.574-6.623c.562-1.437,1.493-4.987,1.493-4.987a21,21,0,0,0,4.882,3.67,7.55,7.55,0,0,0,8.515-1.8c3.979-3.951,3.651-9.741.907-14.014a8.087,8.087,0,0,0,5.219-1.382A9.766,9.766,0,0,0,576.907,784.9Z" transform="translate(-489.134 -758.248)"/><path class="c" d="M529.336,800.2c.022-.193.045-.384.07-.576l.009-.072.014-.1c.016-.112.033-.223.049-.347a10.4,10.4,0,0,1,.817-1.6,11.351,11.351,0,0,1,1.321-1.7c.534-.569,1.306-1.219,1.338-2.07a1.007,1.007,0,0,0-.464-.914,1.339,1.339,0,0,0-1.417.3,24.53,24.53,0,0,1-5.685,3.372.633.633,0,0,0-.148.12,22.971,22.971,0,0,1-.244-3.059c.055-.788.189-2.406-.485-3.02a.977.977,0,0,0-1.139-.107,1.932,1.932,0,0,0-.686,1.173q-.711,2.412-1.448,4.816c-.073.24-.146.481-.224.714.073-.222-1.213-1.656-1.428-1.864-.708-.685-2.413-1.627-3.381-1.016-1.309.826,2.192,6.111,2.689,7.176.017,1.744,0,3.494.079,5.138a43.51,43.51,0,0,1-1.22,10.788c-.7,3.4-1.029,6.814-1.463,10.255q-.378,2.994-.719,5.994A32.352,32.352,0,0,0,515,839.2c2.69.045,5.394-.116,8.075-.25,2.789-.141,5.575-.222,8.356-.221-.041-1.649-.4-3.394-.473-4.578q-.371-6.126-.742-12.253-.557-9.217-1.088-18.456c.016-.7.043-1.392.1-2.088Q529.271,800.776,529.336,800.2Z" transform="translate(-484.969 -753.083)"/></g></g></g><g transform="translate(111.327 236.853)"><path class="g" d="M358.878,824.056c-3.054-3.922-8.485-3.491-12.152-.673a15.266,15.266,0,0,0-4.708,5.948,7.538,7.538,0,0,0-.583,2.606c-3.462-.03-10.408.275-13.873.444a.864.864,0,0,1-.093.013c-.013,3.634.381,7.768.345,11.4a69.383,69.383,0,0,0,10.879-.822,34.54,34.54,0,0,1,5.262-.312C352.97,845.376,365.052,831.98,358.878,824.056Z" transform="translate(-53.464 -821.191)"/><path class="p" d="M430.811,827.769c-.113-1.465-.206-3.816-1.243-5.129-1.167-.119-2.338-.235-3.508-.318a55.149,55.149,0,0,0-6.946-.01c-4.967.265-9.9.9-14.874,1.1a.555.555,0,0,1-.206-.033q-5.336.8-10.623,1.863c-8.485,1.694-16.877,3.816-25.235,6.018-8.306,2.189-16.578,4.6-24.99,6.379q-1.378.294-2.765.55c-3.223.03-6.442-.106-9.672-.322a143.122,143.122,0,0,0-16.081-.584c-.186.01-.371.027-.557.036a24.144,24.144,0,0,0-3.793.232,82.238,82.238,0,0,0-14.625,1.7c-1.853.385-3.687.842-5.507,1.359q-2.74.552-5.451,1.184a1.557,1.557,0,0,0-.925,2.407,1.48,1.48,0,0,0,1.608,1.4,1.577,1.577,0,0,0,.915.252c3.342-.056,6.684-.053,10.023-.01,8.763,1.5,17.523,3.044,26.3,4.44a139.448,139.448,0,0,0,26.038,2.182l3.1.02c2.593.02,5.179.133,7.769.242,1.552.464,3.11.905,4.692,1.217,3.6.713,7.049.07,10.52-.849a1.555,1.555,0,0,0,.318-.086l.01,0c.2-.053.4-.106.6-.162a1.684,1.684,0,0,0,.607-.3,174.516,174.516,0,0,1,49.108-11.034l.816.143c1.273-.1,2.55-.172,3.826-.206.348-.01.7,0,1.041,0a1.433,1.433,0,0,0,.242-.869C431.179,836.313,431.139,832.023,430.811,827.769Z" transform="translate(-155.155 -818.839)"/><path class="q" d="M338.265,839.582a7.8,7.8,0,0,0-5.169-5.819,1.507,1.507,0,0,0-1.277.123,12.5,12.5,0,0,0-2.115-2.961,35.307,35.307,0,0,0-6.263-.046,1.938,1.938,0,0,0,.547.6,22.854,22.854,0,0,1,5.149,4.891,1.633,1.633,0,0,0-.2,1.3,21.6,21.6,0,0,1-1.671,14.3,1.582,1.582,0,0,0,.05,1.565,9.989,9.989,0,0,1-3.452,3.7l-6.28,1.674a1.6,1.6,0,0,0-1.024.763c-1.18-.169-2.338.471-3.465.713a11.668,11.668,0,0,1-3.074.225,11.876,11.876,0,0,1-6.21-2.185,1.766,1.766,0,0,0-2.165.341,28.246,28.246,0,0,0,6.4,4.93c.54.093,1.084.166,1.635.209a14.828,14.828,0,0,0,2.629-.06c3.422,2.444,7.934,4.151,12.036,2.251a8.007,8.007,0,0,0,3.276-2.8,5.668,5.668,0,0,0,4.847.952c3.495-.942,4.97-4.231,4.678-7.4a6.95,6.95,0,0,0,.915-1.058,5.635,5.635,0,0,0,1.207-2.281c.03-.109.037-.215.056-.325a15.292,15.292,0,0,0,.64-2.9,10.32,10.32,0,0,0,.719-6.061A7.219,7.219,0,0,0,338.265,839.582Z" transform="translate(-113.251 -799.028)"/><path class="g" d="M360.033,847a19.282,19.282,0,0,0-.909-4.058c-1.267-3.7-4.072-5.72-7.646-7.162a34.14,34.14,0,0,0-7.792-2.109c-5.007-.736-9.5-.01-14.39.939-3.677.713-7.029-.352-10.693-.73a152.017,152.017,0,0,1-23.664-4.755c-1.85-.494-5.623-1.071-5.753-.869-.481,2.994,1.326,5.647,3.312,7.493a36.164,36.164,0,0,0,10.438,6.15.97.97,0,0,1,.617,1.041c4.433,2.576,9.015,4.867,13.372,7.51.938,4.035,5.222,7.49,8.226,9.854a31.942,31.942,0,0,0,3.342,2.287,8.27,8.27,0,0,0,4.761,3.5,11.209,11.209,0,0,0,2.49.905,24.853,24.853,0,0,0,5.846.444,12.29,12.29,0,0,0,3.17-.315c7.022-.186,12.825-6.333,14.675-12.768A18.881,18.881,0,0,0,360.033,847Z" transform="translate(-142.291 -804.929)"/><path class="g" d="M283.49,917.136a16.292,16.292,0,0,0-4.473,4.334c-.511.819-1.064,2.128-.308,2.981a3.767,3.767,0,0,0,2.351.832c4.3.468,8.84-.746,13-1.677a37.673,37.673,0,0,1,6.286-.7c2.241-.119,5.113-.282,6.174-2.57a27.447,27.447,0,0,0,1.141-4.367,27.982,27.982,0,0,1,1.442-4.111,19.9,19.9,0,0,1,5.288-6.966c2.082-1.784,5.345-4.357,4.221-7.434a12.257,12.257,0,0,0-5.123-6.237.817.817,0,0,1-.458-.59c-.315-.239-.63-.477-.945-.7a4.622,4.622,0,0,0-1.041-.557q-1.313.881-2.672,1.694c-3.2,2.344-6.306,4.827-9.566,7.1a15.276,15.276,0,0,0-4.028,7.125,18.569,18.569,0,0,1-11.111,11.76C283.609,917.079,283.553,917.109,283.49,917.136Z" transform="translate(-167.233 -663.297)"/><path class="g" d="M342.658,865.443c.385-4.473-3.438-7.964-7.8-8.448-5.52-.61-11.131,3.684-15.693,6.091a3.272,3.272,0,0,0-1.754,4.2c-5.312-.315-6.754,7.735-1.306,8.239C323.563,876.222,341.776,875.712,342.658,865.443Z" transform="translate(-87.764 -738.418)"/><path class="g" d="M329.932,869.7c3.508-1.021,3.584-5.477-.547-7.7l-6.777-3.654c-3.09-1.664-6.847-1.946-8.634-.073a2.887,2.887,0,0,0-.746,1.714c-4.768-.146-7.387,4.579-1.883,7.968l9.924,6.1c2.424,1.492,5.68,1.823,7.643.806A3.332,3.332,0,0,0,329.932,869.7Z" transform="translate(-97.953 -738.314)"/><path class="h" d="M428.8,868.793c-3.558-2.818-8.584-.146-8.714,2.921-.162.063-.328.106-.494.186q-2.213,1.054-4.35,2.138a1.246,1.246,0,0,0-.219.053c-4.068,1.542-8.233,3.1-11.774,5.63a22.339,22.339,0,0,0-3.322,2.921c-1.973,2.1-3.644,3.611-4.672,6.392a78.362,78.362,0,0,0-2.891,11.008,115.6,115.6,0,0,0-2.4,19.294c-.206,5.215-1.383,10.975-5.988,14.284-.633.033-1.273.086-1.93.169-2.639.341-4.357,3.087-3.564,5a40.1,40.1,0,0,1,3.084,11.615c.325,3.544-.667,7.076-.424,10.57.454,6.568,10.458,7.288,16.635,8.747a5.167,5.167,0,0,0,5.62-1.867,3.729,3.729,0,0,0-.133-4.357c-1.187-1.346-3.5-1.323-4.94-2.51-3.057-2.526-1.989-7.709-1.721-11.114.375-4.774-.361-9.7,1.744-14.2a50.769,50.769,0,0,1,6.406-9.582,72.924,72.924,0,0,0,6.658-9.841c3.342-6.015,6.386-12.5,9.682-18.661,1.555-2.911,3.08-6.734,5.355-9.181,2.1-2.251,4.692-3.382,6.194-6.28C435.218,877.172,433.481,872.5,428.8,868.793Z" transform="translate(64.226 -713.721)"/><path class="r" d="M388.369,858.192c.046-1.6.318-2.732-.494-4.211a14.506,14.506,0,0,0-5.54-5.477c-3.243-2.639-7.765-4.251-11.3-6.446-3.01-1.87-5.819-3.969-8.7-6.015a6.724,6.724,0,0,1-2.367-2.55c-.249-.577-.789-2.553.113-2.831.763-.239,1.535-.464,2.311-.66-.454-.113-.905-.225-1.359-.328a68.593,68.593,0,0,0-9.648-1.416q-9.8-.776-19.645-.6c-6.247.123-11.979,1.817-17.967,3.448-7.858,2.145-15.534,5.182-22,10.126-6.794,5.192-11.843,12.331-16.479,19.343-6.853,10.361-10.484,21.767-15.955,32.934l-.016.049c-.05.12-.1.239-.146.361a1.81,1.81,0,0,0,.726,1.048,188.746,188.746,0,0,0,26.823,16.774q7.072,3.636,14.433,6.661,3.571,1.477,7.2,2.808c1.2.438,2.414.955,3.647,1.29,1.449.4,2.646-1.041,3.674-1.893a106.44,106.44,0,0,0,12.284-12.016c.265-.086.527-.169.789-.262a3.369,3.369,0,0,0,2.241-3.67,3.48,3.48,0,0,0,.288-1.253c.328-7.726.232-15.693,1.409-23.349.013-.09.03-.179.046-.268,2.1-5.922,4.436-11.754,7.069-17.464.192-.414.381-.842.57-1.27q.532-.92,1.071-1.833a3.429,3.429,0,0,0,.438-1.184,10.363,10.363,0,0,1,1.313-1.787c1.628-1.731,4.065-2.494,6.213-3.346a44.983,44.983,0,0,1,10.945-3.219,38.541,38.541,0,0,1,12.941,5.07,1.448,1.448,0,0,0,1.645,0,44.8,44.8,0,0,1,9.324,8.2,1.663,1.663,0,0,0,2.347,0,7.848,7.848,0,0,0,1.446-2.789A1.718,1.718,0,0,0,388.369,858.192Z" transform="translate(-211.592 -806.305)"/><path class="q" d="M395.575,986.059a96.494,96.494,0,0,0-20.736-25.6,99.723,99.723,0,0,0-13.617-10.023q-3.5-2.144-7.182-3.982c-1.194-.594-2.4-1.147-3.611-1.711-1.164-.544-2.132-.965-2.314-2.308-.239-1.777-.166-3.654-.242-5.448q-.119-2.825-.235-5.647-.249-5.908-.5-11.814a2.184,2.184,0,0,0-2.148-2.092,23.91,23.91,0,0,0-5.574.162c-.583-8.286-.729-16.631,2.769-24.406a125.543,125.543,0,0,1,6.731-12.155,2.152,2.152,0,0,0,1.442-.872,25.733,25.733,0,0,0,1.976-3.332c-.958-.646-1.933-1.266-2.948-1.863-4.911-2.888-10.04-5.375-15.2-7.779-.053-.023-32.394-14.963-33.12-15.942-2.586-1.379-5.146-2.808-7.689-4.267-.258.564-.527,1.124-.8,1.681l-.017.046c-.879,2.251-1.824,4.506-2.928,6.678a72.363,72.363,0,0,1-9.526,15.982.49.49,0,0,1-.209.152c-.67.922-1.343,1.844-2.009,2.765-2.274,3.14-4.6,6.247-7.082,9.234a89.617,89.617,0,0,1-8.14,8.657,79.959,79.959,0,0,1-8.965,6.906c-2.792,1.923-5.653,4.025-7.477,6.9-2.424,3.826-1.34,7.543.524,11.349a35.032,35.032,0,0,0,4.96,8.143c3.853,4.3,9.861,6.31,14.92,8.823,1.369,1.37,4.453,2.211,6.2,3.08q3.357,1.671,6.717,3.339a78.311,78.311,0,0,1,11.233,6.734c2.762,2.006,5.464,4.091,8.163,6.184,2.364-5.826,8.886-20.975,9.058-21.406-.792-.574-7.762-6.946-9.128-8.872a26.909,26.909,0,0,0-8.906-7.782c-1.18-.68-2.407-1.349-3.664-1.986,4.3-4.8,8.82-9.413,13.588-13.776,1.89-1.728,3.826-3.405,5.786-5.06.6,2.772,1,5.59,1.475,8.243q.5,2.825,1,5.653c1.648,7.51,2.616,15.149,4.068,22.7l.053-.017a48.007,48.007,0,0,0,2.765,15.262,26.729,26.729,0,0,0,3.581,7.765,22.367,22.367,0,0,0,6.18,5.2,100.161,100.161,0,0,0,16.482,7.9c2.871,1.141,5.948,2.062,8.717,3.435,2.646,1.31,5.162,3.176,7.7,4.751,4.821,2.994,9.642,6.157,13,10.829,1.121,2.036,2.278,4.045,3.458,6.045A17.241,17.241,0,0,1,375.8,994.7c.308.471.6.955.885,1.442.355-.053.71-.11,1.064-.182l.189-.05a21.114,21.114,0,0,1,3.607-1.794c.872-.365,1.754-.7,2.639-1.014.822-.4,1.645-.8,2.477-1.184,2.968-1.36,5.965-2.659,8.969-3.942A1.945,1.945,0,0,0,395.575,986.059Z" transform="translate(-244.829 -761.461)"/><path class="p" d="M403.181,912.57c-.143-.086-1.993-1.3-2.384-1.552-7.755-5.036-16.731-8.12-23.846-14.135a1.442,1.442,0,0,0-.1-.673c-2.765-7.374-6.283-14.559-9.42-21.781-3.79-8.723-2.9-18.677-7.457-27.307-6.111-11.575-19.42-15.381-31.883-13.939a38.443,38.443,0,0,0-16.81,3.611,24.793,24.793,0,0,0-10.089,8.992,37.1,37.1,0,0,0-4.589,12.928c-.9,4.808-1.349,9.688-2.139,14.512a103.036,103.036,0,0,1-3.574,15.312,69.52,69.52,0,0,1-6.472,14.009,119,119,0,0,0-7.5,14.022c-2.971,6.989-4.7,14.632-4.131,22.112-.007.152-.02.3-.027.457a22.471,22.471,0,0,0,.806,6.963,25.822,25.822,0,0,0,1.1,3.962c.076.524.149,1.034.206,1.512a1.7,1.7,0,0,0,1.658,1.658,1.85,1.85,0,0,0,.647-.159,2.117,2.117,0,0,0,.627.047,208.246,208.246,0,0,0,24.625-2.991q2.949-.538,5.879-1.164a45.837,45.837,0,0,0,5.623-1.346c3.631-1.283,4.466-4.353,4.977-7.742,2.049-13.614,8.81-25.872,16.936-36.929,3.153-4.29,6.535-8.412,10-12.466q2.492,3.068,5.166,5.985c3.219,4.41,6.628,8.687,10.249,12.775a37.117,37.117,0,0,0,8.687,7.8c3.528,2.065,7.507,3.766,11.237,5.633,3.906,1.953,7.327,4.572,11.131,6.665.143.08.285.156.431.229q2.014,1.457,4.042,2.894l.023.014c.262-.657.577-1.3.872-1.923.6-1.28,1.273-2.533,1.913-3.8,1.247-2.45,2.5-4.9,3.733-7.354.746-1.485,1.973-3.378,2.7-4.884C406.066,914,404.362,913.263,403.181,912.57Z" transform="translate(-180.347 -794.092)"/><path class="g" d="M289.9,892.71a28.177,28.177,0,0,1-2.55-5.04c-.607-1.658-1.124-3.342-1.717-5-.925-2.6-2.052-5.743-4.151-7.8a8.191,8.191,0,0,0-1.731-.862,6.61,6.61,0,0,0-5.988.816,19.345,19.345,0,0,0-3.813,3.409l-1.86-3.21c-.683,1.21-1.343,2.43-1.966,3.684a87.377,87.377,0,0,0-4.8,12c.743.713,5.315,4.708,6.877,5.315a2.066,2.066,0,0,0,.835.2,2.678,2.678,0,0,0,1.031-.395c3.975-2.032,6.654,1.383,8.664,4.35s3.5,6.293,5.567,9.234c1.021,1.456,2.639,3.491,4.665,3.425a6.223,6.223,0,0,0,2.954-1.137c.421-.448.819-.905,1.19-1.327,1.432-1.631,2.56-3.246,2.493-5.494C295.479,900.429,292.153,896.354,289.9,892.71Z" transform="translate(-206.622 -699.79)"/><path class="q" d="M340.626,838.238a29.492,29.492,0,0,1-7.861,6.18l-.109.057a23.268,23.268,0,0,0,3.7-3.385,34.51,34.51,0,0,0,3.5-4.795c.282-.454-.434-.872-.713-.418-3.435,5.577-8.644,10.819-15.6,11.038a11.756,11.756,0,0,1-5.312-1.051,34.809,34.809,0,0,0-4.98-3.81.42.42,0,0,0-.5.063,3.611,3.611,0,0,1-6.263-3.468c.179-.5-.62-.719-.8-.222-.033.1-.05.2-.076.3a.26.26,0,0,0-.07.017,18.669,18.669,0,0,1-6,1.475.421.421,0,0,0-.292.71c1.3,1.163,1.575,3.083,2.987,4.161a7.008,7.008,0,0,0,2.726,1.1,2.647,2.647,0,0,1,.653.156c.232.133.275.461.361.686a4.65,4.65,0,0,0,.643,1.131,8.461,8.461,0,0,0,4.635,2.672,14.85,14.85,0,0,0,6.346.252,15.125,15.125,0,0,0,1.817-.444,1.884,1.884,0,0,1,1.021-.083,7.666,7.666,0,0,0,.819.169,2.05,2.05,0,0,0,2.222-1.068l.123-.016c.252.083.5.176.756.245a.4.4,0,0,0,.511-.425,33.257,33.257,0,0,0,6.787-1.863.48.48,0,0,0,.152-.1c1.011-.348,2.019-.716,3.021-1.087.494-.183.282-.985-.222-.8-.593.222-1.194.441-1.79.656l.153-.079a34.911,34.911,0,0,0,5.892-3.657c.418-.318.007-1.038-.421-.716l-.152.112a.369.369,0,0,0-.159.076,34.929,34.929,0,0,1-5.544,3.448l-.026.013a30.284,30.284,0,0,0,8.654-6.648C341.568,838.426,340.985,837.84,340.626,838.238Z" transform="translate(-119.101 -787.637)"/><path class="s" d="M307.242,832.078c-1.011.315-.464,1.827.547,1.509S308.253,831.759,307.242,832.078Z" transform="translate(-101.549 -796.083)"/><path class="s" d="M306.291,834.793c-1.061,0-.991,1.608.07,1.608S307.352,834.793,306.291,834.793Z" transform="translate(-104.269 -789.693)"/><path class="t" d="M304.456,833.85a21.427,21.427,0,0,1,1.953-1.685A31.321,31.321,0,0,1,309.937,836" transform="translate(-106.754 -795.78)"/><path class="t" d="M299.221,842.427a41.988,41.988,0,0,1,.335-8.508,5.671,5.671,0,0,1,1.32-2.271,3.22,3.22,0,0,1,1.207-.773,14.74,14.74,0,0,1,4.6-1.117" transform="translate(-119.089 -801.353)"/><path class="t" d="M305.555,839.3a4.776,4.776,0,0,0,4.383-4.377" transform="translate(-104.209 -789.392)"/><path class="t" d="M307.9,831.877a4.734,4.734,0,0,1-.448,3.647" transform="translate(-99.814 -796.446)"/><path class="t" d="M302.651,834.637a2.459,2.459,0,0,1,.58-1.754,6.131,6.131,0,0,1,.945-.981c.272-.222.61-.332.865-.577" transform="translate(-110.954 -797.724)"/><path class="h" d="M428.027,878.368a6.3,6.3,0,0,0-1.635-.418,51.331,51.331,0,0,0-6.873-.371c-1.824-1.608-7.944-4.148-9.645-1.509-5.179,8.034-10.079,12.908-19.323,14.052-7.477.925-14.519,2.334-21.416,5.394-11.081,4.917-28.243,23.342-28.826,23.727-5.083-1.874-12.162-3.989-14.168,3.1-.9,3.163.116,7.371.348,10.59l1,13.863a4.37,4.37,0,0,0,4.294,4.188q5.381.418,10.766.839c5.51.428,5.481-7.948,0-8.375l-1.651-.129a30.376,30.376,0,0,1,1.973-11.767c1.184.219,39.788-18.5,59.081-25.892.395-.017,2.682-.312,3.127-.418,15.839-3.75,36.213-11.051,42.1-23.339C449.35,877.354,430.756,874.827,428.027,878.368Z" transform="translate(-57.381 -696.758)"/><path class="q" d="M508.55,923.4a31.9,31.9,0,0,0-3.7-2.633c-5.056-3.106-10.736-4.907-16.393-6.558a130.808,130.808,0,0,0-21.986-4.675c-10.54-1.19-23.631-1.966-29.721-12.125-3.309-5.52-4.456-11.986-7.135-17.785-2.885-6.243-7.769-11.32-12.921-15.862-5.882-5.185-11.983-10.149-17.984-15.2q-2.4-2.019-4.8-4.042c-1.359-1.144-2.735-2.447-4.632-2.553-3.581-.2-5.338,3.448-7.135,5.819a44.63,44.63,0,0,1-4.178,4.738c-.159,1.9-1.459,4.042-3.289,4.489-.68.169-.968-.882-.289-1.048.076-.02.149-.046.222-.073l.013-.043a.618.618,0,0,1-.143-.153l0-.007a50.845,50.845,0,0,1-22.049,10.348c-1.542-.209-3.09-.361-4.639-.5a24.861,24.861,0,0,1,1.615-5.07c.169-.3.328-.6.511-.889a1.745,1.745,0,0,0,.252-.64,24.475,24.475,0,0,1,1.34-2.268c1.194-1.777-1.678-3.439-2.865-1.675a27.479,27.479,0,0,0-2.016,3.561A19.287,19.287,0,0,0,344,865.226c-.136,1.366-.279,2.729-.4,4.095.01.09.02.176.036.262a20.259,20.259,0,0,0,.458,3.753,1.578,1.578,0,0,0,1.863,1.151,6.439,6.439,0,0,0,1.734,1.077c1.456.623,3.027.938,4.513,1.485a31.307,31.307,0,0,1,3.922,1.767,34.625,34.625,0,0,1,7.016,4.917,35.929,35.929,0,0,1,3.074,3.16,11.811,11.811,0,0,1,1.555,1.91.5.5,0,0,1,.554.245,52.585,52.585,0,0,1,5.991,13.362,41.146,41.146,0,0,1-.275,20.332,81.2,81.2,0,0,1-1.791,9.37q-.751,2.995-1.724,5.928c-.288.869-.6,1.731-.915,2.589a31.348,31.348,0,0,1-4.224,11.257,2.331,2.331,0,0,0,1.157.829,172.441,172.441,0,0,0,64.23,7.4A176.622,176.622,0,0,0,493.4,943.793c5.395-2.55,7.145-3,12.218-6.127,2.311-1.423,8.879-4.844,8.757-5.567C513.786,928.684,511.339,925.716,508.55,923.4Z" transform="translate(-16.108 -773.107)"/><path class="h" d="M390.924,840a9.965,9.965,0,0,0-5.3-3.269c-2.749-.773-5.8.212-8.535.653q-5.018.81-10.033,1.631c.017,1.518-.01,3.04-.026,4.556-.03,2.673-.083,5.341-.06,8.014.776-.133,1.552-.259,2.324-.4a60.711,60.711,0,0,0-1.154,7.341c-.965,8.107-6.853,13.979-9.867,21.343-2.225,5.431-3.266,13.471,3.054,16.731,5.355,2.758,11.237-.6,11.459-6.419.156-4.062-1.061-6.635,1.058-10.537,2.039-3.753,5-7.009,7.381-10.56a92.429,92.429,0,0,0,9.854-18.83C392.3,847.026,393.215,842.935,390.924,840Z" transform="translate(13.889 -785.862)"/><path class="h" d="M390.924,840a9.965,9.965,0,0,0-5.3-3.269c-2.749-.773-5.8.212-8.535.653q-5.018.81-10.033,1.631c.017,1.518-.01,3.04-.026,4.556-.03,2.673-.083,5.341-.06,8.014.776-.133,1.552-.259,2.324-.4a60.711,60.711,0,0,0-1.154,7.341c-.965,8.107-6.853,13.979-9.867,21.343-2.225,5.431-3.266,13.471,3.054,16.731,5.355,2.758,11.237-.6,11.459-6.419.156-4.062-1.061-6.635,1.058-10.537,2.039-3.753,5-7.009,7.381-10.56a92.429,92.429,0,0,0,9.854-18.83C392.3,847.026,393.215,842.935,390.924,840Z" transform="translate(13.889 -785.862)"/><path class="h" d="M454.47,840a9.964,9.964,0,0,0-5.295-3.269c-2.749-.773-5.8.212-8.534.653q-5.073.821-10.142,1.648-10.141,1.651-20.275,3.329c-3.007.5-6.048.915-9.035,1.525a16.871,16.871,0,0,0-4.529,1.585,11.53,11.53,0,0,0-5.819,4.158c-2.235,2.192-3.68,5.076-5.212,7.772-.411.719-.819,1.436-1.227,2.155-.262.643-.531,1.28-.816,1.91-.968,2.138-14.44,4.608-15.259,4.632.345-1.681,1.121-4.771.547-6.943-.59-2.228-2.357-3.823-5.07-2.185-.67.166-1.257-.113-1.9.013a.622.622,0,0,1-.61.411c-.159.126-.315.255-.468.391a.76.76,0,0,1-1.044,0,9.359,9.359,0,0,0-1.771-.623c-.478.043-1.439.249-1.91.279-.849.05-.388-2.619-1.963-2.619-1.31,0-4.765,2.941-5.69,3.425-4.284-.036-13.392,5.461-14.838,7.006-4.416,4.725-5.51,9.6-3.594,15.149,2.022,5.862,5.617,11.532,11.313,14.4a18.325,18.325,0,0,0,5.179,1.678.594.594,0,0,1,.511-.318,14.476,14.476,0,0,0,8-2.507,9.959,9.959,0,0,0,3.909-7.47.615.615,0,0,1,.143-.348.625.625,0,0,1-.166-1.22,166.961,166.961,0,0,1,18.316-4.095.65.65,0,0,1,.719.424,31.258,31.258,0,0,0,4.874-1,51.953,51.953,0,0,0,10.975-2.646,1.683,1.683,0,0,0,.544-.066c4.28-1.293,10.395-4.642,14.174-6.963,2.8-1.714,4.095-2.291,5.822-5.03,2.248-2.275,3.405-5.186,5.192-7.835a1.246,1.246,0,0,0,.152-.338c.441-.7.855-1.426,1.243-2.162l9.211-3.253c.905-.156,1.814-.3,2.719-.464-.129.524-.239,1.058-.342,1.6q3.148-1.233,6.277-2.53c5.653-2.354,11.286-4.791,17.022-6.936A6.66,6.66,0,0,0,454.47,840Z" transform="translate(-49.657 -785.862)"/><path class="q" d="M395.292,848.69c-1.412-3.19-4.89-4.695-8.011-5.706-4.97-1.618-9.914-1.323-15.04-.968-2.135.146-4.284.371-6.436.59-.531-.037-1.061-.083-1.592-.126-1.031.046-2.082-.03-3.077-.03a.523.523,0,0,1-.07-.013c-.577.07-1.15.143-1.737.2-1.025.1-2.069.186-3.117.292-.116.017-.239.03-.355.05-2.948.458-6.439.948-8.9,2.825-.434,1.137-.892,2.268-1.389,3.375l-.033.106a28.831,28.831,0,0,1,12.831-3.114,36.622,36.622,0,0,1,6.86.577,14.987,14.987,0,0,1,5.481,1.9c.119.063.235.136.351.206a4.354,4.354,0,0,1,1.645,1.366c.023.053.053.106.073.159.723,1.873-.07,3.776-1.27,5.258a24.031,24.031,0,0,1-5.434,4.513c-2.188,1.479-4.383,2.944-6.575,4.416-1.761,1.184-.1,4.055,1.674,2.862,1.512-1.015,3.031-2.019,4.542-3.034a1.781,1.781,0,0,0,0,1.688,1.7,1.7,0,0,0,2.268.594,13.9,13.9,0,0,0,5.162-4.111,1.412,1.412,0,0,0,1.509-.1,37.349,37.349,0,0,0,3.929-3,2.384,2.384,0,0,0,.594.524,3.692,3.692,0,0,0,2.818.219c.216-.046.428-.113.64-.172a1.864,1.864,0,0,0,.222.942c-.066.093-.129.189-.2.278-1.184,1.555,1.28,3.223,2.6,2.009a23.311,23.311,0,0,0,2.371-2.537,14,14,0,0,0,5.816-3.5C395.534,854.933,396.6,851.638,395.292,848.69Z" transform="translate(-11.623 -773.614)"/><path class="h" d="M390.924,840a9.965,9.965,0,0,0-5.3-3.269c-2.749-.773-5.8.212-8.535.653q-5.018.81-10.033,1.631c.017,1.518-.01,3.04-.026,4.556-.03,2.673-.083,5.341-.06,8.014.776-.133,1.552-.259,2.324-.4a60.711,60.711,0,0,0-1.154,7.341c-.965,8.107-6.853,13.979-9.867,21.343-2.225,5.431-3.266,13.471,3.054,16.731,5.355,2.758,11.237-.6,11.459-6.419.156-4.062-1.061-6.635,1.058-10.537,2.039-3.753,5-7.009,7.381-10.56a92.429,92.429,0,0,0,9.854-18.83C392.3,847.026,393.215,842.935,390.924,840Z" transform="translate(13.889 -785.862)"/><path class="g" d="M336.285,843.862c-1.008.1-.8,1.615.212,1.519S337.293,843.766,336.285,843.862Z" transform="translate(-34.574 -768.703)"/><path class="u" d="M338.215,847.564a5.863,5.863,0,0,1-2.188-1.638,6.324,6.324,0,0,1-.8-1.7" transform="translate(-35.506 -767.843)"/><path class="g" d="M341.758,842.553a1.17,1.17,0,0,0-1.316.146,1.39,1.39,0,0,0-.308.4,1.344,1.344,0,0,0-.143.265,1.375,1.375,0,0,0-1.777-.288,1.214,1.214,0,0,0-.365.394,14.978,14.978,0,0,1,1,1.568l.007.01c.338.411.686.812,1.034,1.214.037.033.073.07.113.1l.027.023c.06.027.129.08.182.106s.09.036.133.057l0,0h0l-.073-.04a.7.7,0,0,0,.1.036l.007,0,.109-.007.027-.01A10.727,10.727,0,0,0,342.1,844c.027-.1.056-.2.08-.3.05-.205.076-.418.109-.626A1.377,1.377,0,0,0,341.758,842.553Z" transform="translate(-29.428 -772.039)"/><path class="v" d="M338.774,844.727a18.344,18.344,0,0,0-4.32,3.292c-8.836,9.078-8.667,24.267.69,32.928a60.9,60.9,0,0,1,6.89,6.794,43.08,43.08,0,0,1,4.035,10c1.933,7.354,1.452,15.285,4.174,22.447,2.092,5.5,7.182,13.154,12.48,11.386A8.1,8.1,0,0,0,366,928.2c2.981,1.21,6.592,3.7,6.369-.255a12.548,12.548,0,0,0-.706-2.815,1.877,1.877,0,0,1,.076-1.661,1.441,1.441,0,0,1,1.323-.461,4.188,4.188,0,0,1,1.369.5c4.436,2.255,7.908,3.1,10.557-1.694a22.177,22.177,0,0,1,9.993-9.277q-3.795-3.934-7.59-7.865c-3.157-3.266-.58-7.788-8.6-10.487-7.556-2.54-6.993-12.265-7.967-18.471-1.041-6.628-10.3-20.759-10.222-20.166.222,1.668-1.194,3.08-2.742,3.554a3.181,3.181,0,0,1-2.672-.209,1.973,1.973,0,0,1-.673-.839c-1.114.451-2.2.955-3.279,1.485a66.258,66.258,0,0,1-5.826-4.9C343.286,851.289,341.035,848,338.774,844.727Z" transform="translate(-52.299 -766.69)"/><path class="h" d="M441.019,858.514c-2.669-5.65-8.823-8.094-14.907-8.2-13.753-.245-25.756,8.707-37.865,13.78a143.469,143.469,0,0,1-45.653,10.66l-.079.013a26.91,26.91,0,0,1-3.893-1.068,1.671,1.671,0,0,0-1.87,2.434,2.126,2.126,0,0,1,.146.269c-.249.129-.494.262-.743.4-1.051.6-2.066,1.27-3.146,1.82a15.6,15.6,0,0,1-3.823,1.224,36.772,36.772,0,0,0-7.526,2.424c-2.162.981-4.549,2.178-6,4.124a5.1,5.1,0,0,0,.026,6.214,7.41,7.41,0,0,0,6.558,2.652c5.332-.328,10.206-3.01,15.06-4.977a67.437,67.437,0,0,1,6.966-2.361c21.177-1.844,42.579-4.479,61.458-13.6a37.876,37.876,0,0,1,14.2-1.25,20.863,20.863,0,0,0,1.963.816,18.68,18.68,0,0,0,9.43.835,9.674,9.674,0,0,0,8.823-4.012,7.605,7.605,0,0,0,1.618-5.322A10.438,10.438,0,0,0,441.019,858.514Z" transform="translate(-83.222 -753.763)"/><path class="w" d="M331.593,895.923c.826-.272,1.572.733,2.013,1.257,1.1,1.3.849,2.185.527,3.826" transform="translate(-43.915 -648.245)"/><path class="w" d="M384.555,895.812a6.736,6.736,0,0,1,1.469.036,9.034,9.034,0,0,1,1.741.941,7.648,7.648,0,0,1,1.091.474,4.661,4.661,0,0,1,1.376,3.382c-.113.759-.64,1.353-.593,2.152" transform="translate(78.726 -648.448)"/><path class="w" d="M345.739,858.372c.169-.375.331-.749.5-1.134.285-.64.759-1.167,1.038-1.807.136-.315.282-.63.411-.948.192-.454.368-.829.6-1.266a15.486,15.486,0,0,1,2.8-3.462c4.824-4.9,10.789-6.014,17.347-7.022,7.374-1.134,15.269-2.785,22.629-3.823,1.34-.186,3.68-.67,5.013-.882a20.029,20.029,0,0,1,3.322-.375c.938,0,1.827-.143,2.752-.163a5.3,5.3,0,0,0,.862-.176c2.782-.444,5.381-1.024,8.183-.461a8.92,8.92,0,0,1,6.316,5.438,12.094,12.094,0,0,1-.182,7.895c-.3.763-18.979,29.91-19.251,30.285" transform="translate(-11.158 -785.461)"/><path class="w" d="M329.943,895.413h3.017" transform="translate(-47.735 -649.32)"/><path class="w" d="M331.707,923.117a25.629,25.629,0,0,0,3.77-1.668c1.91-.918,4.032-1.449,6.011-2.215,3.07-1.184,6.23-2.152,9.28-3.385,2.914-1.18,5.809-2.378,8.7-3.627,2.6-1.131,5.268-2.291,7.755-3.667,2.517-1.386,5.156-2.566,7.629-4.028,2.032-1.207,4.082-2.414,6.2-3.461.594-.292,1.134-.647,1.714-.962.507-.275,1.061-.414,1.572-.673a3.481,3.481,0,0,1,1.459-.454c.985-.09,1.976-.4,2.971-.524,1.857-.225,3.73-.451,5.57-.8,1.081-.205,2.175-.358,3.246-.613,1.134-.268,2.258-.653,3.4-.938a69.9,69.9,0,0,0,19.33-8.495,82.555,82.555,0,0,0,9.808-7.2c.978-.815,1.976-1.641,2.944-2.493" transform="translate(-43.651 -689.855)"/><path class="w" d="M384.277,911.98c0-1.213-.265-2.347-.262-3.571.01-2.6-.282-5.179-.265-7.772a49.092,49.092,0,0,1,.126-7.361c.269-1.658.7-3.285.918-4.933" transform="translate(76.676 -665.691)"/><path class="w" d="M385.631,922.591c2.3-2.652,22.178-35.484,22.55-36.375a15.819,15.819,0,0,1,1.141-2.079c.318-.521.806-.852,1.131-1.359.166-.378.348-.749.544-1.111a5.121,5.121,0,0,1,.773-.719c.481-.464.779-1.058,1.217-1.558a13.348,13.348,0,0,0,2.477-3.588,9.161,9.161,0,0,0,.272-5.915" transform="translate(81.218 -708.431)"/><path class="w" d="M344.066,843.471a14.314,14.314,0,0,1,.2,6.863,20.717,20.717,0,0,1-1.442,3.634,10.43,10.43,0,0,1-.961,1.787,15.3,15.3,0,0,1-1.96,2.742" transform="translate(-24.683 -769.598)"/><path class="w" d="M341.784,849.077c1-.06,1.95-.375,2.931-.524,1.214-.182,2.4-.491,3.6-.733a17.8,17.8,0,0,0,2.109-.607c.713-.235,1.446-.418,2.149-.67a5.667,5.667,0,0,0,1.558-.839,9.305,9.305,0,0,0,1.588-2" transform="translate(-20.316 -769.063)"/><path class="w" d="M339.6,853.588a12.986,12.986,0,0,1,1.35-.242c1.93-.119,3.886-.577,5.789-.875a132.449,132.449,0,0,0,14.715-3.389" transform="translate(-25.385 -756.605)"/><path class="w" d="M328.34,862.259c.444-.64,4.1-7.543,4.605-8.14a27.855,27.855,0,0,1,3.432-3.362,23.035,23.035,0,0,1,6.273-3.965,19.742,19.742,0,0,1,3.219-1.044c.54-.109,1.081-.2,1.618-.315a7.4,7.4,0,0,0,2.706-1.257c.816-.59,1.505-1.323,2.275-1.963" transform="translate(-51.447 -772.511)"/><path class="w" d="M331.256,844.888a21.571,21.571,0,0,0,.07,2.739,6.979,6.979,0,0,0,.358,1.422,3.389,3.389,0,0,0,1.376,1.535,26.546,26.546,0,0,0,3.319,1.774,6.155,6.155,0,0,1,1.4.912,10.128,10.128,0,0,1,1.595,2.079c.56.879.972,1.817,1.442,2.742a2.652,2.652,0,0,0,.918,1.147,7.874,7.874,0,0,0,.928.464,6.329,6.329,0,0,1,2.553,2.172c1.2,1.867.385,4.363-.192,6.31" transform="translate(-44.715 -766.317)"/><path class="w" d="M331.671,846.094c-.259.872-.647,1.691-.882,2.566a13.436,13.436,0,0,0-.53,3.047,4.475,4.475,0,0,0,.514,2.41c.62,1.051,1.863,1.648,2.818,2.351a11.938,11.938,0,0,1,3.753,4.519,14.016,14.016,0,0,1,1.412,4.8,18.827,18.827,0,0,1-.262,4.208q-.139.965-.242,1.933a3.539,3.539,0,0,0,.361,1.813" transform="translate(-47.013 -763.524)"/><path class="w" d="M318.031,879.525a11.778,11.778,0,0,0,3.448-.65,31.452,31.452,0,0,0,3.113-.9c1.475-.593,2.928-1.386,4.337-2.115,1.608-.832,3.1-2.006,4.745-2.749.905-.4,1.87-.723,2.805-1.051a10.976,10.976,0,0,1,2.633-.4c1.628-.189,3.243-.3,4.874-.435,2.9-.245,5.776-.706,8.677-.971a107.525,107.525,0,0,0,11.744-2.178c3.206-.663,6.469-1.2,9.635-2.039,3.4-.905,6.794-1.867,10.189-2.8a62.744,62.744,0,0,0,7.42-2.158c1.369-.564,2.742-1.127,4.082-1.754a6.966,6.966,0,0,1,2.016-.633c1.525-.2,3.074-.56,4.589-.859a43.67,43.67,0,0,1,4.416-.875c1.028-.093,2.072-.159,3.1-.216,2.822-.153,5.61.743,8.422.859" transform="translate(-75.319 -738.891)"/><path class="w" d="M367.116,840.473c-.985,2.812-1.353,5.806-2.112,8.684-.64,2.421-1.393,4.814-2.268,7.162a99.53,99.53,0,0,1-4.814,10.451" transform="translate(17.054 -776.541)"/></g><g transform="translate(0 40.871)"><g class="x" transform="translate(0 0)"><g transform="translate(0 -0.001)"><path class="y" d="M190.423,37.65c-1.134-44.556-37.6-50.519-66.988-54.256-30.588-3.888-61.408-3.33-92.118-2.928q-3.7.048-7.4.09a24.4,24.4,0,0,0-22.65-8.517c-39.177,5.916-52.014-8.226-91.438-4.447-17.983,1.724-36.17,6.727-52.166,17.145-9.4,6.121-19.607,13.532-23.136,26.432a48.5,48.5,0,0,0,5.991,39.216c12.125,18.37,32.414,24.184,50.5,28.941,20.708,5.445,32.566.841,53.783-.015C-14.9,77.689,5.8,69.035,46.291,71.516c44.569,2.729,87.7,10.827,130.568-9.1,7.33-3.405,13.806-15.293,13.565-24.77" transform="translate(167.208 33.06)"/></g><g transform="translate(68.908 102.957)"><path class="z" d="M.729,1.809a26.773,26.773,0,0,0,16.749.539c1.262-.385,2.31-1.386,1.388-2.693A3.519,3.519,0,0,0,14.86-1.372c.278-.09-.449.13-.539.156-.3.081-.605.158-.911.227-.52.12-1.046.222-1.574.308-.353.056-.706.1-1.059.143-.52.068.184,0-.387.036s-1.157.058-1.737.064S7.5-.443,6.923-.477c-.267-.017-.533-.036-.8-.062C5.95-.557,5.772-.574,5.6-.593c-.289-.028-.351-.032-.19-.017s.1.006-.192-.028c-.178-.026-.353-.056-.53-.09-.263-.047-.526-.1-.789-.156-.612-.135-1.217-.3-1.816-.473a2.273,2.273,0,0,0-2.626.98A1.8,1.8,0,0,0,.729,1.809" transform="translate(0.64 1.588)"/></g><g transform="translate(102.615 99.173)"><path class="z" d="M1.556,2.843A62.393,62.393,0,0,0,20.677,1.2C21.751.922,22.7.047,22.132-1.089a3.2,3.2,0,0,0-3.326-1.362A96.861,96.861,0,0,1,.963-1.016C-.142-1.048-1.528-.344-1.351.892c.186,1.3,1.741,1.891,2.907,1.951" transform="translate(1.366 2.496)"/></g><g transform="translate(138.928 98.265)"><path class="z" d="M1.5,2.462a56.124,56.124,0,0,0,15.489-.7c1.127-.212,2.179-1.3,1.544-2.432a3.424,3.424,0,0,0-3.527-1.446q-1.848.286-3.7.466c.255-.021.182-.015-.218.021-.214.019-.426.038-.64.06-.282.028-.565.058-.847.083.421-.036-.353.028-.432.032-.332.026-.663.047-.995.068-2.415.143-4.823.214-7.242.126C-.137-1.3-1.471-.6-1.3.582-1.116,1.863.375,2.36,1.5,2.462" transform="translate(1.317 2.162)"/></g><g transform="translate(175.23 94.335)"><path class="z" d="M1.45,2.033c2.721.058,5.441.152,8.162.2s5.394,0,8.108-.15c1.05-.058,2.4-.586,2.218-1.831S18.27-1.556,17.151-1.616c-2.727-.145-5.422-.2-8.153-.15-2.7.051-5.4.143-8.1.2-1.025.021-2.327.59-2.156,1.777S.366,2.009,1.45,2.033" transform="translate(1.273 1.785)"/></g><g transform="translate(212.329 94.33)"><path class="z" d="M1.368,1.989c.462-.017.922-.03,1.382-.015.2,0,.4.013.6.021.107,0,.8.019.109-.011.592.026,1.183.128,1.777.158.426.019.851.049,1.277.086.133.013.826.051.064,0,.195.013.389.045.584.071q.683.087,1.36.2,1.261.215,2.5.522c1.089.265,2.979-.1,3.18-1.4C14.41.28,13.095-.646,11.886-.905A39.424,39.424,0,0,0,6-1.7a16.35,16.35,0,0,0-3.086.047c-.548.071.391-.034-.13.017-.4.038-.794.071-1.189.111-.447.047-.9.092-1.341.143A1.512,1.512,0,0,0-1.137.481a2.6,2.6,0,0,0,2.5,1.508" transform="translate(1.201 1.746)"/></g><g transform="translate(240.98 96.845)"><path class="z" d="M1.471,1.943q6.667.632,13.344,1.037c1.136.071,2.757-.757,2.492-2.055-.284-1.4-1.805-2.028-3.131-2.1Q7.545-1.544.911-1.706C-.133-1.729-1.446-1.073-1.277.1-1.1,1.359.368,1.838,1.471,1.943" transform="translate(1.292 1.706)"/></g><g transform="translate(275.632 96.459)"><path class="z" d="M.784,1.832a15.1,15.1,0,0,0,3.4.678c1.219.158,2.438.284,3.666.332a53.286,53.286,0,0,0,6.186-.115c1.332-.1,3.041-.8,2.507-2.421-.524-1.583-2.417-1.983-3.914-1.844.7-.064-.165.011-.3.019-.233.019-.464.034-.7.047q-.757.048-1.514.071Q8.66-1.353,7.2-1.389c-.967-.021-1.934-.049-2.9-.09a25.079,25.079,0,0,0-3.4-.094A1.767,1.767,0,0,0-.688-.028,2.133,2.133,0,0,0,.784,1.832" transform="translate(0.688 1.609)"/></g><g transform="translate(308.223 88.993)"><path class="z" d="M1.488,4.119A34.67,34.67,0,0,0,16.753-.062,1.8,1.8,0,0,0,17.784-1.2a1.677,1.677,0,0,0-.464-1.439,3.374,3.374,0,0,0-3.6-.74c-1.106.481-2.237.892-3.364,1.318q-.834.314-1.681.595c-.16.053-.321.1-.483.156.225-.071.192-.062-.1.026s-.582.18-.871.272c.188-.06.2-.062.026-.011A51.389,51.389,0,0,1,.279.457,1.646,1.646,0,0,0-1.235,2.479a2.827,2.827,0,0,0,2.723,1.64" transform="translate(1.306 3.617)"/></g><g transform="translate(336.995 78.948)"><path class="z" d="M2.149,5.14A22.1,22.1,0,0,0,10.6-1.555a1.5,1.5,0,0,0,.051-1.489A2.688,2.688,0,0,0,9.284-4.22a3.562,3.562,0,0,0-2.049-.225,2.573,2.573,0,0,0-1.442.866c-.141.158-.28.317-.423.473.122-.133.242-.265.364-.4-.436.471-.9.918-1.328,1.392l.37-.4A22.35,22.35,0,0,1-.15,1.508c.158-.1.319-.19.479-.287q-.577.343-1.174.65A1.759,1.759,0,0,0-1.859,2.99,1.646,1.646,0,0,0-1.4,4.41a3.312,3.312,0,0,0,3.553.729" transform="translate(1.887 4.513)"/></g><g transform="translate(56.296 93.71)"><path class="z" d="M1.071,1.878a33.489,33.489,0,0,0,16.1.205c1.087-.278,2.04-1.17,1.469-2.314a3.232,3.232,0,0,0-3.358-1.375c-1.51.227-2.205.237-3.683.409-.278.032-.554.066-.83.094.415-.043-.43.032-.421.032q-.908.064-1.818.079a33.829,33.829,0,0,1-6.718-.483C.816-1.647-.655-1.425-.908-.28S.1,1.642,1.071,1.878" transform="translate(0.94 1.649)"/></g><g transform="translate(89.324 90.399)"><path class="z" d="M1.549,2.572c2.271-.094,4.543-.1,6.816-.205,2.417-.107,4.81-.314,7.216-.55A1.828,1.828,0,0,0,17.27-.433a3.161,3.161,0,0,0-3.031-1.824c-2.229.068-4.438.173-6.66.357-1.084.09-2.167.178-3.251.272-.663.056-1.318.135-1.976.22-.252.034-.5.068-.757.1.4-.049-.543.049-.631.056C-.059-1.164-1.6-.662-1.33.641A2.847,2.847,0,0,0,1.549,2.572" transform="translate(1.36 2.259)"/></g><g transform="translate(125.613 87.954)"><path class="z" d="M1.508,2.168c2.552-.094,5.116-.068,7.663.088,1.249.077,2.5.163,3.741.3-.725-.079,1.506.16.9.1.3.03.592.058.888.083.043,0,.9.092.432.041.4.043.8.094,1.193.143,1.157.148,2.84-.026,3.14-1.382.284-1.29-1.155-2.274-2.286-2.494A57.206,57.206,0,0,0,.283-1.545,1.665,1.665,0,0,0-1.253.5,2.873,2.873,0,0,0,1.508,2.168" transform="translate(1.324 1.904)"/></g><g transform="translate(158.051 84.291)"><path class="z" d="M1.556,2.888A50.033,50.033,0,0,0,17.738,1.271C18.827.961,19.817.1,19.229-1.075A3.243,3.243,0,0,0,15.824-2.47,56.408,56.408,0,0,1,.963-.971C-.142-1.018-1.526-.286-1.351.937-1.165,2.231.39,2.83,1.556,2.888" transform="translate(1.366 2.536)"/></g><g transform="translate(196.592 84.4)"><path class="z" d="M1.132,1.93,12.945,4.291c1.1.218,2.973-.073,3.18-1.4.2-1.3-1.1-2.321-2.316-2.528q-5.945-1-11.89-2.006c-1-.169-2.7.045-2.894,1.275-.188,1.208,1,2.079,2.107,2.3" transform="translate(0.994 1.695)"/></g><g transform="translate(228.95 85.039)"><path class="z" d="M1.591,2.093l1.512.13.815.071c.152.013.847.113.186.009,1.129.18,2.286.246,3.424.342,1.966.167,3.92.207,5.893.244,1.061.021,2.333-.545,2.368-1.7A2.5,2.5,0,0,0,13.534-1c-2.179-.244-4.348-.5-6.543-.607-2-.092-4-.141-6-.231-1.072-.049-2.609.7-2.357,1.944.276,1.347,1.707,1.876,2.96,1.985" transform="translate(1.397 1.838)"/></g><g transform="translate(260.995 86.023)"><path class="z" d="M1.09,1.854a50.4,50.4,0,0,0,12.516,1.1c1.1-.045,2.716-.663,2.44-2.013a3.028,3.028,0,0,0-3.065-2.058c-1.936.1-3.871.081-5.809.017-.945-.032-1.889-.088-2.83-.173-.227-.019-.451-.041-.678-.064.571.058-.107-.013-.229-.028q-.8-.1-1.589-.216C.88-1.729-.752-1.555-.938-.36-1.12.812.031,1.629,1.09,1.854" transform="translate(0.957 1.628)"/></g><g transform="translate(295.57 81.765)"><path class="z" d="M.569,2.624c-.233-.19-.1-.128.4.19a3.9,3.9,0,0,0,.832.227,8.038,8.038,0,0,0,1.176.1c.635.019,1.279,0,1.914-.013,1.3-.03,2.592-.115,3.884-.231A67.792,67.792,0,0,0,16.4,1.743c1.149-.237,2.246-1.32,1.585-2.5a3.481,3.481,0,0,0-3.621-1.482c-2.346.486-4.718.862-7.092,1.206q-1.726.25-3.454.464c-.573.071-1.144.141-1.717.2a7.3,7.3,0,0,0-.776.113c-.248.075-.5.15-.742.227C.122.185.009.265.236.213-.939.848-.618,2.175.569,2.624" transform="translate(0.5 2.304)"/></g><g transform="translate(330.912 71.058)"><path class="z" d="M2.57,4.276,5.926,1.959C7.031,1.2,8.077.372,9.132-.457A1.509,1.509,0,0,0,9.7-1.82a2.132,2.132,0,0,0-.939-1.341,3.5,3.5,0,0,0-1.942-.592A3.241,3.241,0,0,0,5.1-3.225C3.932-2.494,2.773-1.771,1.652-.971Q0,.207-1.646,1.382a1.558,1.558,0,0,0-.6,1.427,2.217,2.217,0,0,0,.982,1.4,3.474,3.474,0,0,0,3.831.066" transform="translate(2.256 3.754)"/></g><g transform="translate(348.495 61.699)"><path class="z" d="M.141.744Q.08,2.32.017,3.9c-.047,1.2-.141,2.391-.141,3.6A2.323,2.323,0,0,0,.922,8.985a3.892,3.892,0,0,0,2.156.661,2.988,2.988,0,0,0,1.914-.59l.394-.43a1.546,1.546,0,0,0,.24-1.089c0-1.044-.086-2.077-.126-3.118S5.418,2.342,5.377,1.3A2.117,2.117,0,0,0,4.423-.062,3.62,3.62,0,0,0,2.808-.627,2.967,2.967,0,0,0,1.2-.421C.755-.2.163.205.141.744" transform="translate(0.124 0.654)"/></g></g><g transform="translate(60.628 35.04)"><text class="aa" transform="translate(0 33)"><tspan x="0" y="0">INA</tspan></text><text class="aa" transform="translate(53.224 33)"><tspan x="0" y="0">UGURA</tspan></text><text class="aa" transform="translate(162.224 33)"><tspan x="0" y="0">TION</tspan></text></g></g></svg>