<svg xmlns="http://www.w3.org/2000/svg" width="1924" height="2714.98" viewBox="0 0 1924 2714.98"><defs><style>.a{fill:rgba(156,212,214,0.17);}</style></defs><path class="a" d="M15439.965,13514.458h-1924V10822.729c22.356,3.314,83.74,11.85,170.694,19.457,48.47,4.241,97.952,7.589,147.074,9.95,59.152,2.844,118.45,4.286,176.246,4.286,161.344,0,313.514-11.083,452.283-32.942,26.835-4.228,54.7-7.948,82.819-11.061,26.973-2.984,54.913-5.487,83.045-7.438,26.92-1.866,54.719-3.276,82.627-4.189,26.633-.871,54.075-1.313,81.563-1.313,36.205,0,73.584.767,111.1,2.278,34.7,1.4,70.367,3.471,106,6.157,62.267,4.694,126.087,11.377,189.69,19.864,113.553,15.153,199.644,32.417,240.854,41.358v2645.321Z" transform="translate(-13515.965 -10799.478)"/></svg>